<svg xmlns="http://www.w3.org/2000/svg" viewBox="0 0 1200 1100"><defs><style>.cls-1{isolation:isolate;}.cls-2{fill:#e8547e;}.cls-3{mix-blend-mode:multiply;}.cls-4{fill:#ffc871;}.cls-5{fill:#375157;}</style></defs><g class="cls-1"><g id="Logo"><path class="cls-2" d="M601,755.16c-110.95,0-207-15.65-253.42-38.45H334.41V999.27h0c0,38.94,119.36,70.5,266.59,70.5s266.6-31.56,266.6-70.5V716.71H854.43C808,739.51,712,755.16,601,755.16Z"/><g class="cls-3"><path class="cls-2" d="M870.21,897.39c14.28-4.39,71-22,77.2-28.27,7.11-7.11,10.28-26.09,17.39-68.79s-24.48-66-24.48-66L995,747.2c29.63,30.38,3.34,115.3-8.42,140.9-13.45,29.25-114.45,53.76-114.45,53.76Z"/></g><path class="cls-4" d="M931.59,706.24c-24,0-53.49,12.38-62.14,16.25l2.64,34.74s52.77-33.63,106.54-19.38A34.78,34.78,0,0,1,995,747.2l1.79,2S960.06,706.24,931.59,706.24Z"/><ellipse class="cls-4" cx="601" cy="685.74" rx="283.1" ry="69.42"/><path class="cls-5" d="M850.1,671.15c-3,.5-4,4.28-3,6.8a15.57,15.57,0,0,1,.61,1.64c0,.07,0,.13,0,.19,0,.28-.07.56-.08.83a.88.88,0,0,1,0,.21l.13-.37c-.06.16-.11.33-.16.51s-.17.51-.12.34l0,.09c-.22.48-.44.94-.67,1.4.1-.26-.71,1.05-1,1.44a24.41,24.41,0,0,1-1.69,1.83c-.32.31-.66.6-1,.9l-.21.2-.13.1c-1,.79-2.09,1.53-3.17,2.24V668.31c0-3.08-5.43-5.61-5.43-1.62v25.95c-2.67,1.41-5.4,2.66-8.17,3.79v-34c0-3.09-5.43-5.61-5.43-1.63V698.5q-3.93,1.38-7.94,2.56V659c0-3.09-5.43-5.61-5.43-1.62v45.26l-3.15.86A444,444,0,0,1,760,712.71C717.3,700.45,661.75,693,601,693c-61.07,0-116.88,7.49-159.63,19.87-11.44-1.82-22.82-4-34.09-6.53-13.12-3-25.89-6.37-38.17-12-2.27-1-4.48-2.17-6.65-3.4l-.18-.1-.33-.22-1.19-.77c-.89-.6-1.77-1.22-2.61-1.88-.43-.35-2-1.9-1.59-1.39-.43-.45-.86-.9-1.27-1.37l-.32-.43c.23.34.2.42-.08-.1a3.92,3.92,0,0,0-.25-.32h0c.09.11.17.21.23.3a.81.81,0,0,1-.06-.13c-.12-.21-.24-.46-.37-.67s-.08-.36-.13-.54a5.16,5.16,0,0,0-.08-.66c0-.1.06-.23.1-.42a8.54,8.54,0,0,1,.81-2.08c2.6-5.46-6.44-14-9.65-7.29-5,10.53,2.21,20.54,10.7,26.36,10.32,7.1,22.58,11.11,34.5,14.58,38.78,11.31,79.82,15.59,120,18.56a1261.84,1261.84,0,0,0,161.18,1.41c43-2.33,86.65-6.31,128.65-16.43,13.39-3.23,27-7,39.38-13.26,7.24-3.66,15.66-8.92,17.84-17.3a16.54,16.54,0,0,0-.81-10.43C855.8,673.72,853.4,670.6,850.1,671.15Zm-2.31,8.65c.38,1.39,0,.77,0,0Z"/><path class="cls-5" d="M847.67,680.82l-.15.48a2.3,2.3,0,0,0,.12-.34Z"/><path class="cls-5" d="M355,684.82a1.13,1.13,0,0,0-.1-.13l0,0Z"/><path class="cls-5" d="M362.42,756.53c0-6-11.78-10.16-11.78-2.74V961.1c0,9.52-.48,19.19,0,28.71,0,.14,0,.28,0,.42,0,6,11.78,10.16,11.78,2.74V785.66c0-9.52.48-19.19,0-28.71C362.41,756.81,362.42,756.67,362.42,756.53Z"/><path class="cls-5" d="M371.91,797.3v209c0,5.15,9.43,3.75,9.43-.85v-209C381.34,791.3,371.91,792.7,371.91,797.3Z"/><path class="cls-5" d="M392.37,931v88.74c0,3.43,6.29,2.5,6.29-.57V930.4C398.66,927,392.37,927.9,392.37,931Z"/><path class="cls-5" d="M423.3,500.05c-32.35,23.26-59.12,53.8-76.89,89.49q-3.11,6.24-5.79,12.67c-2.12,5,.22,12,4.55,15.2s9.37,1.42,11.4-3.41q2.7-6.42,5.79-12.66c.25-.51.51-1,.76-1.51.05-.11.26-.5.41-.8l.41-.78c.27-.5.53-1,.8-1.49q1.72-3.16,3.54-6.27A224.36,224.36,0,0,1,384,567.22q4.19-5.44,8.7-10.63c1.51-1.74,3.05-3.45,4.6-5.14l2.37-2.53.5-.53,1.21-1.24a249.18,249.18,0,0,1,21.11-19.06A260.69,260.69,0,0,1,446.38,511q6.3-4,12.8-7.65,3-1.66,6-3.26c2.84-1.5,3.23-1.7,6.13-3.11A288.55,288.55,0,0,1,529,476.2,301,301,0,0,1,656.08,473c2.54.48,5.07,1,7.59,1.52s3.68.82,6.64,1.55q7.4,1.81,14.69,4a290.15,290.15,0,0,1,29.06,10.51q7,3,13.84,6.31,3.3,1.6,6.54,3.3l2.82,1.49,1.6.87,1.49.82a265.58,265.58,0,0,1,24.2,15.43,258,258,0,0,1,22.68,18.26l2.55,2.35c.32.31.65.61,1,.92,1.89,1.81,3.74,3.64,5.56,5.51q4.83,4.95,9.37,10.17t9,11q2.08,2.71,4.08,5.49c.67.92,1.32,1.85,2,2.78.31.45.61.9.92,1.34l.14.2a232.69,232.69,0,0,1,14,24.19q3,6,5.6,12.29c1.85,4.4,7.95,7.64,12.17,4.54,4.79-3.53,3.61-10.29,1.67-14.91-15.41-36.7-41-68.65-71.81-93.59-32.25-26.07-70.73-44.52-111-54.38a317.49,317.49,0,0,0-134.37-3.62C497,459.1,457.27,475.61,423.3,500.05Z"/><path class="cls-5" d="M273.37,577.46l-52.61-16-83.49-25.33-19.2-5.82c-4.65-1.41-10.23-.41-11,5.27-.7,5.2,3.71,11.5,8.69,13l52.62,16,83.49,25.33,19.2,5.82c4.64,1.41,10.23.41,11-5.27C282.77,585.27,278.35,579,273.37,577.46Z"/><path class="cls-5" d="M113.21,438.47c.79-5.92-3.93-10.6-8.7-13L52.14,398.92l-7.52-3.81c-4.45-2.26-10.31.2-11,5.27-.8,5.91,3.92,10.59,8.69,13l52.37,26.54,7.52,3.81C106.66,446,112.52,443.54,113.21,438.47Z"/><path class="cls-5" d="M336.17,551.46c.8-5.92-3.92-10.59-8.69-13l-62.64-31.74L165,456.11,142.09,444.5c-4.45-2.25-10.31.2-11,5.27-.8,5.92,3.93,10.6,8.7,13l62.63,31.74,99.84,50.6,22.91,11.61C329.63,559,335.49,556.53,336.17,551.46Z"/><path class="cls-5" d="M61.54,293.25l32.63,24.47L146,356.56l12,9c3.8,2.86,10.56,3.09,12.86-1.75,2.5-5.25-1.58-10.93-5.57-13.93l-32.63-24.47L80.87,286.59q-6-4.5-12-9c-3.8-2.86-10.57-3.09-12.86,1.75C53.47,284.57,57.55,290.25,61.54,293.25Z"/><path class="cls-5" d="M211.6,405.81l42.27,31.7,67.64,50.75L337,499.84c3.81,2.86,10.57,3.09,12.87-1.75,2.49-5.25-1.58-10.93-5.58-13.92L302,452.46l-67.65-50.74-15.45-11.59c-3.81-2.86-10.57-3.09-12.87,1.75C203.53,397.13,207.61,402.81,211.6,405.81Z"/><path class="cls-5" d="M233.44,307.92l40.95,43.72,49.3,52.63L366.51,450c6.92,7.39,13.66,15,20.8,22.21l.29.3c3.26,3.49,10,5.88,13.88,2,4-4,1.28-10.44-2-13.89l-17-18.21-41-43.72-49.3-52.64L249.4,300.35c-6.92-7.39-13.66-15-20.8-22.21l-.29-.31c-3.26-3.48-10-5.87-13.88-2-4,4-1.28,10.44,2,13.89Z"/><path class="cls-5" d="M258.06,179.19l34,52.11q20.64,31.63,41.29,63.28l35.55,54.47c5.77,8.84,11.35,17.85,17.32,26.55.09.13.17.26.25.39,2.74,4.19,8.86,8,13.91,5.63s4.38-8.91,1.8-12.86L388,347l-34-52.11-41.29-63.29-35.55-54.47c-5.77-8.84-11.34-17.84-17.32-26.55-.09-.12-.17-.26-.25-.39-2.74-4.19-8.86-8-13.91-5.63s-4.38,8.91-1.8,12.86Q250.94,168.27,258.06,179.19Z"/><path class="cls-5" d="M449.57,457c5.07-2.39,4.38-8.91,1.8-12.86Q442.13,430,432.9,415.81c-2.74-4.19-8.86-8-13.91-5.63s-4.38,8.91-1.8,12.86l18.47,28.32C438.4,455.55,444.52,459.36,449.57,457Z"/><path class="cls-5" d="M380.75,197.7l5.16,12.09c2.1,4.9,7.31,9.49,13,8.75,5.34-.7,7.27-6.41,5.31-11l-36.82-86.23q-2.6-6-5.17-12.1c-2.09-4.89-7.31-9.49-13-8.74-5.34.69-7.27,6.4-5.32,11Z"/><path class="cls-5" d="M432.76,319.49l38.9,91.07,9,21c2.09,4.89,7.31,9.49,13,8.75,5.34-.7,7.27-6.41,5.32-11q-12.18-28.55-24.38-57.08l-38.89-91.08-9-21c-2.09-4.9-7.3-9.49-13-8.75-5.34.7-7.27,6.41-5.31,11Q420.57,290.94,432.76,319.49Z"/><path class="cls-5" d="M447.9,79.34c1.26,5.43,5.38,10.45,11.19,11.25,4.82.66,9.66-3.16,8.44-8.4q-5.22-22.35-10.43-44.7c-1.26-5.42-5.38-10.44-11.19-11.24-4.82-.66-9.66,3.16-8.44,8.4Q442.69,57,447.9,79.34Z"/><path class="cls-5" d="M461.28,136.75q3.15,13.49,6.29,27l15,64.4L500.74,306q7.85,33.68,15.7,67.34c2.55,10.94,5,21.9,7.66,32.83,0,.16.07.32.11.49,1.27,5.42,5.39,10.44,11.2,11.24,4.82.66,9.65-3.16,8.43-8.4q-3.14-13.48-6.29-27-7.5-32.19-15-64.39-9.07-38.94-18.16-77.86-7.85-33.67-15.7-67.34c-2.55-10.94-5-21.9-7.65-32.83l-.12-.48c-1.26-5.43-5.38-10.45-11.19-11.25C464.9,127.69,460.06,131.51,461.28,136.75Z"/><path class="cls-5" d="M557.51,108.57,563,209.49l1.26,23.12c.3,5.42,6.05,10.54,11.2,11.24,5.56.76,8.72-3.2,8.43-8.4q-1.74-31.8-3.47-63.6-2.76-50.46-5.51-100.91l-1.26-23.12c-.3-5.42-6-10.54-11.2-11.25-5.56-.76-8.72,3.21-8.43,8.4Q555.77,76.77,557.51,108.57Z"/><path class="cls-5" d="M568.75,314.46q2,35.91,3.92,71.82c.19,3.39.37,6.79.56,10.18.3,5.42,6,10.54,11.2,11.24,5.56.76,8.71-3.2,8.43-8.4l-3.92-71.82-.56-10.18c-.29-5.42-6-10.54-11.2-11.24C571.62,305.3,568.47,309.26,568.75,314.46Z"/><path class="cls-5" d="M631.57,425c5.67.53,8.84-5.7,9.41-10.39q2.24-18.22,4.46-36.45l10.7-87.5L669,185.15q5.58-45.59,11.15-91.17c1.81-14.78,4-29.56,5.43-44.38,0-.22,0-.43.08-.64.58-4.74-1.89-11.45-7.34-12-5.68-.53-8.84,5.69-9.42,10.39q-2.22,18.23-4.46,36.45-5.34,43.76-10.7,87.5l-12.9,105.47Q635.31,322.4,629.73,368c-1.8,14.78-4,29.56-5.43,44.38,0,.21,0,.43-.07.64C623.65,417.75,626.11,424.45,631.57,425Z"/><path class="cls-5" d="M701.84,345.41c5.08,2.37,9.66-2.34,11-6.85l6.66-21.93q8-26.36,16-52.7,9.71-31.89,19.39-63.78,8.41-27.72,16.84-55.43c2.71-8.92,5.65-17.8,8.14-26.79l.12-.37c1.45-4.8.48-11.93-4.58-14.29s-9.66,2.33-11,6.84q-3.33,11-6.67,21.94-8,26.35-16,52.7l-19.38,63.78L705.52,304c-2.71,8.92-5.64,17.8-8.14,26.79,0,.12-.07.25-.11.37C695.81,335.92,696.78,343.05,701.84,345.41Z"/><path class="cls-5" d="M672.14,413.8c-1.45,4.8-.49,11.93,4.58,14.29s9.66-2.34,11-6.85l14.52-47.79c.69-2.25,1.37-4.51,2.06-6.77,1.46-4.79.49-11.92-4.57-14.28s-9.67,2.33-11,6.84L674.2,407C673.51,409.29,672.83,411.55,672.14,413.8Z"/><path class="cls-5" d="M872.16,165.82l22.71-44.75c2.41-4.75,2.62-11.68-1.59-15.57-3.94-3.64-9.58-1.49-11.83,3L858.74,153.2c-2.41,4.75-2.62,11.68,1.58,15.57C864.27,172.41,869.91,170.26,872.16,165.82Z"/><path class="cls-5" d="M742.47,382.34c-4.31,8.5-8.77,16.94-12.94,25.51l-.19.37c-2.41,4.75-2.62,11.68,1.58,15.57,4,3.64,9.59,1.49,11.84-3l10.66-21q12.72-25.06,25.43-50.13l30.76-60.62,26.73-52.67c4.31-8.5,8.78-16.94,12.94-25.51.07-.13.13-.25.19-.38,2.41-4.75,2.62-11.68-1.58-15.56-3.95-3.65-9.59-1.49-11.84,2.94l-10.65,21L800,269,769.2,329.67Z"/><path class="cls-5" d="M844.53,342.65c-5.93,7.91-11.92,15.78-17.81,23.72-.08.12-.17.23-.26.35-3.35,4.45-4.58,10.81-1.47,15.8,2.57,4.11,8.62,5.41,11.85,1.1l14.54-19.36,34.92-46.51,42.47-56.55,36.56-48.69c5.94-7.91,11.93-15.78,17.81-23.72.09-.12.18-.23.26-.35,3.35-4.46,4.59-10.81,1.47-15.8-2.57-4.11-8.61-5.41-11.85-1.1L958.49,190.9Q941,214.15,923.56,237.41L881.09,294Z"/><path class="cls-5" d="M788.23,417.63l-27.67,36.86c-3.35,4.45-4.59,10.81-1.47,15.8,2.57,4.11,8.61,5.4,11.85,1.1l27.67-36.86c3.35-4.45,4.58-10.81,1.47-15.8C797.51,414.62,791.46,413.32,788.23,417.63Z"/><path class="cls-5" d="M1018.66,305.86l46.06-43.09q3.21-3,6.44-6c4-3.71,4.23-11.38,1.47-15.8-3-4.75-8.05-4.66-11.85-1.1l-46,43.09-6.45,6c-4,3.71-4.23,11.38-1.47,15.8C1009.78,309.51,1014.86,309.41,1018.66,305.86Z"/><path class="cls-5" d="M941.19,378.35,957.55,363c4-3.71,4.23-11.39,1.47-15.8-3-4.75-8-4.66-11.85-1.11L902.53,387.9,831.89,454l-16.36,15.31c-4,3.71-4.23,11.38-1.47,15.8,3,4.75,8.05,4.66,11.85,1.1l44.64-41.77Z"/><path class="cls-5" d="M867.13,498.39c-9.91,6.46-20.08,12.65-29.79,19.42l-.42.27c-4.56,3-6.32,10-4.42,15,1.71,4.52,6.33,8.18,11.09,5.07l24.4-15.9,58.6-38.2,70.94-46.24,61.56-40.12c9.91-6.47,20.08-12.66,29.79-19.42l.42-.28c4.56-3,6.32-10,4.43-15-1.72-4.52-6.33-8.18-11.09-5.08l-24.4,15.91L999.63,412,928.7,458.26Z"/><path class="cls-5" d="M1143.71,454.54c-.59-4-4.25-11-9.58-8.76l-61.94,26.42-98.59,42-22.46,9.58A12.31,12.31,0,0,0,944,537c.59,4,4.25,11,9.58,8.77l61.93-26.42,98.6-42.05,22.46-9.58A12.3,12.3,0,0,0,1143.71,454.54Z"/><path class="cls-5" d="M921.61,536.42l-42.7,18.21a12.31,12.31,0,0,0-7.13,13.19c.59,4,4.25,11,9.58,8.77l42.7-18.21a12.31,12.31,0,0,0,7.13-13.2C930.6,541.22,926.94,534.14,921.61,536.42Z"/><path class="cls-5" d="M327.54,685.74l-.1.23c-.07.27-.18.57-.2.75s0,.34-.06.55A1.84,1.84,0,0,0,327.54,685.74Z"/><path class="cls-5" d="M329.12,682.43c-.07.11-.13.23-.2.35.06-.11.14-.23.21-.37Z"/><path class="cls-5" d="M858.43,1003c-.35.75-.23.56,0,0Z"/><path class="cls-5" d="M996.79,735.56a185.08,185.08,0,0,0-24.57-21.14c-9.36-6.66-19.79-12.94-31.14-15.45-14.37-3.16-29.33-.17-43.33,3.49-3.35.87-6.69,1.85-10,2.89a29.1,29.1,0,0,0,4.11-8.39c8.46-28.64-23.77-47.23-45.58-56.29-17.91-7.44-36.82-12.57-55.71-16.79a683.7,683.7,0,0,0-72.11-11.73c-58.69-6.64-118.14-7.91-177.11-5-50.25,2.49-101.09,7.77-149.88,20.48-17.27,4.5-34.65,9.92-50.64,18-10.91,5.49-22,12.65-28.25,23.43a30,30,0,0,0-3.78,15.31c.11,12.1,8.5,22.62,17.51,29.93a12.22,12.22,0,0,0-.51,3.31V965.42c0,11.41-.14,22.83,0,34.24,0,.16,0,.32,0,.49s0,.24,0,.37c.48,26.13,28.2,39.7,49.19,48.18,37.17,15,77.94,21.67,117.57,26.19a967,967,0,0,0,160.33,4.56c45.82-2.42,92.06-7.61,136.5-19.4,16.4-4.35,32.76-9.4,48-16.89,11.12-5.45,22.38-12.26,30.16-22.13a38.17,38.17,0,0,0,8.59-23.33c0-4.22,0-8.45,0-12.67V949.5a482.71,482.71,0,0,0,57.7-18.19c14.61-5.62,29.38-11.79,42.42-20.57,6-4,11.7-8.42,16.29-14.12,3.28-4.07,5.29-9,7.22-13.79a286.65,286.65,0,0,0,11.75-36.75c3.92-15.57,7-31.49,7.79-47.56.71-14.14,0-29.54-5.81-42.66A46.42,46.42,0,0,0,996.79,735.56ZM790.37,1038c-1.24.34-.38.1,0,0Zm68.68-36.31h0l0-.06Zm-.09-.24a.09.09,0,0,0,0,0c-.16.56-.37,1.11-.52,1.49.1-.22.25-.54.45-1v0c-.32.7-.6,1.41-1,2.1-.12.22-.25.44-.38.66-.59.82-1.18,1.62-1.83,2.4-.34.41-.71.81-1.06,1.22l-.19.21c-1.76,1.62-3.52,3.19-5.42,4.64-1.06.8-2.14,1.58-3.23,2.32-.57.39-1.15.77-1.73,1.15a11,11,0,0,0-1,.74,57.81,57.81,0,0,1-7.95,4.24,192.23,192.23,0,0,1-20.12,8.52c-8,2.91-16.16,5.4-24.37,7.66l-.23.06-1.58.42-3.29.84c-2.53.64-5.07,1.25-7.61,1.85q-7.27,1.7-14.62,3.18c-22.11,4.47-44.49,7.61-66.93,9.86a961.93,961.93,0,0,1-157.12,2.66c-43.78-2.77-88.05-8.31-130.34-20.29-8.15-2.31-16.23-4.9-24.15-7.91q-5.21-2-10.28-4.22l-.39-.17-.16-.08c-.74-.36-1.5-.7-2.25-1.07-1.61-.78-3.22-1.59-4.8-2.44a90.79,90.79,0,0,1-14.54-9.41c-.91-.74-1.76-1.52-2.65-2.29h0c-.48-.5-1-1-1.44-1.52a44.05,44.05,0,0,1-3.69-4.83c-.16-.33-.33-.65-.48-1-.3-.67-.54-1.36-.79-2-.06-.29-.13-.58-.18-.88s-.07-.5-.09-.75V750.56c0-8.5.07-17,.06-25.52a188.61,188.61,0,0,0,24.24,10.19c43.45,15.28,90,21.91,135.69,26.09A1114.1,1114.1,0,0,0,682.07,763c47.83-3.34,96.47-9.19,142.5-23.14C836.2,736.37,848,732.39,859,727V972.14C859,981.84,859.62,991.76,859,1001.45Zm15.81-316.69c0,.06,0,.15,0,.25-.08.28-.17.56-.22.69a23.57,23.57,0,0,1-1.12,2.52c-.15.28-.44.66-.62,1l-.06.09a36.77,36.77,0,0,1-4.48,5.17c-.8.77-1.68,1.46-2.48,2.23l-.31.24c-.61.47-1.22.92-1.84,1.37a88.05,88.05,0,0,1-7.56,4.84,149.83,149.83,0,0,1-19.25,9.12c-1.86.74-3.74,1.46-5.62,2.15-1,.36-1.95.71-2.93,1l-.42.15-1.46.5c-4.26,1.43-8.55,2.75-12.87,4-9.74,2.81-19.61,5.21-29.52,7.34a700.25,700.25,0,0,1-69.93,11,1069.82,1069.82,0,0,1-169.79,4.78c-49.11-2.41-98.68-7.53-146.47-19.49q-7-1.75-14-3.77c-.41-.11-2-.59-2-.6l-2.89-.89q-3.14-1-6.24-2a206.65,206.65,0,0,1-21.85-8.71q-4.68-2.22-9.17-4.78l-.21-.13c-.56-.36-1.13-.71-1.69-1.08q-1.92-1.23-3.75-2.58c-1-.75-2-1.54-3-2.35l-1.26-1.09c-.75-.77-1.49-1.54-2.19-2.36-.3-.36-.59-.73-.88-1.1-.37-.63-.74-1.27-1.1-1.91a2.49,2.49,0,0,1-.11-.29c-.08-.24-.15-.49-.21-.74s-.07-.64-.1-1,.06-.78.09-1.15c-.13.11-.2,0,0-.44.1-.24.15-.5.25-.75l0-.11a.94.94,0,0,0,.05-.45,1.42,1.42,0,0,1,.05.22,25.21,25.21,0,0,1,1-2.33c.11-.21.24-.42.37-.63-.31.47-.5.58.2-.35l.16-.34-.15.32.08-.1a42.85,42.85,0,0,1,4.43-5.17c.83-.81,1.71-1.55,2.56-2.32l.2-.16c.67-.5,1.34-1,2-1.51a104.78,104.78,0,0,1,16.51-9.49c3.38-1.6,6.82-3.08,10.29-4.46,1.87-.75,3.74-1.46,5.63-2.16l2.6-.94.52-.18,1.34-.46C417.75,641.17,463.08,635,507.52,631a1088.41,1088.41,0,0,1,171.1-1.6c46.74,3.22,94.09,8.9,139.22,21.92.54.15,3.85,1.16,1.71.5l2.89.88c2.32.73,4.64,1.48,6.95,2.27,3.88,1.32,7.74,2.72,11.56,4.24a161.86,161.86,0,0,1,19.24,9.12l.11.06.1.06c.63.41,1.28.8,1.91,1.21,1.21.78,2.4,1.6,3.56,2.45s2.16,1.62,3.19,2.48c.41.34.8.69,1.2,1,.77.79,1.54,1.57,2.25,2.42.29.34.57.69.85,1,.37.62.74,1.24,1.1,1.88.07.17.14.35.2.52s.1.37.15.55c0,.4.05.91.08,1.33S874.8,684.49,874.77,684.76Zm122.4,98.53c.12,1.41.2,2.82.26,4.23l-22.65-9q-.25-2.21-.66-4.38Zm-1.27-8.72c.17.82.32,1.64.47,2.47l-23.72-9.43c-.39-1.42-.82-2.84-1.3-4.24L995.54,773C995.67,773.51,995.79,774,995.9,774.57Zm-2.5-8.93c.08.22.15.44.22.65l-25-9.95c-.53-1.19-1.1-2.38-1.7-3.56l25.38,10.09C992.67,763.78,993.06,764.7,993.4,765.64Zm-27.83-21.28c1.44.23,2.88.5,4.31.8a28,28,0,0,1,3.43.82,39.2,39.2,0,0,1,4.08,1.39c.69.28,1.36.6,2,.9l.11.05.35.23c1.13.7,2.24,1.41,3.3,2.21q.82.65,1.62,1.32l.51.47c.72.81,1.42,1.62,2.1,2.45l-25-9.94c-.28-.43-.57-.86-.87-1.28C962.89,743.94,964.23,744.14,965.57,744.36ZM876.2,730.05a228.66,228.66,0,0,1,26.44-9.83q2.13-.65,4.26-1.23l1.89-.52,1.43-.35c3.31-.79,6.65-1.48,10-2s6.64-1,10-1.16l1.31-.07h.75a39.08,39.08,0,0,1,3.9.26l.35,0,.34.09c1,.28,2,.51,3,.81.53.16,1.28.54,2,.83-.16-.14,0-.22.6.05l.59.26.17,0h-.14c.58.25,1.17.51,1.74.78,2.18,1,4.31,2.16,6.39,3.37,1.1.64,2.18,1.33,3.27,2l-.35-.24.4.27c.29.18.83.56.77.52l.78.53c.68.48,1.36,1,2,1.45-28.16-1.3-57,6.2-81.93,19.19Zm50.49,15.1ZM876.2,839.86V764.73a9.84,9.84,0,0,0,1.07-.58c2.26-1.44,4.63-2.71,7-4,2.63-1.38,5.3-2.68,8-3.92,1.64-.75,3.3-1.47,5-2.18l.16-.07.1,0c1.2-.46,2.39-.94,3.59-1.39,4.19-1.58,8.45-3,12.75-4.26,2.33-.68,4.68-1.3,7-1.88l3.2-.74,1.86-.39.65-.13q5.46-1,11-1.54l1.29,1.32,1.2,1.29.31.33.14.18c1,1.25,2,2.51,3,3.81a73.41,73.41,0,0,1,5.85,9.34q1.39,2.67,2.56,5.44l.06.16,0,.08c.17.47.35.94.52,1.42.43,1.21.82,2.43,1.19,3.66A68,68,0,0,1,956.26,785c.8,11.43-2.37,24.13-4.37,35.73-1.64,9.55-3.28,19.13-5.56,28.56-.38,1.56-.78,3.13-1.22,4.68-.19.69-.4,1.37-.6,2.06-.12.35-.23.7-.36,1a45.79,45.79,0,0,1-3,6.63.25.25,0,0,0,0,.07c-.14.17-.28.34-.41.52a.19.19,0,0,1,.15,0s0,.06,0,0-.15.23-.58.48l-.15.09-.22.21-.18.09s0,0,0-.07l-.29.2c-1.15.57-2.31,1.13-3.48,1.66-6.72,3-13.67,5.53-20.61,8-9.32,3.31-18.7,6.42-28.11,9.45q-5.55,1.78-11.1,3.53Zm63.61,25.46a.31.31,0,0,0-.09.17.68.68,0,0,1,0-.14Zm52.25-28c-.09.4-.19.81-.28,1.22l-.63,2.64q-.67,2.76-1.4,5.51-1.31,5-2.78,9.91c-1.74,5.84-3.64,11.64-5.74,17.36-1.61,4.39-3.41,8.67-5.26,13-.23.36-.44.75-.67,1.09-.69,1-1.48,1.9-2.24,2.84L971.91,892c-1.07,1-2.19,2-3.34,2.87s-2.34,1.78-3.53,2.64l-.07,0c-.66.42-1.32.87-2,1.29-2.84,1.79-5.75,3.44-8.71,5-3.25,1.73-6.56,3.35-9.91,4.9q-2.36,1.08-4.73,2.12c-.85.38-1.71.75-2.56,1.11l-1.6.67-1.8.74-2.62,1q-2.79,1.08-5.59,2.13-5.18,1.94-10.42,3.75-9.64,3.33-19.43,6.28c-6.44,2-12.91,3.76-19.41,5.5V903c13.84-4.28,27.65-8.69,41.34-13.42,7.85-2.71,15.71-5.49,23.37-8.71,5.28-2.23,11.2-4.58,15-9,4-4.72,6-10.64,7.76-16.49a240.51,240.51,0,0,0,5.63-25.88q1.37-7.57,2.63-15.17l22.85,9.08C994,828.07,993.07,832.73,992.06,837.35Zm3.59-19.54-22.77-9c.74-4.3,1.53-8.6,2-12.94l22.22,8.84Q996.61,811.26,995.65,817.81Zm1.78-18.95-22.15-8.81c.05-1.82.05-3.62,0-5.42l22.29,8.86Q997.54,796.18,997.43,798.86Z"/><path class="cls-5" d="M954.55,723.4h0l0,0,.82.55Z"/><path class="cls-5" d="M943.07,717.2a4.37,4.37,0,0,1-1.19-.31,2.11,2.11,0,0,0,1.22.33Z"/><path class="cls-5" d="M939.79,865.18l.38-.23a2.59,2.59,0,0,0,.37-.35l.19-.26A1.46,1.46,0,0,0,939.79,865.18Z"/><path class="cls-5" d="M880.27,905.64V924.8c0,3.15,6.38,2.65,6.38-.58V905.06C886.65,901.9,880.27,902.41,880.27,905.64Z"/><path class="cls-5" d="M890.44,902.4v19.16c0,3.15,6.39,2.65,6.39-.58V901.82C896.83,898.66,890.44,899.17,890.44,902.4Z"/><path class="cls-5" d="M901.46,899.19v19.16c0,3.16,6.38,2.65,6.38-.57V898.62C907.84,895.46,901.46,896,901.46,899.19Z"/></g></g></svg>