<svg id="Layer_1" data-name="Layer 1" xmlns="http://www.w3.org/2000/svg" viewBox="0 0 320 320"><defs><style>.cls-1{fill:#ff00d8;}.cls-2{fill:#f9f6e8;}</style></defs><polygon class="cls-1" points="255.65 219.59 274.73 271.18 222.64 253.51 219.08 308.4 178.68 271.07 153.11 319.77 131.38 269.24 88.21 303.32 88.92 248.32 35.61 261.9 58.63 211.94 4.41 202.67 45.76 166.39 0 135.87 52.53 119.54 23.14 73.05 77.77 79.5 69.83 25.07 117.11 53.18 132 0.23 163.76 45.14 198.9 2.82 209.65 56.77 258.96 32.4 246.83 86.06 301.8 83.86 268.89 127.94 320 148.28 272.01 175.17 310.43 214.54 255.65 219.59"/><path class="cls-2" d="M108.88,152.92c-1.21-.74-1.94-1.22-2.15-2-.59-2.18,3.94-4,7.25-4.89s8.14-1.6,8.72.59c.22.81-.17,1.59-.84,2.84-1.29,2.42-1.62,3.18-.93,5.74l8.41,31.21c.53,2-.84,3.84-4.53,4.83-3.12.84-4.57.16-6.59-1.1l-25-15.83a.47.47,0,0,0-.67.52L96.09,188c.69,2.56,1.36,3,3.69,4.5,1.2.75,1.93,1.22,2.15,2,.59,2.19-3.94,4-7.25,4.9S86.54,201,86,198.8c-.22-.82.18-1.59.85-2.84,1.29-2.42,1.62-3.18.93-5.74l-6.56-24.35c-.69-2.56-1.35-3-3.69-4.49-1.2-.75-1.93-1.22-2.15-2s.13-3,6.63-4.73c4.3-1.16,6.21-.8,9.84,1.5l23.65,15a.46.46,0,0,0,.66-.51l-3.54-13.17C111.88,154.86,111.21,154.37,108.88,152.92Z"/><path class="cls-2" d="M150.08,167.4l1.8,6.68c.28,1.06.85,1.44,1.92,1.15l4.61-1.24c3.69-1,7-3.36,9.29-10,1-2.81,1.79-3.83,3.22-4.21,2.81-.76,3.88,2,4.21,10.18.23,5.83-.8,9.18-3,9.77-1.31.36-2.17-.62-4.29,0l-20.48,5.51c-7.55,2-11,2.16-11.53.16-.22-.81.17-1.59.84-2.84,1.29-2.42,1.62-3.18.93-5.74l-6.56-24.34c-.69-2.56-1.35-3.05-3.68-4.49-1.21-.75-1.94-1.23-2.16-2-.53-2,2.51-3.62,10.06-5.65l18.6-5c2.12-.57,2.38-1.85,3.69-2.2,2.19-.59,4.77,1.79,7.5,6.95,3.83,7.27,4.28,10.16,1.47,10.92-1.44.39-2.64-.09-4.9-2-5.32-4.59-9.37-5-13.06-4l-2.74.74a1.37,1.37,0,0,0-1.08,2L147,156c.29,1.06.86,1.44,1.92,1.16l1.43-.39c2.56-.69,3-1.42,4.48-3.75.75-1.21,1.22-1.94,2.16-2.19,1.93-.52,3.28,1.73,4.77,7.29s1.47,8.17-.47,8.69c-.94.25-1.71-.14-3-.81-2.42-1.29-3.2-1.68-5.76-1l-1.43.39C150.1,165.72,149.79,166.34,150.08,167.4Z"/><path class="cls-2" d="M237.47,115.75c.21.81-.14,1.5-1,3a10.63,10.63,0,0,0-2,5.9L233,158.06c-.11,2.57-1,4.34-6.58,5.85-4.94,1.33-8.24,1-9.71-1.47l-7.57-12.95a.49.49,0,0,0-.87.23L207.34,165c-.17,2.6-1,4.35-6.59,5.86-4.93,1.33-8.1,1-9.7-1.47l-18-28.21a10.74,10.74,0,0,0-4.72-4.09c-1.48-.8-2.13-1.23-2.36-2-.55-2.06,3.12-3.85,10.67-5.88s11.38-2.26,11.91-.27c.19.69,0,1.35-.84,2.58-1.54,2.48-1.17,3.12.32,5.67l11,18.13a.46.46,0,0,0,.82-.22l.84-20-.71-1.15a10.34,10.34,0,0,0-4.49-4c-1.71-.87-2.37-1.3-2.58-2.11-.56-2.06,3.11-3.85,10.66-5.89s11.38-2.26,11.91-.26c.19.69,0,1.35-.73,2.47-1.39,2.32-1.15,3.19.21,5.77l9.7,18.61a.43.43,0,0,0,.81-.22l.29-21.3c0-3-.35-4.26-1.85-5.12s-1.94-1.22-2.12-1.91c-.54-2,2.69-3.67,7.12-4.86S236.91,113.69,237.47,115.75Z"/></svg>