<svg id="Layer_1" data-name="Layer 1" xmlns="http://www.w3.org/2000/svg" viewBox="0 0 2400 2200"><defs><style>.cls-1{fill:#e8547e;}.cls-2{fill:#ffc871;}.cls-3{fill:#375157;}</style></defs><path class="cls-1" d="M1197,1204.34c-173.1,0-322.9-24.4-395.3-60H781.2V1585c0,60.7,186.2,110,415.8,110s415.8-49.2,415.8-110v-440.7h-20.5C1519.9,1179.94,1370.1,1204.34,1197,1204.34Z"/><path class="cls-1" d="M1811.4,1191.94l-85.2-20.1s49.3,36.4,38.2,102.9-16,96.2-27.1,107.3c-9.7,9.7-98.1,37.2-120.4,44.1l2.9,69.4s157.5-38.2,178.5-83.9c18.3-39.9,59.3-172.4,13.1-219.7Z"/><path class="cls-2" d="M1712.6,1128c-37.4,0-83.4,19.3-96.9,25.3l4.1,54.2s82.3-52.5,166.2-30.2a54.16,54.16,0,0,1,25.5,14.6l2.8,3.1C1814.2,1195,1757,1128,1712.6,1128Z"/><ellipse class="cls-2" cx="1197" cy="1096.04" rx="441.5" ry="108.3"/><path class="cls-3" d="M352,1893.64a48.13,48.13,0,0,0,2.2-22.6,26.3,26.3,0,0,0-24-22,36.51,36.51,0,0,0-17.6,1.8,127.17,127.17,0,0,0-18.4,9,25,25,0,0,0-7.6-5.2,12.91,12.91,0,0,0-6.4-.8,8.18,8.18,0,0,0-4.8,2,28,28,0,0,0-3.2,4l-62.8,76.8q-26.85,32.4-53.8,65.4a736.31,736.31,0,0,0-51,70.6c-1.3,2.1-2.7,4.3-4.2,6.4a25.48,25.48,0,0,0-3.4,6.8c-1.1,3.2-.3,6.7,2.4,10.4a14.83,14.83,0,0,0,8.6,5.8,17.48,17.48,0,0,0,10.6-.6,11.13,11.13,0,0,0,4.8-4.8,59.52,59.52,0,0,1,3.6-6q24.45-35.55,45.4-61.8t41-50.2a24.78,24.78,0,0,0,9.6,8.2,32.38,32.38,0,0,0,12.4,3.4,53.39,53.39,0,0,0,21.2-2.6,110.32,110.32,0,0,0,19.2-8.6,165.73,165.73,0,0,0,37.2-28.8,236.55,236.55,0,0,0,29.2-36.4,94.53,94.53,0,0,0,9.8-20.2ZM326.4,1881a25.11,25.11,0,0,1-2,5.6c-.9,1.9-1.5,3.2-1.8,4a84.2,84.2,0,0,1-7.2,11.4c-2.7,3.6-5.5,7.1-8.4,10.6-5.3,6.7-10.9,12.9-16.6,18.8a187.9,187.9,0,0,1-18.6,16.8,194.51,194.51,0,0,1-17.6,12.6c-6.4,4.1-12.3,6.2-17.6,6.2a4.49,4.49,0,0,1-4.4-2.6,10.19,10.19,0,0,1-.8-5.8q13.95-18,28.8-34.8a397.38,397.38,0,0,1,31.6-32c1.6-1.3,3.7-3.1,6.4-5.4s5.5-4.5,8.6-6.8a48.69,48.69,0,0,1,9-5.4c2.9-1.3,5.5-1.9,7.6-1.6a3.92,3.92,0,0,1,3.2,3.2,15.43,15.43,0,0,1-.2,5.2Z"/><path class="cls-3" d="M654.6,1909.44a13.22,13.22,0,0,0-6.8-3,9.52,9.52,0,0,0-7.6,2.2,60.16,60.16,0,0,0-4.6,4.2l-4.2,4.2c-11.5,10.9-21,20-28.6,27.2a145.87,145.87,0,0,1-23,18c-7.2,4.8-12.1,5.5-14.8,2.2s-4.5-9.1-5.6-17.4c14.4-12.3,26.7-22.7,36.8-31.4s18.5-15.9,25.2-21.6,11.9-10.3,15.8-13.6,6.9-5.9,9-7.6,3.5-2.9,4.2-3.6l1.8-1.8c1.3-1.1,2.6-2.1,3.8-3.2a7.14,7.14,0,0,0,2.2-4.4,18.24,18.24,0,0,0-2.8-9.8,19.28,19.28,0,0,0-7.2-7c-3.7-1.9-6.9-2-9.6-.4a27.75,27.75,0,0,0-5.2,3.8q-2.4,2.25-4.8,4.2c-3.7,2.9-7.5,6.1-11.4,9.4s-8.3,7.2-13.4,11.6-11,9.6-17.8,15.6-14.9,13.3-24.2,21.8c1.3-5.6,2.8-11.1,4.4-16.6s3.5-10.9,5.6-16.2c.8-2.1,1.5-4.1,2-5.8a7.21,7.21,0,0,0-1.2-5.8,19.2,19.2,0,0,0-9.6-8.8,36.87,36.87,0,0,0-7-1,9,9,0,0,0-6.2,1.8,14.54,14.54,0,0,0-1.6,1.8c-.5.7-1.3,1.7-2.2,3.2s-2.2,3.4-3.8,5.8-3.6,5.5-6,9.2c-4.5,5.9-9.2,11.5-14,17s-9.9,10.9-15.2,16.2a17.38,17.38,0,0,0-1.3,1.5l-.3.3c-1.9,2-3.6,3.8-5.2,5.4q-13.2,12.75-20.4,20.4c-4.8,5.1-9.1,9.3-12.8,12.8-2.9,2.9-5.8,5.7-8.6,8.2a46.67,46.67,0,0,1-9.8,6.6c-3.2,1.6-5.9,1.8-8,.6s-2.3-3.8-.4-7.8a126,126,0,0,1,15.6-26.6c6.4-8.4,12.9-16.5,19.6-24.2q22.05-25.2,37-41.8c10-11.1,19.3-21.1,27.8-30.2s17.1-17.9,25.8-26.6l30.6-30.6c1.3-1.3,2.9-2.7,4.6-4.2a10.41,10.41,0,0,0,3.4-5.4,11.22,11.22,0,0,0-1-7.2,25.19,25.19,0,0,0-4.8-7.2,15.74,15.74,0,0,0-7-4.4,8.62,8.62,0,0,0-7.6,1.2,28.06,28.06,0,0,0-5.6,4.6,51,51,0,0,1-4.8,4.6c-7.7,6.9-15.2,14.2-22.4,21.8s-14.4,15.3-21.6,23c-8.5,9.3-17.1,18.7-25.8,28s-17.3,18.7-25.8,28a26.37,26.37,0,0,0-10.8-8.6,33.45,33.45,0,0,0-13.6-3,65,65,0,0,0-19.8,3,103.92,103.92,0,0,0-18.2,7.8,165.73,165.73,0,0,0-37.2,28.8,225.82,225.82,0,0,0-29.2,36.8,100.06,100.06,0,0,0-10,20.2,42.13,42.13,0,0,0-2,22.2,28.72,28.72,0,0,0,13.2,18.8,31.43,31.43,0,0,0,16.2,3.6,49.55,49.55,0,0,0,16-3.6,80.52,80.52,0,0,0,15.4-8.4q7.65-5.25,14.4-10.8a24.19,24.19,0,0,0,7.2,15.6q8.4,8.4,24,7.2a38.3,38.3,0,0,0,11.8-2.8,58.72,58.72,0,0,0,11-6,107.34,107.34,0,0,0,10-7.8c3.2-2.8,6.3-5.5,9.2-8.2,5.3-5.3,10.7-10.8,16.2-16.4s11.4-11.6,17.8-18c1.6-1.9,3.2-3.6,4.8-5.2a8.47,8.47,0,0,0,1.4-1.9,2.65,2.65,0,0,1,.6-.5l4.8-4.8a154.65,154.65,0,0,0-1.2,19.2c-1.9,1.9-3.9,3.8-6,5.8s-4.7,4.5-7.8,7.4-6.7,6.5-11,10.6-9.6,9.3-16,15.4c-2.1,2.1-4.4,4.3-6.8,6.6a7.94,7.94,0,0,0-2.4,8.2,13.84,13.84,0,0,0,4.6,7.8,12.34,12.34,0,0,0,8.6,3.4,5.59,5.59,0,0,0,3.8-1.2c.9-.8,2.1-1.7,3.4-2.8,8.5-7.7,15.3-13.9,20.4-18.4s10-8.9,14.8-13.2a46.14,46.14,0,0,0,12.2,16.8q7.8,6.75,21,6a37.24,37.24,0,0,0,20.4-6.2,194.51,194.51,0,0,0,17.6-12.6c1.9-1.6,3.9-3.3,6.2-5.2s5-4.3,8.2-7.4,7.3-6.9,12.2-11.4,11-10.3,18.2-17.2a26.5,26.5,0,0,1,3.2-3.4,8.14,8.14,0,0,0,2.4-3.4,10.87,10.87,0,0,0,1-7.8,11.46,11.46,0,0,0-3.8-6.2Zm-242.4,25.8c-5.1,5.2-10,9.9-14.8,14.2a88.25,88.25,0,0,1-13.2,10,56.8,56.8,0,0,1-10.2,5.4c-3.1,1.2-5.5,1.5-7.2,1s-2.5-2.1-2.4-4.8,1.7-6.8,4.6-12.4a84.2,84.2,0,0,1,7.2-11.4c2.7-3.6,5.5-7.3,8.4-11,4.3-5.3,9.5-11.3,15.6-17.8a219.05,219.05,0,0,1,19.2-18.2,119,119,0,0,1,19.8-13.6c6.5-3.5,12.2-4.8,17-4a4.76,4.76,0,0,1,3.2,2.6c.8,1.5.9,3.5.4,6.2l-17.2,20.4c-4.8,5.6-9.8,11.3-15,17s-10.4,11.2-15.4,16.4Z"/><path class="cls-3" d="M1155.3,1854.44c5.5-6.5,10.3-12.3,14.6-17.4l92.8-8a51.72,51.72,0,0,1,8.2-.2c3.3.1,5.7-.9,7-3a18.43,18.43,0,0,0,2-5.8,33.36,33.36,0,0,0,.6-7.8,20,20,0,0,0-1.6-7.2,7.88,7.88,0,0,0-5-4.4,8.67,8.67,0,0,0-3.4-.2c-1.5.1-4.8.4-10,.8s-12.9,1.1-23,2.2-24.1,2.4-42,4c4.3-5.1,7.9-9.1,10.8-12.2s6.7-7,11.2-11.8a62,62,0,0,1,5-5.2c1.7-1.6,3.5-3.3,5.4-5.2a10.33,10.33,0,0,0,2.6-3.8,11.3,11.3,0,0,0,.2-5,14.08,14.08,0,0,0-1.4-5.8,18.26,18.26,0,0,0-3.8-5.4,16,16,0,0,0-5.4-3.6,10.11,10.11,0,0,0-6.2-.4,12.72,12.72,0,0,0-6,3.6l-5.2,5.2q-11.55,12-19.8,20.4c-5.5,5.6-10.1,10.5-13.8,14.6s-6.8,7.6-9.2,10.4-4.4,5.1-6,7c-5.3.5-13,1.3-23,2.4s-24.1,2.4-42.2,4l18.4-19.6a62,62,0,0,1,5-5.2c1.7-1.6,3.5-3.3,5.4-5.2a10.33,10.33,0,0,0,2.6-3.8,11.3,11.3,0,0,0,.2-5,14.08,14.08,0,0,0-1.4-5.8,18.26,18.26,0,0,0-3.8-5.4,16,16,0,0,0-5.4-3.6,10.11,10.11,0,0,0-6.2-.4,12.72,12.72,0,0,0-6,3.6l-5.2,5.2-44.4,48.4-36.4,3.2a71.61,71.61,0,0,0-7.4,1.2c-2.3.5-3.8,2.3-4.6,5.2a26.13,26.13,0,0,0-.2,8.6c.4,3.6,1.5,6.3,3.4,8.2a5.64,5.64,0,0,0,4.8,2.8,8.08,8.08,0,0,1,5.2,2c1.6,1.1,2.7,3.3,3.2,6.8-14.3,17.2-28.2,34.3-41.8,51.5a39,39,0,0,0-3.8,3.3c-7.5,6.7-16.5,10.1-27.2,10.4l6-10.8a102.87,102.87,0,0,0,6-14.2,63.93,63.93,0,0,0,3.4-16.4,36.79,36.79,0,0,0-2.2-15.8,24.44,24.44,0,0,0-10.4-12.4q-11.55-6-25.8-4.2a67.3,67.3,0,0,0-25.8,8.6,120.11,120.11,0,0,0-36.4,28.8,196.57,196.57,0,0,0-17.8,23.8c-.5.5-1.1,1-1.6,1.6-2,2.3-3.9,4.3-5.8,6.2q-21.15,20.4-37.4,31.2c-10.8,7.2-21.1,12.1-31,14.8-2.9.8-6.6,1.6-11,2.4s-8.2.3-11.4-1.6c-3.7-2.1-5.7-5.1-5.8-9a36.41,36.41,0,0,1,1.4-11.4,51,51,0,0,1,5.6-12.6c2.4-3.9,4.9-7.7,7.6-11.4a176.39,176.39,0,0,1,24.4-26.4c1.1-1.1,3.3-2.9,6.6-5.6s6.9-5.3,10.8-8a75.62,75.62,0,0,1,11.4-6.6c3.7-1.7,6.4-2.2,8-1.4.8.5.8,1.6,0,3.2a32.13,32.13,0,0,1-4,5.8,73.47,73.47,0,0,1-6.8,7.2,110.65,110.65,0,0,1-8.8,7.4c-1.3,1.1-2.7,2.2-4.2,3.4a9.32,9.32,0,0,0-3,3.8,8.8,8.8,0,0,0-1,6.2,20.87,20.87,0,0,0,1.8,5.8,21.67,21.67,0,0,0,5,6.2,14.83,14.83,0,0,0,7,3.4,9.5,9.5,0,0,0,8-2.2c2.4-2,4.5-3.8,6.4-5.4,2.4-2.4,4.7-4.9,7-7.4a90.89,90.89,0,0,0,6.6-8.2,69.75,69.75,0,0,0,5.4-8,51,51,0,0,0,4.2-9.2,47.51,47.51,0,0,0,2.2-9.6,21.09,21.09,0,0,0-1-9.6c-1.9-6.1-5.4-10.3-10.6-12.4a56.83,56.83,0,0,0-16.6-4,47.21,47.21,0,0,0-21.4,3.6,109.39,109.39,0,0,0-19,10,185.58,185.58,0,0,0-31.2,27.2,128.33,128.33,0,0,0-22.8,34,84.19,84.19,0,0,0-7,24,39.83,39.83,0,0,0,4.2,24.4c4.8,8.8,11.5,14.3,20,16.4a62.13,62.13,0,0,0,27.2.4,125.48,125.48,0,0,0,28.4-9.2,152.88,152.88,0,0,0,23.6-13.2c2.4-1.6,4.7-3.3,7-5,.9-.7,1.9-1.5,3-2.3a40.11,40.11,0,0,0,2.2,13.9c1.7,4.9,5.3,9.1,10.6,12.6,7.7,4.5,16.4,5.9,26,4a97.06,97.06,0,0,0,26-8.8,108.9,108.9,0,0,0,20.4-14.4,239.54,239.54,0,0,0,21.6-22,61.79,61.79,0,0,0,16.6,1.9c-4.1,5.2-8.2,10.5-12.2,15.7-11.5,14.1-22.7,28.9-33.6,44.2a298.51,298.51,0,0,0-28.8,50.6c-2.1,5.3-4.1,11-6,17a30.87,30.87,0,0,0-.4,17.8,19.25,19.25,0,0,0,7.8,11.2,27.12,27.12,0,0,0,12.6,4.8,29,29,0,0,0,13.4-1.8,60.77,60.77,0,0,0,13.8-7.2,125.26,125.26,0,0,0,13.2-10.4c4.3-3.9,8.1-7.7,11.6-11.4a390.45,390.45,0,0,0,46.4-59.4,638.41,638.41,0,0,0,38-68.6,225.73,225.73,0,0,0,14.4-37.4,220.36,220.36,0,0,0,7.6-39.8c4-5.1,7.3-9.3,10-12.8s6.1-7.7,10.4-12.8l67.2-5.6q-22,27.6-40,49.6t-32.8,40c-9.9,12-18.9,23.2-27.2,33.6s-15.9,20.5-23,30.4-13.7,19.9-20,30-12.5,21.1-18.6,32.8q-8,15.6-4.2,26.4a22,22,0,0,0,14.4,14.4c7.1,2.4,15.7,2.1,25.8-1s20.1-9.7,30-19.8a343.5,343.5,0,0,0,34.6-43,477.89,477.89,0,0,0,30.6-51,504.23,504.23,0,0,0,24.6-55.2,402.23,402.23,0,0,0,16.6-56c4-5.1,8.7-10.9,14.2-17.4Zm-266.2,90a143.63,143.63,0,0,1-16.8,13.8c-2.4,1.6-5.2,3.3-8.4,5.2a25,25,0,0,1-8.6,3.4c-2.5.4-4.4-.2-5.6-1.8s-1-5.1.6-10.4a94.65,94.65,0,0,1,15.4-31,254.56,254.56,0,0,1,23.4-27.8,60.82,60.82,0,0,0,4.2,17.8,46,46,0,0,0,10.2,15.4c-4.6,5.3-9.4,10.5-14.4,15.4Zm40.4-59.8a121.23,121.23,0,0,1-4.2,11.8,57.3,57.3,0,0,1-7.8,13,32.58,32.58,0,0,1-3.6-8.8,38.47,38.47,0,0,1-1.2-9.4,71.69,71.69,0,0,1,.4-8.4,35.89,35.89,0,0,1,1.2-6.2,28,28,0,0,1,6.6-3,10.83,10.83,0,0,1,5.8-.4,4.31,4.31,0,0,1,3.2,3.4C930.4,1878.54,930.3,1881.14,929.5,1884.64Zm65.4,51c-2,4.4-4.2,8.7-6.6,13-5.6,10.7-11.5,21.5-17.8,32.6s-12.9,22-19.8,32.8a361,361,0,0,1-22.6,31.4,249.24,249.24,0,0,1-26.2,28c-7.5,6.9-11.8,10.1-13,9.6s-.6-4,1.8-10.4a146.35,146.35,0,0,1,17.6-31.6c7.2-9.9,14.3-19.6,21.2-29.2,7.7-10.1,15.6-20.1,23.6-30s16-19.9,24-30l24-29.6c-2.2,4.5-4.2,9-6.2,13.4Zm69.8,53a528.89,528.89,0,0,1-43.6,63.6c-7.5,9.6-13.5,16.1-18,19.4s-7.5,4.4-9,3.2-1.4-4.4.2-9.6,4.8-11.8,9.6-19.8c10.7-16.3,22.1-31.9,34.2-47s24.6-30.6,37.4-46.6l24-29.6q-16.05,34-34.8,66.4Z"/><path class="cls-3" d="M1413.5,1909.84a11.75,11.75,0,0,0-5.6-3.2,12.3,12.3,0,0,0-6.8.4,19.27,19.27,0,0,0-6.6,5c-2,2.3-3.9,4.3-5.8,6.2-4,3.7-9.7,8.7-17,15a213.35,213.35,0,0,1-24,17.8,131.43,131.43,0,0,1-26.2,13.2c-8.8,3.2-16.5,3.6-23.2,1.2-3.7-1.3-6.4-3.1-8-5.4a15.63,15.63,0,0,1-2.8-7.4,19.5,19.5,0,0,1,1-8.2,49.19,49.19,0,0,1,3.8-8.6,49.67,49.67,0,0,0,23.2,3.2,93.22,93.22,0,0,0,23.6-5.6,111.87,111.87,0,0,0,28.8-17,101.7,101.7,0,0,0,22.4-25,65.54,65.54,0,0,0,6.4-14.8,18.16,18.16,0,0,0-2-15.2,22.36,22.36,0,0,0-13.4-10.4,47.49,47.49,0,0,0-18.6-1.2,83.81,83.81,0,0,0-19.6,4.8,101.44,101.44,0,0,0-16.4,7.6c-6.1,3.7-12.3,7.9-18.4,12.4a153.29,153.29,0,0,0-17.4,15,139.5,139.5,0,0,0-15,17.6c-.7,1-1.5,2.1-2.2,3.1a12.88,12.88,0,0,0-1.6,1.7c-2,2.3-3.9,4.3-5.8,6.2-4,3.7-9.7,8.7-17,15a213.35,213.35,0,0,1-24,17.8,131.43,131.43,0,0,1-26.2,13.2c-8.8,3.2-16.5,3.6-23.2,1.2-3.7-1.3-6.4-3.1-8-5.4a15.63,15.63,0,0,1-2.8-7.4,19.5,19.5,0,0,1,1-8.2,49.19,49.19,0,0,1,3.8-8.6,49.67,49.67,0,0,0,23.2,3.2,93.22,93.22,0,0,0,23.6-5.6,111.87,111.87,0,0,0,28.8-17,101.7,101.7,0,0,0,22.4-25,65.54,65.54,0,0,0,6.4-14.8,18.16,18.16,0,0,0-2-15.2,22.36,22.36,0,0,0-13.4-10.4,47.49,47.49,0,0,0-18.6-1.2,83.81,83.81,0,0,0-19.6,4.8,101.44,101.44,0,0,0-16.4,7.6c-6.1,3.7-12.3,7.9-18.4,12.4a153.29,153.29,0,0,0-17.4,15,139.5,139.5,0,0,0-15,17.6,115.09,115.09,0,0,0-11.6,20.2,69,69,0,0,0-5.2,24.2,35.61,35.61,0,0,0,7.2,23c5.9,8,13.2,12.9,22,14.8a70.07,70.07,0,0,0,27.4.2,109.38,109.38,0,0,0,28-9.2,157.53,157.53,0,0,0,23.8-13.8c4.3-3,9-6.6,14.1-10.7a35.68,35.68,0,0,0,7.1,18.7c5.9,8,13.2,12.9,22,14.8a70.07,70.07,0,0,0,27.4.2,109.38,109.38,0,0,0,28-9.2,157.53,157.53,0,0,0,23.8-13.8q6.75-4.8,15-11.4t23.4-21l6.2-6.2a18,18,0,0,0,4.6-7,7.75,7.75,0,0,0,.2-5.8,13,13,0,0,0-3.4-5.4Zm-203.2-17.6a157.22,157.22,0,0,1,17.6-11.6,84.08,84.08,0,0,1,19.6-8c1.3.8,1.5,2.5.6,5.2a22.46,22.46,0,0,1-4.6,7.6,109.28,109.28,0,0,1-20.8,18.8,63.76,63.76,0,0,1-27.2,11.2,36.19,36.19,0,0,1-10.4,0,140,140,0,0,1,25.2-23.2Zm122.4,0a157.22,157.22,0,0,1,17.6-11.6,84.08,84.08,0,0,1,19.6-8c1.3.8,1.5,2.5.6,5.2a22.46,22.46,0,0,1-4.6,7.6,109.28,109.28,0,0,1-20.8,18.8,63.76,63.76,0,0,1-27.2,11.2,36.19,36.19,0,0,1-10.4,0,140,140,0,0,1,25.2-23.2Z"/><path class="cls-3" d="M1900.4,1891.64a163.46,163.46,0,0,1,4.4-34.2,49.68,49.68,0,0,1,5.4-13.2,32.14,32.14,0,0,1,10.6-10.8,28.68,28.68,0,0,1,5.2-2.8,24.29,24.29,0,0,0,5.2-3,13.72,13.72,0,0,0,3.8-4.2,12.1,12.1,0,0,0,1.4-6,10.2,10.2,0,0,0-4.4-8,16.22,16.22,0,0,0-9.6-2.8,37.73,37.73,0,0,0-21,6.2,52.57,52.57,0,0,0-15.4,15.4,79.92,79.92,0,0,0-9.6,23.2c-4.5,6.4-8.7,12.1-12.4,17s-7.5,9.7-11.2,14.2c-4,4.8-8.1,9.4-12.2,13.8s-8.5,8.9-13,13.4c-.2.2-.3.4-.5.5a22.69,22.69,0,0,0-3.1,3.1c-1.9,2.1-3.6,4.1-5.2,6-3.1,3.3-5.8,6.4-8.3,9.1a13.51,13.51,0,0,0-5.1-2.5,14.92,14.92,0,0,0-8.8.6,9.68,9.68,0,0,0-6.2,6.4,40.54,40.54,0,0,0-2.5,18.6,4.35,4.35,0,0,1-.7.6c-.8.8-2.8,2.5-6,5a84.15,84.15,0,0,1-9.8,6.6c-3.3,1.9-6.1,2.6-8.2,2.2s-2.4-3.3-.8-8.6a112.46,112.46,0,0,1,14.2-27c6-8.4,12.3-16.5,19-24.2,3.5-4.3,8.3-9.8,14.4-16.6s13.2-14.5,21.2-23.2,16.7-18.1,26.2-28.4,19.4-21,29.8-32.2c6.4-.8,12.6-1.7,18.6-2.6s11.3-1.9,16-3,8.6-2.1,11.8-3,5.2-1.8,6-2.6a16.77,16.77,0,0,0,3-5.8,22.86,22.86,0,0,0,1-6.8,21.26,21.26,0,0,0-.8-6,5,5,0,0,0-2.4-3.4c-1.1-.5-3.3-.7-6.6-.4s-9.8,1.3-19.4,3.2l6.4-6.4q2.85-2.85,1.2-7.2a21.82,21.82,0,0,0-5.4-8,20.25,20.25,0,0,0-8.4-5c-3.1-.9-5.5-.5-7.4,1.4l-30,29.2c-10.1,1.3-18.3,2.5-24.6,3.4s-11.3,1.7-15,2.2-6.6.9-8.6,1.2-3.8.5-5.4.8c-2.7.5-5.1,1-7.4,1.4s-3.8,2.1-4.6,5c-1.9,5.6-.8,10.8,3.2,15.6,1.6,2.1,3.5,3,5.6,2.6s4.3-.7,6.4-1l22.8-2c-5.3,5.6-11.6,12.5-18.8,20.6s-14.6,16.5-22.2,25.2-14.9,17.2-22,25.6-13,15.5-17.8,21.4c-2,2.4-4.2,5.4-6.7,8.9a15.93,15.93,0,0,0-1.3,1.3c-1.9,2-3.6,3.8-5.2,5.4l-33.6,33.6c-2.9,2.7-5.9,5.2-8.8,7.6a59.38,59.38,0,0,1-9.6,6.4c-2.9,1.6-4.9,1.9-5.8,1a4.65,4.65,0,0,1-1-4.2,29.82,29.82,0,0,1,1.6-6,32.38,32.38,0,0,1,2.4-5.2,124.19,124.19,0,0,1,15.4-24.6q9.45-11.85,21-24.6,5.55-6.75,11.4-12.6c3.9-3.9,7.7-7.8,11.4-11.8a14.53,14.53,0,0,0,3.2-4.2,13.37,13.37,0,0,0,.8-5,22.61,22.61,0,0,0-4.8-10.8,12.91,12.91,0,0,0-10.8-5.2,11.64,11.64,0,0,0-7,3.2,70.07,70.07,0,0,0-5.4,5.6l-31.6,35.6q-14.4,16.8-29.6,32.2a259.46,259.46,0,0,1-32.8,28.2c-6.4,4.5-11.2,7.5-14.4,8.8s-5.3,1.6-6.4.8-1.2-2.5-.4-5a42.52,42.52,0,0,1,4-8.6c1.9-3.2,4-6.5,6.4-10a92.21,92.21,0,0,1,7.2-9.2,339.45,339.45,0,0,1,24.6-28.8c8.7-9.1,17.4-18.4,26.2-28a12.51,12.51,0,0,0,3.6-9.2c0-3.2-1.5-6.6-4.4-10.2a13.83,13.83,0,0,0-11.2-5.4,11.34,11.34,0,0,0-7,3.4c-2,2-3.9,3.8-5.8,5.4-5.3,5.3-11.3,11.4-17.8,18.2s-12.9,14-19.2,21.6c-2.9,3.5-5.6,6.9-8.3,10.5-.8.7-1.6,1.4-2.3,2.1-7.5,6.7-16.5,10.1-27.2,10.4l6-10.8a102.87,102.87,0,0,0,6-14.2,63.93,63.93,0,0,0,3.4-16.4,36.79,36.79,0,0,0-2.2-15.8,24.44,24.44,0,0,0-10.4-12.4q-11.55-6-25.8-4.2a67.3,67.3,0,0,0-25.8,8.6,120.11,120.11,0,0,0-36.4,28.8,204.52,204.52,0,0,0-27.2,40,129.35,129.35,0,0,0-6,14.6,59.55,59.55,0,0,0-3.2,16.4,40.46,40.46,0,0,0,2.2,15.6c1.7,4.9,5.3,9.1,10.6,12.6,7.7,4.5,16.4,5.9,26,4a97.06,97.06,0,0,0,26-8.8,108.9,108.9,0,0,0,20.4-14.4,239.54,239.54,0,0,0,21.6-22,62.78,62.78,0,0,0,22.9,1.5,56.89,56.89,0,0,0-3.9,15.5,27.2,27.2,0,0,0,3.4,16.6,22.4,22.4,0,0,0,10,9,31,31,0,0,0,13.2,3,34.81,34.81,0,0,0,14.8-3.2c4.5-2.1,8.7-4.3,12.4-6.4a179.36,179.36,0,0,0,21.2-15.6c.3,2.1.6,4.3,1,6.4a19.21,19.21,0,0,0,2.6,6.4,21.62,21.62,0,0,0,10.2,9.4,33,33,0,0,0,13.8,3,34.27,34.27,0,0,0,12.8-2.4,62,62,0,0,0,11.4-6,98.12,98.12,0,0,0,10.2-7.8c3.1-2.7,6-5.3,8.9-7.9a25.74,25.74,0,0,0,7.9,16.5c5.6,5.6,12.7,8.1,21.2,7.6a49.41,49.41,0,0,0,27-9.4c3-2.2,5.8-4.4,8.6-6.7a48.64,48.64,0,0,0,14,10.7,50,50,0,0,0,21.2,5.4,53.25,53.25,0,0,0,24.8-4.2,60.09,60.09,0,0,0,19.6-13.8,74.36,74.36,0,0,0,13.8-20.6,76.78,76.78,0,0,0,6.6-25.4c1.3-11.5,2.1-23,2.4-34.6Zm-371.2,52.8a143.63,143.63,0,0,1-16.8,13.8c-2.4,1.6-5.2,3.3-8.4,5.2a25,25,0,0,1-8.6,3.4c-2.5.4-4.4-.2-5.6-1.8s-1-5.1.6-10.4a94.65,94.65,0,0,1,15.4-31,254.56,254.56,0,0,1,23.4-27.8,60.82,60.82,0,0,0,4.2,17.8,46,46,0,0,0,10.2,15.4c-4.6,5.3-9.4,10.5-14.4,15.4Zm40.4-59.8a121.23,121.23,0,0,1-4.2,11.8,57.3,57.3,0,0,1-7.8,13,32.58,32.58,0,0,1-3.6-8.8,38.47,38.47,0,0,1-1.2-9.4,71.69,71.69,0,0,1,.4-8.4,35.89,35.89,0,0,1,1.2-6.2,28,28,0,0,1,6.6-3,10.83,10.83,0,0,1,5.8-.4,4.31,4.31,0,0,1,3.2,3.4C1570.5,1878.54,1570.4,1881.14,1569.6,1884.64Zm300,31c-.3,4.9-.6,9.1-1,12.6s-.9,6.5-1.4,9a26.3,26.3,0,0,1-2.4,7c-2.4,5.6-6.4,10.7-12,15.4s-11.5,7-17.6,7c-7.7,0-13.9-2.5-18.6-7.6a15.76,15.76,0,0,1-1.2-1.5c.3-.4.7-.7,1-1.1,1.9-2,4.1-4.3,6.6-7s5.4-5.7,8.6-9.2,7.1-7.6,11.6-12.4a26.92,26.92,0,0,0,2.7-3.2c3.5-3.3,7.1-6.9,10.7-10.8,4.7-5.1,9.4-10.5,14.2-16.4-.5,7.2-.9,13.3-1.2,18.2Z"/><path class="cls-3" d="M2019.2,1824.24a16.68,16.68,0,0,0,12.4-5.4,17.07,17.07,0,0,0,5.2-12.2,16.68,16.68,0,0,0-5.4-12.4,17.07,17.07,0,0,0-12.2-5.2,17.76,17.76,0,0,0-17.6,17.6,17.07,17.07,0,0,0,5.2,12.2A16.68,16.68,0,0,0,2019.2,1824.24Z"/><path class="cls-3" d="M2281.1,1915.24a14.1,14.1,0,0,0-3.4-5.4,11.75,11.75,0,0,0-5.6-3.2,12.3,12.3,0,0,0-6.8.4,19.27,19.27,0,0,0-6.6,5c-2,2.3-3.9,4.3-5.8,6.2-4,3.7-9.7,8.7-17,15a213.35,213.35,0,0,1-24,17.8,131.43,131.43,0,0,1-26.2,13.2c-8.8,3.2-16.5,3.6-23.2,1.2-3.7-1.3-6.4-3.1-8-5.4a15.63,15.63,0,0,1-2.8-7.4,19.5,19.5,0,0,1,1-8.2,49.19,49.19,0,0,1,3.8-8.6,49.67,49.67,0,0,0,23.2,3.2,93.22,93.22,0,0,0,23.6-5.6,111.87,111.87,0,0,0,28.8-17,101.7,101.7,0,0,0,22.4-25,65.54,65.54,0,0,0,6.4-14.8,18.16,18.16,0,0,0-2-15.2,22.36,22.36,0,0,0-13.4-10.4,47.49,47.49,0,0,0-18.6-1.2,83.81,83.81,0,0,0-19.6,4.8,101.44,101.44,0,0,0-16.4,7.6c-6.1,3.7-12.3,7.9-18.4,12.4a153.29,153.29,0,0,0-17.4,15,139.5,139.5,0,0,0-15,17.6l-2.7,3.9c-.2.2-.4.3-.5.5-1.9,2-3.6,3.8-5.2,5.4q-13.2,12.75-20.4,20.4c-4.8,5.1-9.1,9.3-12.8,12.8-2.9,2.9-5.8,5.7-8.6,8.2a46.67,46.67,0,0,1-9.8,6.6c-3.2,1.6-5.9,1.8-8,.6s-2.3-3.8-.4-7.8a126,126,0,0,1,15.6-26.6c6.4-8.4,12.9-16.5,19.6-24.2q22-25.2,37-41.8c10-11.1,19.3-21.1,27.8-30.2s17.1-17.9,25.8-26.6l30.6-30.6c1.3-1.3,2.9-2.7,4.6-4.2a10.41,10.41,0,0,0,3.4-5.4,11.22,11.22,0,0,0-1-7.2,25.19,25.19,0,0,0-4.8-7.2,15.74,15.74,0,0,0-7-4.4,8.62,8.62,0,0,0-7.6,1.2,28.06,28.06,0,0,0-5.6,4.6,51,51,0,0,1-4.8,4.6c-7.7,6.9-15.2,14.2-22.4,21.8s-14.4,15.3-21.6,23c-8.5,9.3-17.1,18.7-25.8,28s-17.3,18.7-25.8,28a26.37,26.37,0,0,0-10.8-8.6,33.45,33.45,0,0,0-13.6-3,65,65,0,0,0-19.8,3,103.92,103.92,0,0,0-18.2,7.8,165.73,165.73,0,0,0-37.2,28.8,237.78,237.78,0,0,0-17.6,20.2,15.84,15.84,0,0,0-3,2.8c-1.7,2-3.5,3.9-5.4,5.8l-21,21c-4.7,4.7-8.9,8.7-12.6,12.2q-10.35,9.6-16.2,12c-3.9,1.6-6.2,1.3-7-.8s-.1-5.7,2-10.8,5.7-11.1,10.8-18a307.49,307.49,0,0,1,23.2-28.8c8.3-9.1,16.8-18.3,25.6-27.6a34.44,34.44,0,0,0,3-4.2,10.09,10.09,0,0,0,1-5,22.61,22.61,0,0,0-4.8-10.8,12.91,12.91,0,0,0-10.8-5.2,11.64,11.64,0,0,0-7,3.2c-2,1.9-3.9,3.7-5.8,5.6-4.3,4-8.3,8.2-12.2,12.6s-7.7,8.9-11.4,13.4c-7.7,9.1-15.4,18.5-23,28.2a101.88,101.88,0,0,0-17,31.8,57.06,57.06,0,0,0-3.4,16,25.94,25.94,0,0,0,3.8,15.6,21.49,21.49,0,0,0,10.4,9.8,30.56,30.56,0,0,0,14.4,2.6,42.15,42.15,0,0,0,20.6-6.4c6.5-4,13.8-9.9,21.8-17.6l.1-.1a8.58,8.58,0,0,0,.3,1.7,28.72,28.72,0,0,0,13.2,18.8,31.43,31.43,0,0,0,16.2,3.6,49.55,49.55,0,0,0,16-3.6,80.52,80.52,0,0,0,15.4-8.4q7.65-5.25,14.4-10.8a24.19,24.19,0,0,0,7.2,15.6q8.4,8.4,24,7.2a38.3,38.3,0,0,0,11.8-2.8,58.72,58.72,0,0,0,11-6,107.34,107.34,0,0,0,10-7.8c3.2-2.8,6.3-5.5,9.2-8.2l6.5-6.5a36.92,36.92,0,0,0,6.7,15.7c5.9,8,13.2,12.9,22,14.8a70.07,70.07,0,0,0,27.4.2,109.38,109.38,0,0,0,28-9.2,157.53,157.53,0,0,0,23.8-13.8q6.75-4.8,15-11.4t23.4-21l6.2-6.2a18,18,0,0,0,4.6-7,8.27,8.27,0,0,0,.2-5.8Zm-237.5,20c-5.1,5.2-10,9.9-14.8,14.2a88.25,88.25,0,0,1-13.2,10,56.8,56.8,0,0,1-10.2,5.4c-3.1,1.2-5.5,1.5-7.2,1s-2.5-2.1-2.4-4.8,1.7-6.8,4.6-12.4a84.2,84.2,0,0,1,7.2-11.4c2.7-3.6,5.5-7.3,8.4-11,4.3-5.3,9.5-11.3,15.6-17.8a219.05,219.05,0,0,1,19.2-18.2,119,119,0,0,1,19.8-13.6c6.5-3.5,12.2-4.8,17-4a4.76,4.76,0,0,1,3.2,2.6c.8,1.5.9,3.5.4,6.2l-17.2,20.4c-4.8,5.6-9.8,11.3-15,17s-10.3,11.2-15.4,16.4Zm153.2-43a157.22,157.22,0,0,1,17.6-11.6,84.08,84.08,0,0,1,19.6-8c1.3.8,1.5,2.5.6,5.2a22.46,22.46,0,0,1-4.6,7.6,109.28,109.28,0,0,1-20.8,18.8,63.76,63.76,0,0,1-27.2,11.2,36.19,36.19,0,0,1-10.4,0,140,140,0,0,1,25.2-23.2Z"/><path class="cls-3" d="M960.8,740.24c7.9-3.7,6.8-13.9,2.8-20.1q-14.4-22-28.8-44.2c-4.3-6.5-13.8-12.5-21.7-8.8s-6.8,13.9-2.8,20.1q14.4,22.05,28.8,44.2C943.4,738,952.9,743.94,960.8,740.24Zm-41,67.2c-50.4,36.3-92.2,83.9-119.9,139.6q-4.8,9.75-9,19.8c-3.3,7.9.3,18.8,7.1,23.7s14.6,2.2,17.8-5.3q4.2-10.05,9-19.8L826,963l.6-1.2c.2-.5.6-1.1.6-1.2a17.1,17.1,0,0,1,1.3-2.3c1.8-3.3,3.6-6.5,5.5-9.8a355,355,0,0,1,24.5-36.3c4.4-5.7,8.9-11.2,13.6-16.6,2.4-2.7,4.7-5.4,7.2-8,1.2-1.3,2.5-2.6,3.7-3.9a5.93,5.93,0,0,1,.8-.8l1.9-1.9a385,385,0,0,1,32.9-29.7,408,408,0,0,1,37.3-26.7c6.5-4.2,13.2-8.1,20-11.9l9.3-5.1c4.4-2.3,5-2.7,9.6-4.9a448.86,448.86,0,0,1,89.9-32.4,469.83,469.83,0,0,1,198.3-5c4,.7,7.9,1.5,11.8,2.4s5.7,1.3,10.4,2.4c7.7,1.9,15.3,4,22.9,6.3a453.11,453.11,0,0,1,45.3,16.4c7.3,3.1,14.5,6.4,21.6,9.8l10.2,5.1c1.5.8,2.9,1.5,4.4,2.3.8.4,1.7.9,2.5,1.4.1,0,1.9,1.1,2.3,1.3a413.75,413.75,0,0,1,73.1,52.6c1.3,1.2,2.7,2.4,4,3.7a19.2,19.2,0,0,0,1.5,1.4c2.9,2.8,5.8,5.7,8.7,8.6,5,5.1,9.9,10.4,14.6,15.9s9.5,11.3,14,17.1c2.2,2.8,4.3,5.7,6.4,8.6,1,1.4,2.1,2.9,3.1,4.3.5.7,1,1.4,1.4,2.1.1.1.1.2.2.3a354.38,354.38,0,0,1,21.8,37.7q4.65,9.45,8.7,19.2c2.9,6.9,12.4,11.9,19,7.1,7.5-5.5,5.6-16,2.6-23.3-24-57.2-63.9-107.1-112-146-50.3-40.7-110.3-69.4-173.1-84.8a493.89,493.89,0,0,0-209.6-5.6c-64,11.9-126,37.7-179,75.8Zm226.9-289.5c2,37.3,4.1,74.7,6.1,112l.9,15.9c.5,8.5,9.4,16.4,17.5,17.5,8.7,1.2,13.6-5,13.2-13.1l-6.1-112-.9-15.9c-.5-8.5-9.4-16.4-17.5-17.5C1151.2,503.64,1146.3,509.84,1146.7,517.94Zm-484.6-211q26.55,40.65,53,81.3,32.25,49.35,64.4,98.7,27.75,42.45,55.4,85c9,13.8,17.7,27.8,27,41.4.1.2.3.4.4.6,4.3,6.5,13.8,12.5,21.7,8.8s6.8-13.9,2.8-20.1c-7.4-11.3-14.8-22.7-22.2-34q-26.55-40.65-53-81.3-32.25-49.35-64.4-98.7-27.75-42.45-55.4-85c-9-13.8-17.7-27.8-27-41.4-.1-.2-.3-.4-.4-.6-4.3-6.5-13.8-12.5-21.7-8.8s-6.8,13.9-2.8,20.1C647.3,284.34,654.7,295.64,662.1,306.94Zm582.6,383.4c8.9.8,13.8-8.9,14.7-16.2,2.3-18.9,4.6-37.9,7-56.8l16.7-136.5,20.1-164.5,17.4-142.2c2.8-23,6.2-46.1,8.5-69.2,0-.3.1-.7.1-1,.9-7.4-2.9-17.8-11.4-18.6-8.9-.8-13.8,8.9-14.7,16.2-2.3,18.9-4.6,37.9-7,56.8q-8.4,68.25-16.7,136.5l-20.1,164.5-17.4,142.2c-2.8,23-6.2,46.1-8.5,69.2,0,.3-.1.7-.1,1C1232.3,679,1236.2,689.54,1244.7,690.34ZM934.6,525.84q30.3,70.95,60.7,142l14,32.8c3.3,7.6,11.4,14.8,20.2,13.6,8.3-1.1,11.3-10,8.3-17.1q-19.05-44.55-38-89-30.3-70.95-60.7-142c-4.7-10.9-9.3-21.9-14-32.8-3.3-7.6-11.4-14.8-20.2-13.6-8.3,1.1-11.3,10-8.3,17.1q19,44.4,38,89Zm-81.1-190,8.1,18.9c3.3,7.6,11.4,14.8,20.2,13.6,8.3-1.1,11.3-10,8.3-17.1q-28.65-67.2-57.4-134.5l-8.1-18.9c-3.3-7.6-11.4-14.8-20.2-13.6-8.3,1.1-11.3,10-8.3,17.1Q824.75,268.54,853.5,335.84Zm104.7-184.6c2,8.5,8.4,16.3,17.5,17.5,7.5,1,15.1-4.9,13.2-13.1-5.4-23.2-10.8-46.5-16.3-69.7-2-8.5-8.4-16.3-17.5-17.5-7.5-1-15.1,4.9-13.2,13.1C947.4,104.74,952.8,128,958.2,151.24Zm171,45.6,8.6,157.4c.7,12,1.3,24,2,36.1.5,8.5,9.4,16.4,17.5,17.5,8.7,1.2,13.6-5,13.2-13.1-1.8-33.1-3.6-66.1-5.4-99.2q-4.35-78.75-8.6-157.4c-.7-12-1.3-24-2-36.1-.5-8.5-9.4-16.4-17.5-17.5-8.7-1.2-13.6,5-13.2,13.1,1.8,33.1,3.6,66.1,5.4,99.2Zm-150.1,44c3.3,14,6.5,28,9.8,42l23.4,100.4q14.1,60.75,28.3,121.4,12.3,52.5,24.5,105c4,17.1,7.8,34.2,11.9,51.2.1.3.1.5.2.8,2,8.5,8.4,16.3,17.5,17.5,7.5,1,15.1-4.9,13.2-13.1-3.3-14-6.5-28-9.8-42q-11.7-50.25-23.4-100.4-14.1-60.75-28.3-121.4-12.3-52.5-24.5-105c-4-17.1-7.8-34.2-11.9-51.2-.1-.3-.1-.5-.2-.8-2-8.5-8.4-16.3-17.5-17.5-7.6-1.1-15.1,4.9-13.2,13.1ZM1697,864.14c-22.2,9.5-44.4,18.9-66.6,28.4a19.19,19.19,0,0,0-11.1,20.6c.9,6.2,6.6,17.2,14.9,13.7,22.2-9.5,44.4-18.9,66.6-28.4a19.19,19.19,0,0,0,11.1-20.6C1711.1,871.64,1705.4,860.64,1697,864.14Zm30.6-246.5,25.5-23.9c6.2-5.8,6.6-17.8,2.3-24.6-4.6-7.4-12.6-7.3-18.5-1.7l-69.6,65.1q-55,51.6-110.2,103.1l-25.5,23.9c-6.2,5.8-6.6,17.8-2.3,24.6,4.6,7.4,12.6,7.3,18.5,1.7l69.6-65.1Q1672.45,669.14,1727.6,617.64Zm-150.8-55.7q-14,18.45-27.8,37a2.18,2.18,0,0,1-.4.5c-5.2,7-7.1,16.9-2.3,24.6,4,6.4,13.4,8.4,18.5,1.7l22.7-30.2q27.3-36.3,54.5-72.5,33.15-44.1,66.2-88.2l57-75.9q14-18.45,27.8-37a2.18,2.18,0,0,1,.4-.5c5.2-7,7.1-16.9,2.3-24.6-4-6.4-13.4-8.4-18.5-1.7-7.6,10.1-15.1,20.1-22.7,30.2q-27.3,36.3-54.5,72.5-33.15,44.1-66.2,88.2Zm-953.1-54.2q31.95,34.05,63.9,68.2Q726,617,764.5,658l66.8,71.3c10.8,11.5,21.3,23.4,32.4,34.6a1.76,1.76,0,0,1,.4.5c5.1,5.4,15.6,9.2,21.6,3.1,6.3-6.3,2-16.3-3-21.7l-26.6-28.4q-32-34.05-63.9-68.2-38.4-41.1-76.9-82.1l-66.8-71.3c-10.8-11.5-21.3-23.4-32.4-34.6a1.76,1.76,0,0,1-.4-.5c-5.1-5.4-15.6-9.2-21.6-3.1-6.3,6.3-2,16.3,3,21.7l26.6,28.4ZM1308,672.94c-2.3,7.5-.8,18.6,7.1,22.3s15.1-3.6,17.2-10.7c7.6-24.8,15.1-49.7,22.7-74.5,1.1-3.5,2.1-7,3.2-10.6,2.3-7.5.8-18.6-7.1-22.3s-15.1,3.6-17.2,10.7c-7.6,24.8-15.1,49.7-22.7,74.5C1310.1,665.84,1309,669.34,1308,672.94Zm304.1,131.9c-15.5,10.1-31.3,19.7-46.5,30.3a4.35,4.35,0,0,1-.7.4c-7.1,4.6-9.9,15.6-6.9,23.4,2.7,7.1,9.9,12.8,17.3,7.9,12.7-8.3,25.4-16.5,38.1-24.8q45.75-29.85,91.4-59.6l110.6-72.1q48-31.35,96-62.6c15.5-10.1,31.3-19.7,46.5-30.3a4.35,4.35,0,0,1,.7-.4c7.1-4.6,9.9-15.6,6.9-23.4-2.7-7.1-9.9-12.8-17.3-7.9-12.7,8.3-25.4,16.5-38.1,24.8q-45.75,29.85-91.4,59.6l-110.6,72.1Q1660.1,773.59,1612.1,804.84Zm236.3-300.3q35.85-33.6,71.8-67.2c3.4-3.1,6.7-6.3,10.1-9.4,6.2-5.8,6.6-17.8,2.3-24.6-4.6-7.4-12.6-7.3-18.5-1.7q-35.85,33.6-71.8,67.2c-3.4,3.1-6.7,6.3-10.1,9.4-6.2,5.8-6.6,17.8-2.3,24.6C1834.6,510.24,1842.5,510.14,1848.4,504.54ZM1489,678.84c-14.4,19.2-28.8,38.3-43.2,57.5-5.2,7-7.1,16.9-2.3,24.6,4,6.4,13.4,8.4,18.5,1.7,14.4-19.2,28.8-38.3,43.2-57.5,5.2-7,7.1-16.9,2.3-24.6C1503.5,674.14,1494.1,672.14,1489,678.84Zm130.9-392.7c11.8-23.3,23.6-46.5,35.4-69.8,3.8-7.4,4.1-18.2-2.5-24.3-6.2-5.7-15-2.3-18.5,4.6-11.8,23.3-23.6,46.5-35.4,69.8-3.8,7.4-4.1,18.2,2.5,24.3,6.2,5.7,15,2.3,18.5-4.6Zm-265.6,280.1c7.9,3.7,15.1-3.6,17.2-10.7,3.5-11.4,6.9-22.8,10.4-34.2,8.3-27.4,16.7-54.8,25-82.2q15.15-49.8,30.2-99.5c8.8-28.8,17.5-57.6,26.3-86.4,4.2-13.9,8.8-27.8,12.7-41.8.1-.2.1-.4.2-.6,2.3-7.5.8-18.6-7.1-22.3s-15.1,3.6-17.2,10.7c-3.5,11.4-6.9,22.8-10.4,34.2-8.3,27.4-16.7,54.8-25,82.2q-15.15,49.8-30.2,99.5c-8.8,28.8-17.5,57.6-26.3,86.4-4.2,13.9-8.8,27.8-12.7,41.8-.1.2-.1.4-.2.6-2.3,7.5-.8,18.6,7.1,22.3Zm63.3,57.6c-6.7,13.3-13.7,26.4-20.2,39.8l-.3.6c-3.8,7.4-4.1,18.2,2.5,24.3,6.2,5.7,15,2.3,18.5-4.6,5.5-10.9,11.1-21.8,16.6-32.8,13.2-26.1,26.4-52.1,39.7-78.2q24-47.25,48-94.6,20.85-41.1,41.7-82.1c6.7-13.3,13.7-26.4,20.2-39.8l.3-.6c3.8-7.4,4.1-18.2-2.5-24.3-6.2-5.7-15-2.3-18.5,4.6-5.5,10.9-11.1,21.8-16.6,32.8-13.2,26.1-26.4,52.1-39.7,78.2q-24,47.25-48,94.6-20.85,40.95-41.7,82.1Zm215,816.2v29.9c0,4.9,10,4.1,10-.9v-29.9C1642.5,1434.14,1632.6,1434.94,1632.6,1440ZM589.7,660.44c22,16.5,43.9,33,65.9,49.4q52.8,39.6,105.5,79.1c8,6,16.1,12,24.1,18.1,5.9,4.5,16.5,4.8,20.1-2.7,3.9-8.2-2.5-17-8.7-21.7-22-16.5-43.9-33-65.9-49.4q-52.8-39.6-105.5-79.1c-8-6-16.1-12-24.1-18.1-5.9-4.5-16.5-4.8-20.1,2.7C577.1,646.94,583.4,655.74,589.7,660.44Zm1140.8,485.7a5.37,5.37,0,0,1-1.9-.5A3.64,3.64,0,0,0,1730.5,1146.14Zm-82.1,288.8v29.9c0,4.9,10,4.1,10-.9V1434C1658.4,1429.14,1648.4,1429.94,1648.4,1434.94ZM770.5,1097c0,.1-.1.2-.1.4a7,7,0,0,0-.3,1.2c0,.2-.1.5-.1.8a3.4,3.4,0,0,0,.5-2.4Zm895.1,332.9v29.9c0,4.9,10,4.1,10-.9V1429C1675.6,1424.14,1665.6,1424.94,1665.6,1429.94Zm82.8-274.2a4.87,4.87,0,0,0,1.2.8A8.34,8.34,0,0,1,1748.4,1155.74Zm-162.9-81.5c-4.7.8-6.2,6.7-4.6,10.6a13.38,13.38,0,0,1,.9,2.6c0,.1.1.2.1.3a5.7,5.7,0,0,0-.1,1.3v.3c.1-.2.1-.4.2-.6a2.35,2.35,0,0,0-.2.8c-.1.4-.3.8-.2.5a.1.1,0,0,1-.1.1c-.3.7-.7,1.5-1,2.2.2-.4-1.1,1.6-1.6,2.2-.8,1-1.7,1.9-2.6,2.9-.5.5-1,.9-1.5,1.4l-.3.3-.2.2c-1.6,1.2-3.2,2.4-4.9,3.5v-33c0-4.8-8.5-8.8-8.5-2.5v40.5c-4.2,2.2-8.4,4.1-12.8,5.9v-53.1c0-4.8-8.5-8.8-8.5-2.5v58.8c-4.1,1.4-8.2,2.81-12.4,4v-65.69c0-4.81-8.5-8.81-8.5-2.5v70.59c-1.6.5-3.3.91-4.9,1.31a697,697,0,0,1-68.8,14.4c-66.5-19.1-153.2-30.7-247.9-30.7-95.2,0-182.3,11.7-249,31-17.8-2.8-35.6-6.2-53.2-10.2-20.5-4.7-40.4-9.9-59.5-18.7-3.5-1.6-7-3.4-10.4-5.3-.1-.1-.2-.1-.3-.2a2.19,2.19,0,0,0-.5-.3l-1.8-1.2c-1.4-.9-2.8-1.9-4.1-2.9-.7-.5-3.2-3-2.5-2.2-.7-.7-1.3-1.4-2-2.1a4.23,4.23,0,0,1-.5-.7c.4.5.3.7-.1-.2-.1-.2-.3-.3-.4-.5.1.2.3.3.4.5,0-.1-.1-.1-.1-.2a10.91,10.91,0,0,1-.6-1.1c-.1-.3-.1-.6-.2-.8s-.1-.7-.1-1,.1-.4.1-.7a12.66,12.66,0,0,1,1.3-3.2c4.1-8.5-10-21.8-15-11.4-7.9,16.4,3.4,32,16.7,41.1,16.1,11.1,35.2,17.3,53.8,22.7,60.5,17.6,124.5,24.3,187.1,28.9a1971,1971,0,0,0,251.4,2.2c67.1-3.6,135.1-9.8,200.7-25.6,20.9-5,42.2-11,61.4-20.7,11.3-5.7,24.4-13.9,27.8-27a25.4,25.4,0,0,0-1.3-16.3c-1.8-3.9-5.6-8.8-10.7-8Zm-3.6,13.5C1582.5,1089.94,1581.9,1088.94,1581.9,1087.74Zm-768.6,7.9c0-.1-.1-.1-.1-.2v.1Zm-40.4-3.8a2.19,2.19,0,0,1-.3.5.85.85,0,0,0,.3-.5Zm952.5,285.1a2.09,2.09,0,0,0,.6-.4c.2-.2.5-.4.6-.5s.2-.3.3-.4A2.09,2.09,0,0,0,1725.4,1376.94Zm-143.7-287.6a4.5,4.5,0,0,0-.2.8c.1-.2.1-.4.2-.5Zm461.7-352.9c-.9-6.2-6.6-17.2-14.9-13.7q-48.3,20.55-96.6,41.2-77,32.85-153.8,65.6c-11.7,5-23.4,10-35,14.9A19.19,19.19,0,0,0,1732,865c.9,6.2,6.6,17.2,14.9,13.7q48.3-20.55,96.6-41.2,76.95-32.85,153.8-65.6c11.7-5,23.4-10,35-14.9A19.19,19.19,0,0,0,2043.4,736.44ZM686,928.14c-27.4-8.3-54.7-16.6-82.1-24.9l-130.2-39.5c-10-3-20-6.1-29.9-9.1-7.2-2.2-16-.6-17.2,8.2-1.1,8.1,5.8,17.9,13.6,20.3,27.4,8.3,54.7,16.6,82.1,24.9q65.1,19.8,130.2,39.5c10,3,20,6.1,29.9,9.1,7.2,2.2,16,.6,17.2-8.2,1.1-8.1-5.8-17.9-13.6-20.3Zm98-40.5c1.2-9.2-6.1-16.5-13.6-20.3l-97.7-49.5L517,738.94c-11.9-6-23.8-12.1-35.7-18.1-6.9-3.5-16.1.3-17.2,8.2-1.2,9.2,6.1,16.5,13.6,20.3l97.7,49.5,155.7,78.9c11.9,6,23.8,12.1,35.7,18.1C773.7,899.34,782.9,895.54,784,887.64ZM355.6,484.84,406.5,523q40.35,30.3,80.8,60.6c6.3,4.7,12.5,9.4,18.8,14.1,5.9,4.5,16.5,4.8,20.1-2.7,3.9-8.2-2.5-17-8.7-21.7l-51-38.3q-40.35-30.3-80.8-60.6c-6.3-4.7-12.5-9.4-18.8-14.1-5.9-4.5-16.5-4.8-20.1,2.7-3.8,8.3,2.6,17.2,8.8,21.8Zm80.6,226.5c1.2-9.2-6.1-16.5-13.6-20.3q-40.8-20.7-81.7-41.4c-3.9-2-7.8-4-11.7-5.9-6.9-3.5-16.1.3-17.2,8.2-1.2,9.2,6.1,16.5,13.6,20.3q40.8,20.7,81.7,41.4c3.9,2,7.8,4,11.7,5.9C426,723.14,435.1,719.24,436.2,711.34Zm388.7,496.1c0-9.4-18.4-15.8-18.4-4.3v323.3c0,14.9-.7,29.9,0,44.8v.6c0,9.4,18.4,15.8,18.4,4.3v-323.3c0-14.9.7-29.9,0-44.8v-.6Zm773.6,384.4C1598,1593,1598.1,1592.74,1598.5,1591.84ZM839.7,1271v325.9c0,8,14.7,5.8,14.7-1.3v-325.9C854.4,1261.64,839.7,1263.84,839.7,1271Zm31.9,208.5v138.4c0,5.4,9.8,3.9,9.8-.9v-138.4C881.4,1473.24,871.6,1474.74,871.6,1479.54Zm942.7-304.8a285.2,285.2,0,0,0-38.3-33c-14.6-10.4-30.9-20.2-48.6-24.1-22.4-4.9-45.7-.3-67.6,5.4q-7.8,2.1-15.6,4.5a45.56,45.56,0,0,0,6.4-13.1c13.2-44.7-37.1-73.7-71.1-87.8-27.9-11.6-57.4-19.6-86.9-26.2-37.1-8.3-74.7-14-112.5-18.3-91.5-10.4-184.2-12.3-276.2-7.8-78.4,3.9-157.7,12.1-233.8,31.9-26.9,7-54,15.5-79,28-17,8.6-34.3,19.7-44.1,36.5-4.3,7.4-5.8,15.4-5.9,23.9.2,18.9,13.3,35.3,27.3,46.7a19.34,19.34,0,0,0-.8,5.2V1533c0,17.8-.2,35.6,0,53.4v1.4c.8,40.8,44,61.9,76.7,75.2,58,23.4,121.6,33.8,183.4,40.8,82.9,9.5,166.8,11.5,250.1,7.1,71.5-3.8,143.6-11.9,212.9-30.3,25.6-6.8,51.1-14.7,74.9-26.3,17.3-8.5,34.9-19.1,47-34.5,8.2-10.4,13.3-23.1,13.4-36.4v-75.2a745.76,745.76,0,0,0,90-28.4c22.8-8.8,45.8-18.4,66.1-32.1,9.4-6.3,18.3-13.1,25.4-22,5.1-6.4,8.3-14,11.3-21.5a443.89,443.89,0,0,0,18.3-57.3c6.1-24.3,10.9-49.1,12.1-74.2,1.1-22.1,0-46.1-9.1-66.5a69.74,69.74,0,0,0-25.8-31.5Zm-322,471.7C1490.4,1646.94,1491.7,1646.64,1492.3,1646.44Zm107.2-56.6Zm-.2-.4h0l-.8,2.4c.2-.4.4-.9.7-1.5-.5,1.1-.9,2.2-1.5,3.3-.2.3-.4.7-.6,1a33.66,33.66,0,0,1-2.9,3.7c-.5.6-1.1,1.3-1.7,1.9l-.3.3c-2.7,2.5-5.5,5-8.4,7.2a57.36,57.36,0,0,1-5,3.6l-2.7,1.8c-.6.4-1.2.9-1.6,1.2-3.7,2.7-8.4,4.6-12.4,6.6a298.42,298.42,0,0,1-31.4,13.3c-12.5,4.5-25.2,8.4-38,11.9-.1,0-.2.1-.3.1-.8.2-1.6.4-2.5.7-1.7.4-3.4.9-5.1,1.3-3.9,1-7.9,2-11.9,2.9-7.6,1.8-15.2,3.4-22.8,5a1050.63,1050.63,0,0,1-104.4,15.4,1497,1497,0,0,1-245.1,4.1c-68.3-4.3-137.3-13-203.3-31.7-12.7-3.6-25.3-7.6-37.7-12.3-5.4-2.1-10.7-4.3-16-6.6a3.33,3.33,0,0,1-.6-.3c-.1,0-.1-.1-.2-.1-1.2-.6-2.3-1.1-3.5-1.7-2.5-1.2-5-2.5-7.5-3.8a139.78,139.78,0,0,1-22.7-14.7c-1.4-1.1-2.8-2.4-4.1-3.6-.8-.8-1.5-1.6-2.2-2.4a67.39,67.39,0,0,1-5.7-7.5c-.2-.5-.5-1-.7-1.5a30.26,30.26,0,0,1-1.2-3.2c-.1-.5-.2-.9-.3-1.4s-.1-.8-.2-1.2v-385.8c0-13.3.1-26.5.1-39.8a302.84,302.84,0,0,0,37.8,15.9c67.8,23.8,140.4,34.2,211.6,40.7a1736.35,1736.35,0,0,0,279.3,2.7c74.6-5.2,150.5-14.3,222.2-36.1,18.1-5.5,36.5-11.7,53.7-20.1v382.3c0,15.4,1,30.9-.1,46Zm24.7-493.9a.76.76,0,0,1-.1.4,9.68,9.68,0,0,0-.3,1.1c-.5,1.3-1.1,2.7-1.7,3.9-.2.4-.7,1-1,1.6a.35.35,0,0,0-.1.2,59.83,59.83,0,0,1-7,8.1c-1.2,1.2-2.6,2.3-3.9,3.5-.2.1-.3.3-.5.4-.9.7-1.9,1.4-2.9,2.1a130.81,130.81,0,0,1-11.8,7.5,235,235,0,0,1-30,14.2c-2.9,1.2-5.8,2.3-8.8,3.4-1.5.6-3,1.1-4.6,1.6a4.08,4.08,0,0,0-.7.2l-2.3.8c-6.6,2.2-13.3,4.3-20.1,6.2-15.2,4.4-30.6,8.1-46.1,11.5a1085.52,1085.52,0,0,1-109.1,17.2c-87.8,9.7-176.6,11.8-264.8,7.4-76.6-3.8-153.9-11.7-228.5-30.4-7.3-1.8-14.6-3.8-21.8-5.9-.6-.2-3.1-.9-3.2-.9-1.5-.5-3-.9-4.5-1.4-3.3-1-6.5-2.1-9.7-3.2a302.68,302.68,0,0,1-34.1-13.6c-4.9-2.3-9.6-4.8-14.3-7.5-.1-.1-.2-.1-.3-.2-.9-.6-1.8-1.1-2.6-1.7-2-1.3-3.9-2.6-5.8-4-1.6-1.2-3.2-2.4-4.7-3.7l-2-1.7c-1.2-1.2-2.3-2.4-3.4-3.7l-1.4-1.7c-.6-1-1.1-2-1.7-3-.1-.2-.1-.3-.2-.5-.1-.4-.2-.8-.3-1.1,0-.5-.1-1-.1-1.5s.1-1.2.1-1.8c-.2.2-.3,0,0-.7.2-.4.2-.8.4-1.2,0-.1,0-.1.1-.2a2,2,0,0,0,.1-.7c0,.1.1.2.1.3.5-1.19,1-2.4,1.6-3.59.2-.31.4-.7.6-1-.5.69-.8.9.3-.5.1-.2.2-.31.3-.5a1,1,0,0,0-.2.5c0-.1.1-.1.1-.2a67,67,0,0,1,6.9-8.1c1.3-1.3,2.7-2.4,4-3.6.1-.1.2-.1.3-.2,1-.8,2.1-1.6,3.1-2.4a156.76,156.76,0,0,1,25.8-14.8c5.3-2.5,10.6-4.8,16-7,2.9-1.2,5.8-2.3,8.8-3.4,1.3-.5,2.7-1,4.1-1.5.3-.1.5-.2.8-.3-.2.09,1.8-.6,2.1-.7,66.2-22.3,136.9-31.9,206.2-38.1a1698.71,1698.71,0,0,1,266.9-2.5c72.9,5,146.7,13.9,217.1,34.2.8.19,6,1.8,2.7.8,1.5.5,3,.9,4.5,1.4,3.6,1.1,7.2,2.3,10.8,3.5q9.15,3.15,18,6.6a256.75,256.75,0,0,1,30,14.2c.1,0,.1.1.2.1l.1.09c1,.6,2,1.2,3,1.91,1.9,1.19,3.7,2.5,5.6,3.8a61.19,61.19,0,0,1,5,3.9c.6.5,1.2,1.1,1.9,1.6,1.2,1.2,2.4,2.5,3.5,3.8a18.26,18.26,0,0,1,1.3,1.6c.6,1,1.2,1.9,1.7,2.9.1.3.2.5.3.8a2.92,2.92,0,0,1,.2.9c0,.6.1,1.4.1,2.1,0,1-.1,1.9-.1,2.4Zm190.9,153.6c.2,2.2.3,4.4.4,6.6-11.8-4.7-23.6-9.4-35.3-14-.3-2.3-.6-4.6-1-6.8Zm-2-13.6c.3,1.3.5,2.6.7,3.8-12.3-4.9-24.7-9.8-37-14.7-.6-2.2-1.3-4.4-2-6.6,12.6,5,25.2,10,37.7,15,.2.9.4,1.7.6,2.5Zm-3.9-13.9c.1.3.2.7.3,1-13-5.2-26-10.3-39-15.5-.8-1.9-1.7-3.7-2.7-5.6,13.2,5.2,26.4,10.5,39.6,15.7.7,1.5,1.3,3,1.8,4.4Zm-43.4-33.2c2.3.4,4.5.8,6.7,1.2a45.76,45.76,0,0,1,5.3,1.3,48.34,48.34,0,0,1,6.4,2.2c1.1.4,2.1.9,3.2,1.4.1,0,.1,0,.2.1a5.92,5.92,0,0,0,.6.4,45.91,45.91,0,0,1,5.1,3.5,25.25,25.25,0,0,1,2.5,2.1c.3.2.5.5.8.7,1.1,1.3,2.2,2.5,3.3,3.8-13-5.2-26-10.3-39-15.5a24.26,24.26,0,0,0-1.4-2C1761.4,1187.84,1763.5,1188.14,1765.6,1188.44Zm-139.4-22.3a357.53,357.53,0,0,1,41.2-15.3c2.2-.7,4.4-1.3,6.6-1.9,0,0,2.5-.7,2.9-.8a17.42,17.42,0,0,1,2.2-.5c5.2-1.2,10.4-2.3,15.6-3.2s10.4-1.5,15.6-1.8c.7,0,1.4-.1,2-.1h1.2c2,.1,4.1.1,6.1.4a1.27,1.27,0,0,1,.6.1,4.33,4.33,0,0,0,.5.1c1.6.4,3.1.8,4.7,1.3.8.3,2,.9,3.1,1.3-.3-.2,0-.3.9.1.3.1.6.3.9.4h.1l2.7,1.2c3.4,1.6,6.7,3.4,10,5.3,1.7,1,3.4,2.1,5.1,3.1a1.76,1.76,0,0,1-.5-.4c.2.1.4.3.6.4.5.3,1.3.9,1.2.8.4.3.8.5,1.2.8,1.1.7,2.1,1.5,3.2,2.3-43.9-2-88.9,9.7-127.8,29.9v-23.5Zm78.8,23.6C1705.7,1189.54,1706,1189.54,1705,1189.74Zm-78.8,30.5c.6-.3,1.2-.6,1.7-.9,3.5-2.2,7.2-4.2,10.9-6.2,4.1-2.2,8.3-4.2,12.5-6.1,2.6-1.2,5.1-2.3,7.7-3.4a.35.35,0,0,0,.2-.1c.1,0,.1,0,.2-.1,1.9-.7,3.7-1.5,5.6-2.2,6.5-2.5,13.2-4.7,19.9-6.6,3.6-1.1,7.3-2,11-2.9l5-1.2,2.9-.6c.4-.1.7-.1,1-.2q8.55-1.5,17.1-2.4c.7.7,1.4,1.4,2,2.1s1.3,1.3,1.9,2l.5.5c.1.1.1.2.2.3,1.6,2,3.2,3.9,4.7,6a104.75,104.75,0,0,1,9.1,14.6c1.4,2.8,2.8,5.6,4,8.5a.35.35,0,0,0,.1.2.1.1,0,0,0,.1.1c.3.7.5,1.5.8,2.2.7,1.9,1.3,3.8,1.9,5.7a106.33,106.33,0,0,1,4,22.4c1.2,17.8-3.7,37.6-6.8,55.7-2.6,14.9-5.1,29.8-8.7,44.5-.6,2.4-1.2,4.9-1.9,7.3-.3,1.1-.6,2.1-.9,3.2-.2.5-.4,1.1-.6,1.6a73.38,73.38,0,0,1-4.6,10.3.1.1,0,0,1-.1.1c-.2.3-.4.5-.6.8h.2v.1c0,.1-.2.4-.9.8a.35.35,0,0,0-.2.1,1.38,1.38,0,0,1-.4.3c-.1,0-.2.1-.3.1v-.1c-.2.1-.3.2-.5.3-1.8.9-3.6,1.8-5.4,2.6-10.5,4.7-21.3,8.6-32.1,12.5-14.5,5.2-29.2,10-43.8,14.7-5.8,1.9-11.5,3.7-17.3,5.5v-192.1Zm99.2,156.9a.37.37,0,0,0-.1.3A.37.37,0,0,1,1725.4,1377.14Zm81.5-43.6c-.1.6-.3,1.3-.4,1.9-.3,1.4-.6,2.7-1,4.1-.7,2.9-1.4,5.7-2.2,8.6-1.4,5.2-2.8,10.3-4.3,15.5-2.7,9.1-5.7,18.2-9,27.1-2.5,6.8-5.3,13.5-8.2,20.2-.4.6-.7,1.2-1,1.7a52,52,0,0,1-3.5,4.4c-.6.6-1.2,1.2-1.8,1.7-1.7,1.6-3.4,3-5.2,4.5s-3.7,2.8-5.5,4.1a.1.1,0,0,0-.1.1c-1,.7-2.1,1.4-3.1,2-4.4,2.8-9,5.4-13.6,7.8-5.1,2.7-10.2,5.2-15.5,7.6-2.4,1.1-4.9,2.2-7.4,3.3-1.3.6-2.7,1.2-4,1.7-.3.1-1.5.6-2.5,1s-2.5,1-2.8,1.1c-1.4.5-2.7,1.1-4.1,1.6l-8.7,3.3c-5.4,2-10.8,4-16.3,5.8-10,3.5-20.1,6.7-30.3,9.8-10,3-20.1,5.9-30.3,8.6v-45.3c21.6-6.7,43.1-13.6,64.5-20.9,12.2-4.2,24.5-8.6,36.4-13.6,8.2-3.5,17.5-7.1,23.4-14.1,6.3-7.4,9.4-16.6,12.1-25.7,3.9-13.2,6.4-26.8,8.8-40.4,1.4-7.9,2.8-15.8,4.1-23.7,11.9,4.7,23.8,9.4,35.6,14.2-1.1,7.5-2.5,14.7-4.1,22Zm5.6-30.5c-11.8-4.7-23.7-9.4-35.5-14.1,1.2-6.7,2.4-13.4,3.1-20.2,11.6,4.6,23.1,9.2,34.7,13.8-.5,6.8-1.3,13.7-2.3,20.5Zm2.8-29.6c-11.5-4.6-23-9.2-34.6-13.7.1-2.8.1-5.7,0-8.4l34.8,13.8c0,2.7-.1,5.5-.2,8.3Z"/></svg>