<svg xmlns="http://www.w3.org/2000/svg" viewBox="0 0 3356.56 832.29"><defs><style>.cls-1{isolation:isolate;}.cls-2{fill:#243233;}.cls-3{fill:#e8547e;}.cls-4{mix-blend-mode:multiply;}.cls-5{fill:#ffc871;}.cls-6{fill:#375157;}</style></defs><g class="cls-1"><g id="Background"><path class="cls-2" d="M926.77,628.11c0-65,49.3-105.4,106.27-105.4,49.89,0,90.93,31.3,90.93,71.45,0,19.48-9.74,34.24-29.52,34.24-41.92,0-35.13-66.42-63.18-66.42-14.76,0-31.29,18.3-31.29,54.61,0,43.4,23.32,70.26,62,70.26,18.6,0,36.61-10.62,46.65-28,2.65-4.43,7.08-10.63,14.76-10.63,9.45,0,11.22,10,11.22,17.12,0,18-11.52,40.45-30.7,55.21-14.18,10.92-36.61,20.66-65,20.66C976.07,741.17,926.77,692.76,926.77,628.11Z"/><path class="cls-2" d="M1142.27,668c0-52.84,46.34-82.66,95.06-82.66,51.66,0,81.18,40.44,81.18,77.05,0,48.42-52,77.94-95.36,77.94C1179.46,740.29,1142.27,714.6,1142.27,668Zm82.36-47.83c-9.74,0-15.05,9.16-14.46,17.72,1.18,18.6,6.49,64.06,26.86,65.24,11.22.59,13.58-8.86,13.58-18.3C1250.61,671.5,1244.71,620.13,1224.63,620.13Z"/><path class="cls-2" d="M1350.68,659.69c.59-9.15-2.36-13.87-11.81-13.87-3.54,0-12.69,1.47-12.69-3.84,0-23.32-1.77-26,7.09-26.57,3.54-.29,8.26-.59,8.26-5.61,0-5.61-11.22-16.53-11.22-35.13,0-35.13,36.32-46.94,65.84-46.94,48.12,0,59.33,25.39,59.33,38.08a22.68,22.68,0,0,1-22.43,22.74c-25.69,0-28.93-26.57-45.76-26.57-5.9,0-10,4.72-10,10.63,0,18.59,30.7,24.79,36,37.78.88,2.36,1.18,3.25,4.13,3.25,12.4,0,29.23-3.25,28.64,5.61l-1.48,21.55c-.29,4.43-3.54,5-7.67,5-17.42,0-20.37-.3-20.37,19.19,0,8.26.88,18.6,3,26.27,5.31,17.71,26.27,8.27,26.27,26.57,0,7.09-.59,21.55-67,21.55-14.17,0-52.25-.29-52.25-21,0-16.53,20.66-8.85,21.84-26.86Z"/><path class="cls-2" d="M1493.85,659.69c.59-9.15-2.36-13.87-11.8-13.87-3.55,0-12.7,1.47-12.7-3.84,0-23.32-1.77-26,7.09-26.57,3.54-.29,8.26-.59,8.26-5.61,0-5.61-11.21-16.53-11.21-35.13,0-35.13,36.31-46.94,65.83-46.94,48.12,0,59.34,25.39,59.34,38.08a22.69,22.69,0,0,1-22.44,22.74c-25.68,0-28.93-26.57-45.76-26.57-5.9,0-10,4.72-10,10.63,0,18.59,30.71,24.79,36,37.78.89,2.36,1.18,3.25,4.13,3.25,12.4,0,29.23-3.25,28.64,5.61l-1.48,21.55c-.29,4.43-3.54,5-7.67,5-17.42,0-20.37-.3-20.37,19.19,0,8.26.88,18.6,3,26.27,5.31,17.71,26.27,8.27,26.27,26.57,0,7.09-.59,21.55-67,21.55-14.17,0-52.25-.29-52.25-21,0-16.53,20.66-8.85,21.84-26.86Z"/><path class="cls-2" d="M1676.59,668.25c-3.25,0-8-.88-8,4.14,0,14.76,19.19,27.16,33.06,27.16,22.14,0,33.07-13.29,39.27-13.29s11.51,9.15,11.51,14.76c0,22.74-41.63,39.27-68.2,39.27-53.13,0-80.59-38.38-80.59-76.46,0-45.47,38.67-78.53,83-78.53,50.18,0,72.32,38.67,72.32,60.81,0,19.49-8.85,22.14-18.3,22.14Zm25.68-37.19c0-10.63-6.49-18.9-17.42-18.9-9.74,0-17.71,10-17.71,19.49,0,10.63,10,8.26,17.71,8.26C1692.83,639.91,1702.27,641.69,1702.27,631.06Z"/><path class="cls-2" d="M1841,668.25c-3.25,0-8-.88-8,4.14,0,14.76,19.19,27.16,33.06,27.16,22.14,0,33.06-13.29,39.26-13.29s11.52,9.15,11.52,14.76c0,22.74-41.63,39.27-68.2,39.27-53.14,0-80.59-38.38-80.59-76.46,0-45.47,38.67-78.53,83-78.53,50.19,0,72.33,38.67,72.33,60.81,0,19.49-8.85,22.14-18.3,22.14Zm25.68-37.19c0-10.63-6.49-18.9-17.42-18.9-9.74,0-17.71,10-17.71,19.49,0,10.63,10,8.26,17.71,8.26C1857.25,639.91,1866.7,641.69,1866.7,631.06Z"/><path class="cls-2" d="M2101.39,523c72.92,0,114.54,52.55,114.54,110.11,0,61.7-38.38,108.35-114.25,108.35-72.62,0-113.66-51.07-113.66-108.64C1988,570.83,2025.81,523,2101.39,523Zm43.1,121.63c-2.66-30.41-20.08-82.37-55.21-82.37-27.75,0-32.18,33.36-30.11,57,2.36,28,17.42,83,54.32,83C2143.6,702.2,2146.26,665.3,2144.49,644.64Z"/><path class="cls-2" d="M2312.46,672.39c0,11.81.88,30.11,16.83,30.11,21.25,0,18.3-27.75,18.3-41.92,0-9.74.29-22.44-1.18-31.88-2.36-14.77-16.83-9.75-16.83-22.14,0-17.42,59.34-20.38,70.56-20.38,10.63,0,15.05,6.2,15.05,16.54,0,9.44-.59,18.6-.59,28V690.1c0,17.71,16.24,9.45,16.24,23.62,0,20.07-52.25,25.68-68.49,25.68-22.73,0-7.68-17.71-19.48-17.71-3.25,0-8,4.43-15.06,8.85s-16.53,8.86-29.52,8.86c-56.09,0-51.37-44.28-51.37-88.56,0-45.17-20.37-25.39-20.37-44.88,0-18.89,74.4-19.78,76.76-19.78,8.26,0,9.15,3.84,9.15,11.22Z"/><path class="cls-2" d="M2529.43,672.39c0,19.78,8.27,24.5,16.24,24.5,9.15,0,14.47-6.79,19.78-6.79,5.9,0,10,8.27,10,13.58,0,19.48-33.66,36.61-63.47,36.61-15.06,0-52.85-6.5-52.85-53.44V626c0-5.31,0-7.38-1.47-8.27s-4.73-.29-11.52-.29c-7.67,0-11.51.29-13-1.18-2.06-2.07-1.47-5-1.47-11.81,0-4.14-.89-7.38,2.65-9.74l67.31-42.81c6.79-4.13,6.5-3.25,15.35-3.25,11.81,0,12.4-1.18,12.4,12.4,0,9.15-.59,18.3.89,21.85.89,2.36,2.95,2.36,10.63,2.36h20.66c12.7,0,12.7.88,12.7,14.17,0,16.83-2.07,18-13.58,18h-20.37c-10.34,0-10.93.29-10.93,10.92Z"/><path class="cls-2" d="M2662.87,587.07c5.31.89,10,2.07,12.1,2.07a18.83,18.83,0,0,0,8-2.07,25.79,25.79,0,0,1,8-1.77c13.58,0,27.16,27.16,27.16,39.26,0,8-6.79,13.88-14.46,13.88-16.83,0-26.28-23.32-39.27-23.32-5.31,0-10.62,4.42-10.62,10,0,18.9,64.94,22.44,64.94,68.2,0,27.75-26.86,46.94-57.56,46.94a154.72,154.72,0,0,1-21.85-2.07c-7.38-.89-13.87-1.77-15.65-1.77a39.45,39.45,0,0,0-5.9.59,33.19,33.19,0,0,1-5.61.59c-5.9,0-8.86-.89-13-5.61-7.38-8.26-14.76-25.09-14.76-36.31,0-7.68,2.66-13.88,11.22-13.88,13,0,24.8,29.23,41.33,29.23,5.9,0,11.51-2.95,11.51-9.45,0-17.41-57.86-19.48-57.86-68.19,0-29.52,24.21-48.12,54.61-48.12A88,88,0,0,1,2662.87,587.07Z"/><path class="cls-2" d="M2815.49,681.54c0,34.83,17.41,22.14,17.41,37.79,0,20.07-37.49,20.07-50.77,20.07-50.78,0-52.85-11.51-52.85-18.6,0-10.62,12.11-11.21,15.65-20.37,3.84-10.33,4.43-53.14,1.18-64.06-2.66-10.33-17.71-7.08-17.71-20.37,0-21,75-29.82,77.94-29.82,8.85,0,9.15,6.8,9.15,13ZM2757,576.74c-12.39,0-25.68-5.61-25.68-20.08,0-19.48,39-27.45,54-27.45,11.8,0,28.63,3.84,28.63,18.6C2814,570.83,2773.86,576.74,2757,576.74Z"/><path class="cls-2" d="M3019.18,686.26c0,20.67,15.65,13.88,15.65,29.23,0,22.44-64.65,23.91-67.9,23.91-15.06,0-4.43-16.24-14.17-16.24-2.66,0-7.09,4.14-13.88,8.57-6.79,4.13-15.94,8.56-28.93,8.56-38.67,0-68.78-41-68.78-77.35,0-39.26,31.88-77.64,72.62-77.64,20.37,0,31.88,8.86,35.13,8.86,4.43,0,4.73-9.75,4.73-13,0-18.31-21.56-8.56-21.56-24.51,0-21.84,75.28-27.45,76.17-27.45,8.86,0,10.92,6.2,10.92,15.94Zm-82.36-68.78c-19.78,0-23.32,33.95-23.32,47.82s3.54,38.09,21.84,38.09c19.78,0,18.6-36.32,18.6-49.31C2953.94,642.57,2953.94,617.48,2936.82,617.48Z"/><path class="cls-2" d="M3115.71,668.25c-3.24,0-8-.88-8,4.14,0,14.76,19.19,27.16,33.07,27.16,22.14,0,33.06-13.29,39.26-13.29s11.51,9.15,11.51,14.76c0,22.74-41.62,39.27-68.19,39.27-53.14,0-80.59-38.38-80.59-76.46,0-45.47,38.67-78.53,82.95-78.53,50.19,0,72.33,38.67,72.33,60.81,0,19.49-8.86,22.14-18.31,22.14Zm25.69-37.19c0-10.63-6.5-18.9-17.42-18.9-9.74,0-17.71,10-17.71,19.49,0,10.63,10,8.26,17.71,8.26C3132,639.91,3141.4,641.69,3141.4,631.06Z"/><path class="cls-2" d="M3248.55,740.29a35.72,35.72,0,1,1,35.72-35.72A35.65,35.65,0,0,1,3248.55,740.29Z"/><path class="cls-2" d="M954.49,419.65c14.82-15.84,18.91-20.95,18.91-41.9V178.47c0-20.95-4.09-26.06-18.91-41.9-7.66-8.17-12.26-13.28-12.26-19.92,0-16.36,26.57-22.49,88.4-22.49h124.16c81.76,0,139,47,139,118.55,0,41.39-18.91,84.31-56.21,110.37-28.1,19.93-58.25,29.12-137.45,29.12-8.69,0-12.26,4.09-12.26,12.78v12.77c0,20.95,4.08,26.06,18.9,41.9,7.67,8.18,12.27,13.29,12.27,19.93,0,16.35-26.58,22.48-88.4,22.48s-88.4-6.13-88.4-22.48C942.23,432.94,946.83,427.83,954.49,419.65Zm213.08-199.28c0-47-24.53-63.36-54.68-63.36h-12.77c-8.69,0-12.26,4.09-12.26,12.78V276.58c0,8.69,3.57,12.77,12.26,12.77h13.28C1147.13,289.35,1167.57,263.29,1167.57,220.37Z"/><path class="cls-2" d="M1307.07,420.16c14.82-15.84,18.9-21,18.9-41.9V179c0-20.95-4.08-26.06-18.9-41.9-7.67-8.17-12.27-13.28-12.27-19.92,0-16.36,26.58-22.49,88.4-22.49h109.35c107.82,0,180.37,73.07,180.37,174.76,0,115-76.64,193.14-179.86,193.14H1383.2c-61.82,0-88.4-6.13-88.4-22.48C1294.8,433.45,1299.4,428.34,1307.07,420.16ZM1546.71,273c0-79.71-39.34-115.48-86.35-115.48h-7.67c-8.68,0-12.26,4.09-12.26,12.78V387c0,8.69,3.58,12.77,12.26,12.77h8.18C1505.32,399.72,1546.71,354.76,1546.71,273Z"/><path class="cls-2" d="M2051.05,439.58c0,16.86-34.24,23-101.18,23s-103.21-6.13-103.21-22.48c0-5.62,3.06-10.22,10.73-16.86,17.88-16.86,14.82-24.53,0-45l-23.51-32.19a4.79,4.79,0,0,0-7.66,0l-29.13,32.19c-16.86,18.91-23.5,31.17-11.75,42.92,9.2,9.2,12.26,13.29,12.26,18.91,0,16.35-38.32,22.48-74.6,22.48s-74.09-6.13-74.09-23c0-6.64,3.58-11.75,11.76-18.4,16.86-13.28,28.1-24,45-42.92l74.6-84.31a14.74,14.74,0,0,0,1-19.41L1710.74,179c-14.31-19.92-24.53-30.14-39.86-42.92-8.17-6.64-11.75-11.75-11.75-18.39,0-16.87,37.81-23,104.75-23s99.64,6.13,99.64,22.49c0,5.62-3.06,10.22-10.73,16.86-17.88,16.86-14.82,24.52,0,45l14.31,19.42c2,2.56,6.13,3.07,8.17.51L1892.65,179c16.86-18.9,23.5-31.17,11.75-42.92-9.2-9.19-12.27-13.28-12.27-18.9,0-16.36,38.33-22.49,74.61-22.49s74.09,6.13,74.09,23c0,6.64-3.58,11.75-11.75,18.39-16.87,13.29-28.11,24-45,42.92l-63.36,71.54a15.44,15.44,0,0,0-1,19.42l79.71,108.32c14.31,19.93,24.53,30.15,39.85,42.92C2047.47,427.83,2051.05,432.94,2051.05,439.58Z"/></g><g id="Logo"><path class="cls-3" d="M369,371.15c-114.48,0-213.57-16.15-261.46-39.66H94V623h0c0,40.18,123.14,72.75,275,72.75S644.09,663.18,644.09,623V331.49H630.5C582.61,355,483.51,371.15,369,371.15Z"/><g class="cls-4"><path class="cls-3" d="M646.79,517.89c14.73-4.52,73.23-22.75,79.64-29.16,7.34-7.34,10.6-26.92,18-71s-25.26-68.1-25.26-68.1l56.37,13.28c30.57,31.34,3.44,119-8.69,145.37-13.87,30.18-118.08,55.47-118.08,55.47Z"/></g><path class="cls-5" d="M710.11,320.68c-24.77,0-55.19,12.77-64.11,16.77l2.72,35.84s54.45-34.7,109.92-20a35.85,35.85,0,0,1,16.85,9.65l1.85,2.05S739.48,320.68,710.11,320.68Z"/><ellipse class="cls-5" cx="369.03" cy="299.53" rx="292.08" ry="71.62"/><path class="cls-6" d="M626,284.47c-3.09.52-4.12,4.42-3.07,7a14.39,14.39,0,0,1,.62,1.69c0,.07,0,.14.06.2,0,.28-.07.57-.08.85a.89.89,0,0,1,0,.22l.13-.38c-.06.17-.11.35-.16.52s-.17.54-.13.36l0,.09q-.33.73-.69,1.44c.11-.27-.73,1.08-1.06,1.49-.55.66-1.14,1.29-1.75,1.89-.33.32-.68.62-1,.93l-.22.2-.14.11c-1.06.81-2.15,1.57-3.27,2.3V281.55c0-3.19-5.6-5.79-5.6-1.68v26.78c-2.76,1.45-5.57,2.74-8.43,3.91V275.44c0-3.18-5.61-5.78-5.61-1.67v38.92q-4,1.43-8.18,2.65V271.91c0-3.18-5.6-5.79-5.6-1.68v46.71l-3.26.88A460.25,460.25,0,0,1,533,327.36c-44-12.65-101.32-20.3-164-20.3-63,0-120.59,7.73-164.7,20.5-11.8-1.88-23.54-4.09-35.17-6.74-13.54-3.08-26.71-6.57-39.38-12.38-2.34-1.07-4.62-2.24-6.86-3.5l-.18-.11-.35-.23-1.23-.79c-.92-.61-1.82-1.26-2.69-1.94-.45-.36-2.11-2-1.64-1.43-.44-.47-.88-.93-1.3-1.42a4.7,4.7,0,0,1-.34-.44c.23.35.21.43-.08-.1-.08-.12-.17-.23-.26-.34h0l.24.3-.07-.12c-.12-.23-.24-.48-.37-.7s-.09-.38-.14-.56a5.25,5.25,0,0,0-.08-.68c0-.1.06-.24.1-.43a9.1,9.1,0,0,1,.83-2.15c2.69-5.63-6.64-14.44-10-7.52-5.19,10.86,2.28,21.19,11,27.2,10.65,7.32,23.3,11.46,35.6,15,40,11.67,82.34,16.09,123.75,19.15a1303.42,1303.42,0,0,0,166.3,1.46c44.41-2.41,89.4-6.52,132.73-17,13.81-3.33,27.89-7.25,40.63-13.68,7.47-3.77,16.15-9.2,18.4-17.84a17,17,0,0,0-.83-10.77C631.92,287.13,629.43,283.9,626,284.47Zm-2.38,8.93c.4,1.43,0,.8,0,0Z"/><path class="cls-6" d="M623.53,294.45c-.09.26-.14.42-.16.5,0-.12.09-.24.13-.36Z"/><path class="cls-6" d="M115.19,298.58l-.1-.14,0,0Z"/><path class="cls-6" d="M122.87,372.57c0-6.23-12.14-10.48-12.14-2.84V583.62c0,9.83-.5,19.81,0,29.63v.43c0,6.23,12.14,10.48,12.14,2.83V402.62c0-9.83.5-19.8,0-29.62Z"/><path class="cls-6" d="M132.67,414.63v215.6c0,5.32,9.73,3.87,9.73-.87V413.75C142.4,408.44,132.67,409.89,132.67,414.63Z"/><path class="cls-6" d="M153.78,552.53v91.55c0,3.55,6.49,2.58,6.49-.58V552C160.27,548.41,153.78,549.37,153.78,552.53Z"/><path class="cls-6" d="M86.89,299.52l-.1.25c-.07.28-.18.58-.21.77s0,.35-.06.56A1.92,1.92,0,0,0,86.89,299.52Z"/><path class="cls-6" d="M88.52,296.11l-.21.36.22-.37Z"/><path class="cls-6" d="M634.62,626.85c-.35.77-.23.58,0,0Z"/><path class="cls-6" d="M777.38,350.93A190.48,190.48,0,0,0,752,329.12c-9.66-6.87-20.42-13.36-32.13-15.94-14.83-3.27-30.26-.18-44.7,3.59q-5.19,1.37-10.32,3a30.13,30.13,0,0,0,4.24-8.65c8.72-29.56-24.53-48.73-47-58.08-18.47-7.68-38-13-57.48-17.32a705.57,705.57,0,0,0-74.4-12.11c-60.55-6.85-121.88-8.15-182.72-5.14-51.85,2.56-104.3,8-154.64,21.13-17.82,4.64-35.76,10.22-52.24,18.53-11.26,5.67-22.67,13.05-29.16,24.18a31,31,0,0,0-3.9,15.79c.11,12.49,8.78,23.35,18.07,30.88a12.68,12.68,0,0,0-.52,3.42V588.08c0,11.77-.15,23.56,0,35.33v.5c0,.13,0,.26,0,.39.5,27,29.1,41,50.75,49.71,38.36,15.5,80.42,22.35,121.31,27a996.66,996.66,0,0,0,165.41,4.7c47.28-2.49,95-7.85,140.84-20,16.92-4.49,33.8-9.71,49.56-17.43,11.48-5.62,23.1-12.65,31.12-22.83A39.42,39.42,0,0,0,653,621.39c0-4.36,0-8.72,0-13.07V571.66A500.82,500.82,0,0,0,712.5,552.9c15.07-5.81,30.31-12.17,43.76-21.23,6.21-4.18,12.08-8.69,16.8-14.57,3.39-4.2,5.47-9.26,7.46-14.23A295.86,295.86,0,0,0,792.64,465c4.05-16.07,7.2-32.49,8-49.07.74-14.59,0-30.48-6-44A47.81,47.81,0,0,0,777.38,350.93Zm-213,312Zm70.86-37.45h0l0,0Zm-.1-.25v0a13.87,13.87,0,0,1-.55,1.54c.11-.23.27-.57.48-1v0c-.33.73-.62,1.47-1,2.17q-.18.35-.39.69c-.61.84-1.22,1.67-1.88,2.47-.36.43-.74.84-1.1,1.26l-.2.22c-1.81,1.66-3.63,3.29-5.59,4.78q-1.63,1.24-3.33,2.4c-.59.4-1.19.79-1.79,1.18-.4.26-.8.56-1.05.76-2.43,1.77-5.57,3.06-8.2,4.38A195.06,195.06,0,0,1,589.81,655c-8.26,3-16.67,5.57-25.14,7.9l-.24.07-1.63.43-3.4.87q-3.92,1-7.84,1.9-7.53,1.76-15.09,3.28c-22.81,4.62-45.9,7.85-69.05,10.18a994,994,0,0,1-162.12,2.75c-45.16-2.86-90.84-8.58-134.47-20.94-8.41-2.38-16.74-5-24.91-8.16-3.58-1.36-7.11-2.82-10.62-4.36l-.39-.17-.17-.08-2.32-1.1c-1.66-.81-3.32-1.65-5-2.52a93.94,93.94,0,0,1-15-9.71c-.94-.76-1.82-1.57-2.74-2.36h0c-.5-.52-1-1-1.49-1.57a44.67,44.67,0,0,1-3.8-5c-.16-.33-.34-.67-.49-1-.32-.7-.56-1.41-.82-2.12q-.1-.45-.18-.9c0-.26-.07-.52-.1-.78V366.41c0-8.78.08-17.56.06-26.34a194.35,194.35,0,0,0,25,10.52c44.83,15.76,92.88,22.6,140,26.92a1150,1150,0,0,0,184.75,1.78c49.35-3.45,99.53-9.49,147-23.89,12-3.64,24.16-7.74,35.53-13.29V595C635.22,605,635.86,615.27,635.17,625.26Zm16.31-326.74a1.57,1.57,0,0,1,0,.25c-.09.29-.18.58-.23.71a22.38,22.38,0,0,1-1.16,2.6c-.15.3-.45.69-.63,1.05l-.07.09a37.83,37.83,0,0,1-4.62,5.33c-.83.8-1.73,1.51-2.56,2.3l-.32.25c-.63.48-1.26,1-1.9,1.42a92.07,92.07,0,0,1-7.8,5,154.55,154.55,0,0,1-19.85,9.41c-1.93.77-3.86,1.5-5.81,2.22l-3,1.09-.43.15-1.51.51q-6.59,2.21-13.28,4.13c-10,2.9-20.23,5.38-30.46,7.57A720.17,720.17,0,0,1,485.64,354a1103.1,1103.1,0,0,1-175.17,4.93c-50.67-2.48-101.82-7.77-151.12-20.11-4.83-1.21-9.64-2.49-14.42-3.88l-2.11-.63-3-.91c-2.16-.68-4.3-1.38-6.44-2.11a211.52,211.52,0,0,1-22.54-9c-3.22-1.53-6.36-3.18-9.46-4.94l-.22-.13c-.58-.37-1.17-.73-1.75-1.11q-2-1.28-3.86-2.66c-1.06-.78-2.1-1.59-3.1-2.43-.45-.37-.87-.75-1.31-1.13-.77-.79-1.54-1.59-2.25-2.43-.32-.37-.62-.76-.92-1.14-.38-.65-.76-1.3-1.13-2l-.12-.3c-.08-.25-.15-.51-.22-.76l-.09-1c0-.36,0-.8.09-1.19-.13.12-.21,0,0-.45.1-.25.15-.52.26-.77l0-.11a1,1,0,0,0,0-.47,2.25,2.25,0,0,1,0,.22c.32-.81.64-1.61,1-2.39.11-.22.25-.44.38-.66-.32.49-.51.61.21-.36a2.72,2.72,0,0,0,.16-.35,3.49,3.49,0,0,1-.15.34s0-.07.08-.12a45.51,45.51,0,0,1,4.58-5.33c.85-.83,1.76-1.59,2.64-2.39l.2-.16c.69-.52,1.38-1.05,2.09-1.56a109,109,0,0,1,17-9.8c3.49-1.65,7-3.17,10.62-4.6,1.92-.77,3.86-1.5,5.8-2.22l2.69-1,.53-.19,1.39-.47c43.78-14.75,90.56-21.12,136.4-25.22a1122.35,1122.35,0,0,1,176.53-1.65c48.23,3.32,97.08,9.18,143.64,22.62.55.16,4,1.19,1.77.51l3,.91q3.6,1.13,7.17,2.34c4,1.36,8,2.81,11.93,4.38a165.29,165.29,0,0,1,19.86,9.41l.11.06.1.06c.65.42,1.32.82,2,1.25q1.88,1.21,3.67,2.52c1.13.82,2.23,1.68,3.3,2.57.42.35.82.71,1.24,1.07.79.81,1.58,1.62,2.32,2.49.3.35.58.72.87,1.07.38.65.77,1.29,1.14,1.94.07.18.14.36.2.55s.11.37.16.56c0,.41.05.94.08,1.38S651.52,298.24,651.48,298.52Zm126.3,101.65c.11,1.46.2,2.91.26,4.36l-23.37-9.29c-.18-1.51-.41-3-.68-4.52Zm-1.32-9c.18.84.33,1.69.48,2.54L752.47,384c-.4-1.46-.84-2.92-1.33-4.37l25,9.92C776.22,390.09,776.35,390.63,776.46,391.18ZM773.89,382c.08.22.15.44.22.66L748.3,372.37c-.56-1.23-1.14-2.45-1.76-3.68l26.18,10.41C773.13,380.05,773.53,381,773.89,382Zm-28.73-22c1.49.24,3,.51,4.45.82a28.45,28.45,0,0,1,3.54.85,42,42,0,0,1,4.22,1.44c.71.29,1.4.61,2.1.92l.11,0,.37.24a40.43,40.43,0,0,1,3.4,2.29c.57.43,1.13.89,1.67,1.36l.53.47c.74.84,1.46,1.68,2.16,2.54l-25.8-10.26q-.43-.66-.9-1.32C742.4,359.58,743.79,359.78,745.16,360ZM653,345.24a238.13,238.13,0,0,1,27.28-10.14c1.46-.44,2.93-.86,4.4-1.27l2-.53,1.47-.36c3.42-.82,6.86-1.53,10.33-2.1s6.85-1,10.3-1.2l1.35-.07h.77c1.35,0,2.68.1,4,.27l.37,0,.34.1c1,.28,2.08.52,3.11.83.55.17,1.33.56,2.08.85-.17-.14,0-.22.61.06l.62.27a1,1,0,0,0,.17,0H722c.6.27,1.2.53,1.79.81,2.25,1.06,4.44,2.23,6.59,3.48,1.14.66,2.26,1.37,3.38,2.06l-.36-.25.41.28c.3.19.86.58.79.54l.81.55q1.05.73,2.1,1.5c-29.06-1.35-58.82,6.39-84.54,19.8Zm52.1,15.58ZM653,458.54V381a9.75,9.75,0,0,0,1.11-.59c2.33-1.48,4.78-2.8,7.22-4.08q4.07-2.14,8.25-4.05c1.69-.78,3.39-1.52,5.11-2.26l.16-.07.11,0c1.23-.48,2.46-1,3.7-1.44q6.5-2.44,13.16-4.4c2.4-.69,4.82-1.34,7.25-1.93,1.1-.27,2.2-.52,3.3-.77l1.92-.41.67-.13c3.76-.65,7.52-1.19,11.3-1.59.45.45.9.91,1.34,1.37s.83.88,1.24,1.33l.32.34a2,2,0,0,0,.15.18c1.06,1.29,2.11,2.59,3.1,3.94a74.33,74.33,0,0,1,6,9.63c1,1.83,1.84,3.71,2.64,5.61l.07.16,0,.1c.19.48.37,1,.54,1.45q.66,1.88,1.23,3.78A70.45,70.45,0,0,1,735.56,402c.83,11.79-2.45,24.89-4.51,36.87-1.69,9.85-3.37,19.73-5.73,29.46q-.59,2.42-1.26,4.83c-.2.71-.42,1.41-.62,2.13-.12.36-.24.72-.37,1.07a46.67,46.67,0,0,1-3.07,6.84s0,.05,0,.08c-.14.18-.28.35-.42.54a.21.21,0,0,1,.16,0c0,.05,0,.06,0,0s-.15.24-.6.51l-.15.09-.24.21-.18.09s0-.05,0-.07l-.3.21c-1.19.59-2.38,1.17-3.59,1.71-6.93,3.12-14.11,5.71-21.26,8.25-9.62,3.41-19.3,6.62-29,9.75q-5.71,1.85-11.45,3.64Zm65.63,26.26a.36.36,0,0,0-.09.19.68.68,0,0,1,0-.15ZM772.5,456c-.1.42-.19.84-.29,1.26-.21.91-.43,1.82-.65,2.72-.46,1.9-.95,3.8-1.44,5.69q-1.35,5.13-2.87,10.22c-1.8,6-3.76,12-5.92,17.92-1.66,4.52-3.53,8.93-5.43,13.36-.24.36-.45.76-.69,1.11-.71,1-1.53,2-2.31,2.94-.4.38-.79.78-1.19,1.15q-1.66,1.54-3.44,3c-1.19,1-2.42,1.84-3.65,2.73l-.07,0c-.69.44-1.36.9-2.06,1.33-2.92,1.84-5.93,3.55-9,5.17-3.35,1.78-6.77,3.46-10.22,5.05q-2.43,1.13-4.88,2.2L715.76,533l-1.65.69-1.86.76-2.7,1.07q-2.87,1.13-5.76,2.21-5.35,2-10.75,3.86-10,3.44-20,6.48c-6.64,2-13.32,3.88-20,5.68v-30c14.28-4.42,28.53-9,42.65-13.85,8.11-2.8,16.21-5.67,24.11-9,5.45-2.29,11.56-4.73,15.48-9.34,4.15-4.87,6.22-11,8-17a248,248,0,0,0,5.81-26.7c.94-5.21,1.83-10.43,2.71-15.66l23.58,9.38C774.49,446.38,773.54,451.18,772.5,456Zm3.7-20.16-23.49-9.34c.77-4.43,1.58-8.87,2.06-13.34l22.93,9.11C777.36,426.76,776.85,431.29,776.2,435.79ZM778,416.24l-22.86-9.09c.06-1.88.06-3.74,0-5.59l23,9.14C778.15,412.55,778.11,414.39,778,416.24Z"/><path class="cls-6" d="M733.8,338.38h0l0,0,.84.57Z"/><path class="cls-6" d="M722,332a4.36,4.36,0,0,1-1.23-.33A2.1,2.1,0,0,0,722,332Z"/><path class="cls-6" d="M718.57,484.66l.4-.23a2.54,2.54,0,0,0,.37-.37c.07-.08.13-.17.2-.26A1.54,1.54,0,0,0,718.57,484.66Z"/><path class="cls-6" d="M657.16,526.4v19.77c0,3.26,6.59,2.73,6.59-.59V525.81C663.75,522.55,657.16,523.08,657.16,526.4Z"/><path class="cls-6" d="M667.66,523.06v19.77c0,3.26,6.59,2.73,6.59-.59V522.47C674.25,519.21,667.66,519.73,667.66,523.06Z"/><path class="cls-6" d="M679,519.76v19.76c0,3.26,6.59,2.74,6.59-.59V519.16C685.61,515.9,679,516.43,679,519.76Z"/></g></g></svg>