<?xml version="1.0" encoding="utf-8"?>
<!-- Generator: Adobe Illustrator 25.0.1, SVG Export Plug-In . SVG Version: 6.00 Build 0)  -->
<svg version="1.1" id="Layer_1" xmlns="http://www.w3.org/2000/svg" xmlns:xlink="http://www.w3.org/1999/xlink" x="0px" y="0px"
	 viewBox="0 0 350 220" style="enable-background:new 0 0 350 220;" xml:space="preserve">
<path d="M49,90.2v89.8c0,2.5,4.6,1.8,4.6-0.4V89.8C53.6,87.3,49,88,49,90.2z M39.8,71.4v101.6c0,3,5.8,5,5.8,1.3V72.8
	C45.5,69.8,39.8,67.8,39.8,71.4z M58.2,147.7v38.1c0,2.1,2.4,1.4,2.4-0.4v-38.1C60.6,145.3,58.2,146,58.2,147.7z M292.7,119.3
	l0.2-0.1h0.1l0,0l0.1-0.1l0.1-0.1c0,0,0,0,0.1-0.1h-0.1c0,0,0.1-0.1,0.1-0.1c-0.1,0.1-0.2,0.1-0.2,0.2
	C292.9,119.1,292.8,119.2,292.7,119.3z M325.6,72.3c-1.4-3.1-3.5-5.7-6.1-7.8c-3.6-3.8-7.5-7.2-11.7-10.3c-4.1-2.9-8.7-5.7-13.8-6.8
	c-6.2-1.3-12.7-0.1-18.8,1.4c-1,0.3-2,0.5-3,0.8c0.4-0.7,0.7-1.5,1-2.3c3.8-12.7-10.1-21-19.9-25.1c-7.8-3.1-15.9-5.6-24.2-7.3
	c-10.2-2.2-20.5-3.9-30.8-5c-25.4-2.8-51-3.5-76.6-2.2c-21.6,1.1-43.5,3.3-64.5,8.8c-7.5,1.8-14.8,4.4-21.7,7.7
	C30.8,26.9,26,30,23.2,34.8c-1.1,2.1-1.7,4.5-1.6,6.8c0,5.3,3.6,9.9,7.5,13.2c-0.1,0.4-0.2,0.8-0.2,1.2v106.5c0,4.9-0.1,9.9,0,14.8
	c0,0.1,0,0.1,0,0.2c0,0.4,0,0.7,0.1,1.1c0.8,10.9,12.1,16.6,21.2,20.3c16,6.5,33.5,9.4,50.5,11.3c22.9,2.6,45.9,3.2,68.8,2
	c19.8-1,39.8-3.2,58.9-8.3c7.1-1.7,14.1-4.2,20.7-7.2c4.9-2.4,9.8-5.4,13.3-9.7c2.5-3,3.9-6.7,4-10.6c0-1.8,0-3.5,0-5.3v-14.9
	c8.8-2.2,17.5-4.9,26-8.2c6.3-2.3,12.4-5.3,18-8.9c2.3-1.5,4.5-3.4,6.2-5.6c1.3-1.9,2.4-3.9,3.1-6.1c4.8-11.6,7.6-24,8.3-36.5
	C328.6,84.6,328.2,78,325.6,72.3z M264.6,39.9L264.6,39.9L264.6,39.9z M228.9,193.1L228.9,193.1z M258.1,178l-0.1,0.2
	c-0.1,0.2-0.2,0.5-0.3,0.7l-0.1,0.1c-0.3,0.4-0.5,0.7-0.8,1l-0.4,0.5c-0.7,0.7-1.5,1.4-2.3,2c-0.5,0.3-0.9,0.7-1.4,1L252,184
	l-0.3,0.2c-1.2,0.6-2.3,1.3-3.5,1.9c-2.8,1.4-5.7,2.6-8.6,3.7c-3.5,1.3-7,2.4-10.6,3.3l-0.7,0.2l-1.4,0.4l-3.1,0.8
	c-2.1,0.5-4.2,0.9-6.3,1.4c-9.5,1.9-19.1,3.3-28.8,4.2c-22.5,2.2-45,2.6-67.6,1.1c-18.7-1.2-37.5-3.6-55.5-8.6
	c-3.5-1-7-2.1-10.4-3.4c-1.5-0.6-3-1.2-4.4-1.8l-0.2-0.1h-0.1l-1-0.5c-0.7-0.3-1.3-0.7-2-1c-2.2-1.1-4.3-2.5-6.3-4
	c-0.4-0.3-0.8-0.7-1.2-1l-0.5-0.6c-0.6-0.7-1.1-1.4-1.5-2.1l-0.2-0.3c-0.1-0.3-0.2-0.6-0.3-0.9c0-0.1,0-0.2,0-0.3s0-0.2,0-0.3V70.1
	c0-3.4,0-6.7,0-10.1c3.2,1.6,6.4,2.9,9.7,4.1c18.7,6.6,38.8,9.5,58.4,11.3c25.7,2.3,51.5,2.6,77.2,0.8c20.6-1.4,41.5-4,61.3-10
	c4.8-1.4,9.5-3.1,14-5.2v104.4C258.1,169.5,258.4,173.8,258.1,178L258.1,178z M264.9,41.6L264.9,41.6c0,0.3-0.1,0.4-0.1,0.3
	c-0.1,0.3-0.2,0.6-0.4,0.8l0.1-0.1c-0.1,0.1-0.1,0.1-0.2,0.2l0,0c0,0.1-0.1,0.2-0.2,0.3v0c-0.6,0.8-1.2,1.6-2,2.2
	c-0.3,0.3-0.7,0.6-1,0.9l-0.1,0.1l-0.8,0.6c-1.1,0.8-2.2,1.5-3.3,2.1c-2.7,1.5-5.4,2.8-8.3,3.9c-0.8,0.3-1.5,0.6-2.3,0.9l-1.4,0.5
	h-0.1l-0.7,0.2c-1.8,0.6-3.6,1.2-5.4,1.7c-4.2,1.2-8.4,2.2-12.7,3.2c-10,2.1-20,3.7-30.1,4.8c-24.1,2.6-48.3,3.2-72.5,2
	c-21.1-1-42.4-3.2-62.9-8.3c-2-0.5-4.1-1-6.1-1.6c-0.3-0.1-1.7-0.5-0.7-0.2l-1.2-0.4c-1-0.3-1.9-0.6-2.9-0.9
	c-3.2-1.1-6.3-2.3-9.4-3.7c-1.3-0.6-2.6-1.3-3.9-2l-0.8-0.5c-0.6-0.4-1.1-0.7-1.7-1.1s-1-0.7-1.3-1l-0.5-0.4c-0.3-0.3-0.6-0.7-0.9-1
	l-0.3-0.3l-0.4-0.7l-0.1-0.2c0-0.1,0-0.2,0-0.4s0-0.5,0-0.6v0v-0.1c0.1-0.4,0.3-0.7,0.5-1.1l0.1-0.2l0.1-0.2c0.6-0.8,1.2-1.5,2-2.2
	c0.3-0.3,0.7-0.6,1-0.9l0,0l0.8-0.6c2.2-1.6,4.6-2.9,7.1-4.1c1.5-0.7,3-1.3,4.5-1.9c0.8-0.3,1.6-0.6,2.5-0.9l1.1-0.4l0.2-0.1
	l0.5-0.2c18.2-6.1,37.7-8.8,56.7-10.5c24.4-2.2,48.9-2.4,73.3-0.7c20.1,1.4,40.5,3.8,59.9,9.4l0.9,0.3l0.8,0.2
	c1,0.3,1.9,0.6,2.9,0.9c1.7,0.6,3.4,1.2,5.1,1.9c2.8,1.1,5.6,2.4,8.3,3.9h0l0.8,0.5c0.5,0.3,1,0.7,1.6,1.1c0.5,0.4,0.9,0.7,1.3,1
	l0.5,0.5c0.3,0.3,0.6,0.6,0.9,1l0.3,0.4l0.4,0.7v0.1v0.1c0,0.2,0,0.3,0,0.5v0.2l0,0l0,0C264.8,41.4,264.8,41.5,264.9,41.6
	L264.9,41.6z M265,41.3L265,41.3L265,41.3L265,41.3z M317.4,85.5l-8.4-3.3c-0.1-0.5-0.1-1-0.2-1.5l8.5,3.4
	C317.3,84.6,317.3,85,317.4,85.5L317.4,85.5z M316.8,80c0,0.3,0.1,0.7,0.1,1l-8.8-3.5c-0.1-0.5-0.3-0.9-0.4-1.4l9,3.6L316.8,80z
	 M315.8,76.4l-9.4-3.7c-0.2-0.4-0.3-0.7-0.5-1.1l9.4,3.7C315.4,75.7,315.6,76.1,315.8,76.4L315.8,76.4z M308.5,68.6l0.3,0.1l0.8,0.3
	c0.3,0.1,0.6,0.3,0.9,0.4l0,0c0.5,0.3,1,0.7,1.5,1l0.4,0.3l0.2,0.2c0.1,0.2,0.3,0.3,0.4,0.5l-9.1-3.6l-0.1-0.2
	C305.3,68,306.9,68.3,308.5,68.6L308.5,68.6z M266.6,61.7c3.6-1.6,7.3-3,11.1-4.1l2.1-0.6l0.8-0.2l0.3-0.1c1.5-0.3,2.9-0.7,4.4-0.9
	c1.3-0.2,2.6-0.4,3.9-0.5h0.7h0.3c0.5,0,1,0.1,1.6,0.1h0.2c0.4,0.1,0.9,0.2,1.3,0.3c0.2,0.1,1.8,0.7,1,0.3s0.7,0.3,1,0.4
	c1,0.5,1.9,0.9,2.8,1.5c0.5,0.3,0.9,0.6,1.4,0.8l-0.1-0.1l0.1,0.1l0,0l0.2,0.2l0,0l-0.3-0.2l0,0l0.3,0.2c-6.8-0.1-13.6,0.8-20.1,2.7
	c-4.5,1.3-8.8,2.9-13,4.9L266.6,61.7z M266.6,76.6c0.5-0.2,1-0.4,1.4-0.6c-0.4,0.2-0.8,0.5,0,0s1.5-0.9,2.3-1.3
	c2.6-1.4,5.3-2.5,8-3.6l1.3-0.5l0.5-0.2c1-0.3,2-0.6,3-0.9c2-0.6,4.1-1.1,6.2-1.5c0.9-0.2,1.9-0.3,2.8-0.4l0.4,0.4l0.5,0.6l0.1,0.1
	l0,0c0.4,0.6,0.9,1.1,1.3,1.7c0.9,1.3,1.8,2.6,2.5,4c0.4,0.7,0.7,1.4,1,2.2l0,0.1c0.1,0.2,0.2,0.5,0.2,0.7c0.2,0.5,0.3,0.9,0.5,1.4
	c0.6,2,1,4.1,1.1,6.2c0.4,4.8-1,10.3-1.9,15.2c-0.7,4.1-1.4,8.2-2.4,12.3c-0.2,0.7-0.4,1.4-0.6,2.2c-0.1,0.3-0.2,0.6-0.3,0.9
	c0.3-1,0,0.2-0.1,0.4c-0.3,0.9-0.8,1.9-1.3,2.8l-0.1,0.2h0.1l-0.1,0.1l0,0l0,0l-0.2,0.1c-0.2,0.2-0.2,0.2-0.1,0.1l0,0h0l-0.2,0.2
	l0.1-0.1c-0.5,0.2-0.9,0.4-1.4,0.7c-2.9,1.3-5.9,2.4-8.9,3.4c-3.9,1.4-7.8,2.7-11.8,3.9l-4.1,1.3L266.6,76.6z M293.6,118.7
	c-0.1,0-0.1,0.1-0.2,0.2l0.1-0.1L293.6,118.7z M316.1,102c-0.3,1.6-0.6,3.1-1,4.6c-1.2,5.5-2.8,10.9-4.8,16.3
	c-0.7,1.8-1.5,3.6-2.2,5.4c-0.1,0.2-0.2,0.3-0.3,0.5c-0.3,0.4-0.6,0.9-1,1.3c-0.2,0.2-0.6,0.9-0.2,0.2s-0.1,0-0.3,0.2
	c-0.4,0.4-0.9,0.8-1.4,1.1c-1.1,0.8-2.2,1.6-3.3,2.3l0,0l-0.8,0.5c-0.7,0.4-1.4,0.8-2.1,1.1c-2.8,1.5-5.7,2.8-8.7,4s-5.9,2.3-9,3.4
	l-0.2,0.1l-1,0.3l-2.1,0.7c-1.4,0.4-2.8,0.9-4.1,1.3c-2.4,0.7-4.8,1.4-7.1,2V136c2.1-0.7,4.2-1.3,6.3-2c-0.3,0.3-0.4,0.6-0.5,1v8.2
	c0,0.7,0.3,1.6,1.1,1.8s1.3-0.6,1.3-1.3v-8.2c0-0.7-0.3-1.6-1.1-1.8l0,0c3.5-1.1,6.9-2.2,10.3-3.4c3.4-1.2,6.7-2.3,10-3.7
	c2.4-1,5-2.1,6.8-4c1.6-2.1,2.8-4.6,3.4-7.2c1-3.6,1.8-7.3,2.4-11.1c0.4-2.1,0.8-4.2,1.2-6.3l8.4,3.3
	C316.1,101.5,316.1,101.8,316.1,102z M316.7,97.9c0,0.2-0.1,0.5-0.1,0.7l-8.4-3.3c0.3-1.8,0.6-3.5,0.7-5.3l8.2,3.3
	C317.1,94.8,316.9,96.3,316.7,97.9L316.7,97.9z M317.4,90.4l-8.2-3.3c0-0.7,0-1.3,0-2l8.2,3.3c0,0,0,0,0,0.1
	C317.4,89.2,317.4,89.8,317.4,90.4L317.4,90.4z M264.7,42l0.1-0.2c0-0.1,0-0.1,0-0.2v-0.2C264.7,41.6,264.7,42,264.7,42z
	 M254.7,35.7c-1.5,0.2-2,2.1-1.4,3.3c0.1,0.2,0.2,0.8,0.2,0.9s0,0.1,0,0.2l-0.1,0.1l-0.3,0.5c0,0-0.3,0.4-0.4,0.6
	c-0.2,0.3-0.5,0.5-0.7,0.8l-0.4,0.4l-0.1,0.1l-0.1,0.1c-0.3,0.2-0.6,0.4-1,0.6v-8.5c0-1.5-2.7-2.7-2.7-0.8v10.8
	c-1,0.5-2.1,1-3.2,1.5V32.3c0-1.5-2.7-2.7-2.7-0.8v15.9c-1,0.4-2.1,0.7-3.1,1V30.8c0-1.5-2.7-2.7-2.7-0.8v19.2l-1.2,0.3
	c-6.5,1.7-13.1,3.1-19.8,4.1c-18.2-5.1-41.7-8.2-67.4-8.2c-25.8,0-49.5,3.1-67.8,8.3c-5.1-0.8-10.1-1.7-15.1-2.8
	c-5.6-1.1-11.2-2.8-16.5-5.1c-1-0.5-2-1-3-1.5h-0.1l0,0l-0.6-0.4c-0.4-0.3-0.8-0.5-1.2-0.8s-0.6-0.5-0.9-0.7
	c0.6,0.5-0.1-0.1-0.3-0.4c-0.1-0.1-0.1-0.2-0.2-0.3c-0.1-0.1-0.1-0.2-0.2-0.3l0,0l0,0c0-0.3,0.3-1.2,0.3-1.2
	c1.2-2.7-3.2-6.9-4.7-3.6c-2.2,4.8,1,9.2,4.8,11.9c4.5,3,9.7,4.8,14.8,6.3c16.8,4.9,34.5,6.7,51.8,8c23.1,1.7,46.3,1.9,69.4,0.6
	c18.6-1,37.4-2.7,55.4-7.1c5.8-1.3,11.5-3.2,16.8-5.7c3.2-1.7,6.8-4,7.7-7.8c0.3-1.5,0.1-3-0.4-4.4
	C257.5,36.9,256.3,35.4,254.7,35.7L254.7,35.7z M277.1,133.9v8.2c0,1.9,2.4,2,2.4,0.1V134C279.4,132,277.1,131.9,277.1,133.9
	L277.1,133.9z M267.7,136.9v8.2c0,1.7,3.1,1.1,3.1-0.4v-8.2C270.7,134.8,267.6,135.4,267.7,136.9L267.7,136.9z M264.2,43.3l0.2-0.3
	l0-0.1C264,43.2,264,43.4,264.2,43.3L264.2,43.3z"/>
</svg>
