<svg xmlns="http://www.w3.org/2000/svg" viewBox="0 0 350 220"><defs><style>.cls-1{fill:#fff;}</style></defs><title>PDX-CO-Mug</title><path class="cls-1" d="M49,90.25v89.82c0,2.52,4.61,1.83,4.61-.42V89.83C53.6,87.32,49,88,49,90.25ZM39.77,71.44V173.07c0,3,5.76,5,5.76,1.34V72.78C45.53,69.83,39.77,67.81,39.77,71.44Zm18.44,76.3v38.14c0,2.06,2.39,1.42,2.39-.37V147.37C60.6,145.32,58.21,146,58.21,147.74Zm234.5-28.49.17-.08.08,0h0l.14-.07.06-.06s0,0,.09-.05l-.07,0a.92.92,0,0,0,.09-.12,1.73,1.73,0,0,0-.24.19A1.66,1.66,0,0,0,292.71,119.25ZM325.6,72.34a20.27,20.27,0,0,0-6.15-7.78,80.52,80.52,0,0,0-11.71-10.28c-4.13-2.94-8.74-5.73-13.75-6.81-6.24-1.35-12.66-.13-18.75,1.44-1,.26-2,.54-3,.83a12.15,12.15,0,0,0,1-2.28c3.77-12.68-10.12-21-19.86-25.08a144.42,144.42,0,0,0-24.21-7.32,292.71,292.71,0,0,0-30.8-5,471.82,471.82,0,0,0-76.59-2.16C100.17,9,78.3,11.23,57.31,16.72a110.21,110.21,0,0,0-21.72,7.72C30.79,26.85,26,30,23.23,34.76a13.5,13.5,0,0,0-1.64,6.84c.05,5.27,3.6,9.9,7.51,13.16A5.78,5.78,0,0,0,28.93,56V162.49c0,4.92-.07,9.85,0,14.77,0,.07,0,.14,0,.21a7.75,7.75,0,0,0,.08,1.06c.81,10.89,12.14,16.63,21.18,20.31,16,6.51,33.5,9.37,50.54,11.33a415.8,415.8,0,0,0,68.85,2c19.78-1,39.75-3.24,58.93-8.31a114,114,0,0,0,20.72-7.23c4.91-2.38,9.84-5.36,13.31-9.67a17.32,17.32,0,0,0,4-10.62c0-1.76,0-3.53,0-5.29V156.11a219.17,219.17,0,0,0,26.05-8.23,89.93,89.93,0,0,0,18-8.95,27.63,27.63,0,0,0,6.24-5.55,23.63,23.63,0,0,0,3.15-6.1,114.37,114.37,0,0,0,8.31-36.53C328.61,84.62,328.19,78,325.6,72.34Zm-61-32.48h0v0ZM228.91,193.1h0Zm29.2-15.15-.06.23c-.1.24-.2.49-.32.71l-.09.15c-.26.35-.52.7-.8,1l-.43.49c-.74.68-1.49,1.35-2.29,2q-.68.51-1.38,1L252,184l-.29.19c-1.16.65-2.3,1.31-3.49,1.9a81.7,81.7,0,0,1-8.65,3.66c-3.49,1.27-7,2.36-10.63,3.33l-.73.19-1.41.36-3.1.75q-3.13.73-6.29,1.36c-9.51,1.92-19.14,3.27-28.79,4.23a414.22,414.22,0,0,1-67.56,1.12c-18.65-1.19-37.51-3.57-55.54-8.65-3.52-1-7-2.1-10.42-3.4-1.49-.57-3-1.17-4.43-1.81l-.2-.09-.06,0-1-.46q-1-.48-2-1a39.31,39.31,0,0,1-6.27-4c-.4-.32-.77-.66-1.15-1l-.55-.58A19.26,19.26,0,0,1,37.92,178l-.15-.31c-.13-.28-.23-.57-.33-.85,0-.09,0-.17-.05-.26s0-.18,0-.27V70.14c0-3.37,0-6.73,0-10.1a83.58,83.58,0,0,0,9.74,4.06c18.71,6.6,38.76,9.47,58.43,11.28a480.15,480.15,0,0,0,77.2.75c20.59-1.44,41.54-4,61.35-10a103.72,103.72,0,0,0,14-5.18V165.37C258.12,169.54,258.35,173.78,258.1,177.94ZM244.9,54.54Zm20-12.93v0c0,.28-.09.36-.12.34-.12.28-.24.56-.37.84l.11-.1a.82.82,0,0,0-.17.22v0a1.1,1.1,0,0,1-.17.27l0,.05a15.77,15.77,0,0,1-1.95,2.25c-.34.32-.69.62-1,.93l-.09.07-.82.61a38,38,0,0,1-3.31,2.1,65,65,0,0,1-8.28,3.9q-1.14.45-2.3.88L245,54.5l-.07,0-.69.23q-2.7.9-5.43,1.69c-4.18,1.21-8.42,2.24-12.68,3.15A301.59,301.59,0,0,1,196,64.35a459,459,0,0,1-72.46,2c-21.09-1-42.38-3.21-62.91-8.32q-3.06-.76-6.1-1.63c-.28-.08-1.67-.5-.66-.19l-1.23-.38q-1.45-.45-2.89-.94a88.54,88.54,0,0,1-9.38-3.73c-1.32-.62-2.61-1.3-3.88-2l-.75-.47q-.84-.54-1.65-1.13t-1.3-1l-.47-.4c-.31-.34-.64-.66-.94-1l-.28-.35-.42-.71-.07-.22c0-.12,0-.24,0-.36s0-.47.05-.63v-.05l0-.12c.15-.37.31-.73.47-1.09l.14-.25.1-.15A15.77,15.77,0,0,1,33.32,39c.33-.32.69-.61,1-.92l0,0,.81-.61a44.85,44.85,0,0,1,7.06-4.07c1.47-.7,3-1.34,4.47-1.94q1.22-.49,2.45-.94l1.11-.4.24-.08.51-.17c18.21-6.12,37.66-8.77,56.72-10.47a466.69,466.69,0,0,1,73.31-.7c20.12,1.38,40.5,3.82,59.93,9.42l.9.27.81.25q1.46.45,2.9.94c1.7.57,3.38,1.18,5.05,1.85a68.67,68.67,0,0,1,8.28,3.9l.05,0,.78.49q.79.51,1.56,1.06t1.31,1l.55.47c.29.32.6.62.88.95l.34.41.41.7,0,.07,0,.13c0,.15,0,.34,0,.5l0,.22,0,0v0A2.35,2.35,0,0,0,264.87,41.61Zm.1-.32v0l0,0A.26.26,0,0,0,265,41.29Zm52.37,44.24L309,82.2c-.06-.5-.12-1-.2-1.5l8.47,3.37C317.28,84.55,317.3,85,317.33,85.53Zm-.58-5.5c0,.34.09.67.14,1l-8.8-3.5c-.13-.47-.27-.95-.42-1.42l9,3.59Zm-1-3.61-9.36-3.72c-.16-.36-.32-.72-.5-1.09l9.41,3.74C315.44,75.7,315.59,76.05,315.73,76.41Zm-7.28-7.78.28.08.78.3c.29.12.57.26.86.39h0c.51.33,1,.66,1.48,1l.41.35.21.21c.15.16.28.34.42.5l-9.15-3.64-.1-.16C305.28,68,306.86,68.27,308.45,68.63Zm-41.92-6.91a98.41,98.41,0,0,1,11.09-4.13l2.08-.6.84-.22.31-.07c1.46-.34,2.92-.65,4.4-.89,1.29-.21,2.6-.37,3.9-.46l.66,0h.34c.53,0,1.05.06,1.58.1l.18,0c.44.1.88.22,1.31.35.24.07,1.78.7,1,.31s.71.32,1,.44c1,.45,1.88.94,2.79,1.47.47.27.92.56,1.38.84l-.12-.08.15.1,0,0,.24.16h0l-.28-.19,0,0,.3.21a66.3,66.3,0,0,0-20.07,2.74,83,83,0,0,0-13,4.95Zm0,14.91A8.44,8.44,0,0,0,268,76c-.35.21-.77.47,0,0s1.55-.87,2.34-1.28a75.2,75.2,0,0,1,8-3.59l1.28-.47.48-.17c1-.31,2-.64,3-.92,2-.58,4.12-1.08,6.21-1.46.93-.17,1.86-.31,2.79-.44l.43.43.52.56.06.07h0c.44.55.89,1.09,1.31,1.65a31.21,31.21,0,0,1,2.53,4c.37.71.71,1.44,1,2.18l.05.12c.09.23.17.46.25.69q.25.71.47,1.43a29.19,29.19,0,0,1,1.13,6.2c.35,4.84-1,10.27-1.86,15.21-.71,4.11-1.41,8.24-2.39,12.3-.17.72-.36,1.44-.56,2.16-.09.3-.18.6-.27.9.29-1-.05.15-.13.37a19.73,19.73,0,0,1-1.26,2.75l-.13.16.07,0-.06.12,0,0h0l-.17.1c-.2.18-.22.17-.14.07h0l-.05,0-.25.16.08-.08c-.46.22-.92.45-1.4.66-2.92,1.3-5.93,2.38-8.94,3.45-3.9,1.38-7.83,2.68-11.76,3.95l-4.08,1.3Zm27,42.09a1.2,1.2,0,0,0-.21.16l.06-.1ZM316.06,102q-.43,2.33-1,4.64a130.66,130.66,0,0,1-4.79,16.26c-.67,1.81-1.47,3.57-2.19,5.36-.11.16-.2.32-.31.48a13.46,13.46,0,0,1-1,1.28c-.16.18-.65.92-.22.25s-.06,0-.27.24c-.44.4-.89.78-1.36,1.15-1.06.84-2.17,1.59-3.31,2.32l0,0-.82.48q-1,.59-2.06,1.13c-2.81,1.48-5.72,2.79-8.66,4s-5.94,2.33-9,3.37l-.22.08-1,.33-2.12.69q-2.07.67-4.14,1.29c-2.37.72-4.75,1.38-7.14,2V136q3.13-1,6.26-2a1.41,1.41,0,0,0-.45,1v8.24c0,.69.26,1.65,1.06,1.81s1.3-.59,1.3-1.27v-8.24c0-.69-.26-1.65-1.06-1.81h0q5.18-1.66,10.33-3.43c3.36-1.16,6.71-2.35,10-3.72,2.37-1,5-2.05,6.75-4a19.09,19.09,0,0,0,3.44-7.21,100.58,100.58,0,0,0,2.43-11.08c.38-2.08.8-4.19,1.2-6.3l8.41,3.35C316.14,101.54,316.11,101.78,316.06,102Zm.66-4.13c0,.23-.06.46-.1.7l-8.37-3.33c.3-1.75.56-3.51.72-5.26l8.23,3.27C317.1,94.8,316.93,96.34,316.73,97.88Zm.65-7.46-8.21-3.26c0-.66,0-1.32,0-2l8.25,3.28s0,0,0,.06C317.42,89.16,317.4,89.79,317.37,90.42ZM264.74,42l.08-.17a1.48,1.48,0,0,0,.05-.2l0-.25C264.68,41.64,264.68,41.95,264.74,42Zm-10-6.34c-1.47.25-2,2.09-1.45,3.32.09.23.18.85.23.94s0,.11,0,.15l-.06.11-.26.54s-.28.44-.42.62a9.44,9.44,0,0,1-.72.78l-.42.39-.09.09-.08.06c-.31.23-.64.42-1,.64V34.83c0-1.51-2.66-2.74-2.66-.79V44.89c-1,.55-2.11,1-3.19,1.5V32.29c0-1.51-2.66-2.74-2.66-.79V47.41q-1.53.54-3.09,1V30.81c0-1.51-2.66-2.74-2.66-.79V49.18l-1.22.33a192.08,192.08,0,0,1-19.82,4.11c-18.22-5.12-41.73-8.21-67.43-8.21-25.85,0-49.5,3.13-67.76,8.31-5.06-.79-10.1-1.71-15.1-2.83a85.15,85.15,0,0,1-16.46-5.09c-1-.46-2-1-3-1.5l-.07,0h0l-.59-.37c-.39-.26-.78-.53-1.15-.81s-.57-.47-.86-.71c.61.51-.06-.08-.35-.41-.06-.07-.13-.17-.19-.26a2.68,2.68,0,0,0-.18-.3v0h0c0-.26.34-1.25.34-1.24,1.25-2.68-3.19-6.86-4.72-3.57-2.21,4.75,1,9.24,4.8,11.86,4.45,3,9.7,4.78,14.84,6.28,16.75,4.89,34.48,6.74,51.82,8a542.93,542.93,0,0,0,69.41.58c18.55-1,37.36-2.73,55.45-7.14a76.55,76.55,0,0,0,16.84-5.74c3.22-1.65,6.83-4,7.66-7.8a7.5,7.5,0,0,0-.44-4.4C257.48,36.9,256.3,35.37,254.69,35.64Zm22.39,98.22v8.24c0,1.94,2.35,2,2.35.07v-8.24C279.43,132,277.08,131.9,277.08,133.86Zm-9.47,3v8.24c0,1.67,3.07,1.14,3.07-.36v-8.24C270.68,134.81,267.61,135.35,267.61,136.85Zm-3.48-93.6.18-.3.05-.12C264,43.18,264,43.42,264.13,43.25Z"/></svg>
