<svg id="Layer_1" data-name="Layer 1" xmlns="http://www.w3.org/2000/svg" viewBox="0 0 400 76"><defs><style>.cls-1{fill:#ff00d8;}</style></defs><path d="M161.15,13.89l-.22.35.08.11c.17-.1.45-.15.5-.29.17-.42.53-.37.88-.42a8,8,0,0,1,3.19,0,1.37,1.37,0,0,0,.53,0,1.09,1.09,0,0,1,1.22.9,23.78,23.78,0,0,1,.4,3.12c0,1.63.52,3.23.18,4.9a27.5,27.5,0,0,0-.07,3.75c-.06,1.11-.3,2.22-.38,3.34a13.58,13.58,0,0,0,0,2.47c.1.87,0,1.24-.88,1.53-.15.05-.37-.06-.55-.1a5.18,5.18,0,0,0-1.45-.29c-1.35.17-2.67.45-4,.68-.16,0-.35-.06-.52,0-.52,0-1.05.08-1.57.13s-.87.05-1.29.1a14.28,14.28,0,0,0-1.48.25c-.68.18-1.35.4-2,.62-.11,0-.29.17-.27.21a.94.94,0,0,0,.28.47,22.52,22.52,0,0,1,1.8,1.38,20,20,0,0,1,2.21,2.49c.41.55.52,1.3.89,1.89a23.08,23.08,0,0,0,1.67,2.29c.73.91,1.49,1.8,2.24,2.7.46.54.92,1.07,1.36,1.62a21.36,21.36,0,0,1,2.62,4.11c.47,1,1.18,1.93,1.75,2.91.22.38.34.8.55,1.19.33.65.68,1.3,1,1.93a.76.76,0,0,0,.49.34c.13,0,.35-.24.38-.4a19.8,19.8,0,0,0,.43-2.52c0-.33-.21-.67-.31-1a2.36,2.36,0,0,1,0-2,5.5,5.5,0,0,0,.43-1.85c.13-1,.22-2.07.28-3.11,0-.45-.16-.91-.13-1.36.15-2.2.4-4.39.49-6.59a9.09,9.09,0,0,0-.06-3,10,10,0,0,1-.07-2.69c0-.56,0-1.12,0-1.68a1.29,1.29,0,0,0,0-.44c-.59-1.57.06-3.11.25-4.62.14-1.11.47-2.22.54-3.35a8.13,8.13,0,0,0-.13-.84,1.53,1.53,0,0,1,.05-.83c.23-.42.28-.7-.2-1a.74.74,0,0,1-.19-.67c.1-.48.36-.94.46-1.42.17-.81,1-1,1.48-1.61a8.41,8.41,0,0,1,.77-.91,1.47,1.47,0,0,1,.84-.4,4.13,4.13,0,0,0,1.47-.45,5.78,5.78,0,0,1,2.28-.28c1.61,0,3.21.16,4.81.21,1.19,0,2.37,0,3.56,0,.2,0,.4.19.62.29a3,3,0,0,1,.76-.07,8.52,8.52,0,0,0,3.3.05,1.79,1.79,0,0,1,.4,0,24.65,24.65,0,0,1,4.21,0,12,12,0,0,0,3.07-.15,1.55,1.55,0,0,0,.59-.26,1.18,1.18,0,0,1,1.84.6c1,.26,1.59-.43,2.33-.77a4.69,4.69,0,0,1,1.59-.62c.28,0,.78.55.84.91a8.1,8.1,0,0,1-.07,2.14c-.07.57-.53,1.12,0,1.67.06.05,0,.2,0,.31-.22,1.29-.39,2.6-.71,3.88A3.73,3.73,0,0,0,207,26a.72.72,0,0,1-.25,1c-.68.43-1.41.77-2.09,1.18a1.16,1.16,0,0,0-.47.63,1.61,1.61,0,0,1-1.92,1.42c-.08,0-.22,0-.24,0-.23.59-.77.38-1.21.42-2.11.19-4.22.44-6.33.57a17.36,17.36,0,0,1-4.67,0c-1.17-.27-2.33-.15-3.47-.39-.15,0-.5.2-.51.33a18.49,18.49,0,0,0,0,2c0,.57.09,1.13.09,1.69,0,.38.16.55.56.49s1-.24,1.57-.29a13,13,0,0,1,2-.06c.62,0,1.22.25,1.83.32s1.14,0,1.71,0,.72.23.61.72a5.58,5.58,0,0,0-.12,1c0,.72,0,1.45,0,2.17,0,.54-.12,1.07-.11,1.61a2,2,0,0,0,.26,1.06,1.34,1.34,0,0,1-.16,2c-.53.54-1.14,1-1.64,1.58s-.86,1.2-1.33,1.76-1.23,1.35-1.88,2c-.2.21-.51.33-.73.52a1.06,1.06,0,0,1-1.24.11.61.61,0,0,1-.25-.54c.19-.66.08-.9-.61-1.06-.18,0-.38,0-.69-.1.08.61.17,1.16.22,1.7a2.54,2.54,0,0,1,0,1,3.58,3.58,0,0,0,.26,2.72c.17.33,0,.81,0,1.35.89-.15,1.78-.33,2.68-.44a15.11,15.11,0,0,1,2.68-.19c.86,0,1.7,0,2.56,0,1.67.08,3.35.06,5,.06a6.42,6.42,0,0,0,1.06-.14,18.27,18.27,0,0,0,2-.42,2,2,0,0,1,1.62.31c.37.21.39,1.17,0,1.29-.63.18-.57.63-.62,1-.08.69-.11,1.39-.16,2.09-.09,1.28-.18,2.55-.26,3.83,0,.08,0,.18,0,.25a13.46,13.46,0,0,1-1.75,2.7,15.74,15.74,0,0,1-3.13,2.07,1.13,1.13,0,0,1-1-.18,2.77,2.77,0,0,0-2.6-.47,25.43,25.43,0,0,0-2.76-.58,22.53,22.53,0,0,0-2.72.08,2.6,2.6,0,0,1-.26,0,10.68,10.68,0,0,1-2.62-.34,16.09,16.09,0,0,0-3.49-.52c-1.55-.22-3.11-.41-4.66-.61-.16,0-.35-.08-.47,0-1,.53-2,0-3-.19a8.3,8.3,0,0,1-1.52-.34l1.2-.54c-1-.52-1-.5-1.69.12a1.07,1.07,0,0,1-.87.25c-.24-.08-.4-.43-.56-.68-.06-.09,0-.29-.05-.36-.64-.63-.34-1.35-.24-2a1.43,1.43,0,0,0,0-.39c-.12,0-.25,0-.27.07-.6,1.22-1.89,1.83-2.8,2.76-.45.46-.93.89-1.38,1.34a.86.86,0,0,1-1.14.12,2,2,0,0,0-.79-.25c-.82,0-1.65.11-2.48.1-1.18,0-2.36-.09-3.55-.14a1,1,0,0,0-.38,0c-.34.13-.7.24-.87-.14s-.4-.87-.25-1.14a.73.73,0,0,0-.26-1.08,3.2,3.2,0,0,1-1-1.27,17.56,17.56,0,0,0-1.12-1.53c-.59-1-1.1-2-1.67-3-.37-.66-.77-1.31-1.19-1.93-.61-.89-1.27-1.74-1.87-2.62a23.51,23.51,0,0,1-1.23-2.88c-.43-.89-1-1.74-1.46-2.59-.08-.14-.25-.22-.46-.41a4.26,4.26,0,0,0-.07,2.59,5.37,5.37,0,0,1,.13,1c0,1.67.09,3.34.1,5,0,.82-.13,1.64-.08,2.45a14.12,14.12,0,0,0,.38,2.5c.08.38,0,.59-.37.62-.77.06-1.19.36-1.27,1.1,0,.22-.29.41-.43.61s-.42.64-.68.93a1.89,1.89,0,0,1-.52.31,7.48,7.48,0,0,0-1.28.7,1.07,1.07,0,0,1-1.48.15,1.65,1.65,0,0,0-.88-.16c-1.36.16-2.72.35-4.07.53-.11,0-.22.06-.33.07-.87.13-1,.06-1.26-.7l-.41.21c-.75.39-1.09.21-1.47-.47-.73-1.32-.56-2.72-.54-4.11,0-1.73.06-3.47.19-5.2.1-1.4.39-2.8.49-4.2.09-1.21.6-2.37.2-3.63a10.3,10.3,0,0,1-.33-2.77,5.43,5.43,0,0,1,.29-1.58A12.21,12.21,0,0,0,133,38.4c0-1,.15-1.95.23-2.92,0-.25,0-.5,0-.75,0-.87,0-1.74,0-2.61a.49.49,0,0,1,0-.25c1-1.36.52-2.82.4-4.28a7.38,7.38,0,0,1,.51-4.06c.17-.35,0-.81.17-1.19a7.56,7.56,0,0,1,.73-1.55,14.27,14.27,0,0,1,1.34-1.85,5,5,0,0,1,1-.72l.43.48c.05-.05.1-.07.1-.1,0-.35-.47-.72.11-1a11.7,11.7,0,0,0,1-.73c.11-.09.31-.15.34-.25.27-1,1.12-.84,1.89-.93,1.45-.16,2.89-.34,4.34-.53,1.87-.26,3.73-.57,5.6-.79,1.16-.14,2.33-.16,3.5-.22l6.19-.3A.75.75,0,0,1,161.15,13.89ZM137.84,61.64c.22-.29.51-.5.5-.71A1.42,1.42,0,0,1,140,59.46a4,4,0,0,0,2-.16,3.87,3.87,0,0,1,1.82-.56c.69,0,.94-.41.87-1.06a4.71,4.71,0,0,1,.06-.74c0-1,.06-2,.06-3,0-.67-.09-1.33-.07-2,0-.41.21-.82.19-1.22,0-1-.18-1.91-.26-2.86a17.7,17.7,0,0,0-.22-3.15,30.57,30.57,0,0,1-.46-4.3,4.53,4.53,0,0,0-.17-1.54c-.38-.75-.6-1.42,0-2.13a.12.12,0,0,0,0-.14c-.4-.29,0-.35.16-.46,1.46-.94,3.27.66,3.4,1.84,0,.4,0,.89.18,1.2a24.3,24.3,0,0,0,1.84,2.24,2.44,2.44,0,0,0,.65.39c.14.08.36.13.41.25.26.58.46,1.19.73,1.77a7.39,7.39,0,0,0,.61.89,2.73,2.73,0,0,1,.4.64,7.69,7.69,0,0,0,1.06,2.32c1.14,1.49,2.11,3.11,3.16,4.67.19.27.56.49.63.79a8.4,8.4,0,0,0,1.78,2.79c.52.71,1,1.45,1.55,2.14.36.45.54,1.11,1.28,1.2s1.77.22,2.66.27c1.17.07,2.35.07,3.52.12.64,0,.92-.29.65-.85-.56-1.17-1.15-2.32-1.77-3.46-.35-.66-.76-1.28-1.15-1.91-.94-1.53-1.83-3.08-2.83-4.57a29.75,29.75,0,0,0-1.93-2.3c-.6-.72-1.15-1.47-1.76-2.18a13.18,13.18,0,0,1-2.26-3.45,5.34,5.34,0,0,0-1-1.72,17.07,17.07,0,0,0-2.39-2c-.78-.55-1.32-1.15-1.24-2a3.44,3.44,0,0,1-.9-.45c-.4-.4-.22-.84.18-1.13a1.38,1.38,0,0,1,1.54-.26,2.17,2.17,0,0,0,2.34-.17,4.41,4.41,0,0,1,1.72-.44c.61-.08,1.24,0,1.85,0a7.34,7.34,0,0,1,2.56-.24,1.73,1.73,0,0,0,.6,0l3.78-.63c.06-.82.08-1.59.18-2.35.07-.52.31-1,.35-1.55.07-.8,0-1.61,0-2.41,0-1.15.21-2.31.22-3.47a26.3,26.3,0,0,0-.52-5.86c-.21-.92-.3-1.08-1.29-1-.8,0-1.6.16-2.39.22s-1.6,0-2.39.09c-1,.08-2.08.25-3.12.3-1.64.08-3.28.08-4.92.16-1.29.06-2.59.17-3.87.32-1.7.2-3.4.44-5.09.69-.56.08-1.11.2-1.66.32-.34.08-.67.2-1,.29s-.54.05-.58.16a6.28,6.28,0,0,0-.59,1.89c-.11,2.18-.13,4.37-.16,6.55,0,1.53,0,3.06,0,4.59a3.44,3.44,0,0,1,0,.56c-.11.82-.27,1.63-.35,2.45s-.1,1.76-.16,2.64c0,.61-.15,1.21-.12,1.81a21,21,0,0,0,.11,4.12c.07.29-.12.63-.13.95,0,.68,0,1.37,0,2.05-.06,1.3-.16,2.59-.22,3.89s-.1,2.67-.16,4a1.18,1.18,0,0,1-.11.35l-.72,2.39c0,.05,0,.11,0,.18.06.42.14.84.17,1.26.1,1.27.17,2.53.27,3.79C137.53,61.27,137.67,61.38,137.84,61.64ZM184,47.87c-.56-.07-.84-.46-1-1a.87.87,0,0,1,.46-1.11c.35-.21.38-.4.06-.69a.9.9,0,0,1-.29-.6,2,2,0,0,1,2.7-1.62,7,7,0,0,0,1.51.47,8.81,8.81,0,0,0,1.83.28,8.4,8.4,0,0,0,1.37-.3c.77-.11,1.48-.2,1.54-1.18,0-.49.36-1,.43-1.46a8.62,8.62,0,0,0,0-1.52c0-.46,0-.93-.06-1.4a.57.57,0,0,0-.17-.39,3.91,3.91,0,0,0-1.43-.68c-1.09-.09-2.21.07-3.31,0s-2.5.9-3.31-.63l-.06,0c-.74-.42-.84-.87-.31-1.53a1,1,0,0,0,.18-1.26,2.23,2.23,0,0,1,0-1.09,4,4,0,0,0,.16-1.16,12.61,12.61,0,0,1,.39-4.7.81.81,0,0,1,.87-.72c1,.09,2.05-.6,3.08,0a.28.28,0,0,0,.2,0c.38-.26.63,0,.93.18a1.59,1.59,0,0,0,.6.21c1.55.13,3.1.35,4.66.35,1.86,0,3.74-.14,5.6-.29.72-.05,1.43-.35,2.15-.41a.84.84,0,0,0,.81-.62,9.39,9.39,0,0,0,.45-4.67,8.13,8.13,0,0,1,0-1.21V17.74a4,4,0,0,1-1.53,0c-1.05-.5-2.05.08-3.07,0-.82-.09-1.68.12-2.51.09-1,0-2.12.29-3.15-.14a.91.91,0,0,0-.4,0,11.62,11.62,0,0,1-4.59-.17,3.72,3.72,0,0,0-1.28-.16c-1.69,0-3.39,0-5.09-.07-.81,0-1.63,0-2.45,0s-1.72-.15-2.59-.22c-.14.95-.35,1.88-.41,2.83s.12,1.63.09,2.45c0,1-.18,2-.27,3,0,.35-.06.7-.08,1.05-.06.89-.15,1.79-.16,2.68a23.78,23.78,0,0,1,.14,3.05c-.19,1.26.09,2.55-.12,3.83a22.31,22.31,0,0,0,.07,2.44c-.13,2.55-.32,5.1-.51,7.65-.09,1.19-.24,2.36-.34,3.55-.12,1.39-.27,2.78-.32,4.17,0,1,.08,2.08.12,3.13a2.57,2.57,0,0,0,0,.84c.49,1.11.17,2.26.2,3.39,0,.49-.31.76-.89.69a4.74,4.74,0,0,0-.66,0c.23.48.59.54,1.62.31.12-.26.3-.63.5-.64,1.74,0,3.48,0,5.23,0,1.13,0,2.26-.09,3.39-.16s2.13-.22,3.19-.23c1.38,0,2.76.06,4.13.1.92,0,1.84,0,2.75.14,1.65.18,3.3.44,5,.59,1,.09,1.15-.07,1.27-1,.16-1.24.21-2.5.31-3.74a1.47,1.47,0,0,0-1.84-1.65,3.4,3.4,0,0,1-.46.08c-1.81,0-3.63,0-5.45-.09-.5,0-1-.13-1.51-.12-2,.06-3.89.17-5.84.24a1.31,1.31,0,0,0-1.07.38,1,1,0,0,1-.91.21c-.39-.16-1.11-.23-.78-1,.06-.13,0-.3,0-.44a3.42,3.42,0,0,1,.2-1.43.88.88,0,0,0,.11-.9,1.2,1.2,0,0,1-.05-.62,10.25,10.25,0,0,0,.39-1.84A10.11,10.11,0,0,0,184,47.87Zm11.15,14.87c-.84-.58-6.93-.82-7.57-.22C190.2,62.72,192.68,62.74,195.16,62.74Zm-20.06-43c-1,.48-1.16.8-1,1.54.08.47.17.94.29,1.4,0,.12.21.21.32.32a1.3,1.3,0,0,0,.28-.36,3,3,0,0,0,0-.6C175,21.3,175.05,20.56,175.1,19.73Zm-38.83,15.5c0,.33-.1.66-.12,1,0,.52,0,1-.09,1.54a9.71,9.71,0,0,1-.25,1.09C136.78,38.55,137.14,36,136.27,35.23ZM158.61,60a6.78,6.78,0,0,0-1.05-.06c-.16,0-.44.3-.42.34.24.44.53.86.87,1.37l1-1.2Zm34.82-32.17-.09.17c.27.18.53.5.8.5a14.16,14.16,0,0,0,2-.23c.09,0,.2-.14.23-.23s-.12-.2-.18-.21C195.29,27.83,194.36,27.84,193.43,27.84ZM174,29.72a2.19,2.19,0,0,0-.65,2.29C174.3,31.43,174,30.58,174,29.72Zm12-1.1c.23-.24.47-.45.66-.69a.39.39,0,0,0,0-.35.36.36,0,0,0-.28-.1C186.07,27.53,185.81,28.21,186.05,28.62ZM136.28,61.2l-1.14.95C136.08,62.46,136.4,62.22,136.28,61.2Zm66.56-33.33.65-.78-.1-.17-.92.13ZM135.61,58.42l-.22,0c-.1.36-.2.72-.28,1.08l.31.1c.1-.31.2-.62.28-.93C135.71,58.57,135.64,58.49,135.61,58.42Zm31.73,2.87c-.5-.37-.81-.51-1-.12-.07.12.07.36.11.54Z"/><path d="M5.74,63a6.68,6.68,0,0,1-1.34.21.92.92,0,0,1-.62-.44c-.06-.11.12-.41.28-.55a11.26,11.26,0,0,0,2.79-2.63c.11-.19.53-.21.7-.4.45-.5.81-1.06,1.26-1.55a2,2,0,0,1,.77-.49c.37-.14.72-.19.52-.73-.15-.38.12-.62.58-.63,1.61,0,3.23,0,4.83-.15s3-.4,4.51-.48,2.82.07,4.23.08c.51,0,1-.07,1.53-.11l4.48-.3c.35,0,.7-.06,1.18-.11-.22-.32-.37-.57-.54-.8L30.23,53c-.08-.1-.13-.25-.24-.29a8.13,8.13,0,0,0-1.7-.58,22.8,22.8,0,0,0-2.34,0c-1.24,0-2.48-.09-3.72-.13l-4-.09c-.77,0-1.53-.06-2.29,0a69.47,69.47,0,0,1-7.07,0,2.67,2.67,0,0,1-1.64-.51.59.59,0,0,1-.2-.56c.1-.15.4-.21.62-.29,0,0,.15.06.19,0,.58-.28,1.15-.57,1.9-1A6.29,6.29,0,0,0,9,49.5a3.94,3.94,0,0,1-.92,0c-.75-.28-1.19-.06-1.4.62a.75.75,0,0,1-1.07.54c-.37-.19-.58-.67-.81-1,0-.07.12-.29.24-.41a4.94,4.94,0,0,1,.56-.44c.51-.42.9-.86.13-1.53a4.32,4.32,0,0,0-.58.51,2.45,2.45,0,0,0-.31.55c-.17.33-.45.63-.82.43a1,1,0,0,1-.45-.78c-.09-1.76-.15-3.52-.16-5.28a2.39,2.39,0,0,1,.35-1.31A4.55,4.55,0,0,0,4.46,38a20.7,20.7,0,0,1-.06-2.73c0-1.1.06-2.2.13-3.29a9.3,9.3,0,0,1,.25-1c0-.15,0-.44,0-.46-1.38-.42-1-1.48-.91-2.33.13-1.32.43-2.62.67-3.93a.58.58,0,0,0-.36-.76.63.63,0,0,1-.31-1c.27-.41.49-.84.79-1.23.77-1,1.56-2,2.35-3,.1-.13.26-.28.25-.42,0-1,.8-1.13,1.54-1.36.24-.07.44-.24.68-.3A3.05,3.05,0,0,1,10.57,16a31.63,31.63,0,0,0,6.3.2c1.36-.08,2.71-.32,4.06-.46s2.94-.3,4.41-.38,3.19-.11,4.78-.15c.48,0,.92,0,.91.64,0,.09.31.26.48.26,1.14,0,2.29-.09,3.43-.14s2.53-.06,3.79-.14,2.25-.24,3.38-.34a3.57,3.57,0,0,1,.91.13c.63.11,1.25.27,1.89.33s1.58.07,2.37.14.09.37.08.56c.58.48.56.56-.32,1,.19.33.39.67.56,1a1.54,1.54,0,0,1,.17.59c.06,1.1.07,2.21.15,3.32.1,1.38.24,2.77.36,4.16.07.77-.14,1-1,.92a1.31,1.31,0,0,0-1.19.46,10.42,10.42,0,0,0-2.32,3,.79.79,0,0,1-.59.31,2.85,2.85,0,0,0-2,.57c-.19.16-.72,0-1.09-.1a3.91,3.91,0,0,0-.8-.16,5.11,5.11,0,0,0-1.16.25c-2.24.68-4.56.46-6.85.58-.88,0-1.78-.28-2.65-.22-2.48.18-4.9-.36-7.35-.4h-.13c-1.63-.09-1.67-.06-1.61,1.43,0,.79.1,1.59.11,2.38a2.58,2.58,0,0,1-.15,1.11,4,4,0,0,0-.18,3c.6,0,1.26-.07,1.91-.14l4.8-.5c1.26-.14,2.51-.36,3.77-.45,1.65-.1,3.3-.08,4.94-.18s3.43-.45,5.14-.43a18.63,18.63,0,0,0,4.3-.44c.56-.12,1.12-.25,1.69-.33s.84,0,1,.44c.09.3.09.59-.34.69s-.4.27-.38.64c0,1-.09,2-.09,3a1.77,1.77,0,0,0,.36.78,7.58,7.58,0,0,1,.89,4c0,2.37,0,4.75,0,7.13a17.13,17.13,0,0,0-.07,3.35,14.73,14.73,0,0,1,0,3.38,12.44,12.44,0,0,1-.62,3.11,5.22,5.22,0,0,1-.81,1.32.54.54,0,0,1-.36.25,2.83,2.83,0,0,0-1.52.79,1.26,1.26,0,0,1-.54.2,4.57,4.57,0,0,0-3,2,1.71,1.71,0,0,1-1.33.85c-2.9,0-5.79-.1-8.69-.1-2.18,0-4.37.07-6.56.13-.5,0-.94,0-1-.61,0-.11-.5-.28-.71-.22a14.72,14.72,0,0,1-4.44.21c-2.4-.06-4.8-.14-7.19-.29a9.22,9.22,0,0,1-2.65-.56,5.71,5.71,0,0,1-1.41-1.17c-.1-.09-.18-.22-.3-.28C5,65.91,4.83,65.38,5.3,64.3A13.33,13.33,0,0,0,5.74,63ZM22.8,18.4c.14.5.26.91.36,1.33s-.09.47-.45.37-.45-.18-.69-.23c-1.51-.34-3-.76-4.54-1-1.84-.26-3.7-.34-5.55-.5-.82-.08-1.64-.23-2.46-.25a.93.93,0,0,0-.7.49c-.18.37.17.42.49.45a.42.42,0,0,1,.31.2,4.89,4.89,0,0,1,.49,1.42c.06,1.28,0,2.56,0,3.84a4.46,4.46,0,0,0,.62,2.65c.34.52.1.9-.14,1.33a2.75,2.75,0,0,0-.45.95,26,26,0,0,0-.19,2.92c0,1.31.08,2.63.13,3.94,0,.68.08,1.36.09,2s-.06,1.63,0,2.43c0,.5.43,1,.45,1.46a18.11,18.11,0,0,1-.15,2.94c-.06.5,0,.66.58.58l8.28-1.1c.4,0,.79-.14,1.19-.15a.78.78,0,0,1,.57.22c.07.12-.06.36-.11.55s-.19.4-.14.57a8.3,8.3,0,0,0,.52,1,11.15,11.15,0,0,0,1.41,0c1.66-.18,3.31-.41,5-.59.51-.06,1.05-.15,1.41.35a.29.29,0,0,0,.23.06c.95-.08,1.92-.12,2.86-.28s1.05-.2,1.54.67a.69.69,0,0,0,1.09.27c.37-.28.73-.18.71.25a3.11,3.11,0,0,0,.6,2.1.46.46,0,0,1,.11.29c0,1,.12,2.09.07,3.13,0,.83-.36,1.68.59,2.29.07,0,0,.36,0,.42a3.79,3.79,0,0,1-.81.39,13.88,13.88,0,0,0-1.83.71c-.45.27-.67.07-1-.14a2.66,2.66,0,0,0-1-.54,19.67,19.67,0,0,0-5.36.28c-1.35.18-2.68.43-4,.57-.32,0-.68-.28-1-.44s-.47-.39-.71-.39a12.74,12.74,0,0,0-1.95.1,42.48,42.48,0,0,1-7.56.45c-.46,0-.51.22-.36.51s.32.33.47.51.36.34.34.49c-.18,1.49.58,3.09-.69,4.52a7.11,7.11,0,0,1,.93,0c1.08.17,2.16.38,3.24.52.54.07,1.1,0,1.65,0,.85.06,1.69.2,2.54.22s1.56-.09,2.34-.1c1.7,0,3.41,0,5.11,0,.27,0,.72-.13.79-.3.29-.71.81-.68,1.47-.63,1.78.13,3.57.2,5.35.3.5,0,1,.13,1.48.19a5,5,0,0,0,.66.08c2,0,4,0,6.06-.14a15.89,15.89,0,0,0,2.36-.38.46.46,0,0,0,.32-.27,6.87,6.87,0,0,0,.25-1.54c0-.88-.2-1.76-.21-2.64,0-1.14.07-2.27.12-3.41,0-.33.09-.66.1-1,0-1,0-2,.11-3a7.73,7.73,0,0,0-.19-3.73,4.28,4.28,0,0,1-.43-1.4c-.09-1.29-.09-2.59-.13-3.88,0-.79-.06-1.57-.08-2.36,0-.32-.06-.44-.46-.35-.67.15-1.37.22-2,.32a26.57,26.57,0,0,0-2.7.37c-1.51.36-3,.82-4.48,1.26-.53.15-1,.06-1.15-.44s-.6-.46-1-.43c-.66,0-1.31.1-2,.15-1.12.07-2.24.17-3.36.21-.65,0-1.31-.12-2-.08-1.3.11-2.6.31-3.9.43s-2.58.22-3.87.27c-.6,0-.78-.3-.6-.85a2,2,0,0,0,.13-.73c-.11-1.55.34-3.06.17-4.64s.18-3-.22-4.48a.56.56,0,0,1,.09-.41c.27-.35.14-.56-.19-.78s-.89-.55-.54-1,1-.88,1.32-.76c1,.38,1.68-.14,2.4-.45a3,3,0,0,1,2.26-.29,20.54,20.54,0,0,0,4.53.37c.86,0,1.72-.14,2.58-.17.62,0,1.25.06,1.84.09.49-1.07.6-1.12,1.81-.93a10.93,10.93,0,0,0,1.13.15c.8,0,1.61,0,2.41,0,1,0,2,.11,3,.08,1.59-.05,3.17-.24,4.76-.24,1.15,0,2.2-.78,1.47-2.11a7.15,7.15,0,0,1-.74-3.51,7.53,7.53,0,0,0-.13-1.05,4.66,4.66,0,0,1-.13-.82,1.33,1.33,0,0,0-1.31-1.55,12.43,12.43,0,0,0-2.72.06,50.67,50.67,0,0,1-5.77.8c-1.8.19-3.61.35-5.43.39C27.89,18.45,25.36,18.4,22.8,18.4ZM34.52,28.48v.16a.82.82,0,0,0,.28.11c1-.08,1.89.24,2.92-.17a10.54,10.54,0,0,1,5.24-.4c.28,0,.64.21.68-.22s-.37-.4-.68-.39c-.55,0-1.11.08-1.66.1a15.31,15.31,0,0,0-2.36.11,13.68,13.68,0,0,1-3.87.57A1.83,1.83,0,0,0,34.52,28.48Zm-25.63,32-.26-.11.47.32a1.15,1.15,0,0,1,.43,1.11c0,.71-.64,1.36-.26,2.12.06.11-.15.33-.23.47l.29.83a1.06,1.06,0,0,0,.85-1.3c-.12-1.19-.17-2.38-.25-3.57,0-.33,0-.67-.06-1.13Zm2-12.43,5.7.22a1.45,1.45,0,0,0-1.43-.66,1.87,1.87,0,0,1-1.72-.36,1,1,0,0,0-.68-.14c-.46,0-.92.17-1.38.23S10.89,47.62,10.92,48Zm.9,17.67,4.8-.21c-.06-.22-.12-.29-.19-.3-1.25-.17-2.5-.39-3.76-.47C12.14,64.69,11.93,65.21,11.82,65.7ZM5.58,37.94l.3,0a3.44,3.44,0,0,0,.21-.76c0-.67.06-1.34,0-2,0-.11-.19-.22-.29-.32-.12.11-.35.22-.35.33C5.5,36.12,5.55,37,5.58,37.94ZM24.89,29l-.07-.34-2.89.19c-.07,0-.14.13-.21.2.11.08.22.22.33.23a13.19,13.19,0,0,0,1.54,0A11.57,11.57,0,0,0,24.89,29ZM26,67.55c-.56-.57-1.06-.59-1.75,0ZM8.22,45.91l.31.08L9,44.49l-.38-.09Zm.45-5.35a1.39,1.39,0,0,0,.14,1.81,2.3,2.3,0,0,0,.19-.7A8.19,8.19,0,0,0,8.67,40.56ZM19.58,28.88l-.37,0,.06,1,.54,0Zm15,20.27-.28,0a5.64,5.64,0,0,0-.29.78c0,.08.14.26.23.27s.31-.11.32-.19A5.58,5.58,0,0,0,34.61,49.15Z"/><path d="M70.28,36.3l1.11.23,1.3.25c-.14-.57-.21-1,.57-1l-.16.27,2.93-.3a14.5,14.5,0,0,0-.43-2.89c-.29-.81.15-1.5.1-2.26A22.49,22.49,0,0,1,76,24c.25-1.05.52-2.1.8-3.2a1.26,1.26,0,0,1-1.31-1.22c-.09-.7.37-1.23,1-1.66A28.88,28.88,0,0,0,79,16.13c.45-.35.88-.74,1.32-1.11.09-.07.26-.13.26-.19,0-.92.85-.64,1.32-.89a.43.43,0,0,1,.39.09c.55.66,1.31.54,2,.52,1.08,0,2.16-.14,3.22-.07a9.53,9.53,0,0,1,2.19.56c.47.14.39.54.29,1A5.56,5.56,0,0,0,90,18.16c.22,1.38.58,2.74.85,4.11a1.22,1.22,0,0,1-.38,1.06,2.26,2.26,0,0,0-.29,1.33q0,1.9.12,3.81c.08,1.12.29,2.23.35,3.35,0,.48.18,1-.25,1.49a1.7,1.7,0,0,0-.24.95c-.12,1.12-.23,2.24-.31,3.37,0,.53,0,1.08,0,1.61,0,1.23,0,2.46,0,3.69a3.77,3.77,0,0,1-.31.91,1.18,1.18,0,0,0-.1.4c.2,1.84.42,3.69.61,5.54.06.58.08,1.16.09,1.75a.55.55,0,0,1-.2.43c-.88.4-.64,1.12-.61,1.76.11,1.69.25,3.38.39,5.07.07.81.14,1.62.25,2.43.08.65-.12.9-.64.89-.4.53-.7,1-1.08,1.43A27.21,27.21,0,0,1,85.91,66a2.25,2.25,0,0,1-1.37.3c-1.1,0-2.2-.19-3.29-.22a5.62,5.62,0,0,0-1.56.27,1.66,1.66,0,0,1-1.93-1l1.52-.47c-.51-.14-1-.24-1-.85a.7.7,0,0,0-.41-.1A9.22,9.22,0,0,0,77,65c-.06.1.09.3.15.51a4.32,4.32,0,0,1-1.1.11,6.22,6.22,0,0,1-1.27-.45c-.58-.24-.42-.75-.48-1.2A12.11,12.11,0,0,0,74,62.54a1.38,1.38,0,0,1,.32-1.46.86.86,0,0,0,.27-.49c.14-1.05.3-2.1.37-3.15.1-1.65.13-3.29.18-4.94,0-.3,0-.53-.37-.71-.21-.11-.25-.53-.3-1l-1.58.42a12.43,12.43,0,0,0-1.37.33.65.65,0,0,0-.38.46c0,.87.08,1.75,0,2.63s-.14,1.7-.24,2.55a.4.4,0,0,1-.25.27c-.58.12-.55.51-.51.92.1,1,.17,1.95.28,2.92a.8.8,0,0,0,.21.42.71.71,0,0,1,0,1.06c-.43.55-.8,1.12-1.2,1.68A2.26,2.26,0,0,1,69,65c-.45.36-1,.61-1.18,1.24-.15.41-.76.74-1.24,1-.21.09-.62-.17-.93-.29s-.37-.29-.53-.27c-1.43.17-2.85.38-4.28.57a1.79,1.79,0,0,1-.4,0c-1.14-.11-2.27-.26-3.42-.33a2.18,2.18,0,0,0-.89.34,3.31,3.31,0,0,1-.75.38,1,1,0,0,1-.79-.18.7.7,0,0,1,0-.7A1.76,1.76,0,0,0,55,65.18l-.21-.07a6.25,6.25,0,0,0-.35,1,.75.75,0,0,1-.78.71c-.51,0-.51-.34-.69-.66-.47-.84.18-1.53.18-2.29,0-1.08.08-2.15.11-3.22,0-.16-.12-.31-.16-.47a6.1,6.1,0,0,1-.22-1c-.07-1.58-.1-3.17-.17-4.75a.64.64,0,0,0-.26-.47c-.53-.28-.53-.7-.54-1.18a35.16,35.16,0,0,1,.72-6.31,10.42,10.42,0,0,0,.08-1.85c-.07-3.29-.17-6.58-.24-9.87,0-.59.11-1.18.08-1.77a.88.88,0,0,0-.43-.65,1,1,0,0,1-.65-.88c-.18-1,.17-2.13-.54-3.1A2.44,2.44,0,0,1,50.72,27a24.5,24.5,0,0,0,0-3.32c-.1-.69.21-.8.7-1,.13,0,.21-.24.3-.36a1.46,1.46,0,0,0-.43-.22,3,3,0,0,0-.67,0c-.7,0-.9-.28-.55-.86.53-.91,1.08-1.8,1.63-2.69a.84.84,0,0,1,.28-.25c.56-.29,1.12-.55,1.68-.84s.89-.55.83-1.16c0-.12.16-.37.24-.36a1.25,1.25,0,0,1,.76.18c.51.45,1,.47,1.42-.06a1.15,1.15,0,0,1,1.35-.37,16.46,16.46,0,0,0,1.94.44c.79.08,1.59,0,2.39,0,.5,0,1,.05,1.48.09A1.26,1.26,0,0,0,65.34,16c.21-.25.68-.31,1.11-.48a23.69,23.69,0,0,1,.93,2.18,2,2,0,0,1,.13,1.4,1.58,1.58,0,0,0,.19,1.65c1,1.91,1.41,4,2.14,6,.13.37-.13.86-.2,1.3a2.47,2.47,0,0,0-.08.89c.18.81.51,1.59.64,2.41a2.86,2.86,0,0,1-.28,1.17,4.63,4.63,0,0,0-.31,1,7.55,7.55,0,0,0,.11,1.42c.08.53.22,1,.33,1.56ZM88.19,16.55c-1,.07-1.78.17-2.6.17-1.15,0-2.3.1-3.22-.85a.82.82,0,0,0-1.42.57,17.78,17.78,0,0,0-.14,1.78c0,.44-.11.89.39,1.23.15.1.12.46.11.71s-.07.7-.1,1.06c-.09,1.05-.16,2.11-.27,3.16s-.25,2.15-.37,3.23a.55.55,0,0,0,.11.34c.64.84.38,1.79.29,2.69-.06.67-.42,1.31-.5,2-.09.84,0,1.69,0,2.53a1,1,0,0,1-.27.65c-.6.64-1.71.14-2.3.86,0,.06-.22,0-.32.06a5.63,5.63,0,0,0-1.41.52,5,5,0,0,1-2.52.89c-1.13.09-2.26.15-3.38.27s-1.22.07-1.63-.82a2.9,2.9,0,0,1-.28-1.14c0-1.39.07-2.79,0-4.18a9.12,9.12,0,0,0-1-3.9,2.1,2.1,0,0,1-.09-.94,3.56,3.56,0,0,0,0-1c-.36-1.07-.75-2.12-1.21-3.16-.2-.45-.15-.8.25-1s.44-.66.28-1.06c-.27-.73-.52-1.46-.84-2.17-.21-.48-.39-1-1.13-1.08-.93-.07-1.86-.2-2.79-.27a4.34,4.34,0,0,0-.85.15v.15l.65.3a3,3,0,0,1-.86.42,7.62,7.62,0,0,1-1.5-.1c-1-.13-2.09-.29-3.2-.46.08.65.13,1.17.22,1.68.24,1.35.56,2.69.72,4.05.2,1.74.23,3.5.4,5.24.19,2,.45,4.07.68,6.1.22,1.82.42,3.64.68,5.45.18,1.33.46,2.65.66,4a15.88,15.88,0,0,1,.15,2.07c0,1.48,0,2.95,0,4.43s0,2.75,0,4.13a9.94,9.94,0,0,1,0,1.09c-.05.51-.18,1-.21,1.53-.08,1.35-.12,2.7-.18,4.06,0,.55.24.68.8.57,1-.18,1.94-.29,2.91-.45,1.82-.3,3.64-.6,5.45-.93.84-.15.83-.23.7-1a16.3,16.3,0,0,1-.4-2.85c0-1.65.15-3.3.26-4.94A3,3,0,0,1,69.15,51c.52-.91.16-1.86.25-2.78s.35-1.3,1.43-1.22c-.19-.31-.36-.55-.48-.8s-.45-.67-.37-.92c.13-.43.61-.46,1.08-.34a1.84,1.84,0,0,0,.66.07c1.81-.23,3.62-.45,5.41-.73,1-.15,1.42.1,1.52,1a.76.76,0,0,0,.08.21c.54.16,1.34-.69,1.57.34-.17.19-.27.41-.45.5-.55.25-.55.58-.47,1.11a21.92,21.92,0,0,1,.3,3.62c0,1.33-.17,2.66-.2,4,0,1,.12,1.91.08,2.87,0,.61-.57,1.23.13,1.8,0,0-.07.15,0,.22.1.4.21.81.34,1.2,0,.06.19.11.29.11a2.62,2.62,0,0,0,.74,0c1.42-.34,2.83-.71,4.25-1a.94.94,0,0,1,.67,0,2.65,2.65,0,0,0,2.45.34.77.77,0,0,0,.43-.61c-.13-1.52-.34-3-.48-4.56-.16-1.77-.33-3.53-.39-5.3,0-.65-.47-1.33.12-2a1.3,1.3,0,0,0,.27-.86,57.16,57.16,0,0,0-.52-6c0-.27.2-.59.32-.88a3.23,3.23,0,0,0,.29-.67c.06-.51,0-1,.1-1.54.16-1.8.39-3.6.47-5.4.07-1.25-.08-2.51-.1-3.77,0-.94,0-1.89,0-2.83,0-.6.08-1.21,0-1.81,0-.94-.14-1.88-.21-2.82a4.48,4.48,0,0,1-.11-1.25C88.89,19,88.4,17.82,88.19,16.55ZM57.69,54.47l.38,0c0-.61.15-1.21.15-1.81,0-1.61,0-3.22-.1-4.83,0-1.17.21-2.39-.63-3.44a.38.38,0,0,1,0-.24c0-1,.07-1.94,0-2.91s-.12-1.73-.2-2.6c0-.55-.12-1.1-.18-1.65l-.33,0c0,1.5,0,3,0,4.51,0,1.26.23,2.51.23,3.77a3.6,3.6,0,0,0,.31,2.35,3.85,3.85,0,0,1,.26,1.88c0,1.37,0,2.75,0,4.12C57.66,53.93,57.68,54.2,57.69,54.47ZM79,28.54c0,1.45-1,2.87,0,4.36C79.42,32.34,79.52,29.08,79,28.54ZM57.84,61.21l-.24-.14c-.18.17-.49.33-.52.52-.1.72-.11,1.46-.16,2.27.65-.17.94-.43.92-1S57.84,61.77,57.84,61.21Zm21.63,1.67.09.26,3.15-.69,0-.17A8.78,8.78,0,0,0,79.47,62.88ZM72,47.52c-1-.16-1.07,0-.76,1.09C71.91,48.46,72.05,48.26,72,47.52ZM67,62.84l.25,1.2c.67-.17.61-.6.48-1C67.71,62.94,67.36,62.93,67,62.84ZM79.72,18.92l.21-.13.14-.83-.15-.13c-.23.17-.54.31-.65.53S79.56,18.73,79.72,18.92ZM60.34,63.8c-.71-.14-.9.1-.65,1Zm17.78-3.7-.31-.2a7.77,7.77,0,0,0-.48.69,3,3,0,0,0,.37.25ZM54.51,20.34l.38-.12-.24-.8a3.07,3.07,0,0,0-.43.17A6.13,6.13,0,0,0,54.51,20.34Zm25.06,6c-.67.59-.69.92-.18,1.26Z"/><path d="M361.39,28.44c.2-.11.26-.68,0-1s-.3-.58-.2-.75a2.17,2.17,0,0,0,.16-1.58,11.63,11.63,0,0,1,0-1.67c0-.72-.1-1.44-.2-2.15,0-.14-.23-.26-.42-.45.32-.49.64-1,1-1.51a4.83,4.83,0,0,0,.67-1.52c.1-.44.59-.79.89-1.19s.5-.74.78-1.09.61-.68.9-1a.66.66,0,0,0,.19-.38c-.08-.43.13-.57.54-.49a1.18,1.18,0,0,1,1.21-1.12l0-.54.2-.05,1.78-.31a15.18,15.18,0,0,0,1.63-.33,8.83,8.83,0,0,0,2.12-.87,3.34,3.34,0,0,1,3.52-.4c.07.41.15.82.24,1.33-1.19.27-.17,1.3-.46,2a5.42,5.42,0,0,0-.24.9h-.21l.53.65.3-.24c0,.08,0,.14,0,.18a10.93,10.93,0,0,0-.88,4.25,1.27,1.27,0,0,1-.52.78,2,2,0,0,1,.16.56q0,1.25-.06,2.49a7.77,7.77,0,0,1-.14,1,18.72,18.72,0,0,1,.32,2c0,.79-.06,1.59,0,2.38a1,1,0,0,0,.62.66,16.31,16.31,0,0,0,2.11.36.62.62,0,0,0,.81-.55c.09-.7.12-1.41.18-2.11.1-1,.2-2,.31-3l1-.1s0-.1,0-.11c-.93-.38-1-.43-.86-1.34a12.55,12.55,0,0,1,.26-1.61A1.63,1.63,0,0,0,379.5,19c-.15-.25.07-.69.09-1.05s0-.63,0-1c-.13,0-.17,0-.17.05l-.06.25s-.07-.06-.07-.09c-.14-.82.47-1.36.87-2a15.66,15.66,0,0,1,1.33-1.71c.4-.46.87-.86,1.29-1.3s.75-.9,1.52-.83c.24,0,.5-.34.79-.45a4.49,4.49,0,0,1,3.36.42,5.25,5.25,0,0,0,3.26-.08,7.66,7.66,0,0,0,1.47-.59.66.66,0,0,0,.24-.2,1.42,1.42,0,0,1,2.13-.26c.39.26.95.33.92.95a10.08,10.08,0,0,0,.08,1c-.52,0-.34.44-.27.8s.12.5,0,.62a2.58,2.58,0,0,0-.46,1.73,2.25,2.25,0,0,1-.39,1c0,.36.06.73.13,1.09.24,1.37-.28,2.68-.3,4,0,0,0,.05,0,.06-.57.86-.14,1.8-.28,2.7s-.17,1.91-.27,2.86a4,4,0,0,0-.17,1.34,1,1,0,0,1-.18,1c-.12.12-.24.23-.23.34-.06.44-.12.88-.19,1.32,0,.06,0,.12,0,.18-.09,1.45-.17,2.91-.28,4.36-.07.87-.17,1.75-.3,2.63,0,.14-.23.27-.32.38,0,.49,0,1,0,1.47,0,1.58.08,3.16.07,4.74,0,.51-.22,1-.23,1.54-.07,2-.17,4-.09,6,.05,1.21.47,2.4.59,3.62a1.32,1.32,0,0,1-.59,1.12c-.92.3-1.07,1.11-1.54,1.69a4.41,4.41,0,0,0-.49,1.08,2.89,2.89,0,0,1-2.12,1.22c-1.18,0-2.36-.07-3.53,0a12.15,12.15,0,0,0-1.63.41,1.3,1.3,0,0,1-1.39-.29c-.21-.22-.8-.17-1.21-.16s-.79.16-1.19.15c-.82,0-1.11-.56-.75-1.24a1.68,1.68,0,0,0,0-.81,23.8,23.8,0,0,1,0-3.27c.12-1-.15-2,.38-3,0,0,0-.12-.06-.2l-.54.24a25,25,0,0,0,.52-2.5,20.48,20.48,0,0,0-.07-2.21,3.9,3.9,0,0,1,.13-.57c0-.13,0-.37,0-.38-.65-.2-.35-.65-.33-1s.07-.62.06-.92a4.11,4.11,0,0,1-.15-2.84h-3.45a2.51,2.51,0,0,0-.27,0c-1.08.12-1.09.12-1.28,1.1-.21,1.13-.48,2.25-.59,3.39a28.81,28.81,0,0,0,0,3.22c0,.91.08,1.83.13,2.75,0,.73.08,1.46.09,2.19a4.48,4.48,0,0,1-.11.72,6.17,6.17,0,0,1-.2.95c-.11.3-.26.79-.46.82-1.33.21-1.57,1.33-2.24,2.12a11.08,11.08,0,0,1-2.06,1.71,1.14,1.14,0,0,1-.89,0,2,2,0,0,0-2,.15,1.62,1.62,0,0,1-1.18.09,3.35,3.35,0,0,0-2.82.08,1.7,1.7,0,0,1-1.88-.37c0-.4.09-.7.12-1,0-.11,0-.27,0-.3.57-.4.32-1.08.64-1.56a1,1,0,0,0,.05-.6c-.05-.56-.23-1.12.22-1.62a.44.44,0,0,0,.05-.42c-.13-.34-.09-.83-.21-1-.56-.93.08-1.77.05-2.64,0-.38.35-.76.4-1.16a15.1,15.1,0,0,0,0-1.78V45.91h.17V47h.24c-.1-1.37-.21-2.73-.31-4.09l0,0,.16.11c0-.25,0-.57-.09-.73-.37-.45-.23-.76.19-1.06a1.47,1.47,0,0,1,.2-2.55c-.76-.47-.37-1.1-.35-1.72l-.28.51c0-.74,0-1.29,0-1.84s.17-1,.24-1.46a1.41,1.41,0,0,0,0-.41c-.05-.32-.37-.66.22-.87a.4.4,0,0,0-.19-.72c-.14,0-.26-.41-.24-.62,0-.6.17-1.2.25-1.8C361.29,29.32,361.33,28.93,361.39,28.44Zm32.16-12.08c-.6-.88.53-.9.85-1.38-.87-.25-.89-.3-.45-.9-.22-.29-.37-.65-.64-.8a3.19,3.19,0,0,0-2.87.05,2.73,2.73,0,0,1-2.61-.23l-.09.22c-.4-.53-.49.13-.74.18a1.72,1.72,0,0,0-1.37,1.81c-.18,2-.29,4-.45,5.93-.13,1.51-.27,3-.43,4.54s.13,3.27,0,4.9c-.05.7-.31,1-1,1.08-1.21.17-2.19-.47-3.28-.74a3.68,3.68,0,0,0-1.86-.2,4.16,4.16,0,0,1-1.53.12,6.78,6.78,0,0,0-3,.11,1.17,1.17,0,0,1-1.49-1.39,20.61,20.61,0,0,0,.31-2.21c.07-.68.11-1.37.16-2.05,0-.23,0-.47.06-.83l.21-.09c-.13-.41-.26-.79-.39-1.21.47-.35.19-.85.06-1.3s-.18-.85.31-1.19c.16-.12.17-.46.16-.7a7.57,7.57,0,0,0-.18-1.06l.18,0-.32-.23.56-.34-.39-.53.17,0c.12-.5.24-1,.34-1.5,0,0-.2-.1-.27-.13l.35-.85c-.51-.08-.26-.47-.29-.7-.11-.84-.15-1.69-.21-2.46l-3.32.84a1.59,1.59,0,0,0-.41.21c-.94.49-1.88,1-2.79,1.5a1,1,0,0,0-.46.67c0,1.22.15,2.44.22,3.66s.12,2.25.15,3.38c.06,2.82.15,5.64.13,8.46,0,2.13-.14,4.26-.28,6.38s-.39,4.23-.53,6.36a33.14,33.14,0,0,0,0,7.18c.24,1.54.33,3.11.43,4.66,0,.57.3.78.82.75,1.09-.08,2.17-.18,3.26-.32.14,0,.34-.29.36-.46.1-1,.18-2,.22-3,0-.68,0-1.37,0-2.06,0-.27,0-.53-.06-.8a2.27,2.27,0,0,1-.31-1,19.89,19.89,0,0,1,.39-2.31c0-.17.23-.3.34-.43.06-.52.14-1,.19-1.57.08-.78.1-1.57.23-2.34.1-.61-.16-1.36.64-1.75l-.2-.33.68-.27a4.3,4.3,0,0,1-.79-.18.59.59,0,0,1-.32-.32,1.18,1.18,0,0,1,1.26-1.41c1,0,2,.08,3,.14a31.4,31.4,0,0,0,6.13-.63c.59-.08,1.18-.22,1.77-.24s1.16.08,1.74.09c.92,0,1.42.69,1.06,1.51-.19.45-.48.87-.64,1.33a25.8,25.8,0,0,0-1.93,6.53,34.76,34.76,0,0,0-.43,5.67c0,.37.26.8.14,1.12a1.35,1.35,0,0,0,.21,1.4,3.91,3.91,0,0,1,.45,1,1.7,1.7,0,0,0,2.14,1.22,31.27,31.27,0,0,0,3.33-.86c.25-.08.44-.49.52-.78.17-.64-.48-1.34.16-2,0,0,0-.08,0-.12-.06-.42-.14-.83-.19-1.25a16.63,16.63,0,0,1,.21-5.54,5.62,5.62,0,0,0,0-1.83c0-.23.28-.47.29-.72,0-.58-.45-1.18.07-1.78.05-.06-.08-.26-.14-.39a2.08,2.08,0,0,1,.3-1.91c-.11-.12-.32-.29-.29-.35a3.2,3.2,0,0,0,.13-1.47c0-.73.42-1.45,0-2.19a.3.3,0,0,1,0-.18,4.42,4.42,0,0,0,.23-2.49.35.35,0,0,1,.12-.33c.69-.32.58-.77.35-1.32-.11-.25.07-.61.12-.94l.35.28.16-.1c-.13-.22-.37-.44-.35-.65.06-.92.18-1.84.3-2.75.07-.56.17-1.12.26-1.68,0,0-.05,0-.05,0a1.09,1.09,0,0,1,0-.54c.21-.39.53-.73.47-1.23a5.13,5.13,0,0,1,.43-3c-.39-.27-.64-.43-.11-1.21-.43-.27-.67-.51-.21-1,.23-.26.14-.77.2-1.2.1-.12.35-.3.36-.48S393.72,16.51,393.55,16.36Z"/><path d="M252.89,16c.6.59,1.59.31,2.5.33s1.92-.09,2.88-.1a6,6,0,0,0,1.45.08c1-.32,1.47.41,2.21.75-.39.42-.37,1.15-1.24,1-.09,0-.35.31-.37.49-.29,2.59-.58,5.18-.82,7.78-.12,1.26-.12,2.53-.24,3.8s-.32,2.61-.49,3.92c-.07.53-.18,1.06-.23,1.6-.19,2-.4,3.9-.53,5.85-.08,1.16,0,2.33,0,3.49-.08,1.55-.26,3.1-.36,4.65a16.75,16.75,0,0,0,0,2.24c0,.41.81.83,1.35.86s1.18.15,1.78.17a3.6,3.6,0,0,0,1.62-.1,10,10,0,0,1,3.2-.75,28.5,28.5,0,0,1,3-.43,16.24,16.24,0,0,1,2.6.18c.48.06.67-.06.64-.52a19,19,0,0,1-.11-2.61c.17-2.25.42-4.49.65-6.73.08-.78.18-1.57.28-2.36l.78-.14v-.16l-.94-.1.26-.47a.93.93,0,0,1-.26-1.23c.17-.39-.08-.92-.1-1.38,0-.64,0-1.28,0-1.92s0-1.18,0-1.77a8.46,8.46,0,0,1,.71-3.8,2.27,2.27,0,0,0,0-1c0-.93-.06-1.85-.08-2.78a5,5,0,0,1,.11-.7l-.47-.29c-.51-.31-.64-.77-.26-1.2.64-.73,1.33-1.41,2-2.12.87-.93,1.73-1.87,2.61-2.8a.86.86,0,0,1,.45-.21c1.68-.32,3.37-.63,5-1,.68-.13,1.34-.33,2-.44a1.75,1.75,0,0,1,.76.15c.1,0,.16.14.25.21a2.79,2.79,0,0,1,1.23,1.65c.15.46.3.87-.29,1.19a.82.82,0,0,0-.28.6c-.07.64-.06,1.29-.13,1.92-.11.94-.26,1.87-.38,2.8,0,.26,0,.53-.07.8a20.76,20.76,0,0,1-.85,5.63,5.1,5.1,0,0,0-.2,2,20.67,20.67,0,0,1-.83,5.52c-.22,1.13-.41,2.26-.57,3.4-.2,1.38-.41,2.76-.49,4.15a15.76,15.76,0,0,0,.21,2.55c0,.33.14.66.14,1,0,2.51,0,5,0,7.54a3.16,3.16,0,0,0,0,.69c.18.9-.26,1.33-1,1.2-.53.53-1,1-1.42,1.44s-1,1-1.49,1.49a1.77,1.77,0,0,1-1.48.53c-.13,0-.32,0-.37-.1-.38-.6-1-.43-1.51-.38-1.4.13-2.8.35-4.2.45-.95.07-1.92-.05-2.87,0-1.11.07-2.21.3-3.32.39s-2.05.08-3.08.12c-.28,0-.55,0-.61.39s-.67.39-1.06.23a3.29,3.29,0,0,0-1.24-.34c-3.4,0-6.8,0-10.19,0a12.66,12.66,0,0,0-1.85,0,5.66,5.66,0,0,0-1.6.52c-.94.45-1.27.25-1.64-.66-.51-1.3,0-2.45.27-3.66a10.2,10.2,0,0,0,.18-1.57c0-.52.08-1,.1-1.56s0-1.32,0-2,.14-1.37.14-2.05c0-1.62,0-3.24,0-4.86,0-1.17-.13-2.35-.1-3.52,0-1.92.18-3.84.23-5.77,0-1-.1-2.08-.1-3.13,0-.4.22-.8.24-1.21,0-1.11,0-2.22,0-3.33s.18-2.5.19-3.74a28.45,28.45,0,0,0-.2-2.92c0-.13-.25-.28-.42-.34-.75-.26-1-.76-.54-1.33.66-.78,1.46-1.46,2.18-2.19s1.23-1.39,1.93-2,1-1.15,1.88-1.22c.16,0,.31-.21.44-.34a1.2,1.2,0,0,1,1.62-.24C252.37,16.29,252.6,16.11,252.89,16Zm23.95,32.12a8.22,8.22,0,0,1,.15,1.25c0,1-.18,2-.18,3,0,.68-1.13,1.62-1.64,1.2a3.1,3.1,0,0,0-2.28-.46c-1.42,0-2.85-.15-4.28-.2-.29,0-.63.23-.88.16-.67-.2-1.18.16-1.75.32a3.25,3.25,0,0,1-1.38.24,3,3,0,0,0-1.52.26,9.84,9.84,0,0,1-2.31.5c-.94.06-1.88-.08-2.82-.1a7.2,7.2,0,0,0-.75.16c-.41,0-.95.17-1.2,0a2.61,2.61,0,0,0-1.25-.3,1.69,1.69,0,0,1-1-.54.81.81,0,0,1,.44-1.07,6.41,6.41,0,0,1,1.14-.34l-.07-.2c.78-.1.58-.68.63-1.12a57.64,57.64,0,0,0,.51-6.42c0-.37-.13-.75-.12-1.12.05-1.26.08-2.52.23-3.77.21-1.67.53-3.33.79-5,.13-.81.25-1.61.36-2.39l.61,0c-1-.61-.58-1.34-.64-2.06l.72.17c-1.17-1.31-.28-2.56-.3-3.84l.31.21c0-.64-.07-1.27-.06-1.91a11.24,11.24,0,0,1,.15-1.41,3.29,3.29,0,0,1,.17-.67c.06-.13.2-.23.26-.37a.66.66,0,0,0,0-.37A5.22,5.22,0,0,1,260,18.12a3.9,3.9,0,0,0-.64-.11c-.62,0-1.25,0-1.88,0-1.38,0-2.76-.11-4.14-.09a1.26,1.26,0,0,0-1.35.8,15.14,15.14,0,0,0-.29,2.33c-.11,1.4-.17,2.81-.29,4.21-.1,1.13-.25,2.25-.41,3.37,0,.34-.28.66-.3,1-.1,1.41-.15,2.82-.22,4.24,0,.35,0,.7,0,1a18.55,18.55,0,0,0-.21,3c.13,1.39.07,2.77.08,4.16,0,.61.09,1.23.06,1.84,0,1-.14,1.94-.19,2.92,0,.81,0,1.62-.05,2.43s-.21,1.49-.21,2.23c0,1,.11,2,.16,3.07.07,1.45.13,2.9.19,4.41a11.45,11.45,0,0,0,1.45,0c1.3-.19,2.59-.42,3.88-.63.7-.12,1.39-.28,2.09-.34s1.33,0,2,0c1.09-.07,2.18-.2,3.27-.29a4.15,4.15,0,0,1,1.26-.06,8.08,8.08,0,0,0,3.46-.11,13.63,13.63,0,0,1,1.77-.3c.67,0,1.35.12,2,.1,1.06,0,2.11-.17,3.17-.23s2-.08,3.07-.12l1.44-.07a4.73,4.73,0,0,1,1.19,0c.66.15,1,0,1.06-.56.15-1.27.15-2.56.36-3.82.1-.59-.49-1.38.48-1.77-.19-.14-.46-.23-.5-.38a5.65,5.65,0,0,1-.3-1.4c0-1.06-.07-2.13,0-3.19a16.6,16.6,0,0,1,.35-3.31c.15-.62-.28-1.54.81-1.81-.51-.49-.51-.49,0-2.6l.22.37c.11-.9.23-1.69.29-2.49a1.77,1.77,0,0,1,.69-1.55.74.74,0,0,1,0-1.16,4.22,4.22,0,0,1-.28-1.34,16,16,0,0,1,.63-2.13,1.41,1.41,0,0,1,.14-1.65c.06-.08,0-.21.1-.29.45-.68-.37-1.47.21-2.14,0,0,0-.12,0-.17-.34-.56-.09-1.1,0-1.68a4.13,4.13,0,0,1,.36-1.79c0-.05,0-.16-.05-.24,0-.68-.08-1.35-.05-2s.13-1.35.22-2.17a10.91,10.91,0,0,1-1.28.34c-1.07.11-2.14.2-3.2.25a.88.88,0,0,0-1,.84c-.06.5-.12,1-.13,1.49-.06,1.69-.1,3.37-.14,5.05a8.55,8.55,0,0,1,.09.87c-.09,1-.22,2.05-.32,3.08-.08.78-.1,1.56-.18,2.34-.05.51-.2,1-.26,1.53-.11,1-.14,1.94-.3,2.9-.25,1.55-.59,3.08-.88,4.63a3.46,3.46,0,0,0,0,.56c0,.94,0,1.87,0,2.81s-.09,2.07-.16,3.1A2.42,2.42,0,0,1,276.84,48.12Zm-30.25,2,.3,0a3.63,3.63,0,0,0,.16-.65c0-.7,0-1.4,0-2.09q0-1.34,0-2.67c0-.82-.06-1.65,0-2.48.05-1.19.17-2.38.23-3.58a1,1,0,0,0-.15-.52c0-.06-.2-.1-.29-.08a.3.3,0,0,0-.17.22c0,.57.09,1.13.12,1.7,0,.22,0,.45,0,.68-.06,1.7-.14,3.4-.17,5.11,0,.91,0,1.83,0,2.75C246.67,49,246.62,49.55,246.59,50.08Zm18.08,9.51c-.72-.57-6.55-.37-8.63.2.25.15.4.32.57.33a11.44,11.44,0,0,0,1.55,0c1.3-.09,2.6-.22,3.9-.33Zm-15,2.06-.22,0a8.76,8.76,0,0,0-.89.37c-.09.05-.12.22-.18.34a4.2,4.2,0,0,0,1.07-.06C249.59,62.22,249.61,61.86,249.68,61.65ZM278,18.49l-.29,0a7.35,7.35,0,0,0-.27.79c0,.11.07.24.11.37.13-.06.36-.1.37-.17A7.93,7.93,0,0,0,278,18.49ZM275.31,44.8c-.5.14-.75.81-.48,1a.53.53,0,0,0,.42-.12A5,5,0,0,0,275.31,44.8ZM248.23,57.73h-.3v1.1h.23A.8.8,0,0,0,248.23,57.73Z"/><path d="M309.11,39.19l.57-.65c-.19-.68.05-2,.49-2.21-.38-.46-.48-.89.33-1.18-.69-.27-.68-.65-.52-1.19a7.86,7.86,0,0,0,.08-1.69,9.92,9.92,0,0,1,.17-1.89c.08-.29.29-.51.25-.89a21.2,21.2,0,0,1-.11-2.64,10,10,0,0,1,.13-1.63,1.88,1.88,0,0,1,.33-.58c-.05-.29-.1-.53-.13-.78a11.35,11.35,0,0,0-.23-1.55,1.1,1.1,0,0,1,.29-1.36c1.57-1.28,3.1-2.61,4.71-3.84a4,4,0,0,1,1.5-.39,11,11,0,0,0,1.3-.24,11.53,11.53,0,0,1,2.55-.43,10.32,10.32,0,0,0,2.66-.74,1.71,1.71,0,0,1,2,.21c.22.19.47.41.15.75-.1.11-.06.35-.07.53v1.86l-.22,0-.28-.31c.19.68-.59,1.3,0,2,.12.15-.1.54-.16.82-.14.67-.27,1.35-.4,2,0,.09-.09.18-.06.25.43,1-.22,2-.12,2.94s-.39,1.85-.29,2.73a14.14,14.14,0,0,1-.36,3.51c-.15,1.1-.49,2.19-.61,3.3s-.06,2.28-.12,3.42a7.15,7.15,0,0,0-.18,1.69c.18.87-.25,1.63-.27,2.45,0,.6-.08,1.2-.11,1.8-.06,1-.09,2-.15,2.95,0,.69-.11,1.38-.13,2.07-.07,2.61-.15,5.22-.16,7.83a4.48,4.48,0,0,0,.55,1.4l-.28.25a1.09,1.09,0,0,0-.46,1.42.7.7,0,0,1-.19,1l-2,1.47a1,1,0,0,0-.25.2.87.87,0,0,1-1.35.28.76.76,0,0,0-.69,0,1.12,1.12,0,0,1-1.62,0,3.12,3.12,0,0,0-2.68-.57,1.2,1.2,0,0,0-.46.21c-.27.16-.5.36-.77.51-.57.32-.81.15-1.14-.36-.73-1.11-1-2.42-2-3.42a9.48,9.48,0,0,1-.94-1.45c-.18-.28-.38-.55-.57-.82l.28,0,.08-.15-1.2-.76.06-.12.59,0c-.06-.08-.08-.16-.13-.2a3.13,3.13,0,0,1-1.64-1.82,6,6,0,0,0-1.23-2c-.62-.91-1.54-1.62-1.86-2.74a7.75,7.75,0,0,0-1.12-1.85,2.71,2.71,0,0,0-.55-.47c-.07,1-.14,1.75-.16,2.53,0,.54.26,1.15.08,1.62-.37,1,0,1.88-.08,2.81s.1,1.66.09,2.49a4.49,4.49,0,0,1-.31.94.75.75,0,0,0,0,.42,1.87,1.87,0,0,1-.63,2.53A5,5,0,0,0,298,62.84c-.35.74-1.09.85-1.69,1a24.55,24.55,0,0,1-2.74.52,6,6,0,0,0-1.87.64,1.52,1.52,0,0,1-1.37.08l-1-.21c-.46.56-.8,1-1.18,1.41a.61.61,0,0,1-.47.09c-.09,0-.16-.2-.21-.31a6.46,6.46,0,0,1-.26-.69,1.5,1.5,0,0,1-.08-.47c0-.67,0-1.34,0-2s0-1.25-.1-1.88c0-.44-.13-.88-.19-1.32a1.08,1.08,0,0,1,0-.44c.21-.7.47-1.39.62-2.1a5.36,5.36,0,0,0-.07-1.19c0-.63,0-1.26,0-1.88a4.9,4.9,0,0,1,.57-2.36c.08-.17-.08-.43-.1-.65s-.08-.73-.1-1.09c0-.17.05-.33.05-.5,0-1.1-.05-2.21,0-3.31.09-1.77.24-3.53.39-5.3,0-.34.23-.67.27-1,.14-1.1.24-2.21.34-3.31.13-1.45.24-2.9.36-4.35a11.76,11.76,0,0,0,.15-2,34,34,0,0,1,.26-4.28,9.9,9.9,0,0,1,.4-1.32,1,1,0,0,0-.17-.76,1.64,1.64,0,0,1-.34-2.31c.45-.69,1-1.33,1.48-2,0,0,.07-.06.08-.09.19-.75.66-1.11,1.62-.85-.45-.89.13-1.13.67-1.53a3.16,3.16,0,0,1,2.81-.48c.41.09.93-.24,1.4-.38.64-.19,1.26-.4,1.91-.56s1.21-.23,1.8-.37.79-.06.89.39a9.36,9.36,0,0,1,.33,1.95c0,1.48-.05,3-.08,4.44,0,.74,0,1.49,0,2.23,0,1.22.1,2.43,0,3.65a5.64,5.64,0,0,1-.44,2,2.05,2.05,0,0,0,.5,2.19,35.94,35.94,0,0,0,2.47,2.63c.39.44.69,1,1.08,1.38s1,.94,1.48,1.4c.31.29.63.57.93.87S308.88,38.9,309.11,39.19Zm14.43-17.25a3.87,3.87,0,0,1-.36-.88c-.08-.89-.1-1.79-.15-2.68a.94.94,0,0,0-1.07-.86c-.84.09-1.66.23-2.49.34-2,.26-2.53.79-2.75,2.54a33.79,33.79,0,0,1-.53,4.22,32.9,32.9,0,0,0-.54,4.32c-.06.53,0,1.08-.07,1.6-.12.79-.39,1.57-.49,2.36-.16,1.24-.27,2.49-.35,3.73-.09,1.5-.15,3-.16,4.49,0,.72.21,1.43.21,2.15a22.87,22.87,0,0,1-.25,2.6,2,2,0,0,1-1.19,1.63c-.15.06-.44.09-.49,0a7.28,7.28,0,0,1-.78-1.15c-.11-.19-.05-.45-.14-.65-.4-.94-1.53-1.48-1.64-2.59,0,0-.09-.07-.15-.11A11.92,11.92,0,0,1,308,40.61a16.59,16.59,0,0,0-1.4-1.62c-.29-.29-.75-.43-1.07-.7a5.4,5.4,0,0,1-.52-.71c-.72-.87-1.45-1.73-2.19-2.59-.87-1-1.7-2.07-2.64-3a.91.91,0,0,1-.3-1.12c.32-.72.73-1.41,1.12-2.15l.31.62c0-.56.31-1.19-.37-1.6.06-.28.23-.73.14-.78-.64-.38-.1-.79-.1-1.18s.19-.93,0-1.28c-.45-1,.09-1.92-.13-2.86a6.33,6.33,0,0,1-.07-1.38c0-.82,0-1.64,0-2.46,0-.38-.24-.53-.62-.45-1.51.31-3,.62-4.54,1-.43.09-1,1.06-1.05,1.47-.14,1,.54,2.14-.39,3.08,0,0,0,.08,0,.12a15,15,0,0,0-.49,4.27,12,12,0,0,1,0,1.47c-.11,1.25-.26,2.49-.39,3.74S293,35,292.8,36.33c-.12.91-.4,1.8-.46,2.71-.09,1.39,0,2.79-.08,4.18a25.44,25.44,0,0,0,.14,5.3,25.56,25.56,0,0,1,.16,4.72c0,1.29-.1,2.58-.14,3.87a1.33,1.33,0,0,0,.12.72,1.05,1.05,0,0,1-.08,1.55,2.67,2.67,0,0,0-.29.67c.9-.06,1.7-.09,2.49-.18s1.72-.24,2.58-.35c.71-.09.94-.59,1.13-1.11a2.9,2.9,0,0,0,0-.66,12.16,12.16,0,0,0,.18-2.24,37.78,37.78,0,0,1,.15-6.89,12.79,12.79,0,0,0,0-3.21,13.47,13.47,0,0,1,.25-3.65,1.31,1.31,0,0,1,.85-.92,1,1,0,0,1,1.15.74,4.56,4.56,0,0,0,.82,1.18c.22.29.5.53.71.83s.35.7.6,1c1.2,1.45,2.45,2.86,3.65,4.31s2.48,3.11,3.72,4.67c.47.6.93,1.21,1.38,1.82.64.86,1,1.93,2.15,2.38.12,0,.15.25.27.33a6,6,0,0,0,1.91,1.22,10.14,10.14,0,0,0,2.85-.08c1-.09,1.06-.18,1-1.11a1.08,1.08,0,0,1,0-.19c.09-.87.17-1.74.25-2.52l.47.41-.37-2.72.76-.14c-.73-1.45-1-2.89.18-4.26l-.18,0-.46.39-.2-.07.64-3.19s-.22-.15-.22-.26a27,27,0,0,1,.08-2.7c.14-1.45.36-2.9.54-4.35a9.25,9.25,0,0,0,.14-1.15c0-.62-.11-1.25,0-1.86a11.88,11.88,0,0,1,.45-1.85l.12,0c0,.14-.05.27-.07.4.69-.24.7-.58,0-1.08.58.17,1,.39,1.19-.15l-.76-.26c-.51-.2-.56-.45-.23-.86a.84.84,0,0,0,.15-.52c0-.49-.08-1-.07-1.48a6.67,6.67,0,0,1,.14-1.18c.09-.47,0-1.06.84-1.14-.21-.77-.42-1.48-.58-2.21,0-.18.13-.4.24-.73-.25-.45-.23-.71.22-1.37a.56.56,0,0,0,.06-.23C323.48,22.49,323.52,22.15,323.54,21.94Zm-32,30.52c-.87-.38-.82-1-.72-1.64a2.77,2.77,0,0,0,0-.81,1.86,1.86,0,0,0-.28-.54c-.12.17-.33.34-.34.51,0,.76,0,1.51,0,2.27,0,.31.12.64.59.53A4.12,4.12,0,0,0,291.59,52.46Zm16.38.81c-.05,1,.73,1.52,1.26,2.1.14.15.44.18.68.26l.06-.16ZM290.66,42.42a22.58,22.58,0,0,0,.31-2.24c0-.21-.22-.43-.35-.65a1.87,1.87,0,0,0-.26.63,17.47,17.47,0,0,0,.1,1.76A2.59,2.59,0,0,0,290.66,42.42Zm21.71-19.17.21.06a3.87,3.87,0,0,0,.53-.44c.31-.37.14-.64-.3-.48C312.58,22.48,312.51,23,312.37,23.25Zm-9.43,23.84c.11-.68-.09-.85-.76-.76Z"/><path d="M94.77,22.52c-.91-.64-.87-.87-.12-1.69C95.79,19.59,96.86,18.28,98,17c.1-.11.14-.28.26-.36l2.29-1.45c.65.86,1.47.24,2-.07a4.36,4.36,0,0,1,3.15-.37,18.72,18.72,0,0,0,5.74.15,19.8,19.8,0,0,1,3,.21A8.29,8.29,0,0,0,118,15a3.32,3.32,0,0,1,1.26,0,3.55,3.55,0,0,0,2-.3,1.94,1.94,0,0,1,1.21,0c1.31.31,2.62.68,3.93,1a.74.74,0,0,0,.33,0c1.67-.34,2.72,1.18,2.86,2.55.22,2.08-.25,4.12-.21,6.17a12.72,12.72,0,0,0,.27,3.47,5.64,5.64,0,0,1-.13,2.26c-.23,1.57-.62,3.12-.11,4.7a7.18,7.18,0,0,1,0,3.26c-.09.72-.17,1.44-.22,2.17-.16,2.2-.34,4.41-.41,6.62A28.73,28.73,0,0,0,129,50c.1,1.2.21,2.41.24,3.62a8.2,8.2,0,0,0,.35,2.58,13.85,13.85,0,0,1,.47,2.82,6.17,6.17,0,0,0,.13,1.81.88.88,0,0,1-.48,1.13c-.44.23-.26.39,0,.51-.79,1-1.55,2-2.38,3a14.83,14.83,0,0,1-1.23.95,1.42,1.42,0,0,0-.47.74,1.94,1.94,0,0,1-2.5,1.4,4.62,4.62,0,0,0-2.75-.46,7.66,7.66,0,0,1-2.11-.22c-.9-.13-1.8-.33-2.7-.41-1.55-.13-3.1-.47-4.64,0a1,1,0,0,1-.71,0,7.66,7.66,0,0,0-2.58-.61c-1.55-.28-2.94.32-4.41.36a6.78,6.78,0,0,1-3.2-.28,3.33,3.33,0,0,0-2.6-.42c-.66.23-1.18-.52-1-1.28a2.05,2.05,0,0,0-.13-.9,14.54,14.54,0,0,1-.38-1.44c-.09-.85-.07-1.71-.16-2.56a3.86,3.86,0,0,0-.42-1c0-.07-.18-.12-.17-.18.09-1.16-1.15-2.09-.63-3.34a2.93,2.93,0,0,0,0-.94c0-1.47.07-2.94.09-4.42a.88.88,0,0,0-.09-.42,6.15,6.15,0,0,1-.16-3.24c.07-.81,0-1.63,0-2.45,0-1.56.1-3.11.13-4.66s0-3,0-4.5V30.92c0-1.79,0-3.58,0-5.38,0-.78-.1-1.56-.1-2.34C94.44,23,94.64,22.78,94.77,22.52ZM128,17a5.93,5.93,0,0,0-1-.11c-1.54,0-3.09.08-4.64.1a8.58,8.58,0,0,1-2.64-.1,8.49,8.49,0,0,0-2.83-.19c-1.27,0-2.55-.08-3.82-.17-.91-.06-1.81-.21-2.72-.28-.4,0-.81,0-1.21,0-1.28-.11-2.57-.29-3.85-.36a4,4,0,0,0-2.61.35,2,2,0,0,1-1,.18c-1,0-1,.59-.87,1.28a3.25,3.25,0,0,1,.12,1.15c-.18,1.23-.38,2.46-.64,3.67a22.12,22.12,0,0,0-.39,5.74c0,.93,0,1.87.15,2.79s.34,2,.48,2.95a6.14,6.14,0,0,0,.08,1.3,3.48,3.48,0,0,1,.16,1.81c-.29,2.3-.37,4.61-.56,6.91,0,.52,0,.89.61,1.1a.54.54,0,0,1,.28.39,7.69,7.69,0,0,1,0,1.44c-.15,1.06-.37,2.12-.52,3.18a2.74,2.74,0,0,0,.1.8,7.49,7.49,0,0,1,.42,2c-.08,1.35-.48,2.68,0,4a13.56,13.56,0,0,1,.36,1.68,1.91,1.91,0,0,1,.07.91c-.23.7-.09.87.73.82a7.25,7.25,0,0,1,1.68,0c.46.08,1.15,0,1.06.86.27,0,.49-.1.7-.12.78,0,1.64-.51,2.25.37,0,.06.2.07.31.08,1.16,0,2.32.13,3.48.11,2.92-.06,5.84-.15,8.75-.24a7.06,7.06,0,0,0,1.47-.13c.72-.2,1.51.1,2.18-.37a2.06,2.06,0,0,1,2.13-.06,1.56,1.56,0,0,0,2.14-1.32,17.52,17.52,0,0,0,.11-2.17,1.6,1.6,0,0,0-.47-1.15,1.1,1.1,0,0,1-.43-1.39,5.93,5.93,0,0,0,.27-2.51c-.16-1.06-.11-2.16-.34-3.21a8.46,8.46,0,0,1-.1-3.09,22,22,0,0,0,.15-2.29c0-1.1-.09-2.22,0-3.31.28-2.08.91-4.13.24-6.25a3.72,3.72,0,0,1,0-1.11c0-1.66.59-3.27.32-5a23,23,0,0,1,0-4c0-1.1.1-2.21.13-3.32,0-.79,0-1.59,0-2.39A10.7,10.7,0,0,0,128,17Zm-20.5,46.09-.13.16c.12.14.23.4.36.4a16.32,16.32,0,0,0,1.85,0c.09,0,.18-.14.26-.22-.09-.08-.18-.2-.28-.21ZM101,62.7c.55-.36,1.26.14,1.66-.52C101.28,61.91,101.05,61.68,101,62.7ZM98.81,20.83c.46-.38.55-.8.38-1.68C98.75,19.24,98.57,20,98.81,20.83Zm.06,42.57,1.4-.46C99.53,62.3,99.29,62.39,98.87,63.4Zm20.31,3.25,1-.48c-.16-.1-.34-.3-.47-.28C119.37,66,118.85,65.93,119.18,66.65Z"/><path d="M326.76,27.52c-.32-.27-.1-.51.19-.85a10,10,0,0,0,.87-1.44,6.65,6.65,0,0,0,.69-.43s-.12-.28-.22-.49c.51-.69,1.07-1.44,1.62-2.2a2,2,0,0,0,.37-.58c.37-1.2,1.63-1.65,2.4-2.51a5.86,5.86,0,0,1,1.07-.73c-.18-.62.42-.95.87-1.26.84-.58,1.77-1.05,2.66-1.57a2.29,2.29,0,0,1,.28-.07c0,.09.08.13.07.16-.05.23-.12.45-.18.67a4.81,4.81,0,0,0,1,0c.78-.12,1.24-.74,1.87-1.09a9.85,9.85,0,0,1,1.93-.59l.06.14-.4.54.7.21c.13-1.64,1.56-1.3,2.59-1.54a4,4,0,0,1,1.2,0,1.13,1.13,0,0,0,1.06-.33,1.93,1.93,0,0,1,1.18-.37c1.39-.1,2.79-.15,4.18-.19s2.49-.08,3.73-.07a1,1,0,0,1,.73.36c.48.88.89,1.79,1.28,2.7.06.14-.09.37-.17.54s-.36.4-.35.58c.06.91.18,1.81.3,2.71a.68.68,0,0,0,.22.37c.83.85.41,1.84-.6,2.3a5.76,5.76,0,0,0-2.69,2.35c-.39.71-1.1,1.14-1.42,1.9s-1.52.89-2.31.7a3.14,3.14,0,0,0-1.33,0,13.37,13.37,0,0,1-3.79.05,5,5,0,0,0-1.7.22c-1.07.26-2.12.59-3.17.89a7.89,7.89,0,0,0-1.13.38,7.39,7.39,0,0,0-1.06.6,5.06,5.06,0,0,0-.9.68c-.34.37-.58.81-.9,1.2a4.88,4.88,0,0,1-.67.56,16,16,0,0,0-.79,2.76c-.17,1.3-.71,2.57-.28,3.94a7.81,7.81,0,0,1-.06,2,14.15,14.15,0,0,0,.43,4c.18.55.32,1.26,1.21,1.42a2.11,2.11,0,0,1,1,.7,6.23,6.23,0,0,0,2.68,1.31c.39.14.74.2.46.86.83-.58,1.43-.17,2.07,0a22.53,22.53,0,0,0,3.6.66c1.3,0,2.62.46,3.92,0,.21-.08.51.08.77.09s.51,0,.52-.06c.1-.52.5-.32.83-.36a5.94,5.94,0,0,0,1.92-.4,23.74,23.74,0,0,1,3.08-1c.44-.14.71,0,.73.46,0,.7,0,1.39,0,2.09s-.05,1.3,0,2c.09,1.61.22,3.21.32,4.82,0,.67-.53.89-1.05,1.15a6.62,6.62,0,0,0-1,.67c-.26.2-.5.43-.8.7,0,.09,0,.39-.11.46-.73.39-.89,1.17-1.38,1.71a5.35,5.35,0,0,1-.72.49c-.25.2-.74,0-.84.53,0,.15-.87.36-1.19.22a5.11,5.11,0,0,0-2.92-.14,3,3,0,0,1-.73,0,21.26,21.26,0,0,0-3.72-.24,7.18,7.18,0,0,1-4.07-.88,4.36,4.36,0,0,0-1.15-.33c-1.29-.21-2.58-.42-3.88-.6A19,19,0,0,1,333,60.6c-1.19-.34-2.31-.9-3.47-1.36a5.17,5.17,0,0,1-1.27-.54c-.87-.71-2.14-.89-2.78-1.88a8.69,8.69,0,0,1-1.33-2.54c-.17-.64-.63-1.21-.84-1.85-.1-.3.11-.69.15-1s.1-.88.12-1.32c0-.84.07-1.68.07-2.53,0-.16-.2-.32-.32-.47s-.52-.42-.49-.58a1.61,1.61,0,0,1,.53-.84c.26-.21.47-.33.4-.73a4,4,0,0,1,.12-1.23c.2-1.17.47-2.33.63-3.5.05-.33-.23-.69-.27-1a4.77,4.77,0,0,1,.08-.92,9.76,9.76,0,0,0,.15-1.18c0-.57-.09-1.14-.12-1.71a.82.82,0,0,1,.59-.95.37.37,0,0,0,.19-.34c0-.1-.25-.27-.33-.24-.46.13-.38-.16-.35-.37a7.55,7.55,0,0,1,1-2.72,16.07,16.07,0,0,0,.65-1.8C326.26,28.47,326.5,28.06,326.76,27.52Zm11.77-2.21.44.94.69-.42-1.14-.5a9.73,9.73,0,0,1,2.06-1.24,3.27,3.27,0,0,0,1.57-.61c.38-.34,1.2-.28,1.82-.39l.14.75c.37-.74.75-1.22,1.46-.83.14-.15.23-.34.36-.36,1.12-.21,2.24-.39,3.36-.58.32-.06.64-.16,1-.23.71-.16,1.41-.36,2.13-.45,1.05-.14,2.1-.21,3.14-.32a3.57,3.57,0,0,0,.87-.09,1.71,1.71,0,0,0,.63-.44,2.89,2.89,0,0,0,.39-.63s0-.11,0-.21l-.52.1c-.22-1.39-.44-2.74-.65-4.07-.81,0-1-.2-.72-1.08l-.91.19a1.49,1.49,0,0,1-.61.09,5.62,5.62,0,0,0-2.55-.23c-1.18.22-2.39.26-3.58.41s-2.39.26-3.55.51a17.3,17.3,0,0,0-4.91,1.68c-.81.46-1.66.88-2.46,1.35A13.77,13.77,0,0,0,334.81,20a11.43,11.43,0,0,0-3.11,4c-.35.82-1.08,1.51-1.44,2.33a13.65,13.65,0,0,0-1.15,3.57c-.37,2.74-.62,5.51-.76,8.27a16.32,16.32,0,0,0,.11,5.31.53.53,0,0,1,0,.25A19.24,19.24,0,0,0,328,46.3a13.08,13.08,0,0,0,.18,2.57,9,9,0,0,0,.38,1.51,6.65,6.65,0,0,0,.48,1,4.9,4.9,0,0,0,.8,1.39,5,5,0,0,0,2.1,1.55,1.54,1.54,0,0,1,.69.29,8.44,8.44,0,0,0,3.4,1.66,28.31,28.31,0,0,0,4,.92c1.86.3,3.74.5,5.61.75a10.64,10.64,0,0,1,1.05.22,3.49,3.49,0,0,1,.58-.29,2.91,2.91,0,0,1,.66-.08l4.24-.31.74,0c.62,0,1.24,0,1.86-.07a20.48,20.48,0,0,0,2-.37.49.49,0,0,0,.29-.32c.14-.78-.07-1.63.49-2.33-.39-.47,0-.93,0-1.4a16.77,16.77,0,0,0-.33-2.51c-.06-.52-.42-.65-.79-.4a5.5,5.5,0,0,1-2.54.64c-.93.1-1.81.4-2.77.46a21.64,21.64,0,0,1-10.54-1.54,5,5,0,0,0-1.6-.49,2,2,0,0,1-1.3-.52c-.38-.34-.79-.66-1.18-1A11.46,11.46,0,0,1,335,46.36a2.71,2.71,0,0,1-.52-1.26,32.1,32.1,0,0,1-.52-3.36,19.12,19.12,0,0,1,0-2.51c0-1,0-1.92.12-2.87s.24-1.9.4-2.85a17.56,17.56,0,0,1,.42-1.91,5.79,5.79,0,0,1,.69-1.7c.41-.58-.06-1.44.75-1.85,0,0,0,0,0-.05-.39-.7.35-.8.68-1.12a.71.71,0,0,0,.24-.34C337.47,25.72,337.68,25.49,338.53,25.31Zm0,2,.19.16c.72-.31,1.42-.66,2.15-.93.38-.14.54-.37.35-.65a.82.82,0,0,0-.73-.09,11,11,0,0,0-1.5.93A2.61,2.61,0,0,0,338.56,27.29Zm-11.72,8.37V33.19C326.32,34,326.25,35.29,326.84,35.66Zm.49,16.54c-.25-.65-.41-1.1-.61-1.53-.06-.13-.26-.21-.39-.31-.06.18-.21.38-.15.52a4.54,4.54,0,0,0,.55,1C326.82,52,327,52,327.33,52.2Zm.06.35a1.6,1.6,0,0,0,.76,1.55c.08.06.27,0,.4,0s0-.21-.05-.27C328.17,53.42,327.82,53,327.39,52.55Zm-1.68-7,.3.09c.5-.34.25-.83.23-1.27l-.23,0Z"/><path d="M239.14,55a4.12,4.12,0,0,1,.33-1.16,1.38,1.38,0,0,1,.78-.51c.1,0,.44.38.46.61.12.92.11.94,1.07.85a.91.91,0,0,1,1,1.14c-.32.91-.46,1-1.49.93-.55,0-.66.09-.63.63a6.26,6.26,0,0,1-.34,1.61,1,1,0,0,0,.64,1.22,1.17,1.17,0,0,1,.56,1.78,1.53,1.53,0,0,1-.91.35,2.69,2.69,0,0,1-.72-.08l-1.26,2.14-.92-.29c.2.78-.11,1.11-.79,1.21a.63.63,0,0,0-.45.31c-.26.64-.87.84-1.43,1.12a1.61,1.61,0,0,1-1.34,0,4.32,4.32,0,0,0-1.64-.18c-3,.21-5.91.5-8.88.7-1.49.09-3,0-4.5.06-.94,0-1.87.18-2.8.27a22,22,0,0,1-3.12.24,5.28,5.28,0,0,1-2.06-.65c-.43-.22-.54,0-.74.19-.05,0-.06.12-.09.16-.74.9-.53,1-1.36.28.19-.81.35-1.55.51-2.28,0-.1,0-.25,0-.31-.71-.75-.47-1.65-.44-2.5,0-.57.16-1.14.2-1.71.07-1.1,0-2.21.16-3.3.19-1.46.56-2.9.76-4.35.16-1.25.19-2.52.27-3.79.15-2.25.3-4.5.42-6.75,0-.23-.23-.47-.36-.7s-.28-.38-.29-.57c-.09-1.92-.19-3.85-.21-5.77,0-1.42.15-2.84.18-4.26s0-3.08,0-4.62c0-1.14-.08-2.28-.12-3.41,0-.42,0-.83,0-1.29,0,0,0,0,0,0-1.31,0-1.52-.31-1.11-1.43a3.11,3.11,0,0,1,1.29-1.71c.51-.32.78-1,1.2-1.4.71-.77.83-.78,1.86-.32.77-1.22,2.16-1.21,3.42-1.35a14.32,14.32,0,0,0,3.38-.51,3.73,3.73,0,0,1,1.33,0,3.12,3.12,0,0,0,.52,0,1,1,0,0,1,1.2,1,6.81,6.81,0,0,0,.44,3.06c.12.37-.09.83-.1,1.25a3.38,3.38,0,0,0,.05,1.56c.41.8.05,1.57.11,2.34.12,1.6.11,3.21.15,4.81,0,.29,0,.57,0,.86s-.2.86.27,1.22c.12.09.1.46,0,.65a6.08,6.08,0,0,0-.6,2.87c0,.45-.08.89-.11,1.33a1.59,1.59,0,0,0,0,.69,5,5,0,0,1,.12,2.88,6.35,6.35,0,0,0,0,.75c0,.69-.08,1.39-.12,2.09s-.08,1.5-.11,2.24c0,.13,0,.25,0,.38,0,1.12-.07,2.25-.11,3.37,0,.56-.08,1.12-.1,1.68a1.88,1.88,0,0,0,0,.85c.48,1-.28,1.79-.58,2.65a13.18,13.18,0,0,0-.5,1.62c-.07.32.06.59.52.64a14.11,14.11,0,0,0,5.58-.32,23.41,23.41,0,0,1,4.6-.66,15.65,15.65,0,0,0,2-.39,1.42,1.42,0,0,1,1.27.09.76.76,0,0,0,.44.11ZM221.6,33.46c.27,0,.49.11.54,0s.32-.37.27-.5c-.15-.41-.54-.79-.57-1.19-.13-1.71-.2-3.42-.23-5.14,0-1.3.27-2.6-.18-3.89a2,2,0,0,1-.12-1,9.49,9.49,0,0,0-.19-3.64c-.27-1.17-.59-1.38-1.92-1.28h-.14c-1.19.08-2.39.15-3.59.25a2.71,2.71,0,0,0-1,.27c-.38.19-.62.53-.24.92a.66.66,0,0,1,0,1,.36.36,0,0,0,0,.33,13.61,13.61,0,0,1,.93,5,10.2,10.2,0,0,0,.29,3,10.25,10.25,0,0,1,.22,4.64c-.25,1.36-.3,2.76-.42,4.15-.14,1.6-.26,3.2-.4,4.8a10.18,10.18,0,0,0-.09,1.23,21.37,21.37,0,0,1,.19,2.24,21.81,21.81,0,0,0,0,3.43,18.71,18.71,0,0,1-.21,3.41c-.11,1.37.09,2.74-.49,4.11a10.7,10.7,0,0,0-.34,3.28c0,.22-.07.45-.09.68-.09.9-.18,1.81-.26,2.67a6.63,6.63,0,0,1,1.16.09,17.9,17.9,0,0,0,2.6.77,16.3,16.3,0,0,0,3.56,0c1.83-.19,3.65-.54,5.48-.78,2-.26,4-.46,6-.69,1.29-.15,2.58-.31,3.86-.44.62-.07,1.24-.09,1.86-.12a.74.74,0,0,0,.73-.7c.15-.92.28-1.85.44-2.78.08-.49-.09-.74-.64-.66-1,.14-1.91.35-2.87.43-1.36.12-2.72.16-4.07.21-1.58.05-3.16.07-4.74.11-1.39,0-2.78.07-4.18.09-.14,0-.29-.1-.44-.13s-.39,0-.59-.06a6.45,6.45,0,0,1-1.49-.3.9.9,0,0,1-.48-1.14l.85-2.46a1.1,1.1,0,0,0,0-.31c.05-.88.09-1.75.15-2.63,0-.12.09-.24.09-.36,0-.89,0-1.77,0-2.66,0-.14,0-.29,0-.43.07-.68.17-1.36.23-2s.12-1.58.22-2.37.32-1.57.35-2.36-.12-1.79-.15-2.69,0-1.91,0-2.87C221.42,34.51,221.53,34,221.6,33.46Zm-8.33,9a3.7,3.7,0,0,0-.14,3.31c.06-.06.14-.1.17-.17C213.7,44.58,213.11,43.55,213.27,42.5Zm-1.34,22.93,1.85-.38C212.47,64.55,212,64.66,211.93,65.43Zm1.34-42.82.24,0c-.13-.88-.27-1.77-.41-2.66C213,20.83,212.72,21.77,213.27,22.61Z"/><path d="M339.67,14.63l-1.42,1.24c-.78-.73,0-1.06.28-1.4S339.24,14.26,339.67,14.63Z"/><path class="cls-1" d="M137.84,61.64c-.17-.26-.31-.37-.32-.5-.1-1.26-.17-2.52-.27-3.79,0-.42-.11-.84-.17-1.26,0-.07-.05-.13,0-.18l.72-2.39a1.18,1.18,0,0,0,.11-.35c.06-1.34.09-2.67.16-4s.16-2.59.22-3.89c0-.68,0-1.37,0-2.05,0-.32.2-.66.13-.95a21,21,0,0,1-.11-4.12c0-.6.09-1.2.12-1.81.06-.88.08-1.76.16-2.64s.24-1.63.35-2.45a3.44,3.44,0,0,0,0-.56c0-1.53,0-3.06,0-4.59,0-2.18.05-4.37.16-6.55a6.28,6.28,0,0,1,.59-1.89c0-.11.38-.11.58-.16s.66-.21,1-.29c.55-.12,1.1-.24,1.66-.32,1.69-.25,3.39-.49,5.09-.69,1.28-.15,2.58-.26,3.87-.32,1.64-.08,3.28-.08,4.92-.16,1-.05,2.08-.22,3.12-.3.79-.06,1.59,0,2.39-.09s1.59-.19,2.39-.22c1,0,1.08.12,1.29,1a26.3,26.3,0,0,1,.52,5.86c0,1.16-.17,2.32-.22,3.47,0,.8,0,1.61,0,2.41,0,.52-.28,1-.35,1.55-.1.76-.12,1.53-.18,2.35l-3.78.63a1.73,1.73,0,0,1-.6,0,7.34,7.34,0,0,0-2.56.24c-.61.08-1.24,0-1.85,0a4.41,4.41,0,0,0-1.72.44,2.17,2.17,0,0,1-2.34.17,1.38,1.38,0,0,0-1.54.26c-.4.29-.58.73-.18,1.13a3.44,3.44,0,0,0,.9.45c-.08.85.46,1.45,1.24,2a17.07,17.07,0,0,1,2.39,2,5.34,5.34,0,0,1,1,1.72A13.18,13.18,0,0,0,159,44.35c.61.71,1.16,1.46,1.76,2.18a29.75,29.75,0,0,1,1.93,2.3c1,1.49,1.89,3,2.83,4.57.39.63.8,1.25,1.15,1.91.62,1.14,1.21,2.29,1.77,3.46.27.56,0,.87-.65.85-1.17,0-2.35,0-3.52-.12-.89,0-1.78-.16-2.66-.27s-.92-.75-1.28-1.2c-.55-.69-1-1.43-1.55-2.14A8.4,8.4,0,0,1,157,53.1c-.07-.3-.44-.52-.63-.79-1-1.56-2-3.18-3.16-4.67a7.69,7.69,0,0,1-1.06-2.32,2.73,2.73,0,0,0-.4-.64,7.39,7.39,0,0,1-.61-.89c-.27-.58-.47-1.19-.73-1.77,0-.12-.27-.17-.41-.25a2.44,2.44,0,0,1-.65-.39,24.3,24.3,0,0,1-1.84-2.24c-.21-.31-.13-.8-.18-1.2-.13-1.18-1.94-2.78-3.4-1.84-.16.11-.56.17-.16.46a.12.12,0,0,1,0,.14c-.61.71-.39,1.38,0,2.13a4.53,4.53,0,0,1,.17,1.54,30.57,30.57,0,0,0,.46,4.3,17.7,17.7,0,0,1,.22,3.15c.08,1,.22,1.9.26,2.86,0,.4-.18.81-.19,1.22,0,.66.07,1.32.07,2,0,1,0,2-.06,3a4.71,4.71,0,0,0-.06.74c.07.65-.18,1-.87,1.06a3.87,3.87,0,0,0-1.82.56,4,4,0,0,1-2,.16,1.42,1.42,0,0,0-1.62,1.47C138.35,61.14,138.06,61.35,137.84,61.64Zm9.29-39.37c-.15-.78-.44-1.08-1-1s-.71.44-.69,1.17c0,.41-.06.81-.07,1.21a8.91,8.91,0,0,0,.16,3.29,3.13,3.13,0,0,1-.06,1.66c-.12.5-.05,1.26.38,1.48.63.33.83-.22,1.18-.51a1.84,1.84,0,0,1,.77-.4c.57-.1,1.16-.11,1.74-.19,1.32-.17,2.64-.36,4-.55.11.09.28.36.42.35a6,6,0,0,0,1.76-.36c.86-.38,1-.38,1.66.19a1.55,1.55,0,0,0,1.14.31,1.24,1.24,0,0,0,.8-.81,11.35,11.35,0,0,0-.08-2.47,9.14,9.14,0,0,1-.13-3.72,1.66,1.66,0,0,0-.12-1.17c-.26-.68-.79-.26-1.18-.38a4.16,4.16,0,0,0-.61-.06l.63-.24a2.77,2.77,0,0,0-1.1.24,9.85,9.85,0,0,1-4.35,1,.92.92,0,0,1-.49-.13,2.44,2.44,0,0,0-2.3.15C148.86,21.73,148.2,22.4,147.13,22.27Z"/><path class="cls-1" d="M184,47.87a10.11,10.11,0,0,1,.38,2,10.25,10.25,0,0,1-.39,1.84,1.2,1.2,0,0,0,.05.62.88.88,0,0,1-.11.9,3.42,3.42,0,0,0-.2,1.43c0,.14.06.31,0,.44-.33.73.39.8.78,1a1,1,0,0,0,.91-.21,1.31,1.31,0,0,1,1.07-.38c1.95-.07,3.89-.18,5.84-.24.5,0,1,.11,1.51.12,1.82,0,3.64.07,5.45.09a3.4,3.4,0,0,0,.46-.08A1.47,1.47,0,0,1,201.6,57c-.1,1.24-.15,2.5-.31,3.74-.12.91-.31,1.07-1.27,1-1.66-.15-3.31-.41-5-.59-.91-.09-1.83-.1-2.75-.14-1.37,0-2.75-.12-4.13-.1-1.06,0-2.13.16-3.19.23s-2.26.14-3.39.16c-1.75,0-3.49,0-5.23,0-.2,0-.38.38-.5.64-1,.23-1.39.17-1.62-.31a4.74,4.74,0,0,1,.66,0c.58.07.91-.2.89-.69,0-1.13.29-2.28-.2-3.39a2.57,2.57,0,0,1,0-.84c0-1-.15-2.09-.12-3.13,0-1.39.2-2.78.32-4.17.1-1.19.25-2.36.34-3.55.19-2.55.38-5.1.51-7.65a22.31,22.31,0,0,1-.07-2.44c.21-1.28-.07-2.57.12-3.83a23.78,23.78,0,0,0-.14-3.05c0-.89.1-1.79.16-2.68,0-.35,0-.7.08-1.05.09-1,.23-2,.27-3,0-.82-.14-1.64-.09-2.45s.27-1.88.41-2.83c.87.07,1.73.17,2.59.22s1.64,0,2.45,0c1.7,0,3.4.1,5.09.07a3.72,3.72,0,0,1,1.28.16,11.62,11.62,0,0,0,4.59.17.91.91,0,0,1,.4,0c1,.43,2.1.12,3.15.14.83,0,1.69-.18,2.51-.09,1,.1,2-.48,3.07,0a4,4,0,0,0,1.53,0v1.31a8.13,8.13,0,0,0,0,1.21,9.39,9.39,0,0,1-.45,4.67.84.84,0,0,1-.81.62c-.72.06-1.43.36-2.15.41-1.86.15-3.74.3-5.6.29-1.56,0-3.11-.22-4.66-.35a1.59,1.59,0,0,1-.6-.21c-.3-.16-.55-.44-.93-.18a.28.28,0,0,1-.2,0c-1-.58-2.05.11-3.08,0a.81.81,0,0,0-.87.72,12.61,12.61,0,0,0-.39,4.7,4,4,0,0,1-.16,1.16,2.23,2.23,0,0,0,0,1.09,1,1,0,0,1-.18,1.26c-.53.66-.43,1.11.31,1.53l.06,0c.81,1.53,2.19.55,3.31.63s2.22-.09,3.31,0a3.91,3.91,0,0,1,1.43.68.57.57,0,0,1,.17.39c0,.47,0,.94.06,1.4a8.62,8.62,0,0,1,0,1.52c-.07.5-.4,1-.43,1.46-.06,1-.77,1.07-1.54,1.18a8.4,8.4,0,0,1-1.37.3,8.81,8.81,0,0,1-1.83-.28,7,7,0,0,1-1.51-.47,2,2,0,0,0-2.7,1.62.9.9,0,0,0,.29.6c.32.29.29.48-.06.69a.87.87,0,0,0-.46,1.11C183.17,47.41,183.45,47.8,184,47.87Z"/><path class="cls-1" d="M195.16,62.74c-2.48,0-5,0-7.57-.22C188.23,61.92,194.32,62.16,195.16,62.74Z"/><path class="cls-1" d="M175.1,19.73c0,.83-.09,1.57-.12,2.3a3,3,0,0,1,0,.6,1.3,1.3,0,0,1-.28.36c-.11-.11-.28-.2-.32-.32-.12-.46-.21-.93-.29-1.4C173.94,20.53,174.14,20.21,175.1,19.73Z"/><path class="cls-1" d="M136.27,35.23c.87.75.51,3.32-.46,3.62a9.71,9.71,0,0,0,.25-1.09c.05-.51.05-1,.09-1.54C136.17,35.89,136.23,35.56,136.27,35.23Z"/><path class="cls-1" d="M158.61,60l.44.45-1,1.2c-.34-.51-.63-.93-.87-1.37,0,0,.26-.32.42-.34A6.78,6.78,0,0,1,158.61,60Z"/><path class="cls-1" d="M193.43,27.84c.93,0,1.86,0,2.8,0,.06,0,.19.16.18.21s-.14.22-.23.23a14.16,14.16,0,0,1-2,.23c-.27,0-.53-.32-.8-.5Z"/><path class="cls-1" d="M174,29.72c0,.86.27,1.71-.65,2.29A2.19,2.19,0,0,1,174,29.72Z"/><path class="cls-1" d="M186.05,28.62c-.24-.41,0-1.09.38-1.14a.36.36,0,0,1,.28.1.39.39,0,0,1,0,.35C186.52,28.17,186.28,28.38,186.05,28.62Z"/><path class="cls-1" d="M136.28,61.2c.12,1-.2,1.26-1.14.95Z"/><path class="cls-1" d="M202.84,27.87l-.37-.82.92-.13.1.17Z"/><path class="cls-1" d="M135.61,58.42c0,.07.1.15.09.21-.08.31-.18.62-.28.93l-.31-.1c.08-.36.18-.72.28-1.08Z"/><path class="cls-1" d="M167.34,61.29l-.92.42c0-.18-.18-.42-.11-.54C166.53,60.78,166.84,60.92,167.34,61.29Z"/><path class="cls-1" d="M22.8,18.4c2.56,0,5.09.05,7.62,0,1.82,0,3.63-.2,5.43-.39a50.67,50.67,0,0,0,5.77-.8,12.43,12.43,0,0,1,2.72-.06,1.33,1.33,0,0,1,1.31,1.55,4.66,4.66,0,0,0,.13.82,7.53,7.53,0,0,1,.13,1.05,7.15,7.15,0,0,0,.74,3.51c.73,1.33-.32,2.12-1.47,2.11-1.59,0-3.17.19-4.76.24-1,0-2-.06-3-.08-.8,0-1.61,0-2.41,0a10.93,10.93,0,0,1-1.13-.15c-1.21-.19-1.32-.14-1.81.93-.59,0-1.22-.11-1.84-.09-.86,0-1.72.2-2.58.17a20.54,20.54,0,0,1-4.53-.37,3,3,0,0,0-2.26.29c-.72.31-1.42.83-2.4.45-.28-.12-1,.38-1.32.76s.17.75.54,1,.46.43.19.78a.56.56,0,0,0-.09.41c.4,1.49.06,3,.22,4.48s-.28,3.09-.17,4.64a2,2,0,0,1-.13.73c-.18.55,0,.88.6.85,1.29,0,2.58-.15,3.87-.27s2.6-.32,3.9-.43c.65,0,1.31.1,2,.08,1.12,0,2.24-.14,3.36-.21.66-.05,1.31-.11,2-.15.42,0,.83-.09,1,.43s.62.59,1.15.44c1.49-.44,3-.9,4.48-1.26a26.57,26.57,0,0,1,2.7-.37c.68-.1,1.38-.17,2-.32.4-.09.46,0,.46.35,0,.79.06,1.57.08,2.36,0,1.29,0,2.59.13,3.88a4.28,4.28,0,0,0,.43,1.4A7.73,7.73,0,0,1,46,50.8c-.07,1-.07,2-.11,3,0,.33-.09.66-.1,1,0,1.14-.14,2.27-.12,3.41,0,.88.19,1.76.21,2.64a6.87,6.87,0,0,1-.25,1.54.46.46,0,0,1-.32.27A15.89,15.89,0,0,1,43,63c-2,.09-4,.1-6.06.14a5,5,0,0,1-.66-.08c-.49-.06-1-.15-1.48-.19-1.78-.1-3.57-.17-5.35-.3-.66-.05-1.18-.08-1.47.63-.07.17-.52.3-.79.3-1.7,0-3.41,0-5.11,0-.78,0-1.56.12-2.34.1s-1.69-.16-2.54-.22c-.55,0-1.11,0-1.65,0-1.08-.14-2.16-.35-3.24-.52a7.11,7.11,0,0,0-.93,0c1.27-1.43.51-3,.69-4.52,0-.15-.2-.34-.34-.49s-.37-.31-.47-.51-.1-.55.36-.51a42.48,42.48,0,0,0,7.56-.45,12.74,12.74,0,0,1,1.95-.1c.24,0,.46.26.71.39s.69.47,1,.44c1.35-.14,2.68-.39,4-.57a19.67,19.67,0,0,1,5.36-.28,2.66,2.66,0,0,1,1,.54c.32.21.54.41,1,.14a13.88,13.88,0,0,1,1.83-.71,3.79,3.79,0,0,0,.81-.39c.08-.06.1-.38,0-.42-1-.61-.63-1.46-.59-2.29,0-1,0-2.09-.07-3.13a.46.46,0,0,0-.11-.29,3.11,3.11,0,0,1-.6-2.1c0-.43-.34-.53-.71-.25a.69.69,0,0,1-1.09-.27c-.49-.87-.54-.85-1.54-.67s-1.91.2-2.86.28a.29.29,0,0,1-.23-.06c-.36-.5-.9-.41-1.41-.35-1.66.18-3.31.41-5,.59a11.15,11.15,0,0,1-1.41,0,8.3,8.3,0,0,1-.52-1c-.05-.17.09-.38.14-.57s.18-.43.11-.55a.78.78,0,0,0-.57-.22c-.4,0-.79.1-1.19.15L11,45.79c-.54.08-.64-.08-.58-.58a18.11,18.11,0,0,0,.15-2.94c0-.49-.41-1-.45-1.46-.08-.8,0-1.62,0-2.43s-.06-1.36-.09-2c0-1.31-.13-2.63-.13-3.94a26,26,0,0,1,.19-2.92,2.75,2.75,0,0,1,.45-.95c.24-.43.48-.81.14-1.33a4.46,4.46,0,0,1-.62-2.65c0-1.28,0-2.56,0-3.84a4.89,4.89,0,0,0-.49-1.42.42.42,0,0,0-.31-.2c-.32,0-.67-.08-.49-.45a.93.93,0,0,1,.7-.49c.82,0,1.64.17,2.46.25,1.85.16,3.71.24,5.55.5,1.53.21,3,.63,4.54,1,.24.05.46.16.69.23s.54,0,.45-.37S22.94,18.9,22.8,18.4Z"/><path class="cls-1" d="M34.52,28.48a1.83,1.83,0,0,1,.55-.13,13.68,13.68,0,0,0,3.87-.57,15.31,15.31,0,0,1,2.36-.11c.55,0,1.11-.08,1.66-.1.31,0,.71-.05.68.39s-.4.26-.68.22a10.54,10.54,0,0,0-5.24.4c-1,.41-2,.09-2.92.17a.82.82,0,0,1-.28-.11Z"/><path class="cls-1" d="M8.89,60.46l1-1.26c0,.46,0,.8.06,1.13.08,1.19.13,2.38.25,3.57a1.06,1.06,0,0,1-.85,1.3L9,64.37c.08-.14.29-.36.23-.47-.38-.76.23-1.41.26-2.12a1.15,1.15,0,0,0-.43-1.11l-.47-.32Z"/><path class="cls-1" d="M10.92,48c0-.41,0-.66.49-.71s.92-.19,1.38-.23a1,1,0,0,1,.68.14,1.87,1.87,0,0,0,1.72.36,1.45,1.45,0,0,1,1.43.66Z"/><path class="cls-1" d="M11.82,65.7c.11-.49.32-1,.85-1,1.26.08,2.51.3,3.76.47.07,0,.13.08.19.3Z"/><path class="cls-1" d="M5.58,37.94c0-.91-.08-1.82-.09-2.74,0-.11.23-.22.35-.33.1.1.29.21.29.32,0,.67,0,1.34,0,2a3.44,3.44,0,0,1-.21.76Z"/><path class="cls-1" d="M24.89,29a11.57,11.57,0,0,1-1.3.28,13.19,13.19,0,0,1-1.54,0c-.11,0-.22-.15-.33-.23.07-.07.14-.19.21-.2l2.89-.19Z"/><path class="cls-1" d="M26,67.55H24.29C25,67,25.48,67,26,67.55Z"/><path class="cls-1" d="M8.22,45.91l.37-1.51.38.09L8.53,46Z"/><path class="cls-1" d="M8.67,40.56A8.19,8.19,0,0,1,9,41.67a2.3,2.3,0,0,1-.19.7A1.39,1.39,0,0,1,8.67,40.56Z"/><path class="cls-1" d="M19.58,28.88l.23,1-.54,0-.06-1Z"/><path class="cls-1" d="M34.61,49.15a5.58,5.58,0,0,1,0,.82c0,.08-.22.21-.32.19S34,50,34,49.89a5.64,5.64,0,0,1,.29-.78Z"/><path class="cls-1" d="M88.19,16.55c.21,1.27.7,2.47.45,3.77a4.48,4.48,0,0,0,.11,1.25c.07.94.17,1.88.21,2.82,0,.6,0,1.21,0,1.81,0,.94,0,1.89,0,2.83,0,1.26.17,2.52.1,3.77-.08,1.8-.31,3.6-.47,5.4,0,.51,0,1-.1,1.54a3.23,3.23,0,0,1-.29.67c-.12.29-.36.61-.32.88a57.16,57.16,0,0,1,.52,6,1.3,1.3,0,0,1-.27.86c-.59.65-.14,1.33-.12,2,.06,1.77.23,3.53.39,5.3.14,1.52.35,3,.48,4.56a.77.77,0,0,1-.43.61,2.65,2.65,0,0,1-2.45-.34.94.94,0,0,0-.67,0c-1.42.34-2.83.71-4.25,1a2.62,2.62,0,0,1-.74,0c-.1,0-.27,0-.29-.11-.13-.39-.24-.8-.34-1.2,0-.07.08-.2,0-.22-.7-.57-.15-1.19-.13-1.8,0-1-.1-1.91-.08-2.87,0-1.33.21-2.66.2-4a21.92,21.92,0,0,0-.3-3.62c-.08-.53-.08-.86.47-1.11.18-.09.28-.31.45-.5-.23-1-1-.18-1.57-.34a.76.76,0,0,1-.08-.21c-.1-.89-.57-1.14-1.52-1-1.79.28-3.6.5-5.41.73a1.84,1.84,0,0,1-.66-.07c-.47-.12-1-.09-1.08.34-.08.25.21.62.37.92s.29.49.48.8c-1.08-.08-1.33.31-1.43,1.22s.27,1.87-.25,2.78a3,3,0,0,0-.23,1.28c-.11,1.64-.26,3.29-.26,4.94a16.3,16.3,0,0,0,.4,2.85c.13.78.14.86-.7,1-1.81.33-3.63.63-5.45.93-1,.16-1.95.27-2.91.45-.56.11-.82,0-.8-.57.06-1.36.1-2.71.18-4.06,0-.52.16-1,.21-1.53a9.94,9.94,0,0,0,0-1.09c0-1.38,0-2.75,0-4.13s0-3,0-4.43a15.88,15.88,0,0,0-.15-2.07c-.2-1.34-.48-2.66-.66-4-.26-1.81-.46-3.63-.68-5.45-.23-2-.49-4.06-.68-6.1-.17-1.74-.2-3.5-.4-5.24-.16-1.36-.48-2.7-.72-4.05-.09-.51-.14-1-.22-1.68,1.11.17,2.15.33,3.2.46a7.62,7.62,0,0,0,1.5.1,3,3,0,0,0,.86-.42l-.65-.3v-.15a4.34,4.34,0,0,1,.85-.15c.93.07,1.86.2,2.79.27.74.05.92.6,1.13,1.08.32.71.57,1.44.84,2.17.16.4.23.76-.28,1.06s-.45.58-.25,1c.46,1,.85,2.09,1.21,3.16a3.56,3.56,0,0,1,0,1,2.1,2.1,0,0,0,.09.94,9.12,9.12,0,0,1,1,3.9c.06,1.39,0,2.79,0,4.18a2.9,2.9,0,0,0,.28,1.14c.41.89.56.92,1.63.82s2.25-.18,3.38-.27a5,5,0,0,0,2.52-.89,5.63,5.63,0,0,1,1.41-.52c.1,0,.27,0,.32-.06.59-.72,1.7-.22,2.3-.86a1,1,0,0,0,.27-.65c0-.84-.05-1.69,0-2.53.08-.67.44-1.31.5-2,.09-.9.35-1.85-.29-2.69a.55.55,0,0,1-.11-.34c.12-1.08.26-2.15.37-3.23s.18-2.11.27-3.16c0-.36.1-.71.1-1.06s0-.61-.11-.71c-.5-.34-.41-.79-.39-1.23A17.78,17.78,0,0,1,81,16.44a.82.82,0,0,1,1.42-.57c.92,1,2.07.86,3.22.85C86.41,16.72,87.24,16.62,88.19,16.55Z"/><path class="cls-1" d="M57.69,54.47c0-.27,0-.54,0-.81,0-1.37,0-2.75,0-4.12a3.85,3.85,0,0,0-.26-1.88A3.6,3.6,0,0,1,57,45.31c0-1.26-.19-2.51-.23-3.77,0-1.51,0-3,0-4.51l.33,0c.06.55.13,1.1.18,1.65.08.87.18,1.73.2,2.6s0,1.94,0,2.91a.38.38,0,0,0,0,.24c.84,1.05.6,2.27.63,3.44.05,1.61.09,3.22.1,4.83,0,.6-.1,1.2-.15,1.81Z"/><path class="cls-1" d="M79,28.54c.48.54.38,3.8,0,4.36C78.07,31.41,79,30,79,28.54Z"/><path class="cls-1" d="M57.84,61.21c0,.56,0,1.13,0,1.69s-.27.79-.92,1c0-.81.06-1.55.16-2.27,0-.19.34-.35.52-.52Z"/><path class="cls-1" d="M79.47,62.88a8.78,8.78,0,0,1,3.19-.6l0,.17-3.15.69Z"/><path class="cls-1" d="M72,47.52c.1.74,0,.94-.76,1.09C70.88,47.52,71,47.36,72,47.52Z"/><path class="cls-1" d="M67,62.84c.35.09.7.1.73.2.13.4.19.83-.48,1Z"/><path class="cls-1" d="M79.72,18.92c-.16-.19-.5-.46-.45-.56s.42-.36.65-.53l.15.13-.14.83Z"/><path class="cls-1" d="M60.34,63.8l-.65,1C59.44,63.9,59.63,63.66,60.34,63.8Z"/><path class="cls-1" d="M78.12,60.1l-.42.74a3,3,0,0,1-.37-.25,7.77,7.77,0,0,1,.48-.69Z"/><path class="cls-1" d="M54.51,20.34a6.13,6.13,0,0,1-.29-.75,3.07,3.07,0,0,1,.43-.17l.24.8Z"/><path class="cls-1" d="M79.57,26.36l-.18,1.26C78.88,27.28,78.9,27,79.57,26.36Z"/><path class="cls-1" d="M393.55,16.36c.17.15.47.3.47.45s-.26.36-.36.48c-.06.43,0,.94-.2,1.2-.46.52-.22.76.21,1-.53.78-.28.94.11,1.21a5.13,5.13,0,0,0-.43,3c.06.5-.26.84-.47,1.23a1.09,1.09,0,0,0,0,.54s.05,0,.05,0c-.09.56-.19,1.12-.26,1.68-.12.91-.24,1.83-.3,2.75,0,.21.22.43.35.65l-.16.1-.35-.28c-.05.33-.23.69-.12.94.23.55.34,1-.35,1.32a.35.35,0,0,0-.12.33,4.42,4.42,0,0,1-.23,2.49.3.3,0,0,0,0,.18c.38.74,0,1.46,0,2.19a3.2,3.2,0,0,1-.13,1.47c0,.06.18.23.29.35a2.08,2.08,0,0,0-.3,1.91c.06.13.19.33.14.39-.52.6,0,1.2-.07,1.78,0,.25-.31.49-.29.72a5.62,5.62,0,0,1,0,1.83,16.63,16.63,0,0,0-.21,5.54c0,.42.13.83.19,1.25,0,0,0,.1,0,.12-.64.62,0,1.32-.16,2-.08.29-.27.7-.52.78a31.27,31.27,0,0,1-3.33.86,1.7,1.7,0,0,1-2.14-1.22,3.91,3.91,0,0,0-.45-1,1.35,1.35,0,0,1-.21-1.4c.12-.32-.1-.75-.14-1.12a34.76,34.76,0,0,1,.43-5.67,25.8,25.8,0,0,1,1.93-6.53c.16-.46.45-.88.64-1.33.36-.82-.14-1.48-1.06-1.51-.58,0-1.16-.12-1.74-.09s-1.18.16-1.77.24a31.4,31.4,0,0,1-6.13.63c-1-.06-2-.11-3-.14A1.18,1.18,0,0,0,372,39.14a.59.59,0,0,0,.32.32,4.3,4.3,0,0,0,.79.18l-.68.27.2.33c-.8.39-.54,1.14-.64,1.75-.13.77-.15,1.56-.23,2.34-.05.52-.13,1.05-.19,1.57-.11.13-.31.26-.34.43a19.89,19.89,0,0,0-.39,2.31,2.27,2.27,0,0,0,.31,1c0,.27.05.53.06.8,0,.69,0,1.38,0,2.06,0,1-.12,2-.22,3,0,.17-.22.44-.36.46-1.09.14-2.17.24-3.26.32-.52,0-.79-.18-.82-.75-.1-1.55-.19-3.12-.43-4.66a33.14,33.14,0,0,1,0-7.18c.14-2.13.39-4.24.53-6.36S367,33.12,367,31c0-2.82-.07-5.64-.13-8.46,0-1.13-.09-2.25-.15-3.38s-.18-2.44-.22-3.66a1,1,0,0,1,.46-.67c.91-.53,1.85-1,2.79-1.5a1.59,1.59,0,0,1,.41-.21l3.32-.84c.06.77.1,1.62.21,2.46,0,.23-.22.62.29.7l-.35.85c.07,0,.28.1.27.13-.1.51-.22,1-.34,1.5l-.17,0,.39.53-.56.34.32.23-.18,0a7.57,7.57,0,0,1,.18,1.06c0,.24,0,.58-.16.7-.49.34-.44.72-.31,1.19s.41,1-.06,1.3c.13.42.26.8.39,1.21l-.21.09c0,.36,0,.6-.06.83,0,.68-.09,1.37-.16,2.05a20.61,20.61,0,0,1-.31,2.21,1.17,1.17,0,0,0,1.49,1.39,6.78,6.78,0,0,1,3-.11,4.16,4.16,0,0,0,1.53-.12,3.68,3.68,0,0,1,1.86.2c1.09.27,2.07.91,3.28.74.73-.11,1-.38,1-1.08.09-1.63-.21-3.26,0-4.9s.3-3,.43-4.54c.16-2,.27-4,.45-5.93A1.72,1.72,0,0,1,387,13.5c.25-.05.34-.71.74-.18l.09-.22a2.73,2.73,0,0,0,2.61.23,3.19,3.19,0,0,1,2.87-.05c.27.15.42.51.64.8-.44.6-.42.65.45.9C394.08,15.46,393,15.48,393.55,16.36Z"/><path class="cls-1" d="M276.84,48.12a2.42,2.42,0,0,0,.31-.68c.07-1,.13-2.07.16-3.1s0-1.87,0-2.81a3.46,3.46,0,0,1,0-.56c.29-1.55.63-3.08.88-4.63.16-1,.19-1.94.3-2.9.06-.52.21-1,.26-1.53.08-.78.1-1.56.18-2.34.1-1,.23-2.05.32-3.08a8.55,8.55,0,0,0-.09-.87c0-1.68.08-3.36.14-5.05,0-.5.07-1,.13-1.49a.88.88,0,0,1,1-.84c1.06,0,2.13-.14,3.2-.25a10.91,10.91,0,0,0,1.28-.34c-.09.82-.2,1.5-.22,2.17s0,1.35.05,2c0,.08.08.19.05.24a4.13,4.13,0,0,0-.36,1.79c-.06.58-.31,1.12,0,1.68,0,.05.07.14,0,.17-.58.67.24,1.46-.21,2.14-.06.08,0,.21-.1.29a1.41,1.41,0,0,0-.14,1.65,16,16,0,0,0-.63,2.13,4.22,4.22,0,0,0,.28,1.34.74.74,0,0,0,0,1.16,1.77,1.77,0,0,0-.69,1.55c-.06.8-.18,1.59-.29,2.49l-.22-.37c-.47,2.11-.47,2.11,0,2.6-1.09.27-.66,1.19-.81,1.81a16.6,16.6,0,0,0-.35,3.31c-.05,1.06,0,2.13,0,3.19a5.65,5.65,0,0,0,.3,1.4c0,.15.31.24.5.38-1,.39-.38,1.18-.48,1.77-.21,1.26-.21,2.55-.36,3.82-.07.61-.4.71-1.06.56a4.73,4.73,0,0,0-1.19,0l-1.44.07c-1,0-2.05.06-3.07.12s-2.11.19-3.17.23c-.68,0-1.36-.13-2-.1a13.63,13.63,0,0,0-1.77.3,8.08,8.08,0,0,1-3.46.11,4.15,4.15,0,0,0-1.26.06c-1.09.09-2.18.22-3.27.29-.66,0-1.33-.05-2,0s-1.39.22-2.09.34c-1.29.21-2.58.44-3.88.63a11.45,11.45,0,0,1-1.45,0c-.06-1.51-.12-3-.19-4.41-.05-1-.16-2.05-.16-3.07,0-.74.17-1.49.21-2.23s0-1.62.05-2.43c.05-1,.16-2,.19-2.92,0-.61-.06-1.23-.06-1.84,0-1.39.05-2.77-.08-4.16a18.55,18.55,0,0,1,.21-3c0-.35,0-.7,0-1,.07-1.42.12-2.83.22-4.24,0-.34.25-.66.3-1,.16-1.12.31-2.24.41-3.37.12-1.4.18-2.81.29-4.21a15.14,15.14,0,0,1,.29-2.33,1.26,1.26,0,0,1,1.35-.8c1.38,0,2.76.06,4.14.09.63,0,1.26,0,1.88,0a3.9,3.9,0,0,1,.64.11,5.22,5.22,0,0,0-1.12,3.81.66.66,0,0,1,0,.37c-.06.14-.2.24-.26.37a3.29,3.29,0,0,0-.17.67,11.24,11.24,0,0,0-.15,1.41c0,.64,0,1.27.06,1.91l-.31-.21c0,1.28-.87,2.53.3,3.84l-.72-.17c.06.72-.32,1.45.64,2.06l-.61,0c-.11.78-.23,1.58-.36,2.39-.26,1.67-.58,3.33-.79,5-.15,1.25-.18,2.51-.23,3.77,0,.37.12.75.12,1.12a57.64,57.64,0,0,1-.51,6.42c0,.44.15,1-.63,1.12l.07.2a6.41,6.41,0,0,0-1.14.34.81.81,0,0,0-.44,1.07,1.69,1.69,0,0,0,1,.54,2.61,2.61,0,0,1,1.25.3c.25.18.79,0,1.2,0a7.2,7.2,0,0,1,.75-.16c.94,0,1.88.16,2.82.1a9.84,9.84,0,0,0,2.31-.5,3,3,0,0,1,1.52-.26,3.25,3.25,0,0,0,1.38-.24c.57-.16,1.08-.52,1.75-.32.25.07.59-.18.88-.16,1.43,0,2.86.2,4.28.2a3.1,3.1,0,0,1,2.28.46c.51.42,1.63-.52,1.64-1.2,0-1,.16-2,.18-3A8.22,8.22,0,0,0,276.84,48.12Z"/><path class="cls-1" d="M246.59,50.08c0-.53.08-1,.08-1.58,0-.92-.07-1.84,0-2.75,0-1.71.11-3.41.17-5.11,0-.23,0-.46,0-.68,0-.57-.09-1.13-.12-1.7a.3.3,0,0,1,.17-.22c.09,0,.26,0,.29.08a1,1,0,0,1,.15.52c-.06,1.2-.18,2.39-.23,3.58,0,.83,0,1.66,0,2.48s0,1.78,0,2.67c0,.69,0,1.39,0,2.09a3.63,3.63,0,0,1-.16.65Z"/><path class="cls-1" d="M264.67,59.59l-2.61.18c-1.3.11-2.6.24-3.9.33a11.44,11.44,0,0,1-1.55,0c-.17,0-.32-.18-.57-.33C258.12,59.22,264,59,264.67,59.59Z"/><path class="cls-1" d="M249.68,61.65c-.07.21-.09.57-.22.6a4.2,4.2,0,0,1-1.07.06c.06-.12.09-.29.18-.34a8.76,8.76,0,0,1,.89-.37Z"/><path class="cls-1" d="M278,18.49a7.93,7.93,0,0,1-.08,1c0,.07-.24.11-.37.17,0-.13-.14-.26-.11-.37a7.35,7.35,0,0,1,.27-.79Z"/><path class="cls-1" d="M275.31,44.8a5,5,0,0,1-.06.91.53.53,0,0,1-.42.12C274.56,45.61,274.81,44.94,275.31,44.8Z"/><path class="cls-1" d="M248.23,57.73a.8.8,0,0,1-.07,1.1h-.23v-1.1Z"/><path class="cls-1" d="M323.54,21.94c0,.21-.06.55-.11.9a.56.56,0,0,1-.06.23c-.45.66-.47.92-.22,1.37-.11.33-.27.55-.24.73.16.73.37,1.44.58,2.21-.87.08-.75.67-.84,1.14a6.67,6.67,0,0,0-.14,1.18c0,.49.06,1,.07,1.48a.84.84,0,0,1-.15.52c-.33.41-.28.66.23.86l.76.26c-.21.54-.61.32-1.19.15.69.5.68.84,0,1.08,0-.13,0-.26.07-.4l-.12,0a11.88,11.88,0,0,0-.45,1.85c-.07.61,0,1.24,0,1.86a9.25,9.25,0,0,1-.14,1.15c-.18,1.45-.4,2.9-.54,4.35a27,27,0,0,0-.08,2.7c0,.11.18.22.22.26L320.58,49l.2.07.46-.39.18,0c-1.15,1.37-.91,2.81-.18,4.26l-.76.14.37,2.72-.47-.41c-.08.78-.16,1.65-.25,2.52a1.08,1.08,0,0,0,0,.19c0,.93,0,1-1,1.11a10.14,10.14,0,0,1-2.85.08,6,6,0,0,1-1.91-1.22c-.12-.08-.15-.28-.27-.33-1.15-.45-1.51-1.52-2.15-2.38-.45-.61-.91-1.22-1.38-1.82-1.24-1.56-2.46-3.13-3.72-4.67s-2.45-2.86-3.65-4.31c-.25-.3-.37-.69-.6-1s-.49-.54-.71-.83a4.56,4.56,0,0,1-.82-1.18,1,1,0,0,0-1.15-.74,1.31,1.31,0,0,0-.85.92,13.47,13.47,0,0,0-.25,3.65,12.79,12.79,0,0,1,0,3.21,37.78,37.78,0,0,0-.15,6.89,12.16,12.16,0,0,1-.18,2.24,2.9,2.9,0,0,1,0,.66c-.19.52-.42,1-1.13,1.11-.86.11-1.71.26-2.58.35s-1.59.12-2.49.18a2.67,2.67,0,0,1,.29-.67,1.05,1.05,0,0,0,.08-1.55,1.33,1.33,0,0,1-.12-.72c0-1.29.13-2.58.14-3.87a25.56,25.56,0,0,0-.16-4.72,25.44,25.44,0,0,1-.14-5.3c0-1.39,0-2.79.08-4.18.06-.91.34-1.8.46-2.71.17-1.31.29-2.62.43-3.92s.28-2.49.39-3.74a12,12,0,0,0,0-1.47,15,15,0,0,1,.49-4.27s0-.09,0-.12c.93-.94.25-2.06.39-3.08.06-.41.62-1.38,1.05-1.47,1.51-.33,3-.64,4.54-1,.38-.08.62.07.62.45,0,.82,0,1.64,0,2.46a6.33,6.33,0,0,0,.07,1.38c.22.94-.32,1.9.13,2.86.17.35,0,.85,0,1.28s-.54.8.1,1.18c.09,0-.08.5-.14.78.68.41.36,1,.37,1.6l-.31-.62c-.39.74-.8,1.43-1.12,2.15a.91.91,0,0,0,.3,1.12c.94,1,1.77,2,2.64,3,.74.86,1.47,1.72,2.19,2.59a5.4,5.4,0,0,0,.52.71c.32.27.78.41,1.07.7a16.59,16.59,0,0,1,1.4,1.62A11.92,11.92,0,0,0,310.15,43c.06,0,.15.07.15.11.11,1.11,1.24,1.65,1.64,2.59.09.2,0,.46.14.65a7.28,7.28,0,0,0,.78,1.15c.05.07.34,0,.49,0a2,2,0,0,0,1.19-1.63,22.87,22.87,0,0,0,.25-2.6c0-.72-.22-1.43-.21-2.15,0-1.5.07-3,.16-4.49.08-1.24.19-2.49.35-3.73.1-.79.37-1.57.49-2.36.09-.52,0-1.07.07-1.6a32.9,32.9,0,0,1,.54-4.32,33.79,33.79,0,0,0,.53-4.22c.22-1.75.78-2.28,2.75-2.54.83-.11,1.65-.25,2.49-.34a.94.94,0,0,1,1.07.86c.05.89.07,1.79.15,2.68A3.87,3.87,0,0,0,323.54,21.94Z"/><path class="cls-1" d="M291.59,52.46a4.12,4.12,0,0,1-.72.32c-.47.11-.58-.22-.59-.53,0-.76,0-1.51,0-2.27,0-.17.22-.34.34-.51a1.86,1.86,0,0,1,.28.54,2.77,2.77,0,0,1,0,.81C290.77,51.46,290.72,52.08,291.59,52.46Z"/><path class="cls-1" d="M308,53.27l2,2.2-.06.16c-.24-.08-.54-.11-.68-.26C308.7,54.79,307.92,54.32,308,53.27Z"/><path class="cls-1" d="M290.66,42.42a2.59,2.59,0,0,1-.2-.5,17.47,17.47,0,0,1-.1-1.76,1.87,1.87,0,0,1,.26-.63c.13.22.37.44.35.65A22.58,22.58,0,0,1,290.66,42.42Z"/><path class="cls-1" d="M312.37,23.25c.14-.3.21-.77.44-.86.44-.16.61.11.3.48a3.87,3.87,0,0,1-.53.44Z"/><path class="cls-1" d="M302.94,47.09l-.76-.76C302.85,46.24,303.05,46.41,302.94,47.09Z"/><path class="cls-1" d="M128,17a10.7,10.7,0,0,1,.29,1.49c0,.8,0,1.6,0,2.39,0,1.11-.1,2.22-.13,3.32a23,23,0,0,0,0,4c.27,1.71-.3,3.32-.32,5a3.72,3.72,0,0,0,0,1.11c.67,2.12,0,4.17-.24,6.25-.14,1.09,0,2.21,0,3.31a22,22,0,0,1-.15,2.29,8.46,8.46,0,0,0,.1,3.09c.23,1,.18,2.15.34,3.21a5.93,5.93,0,0,1-.27,2.51,1.1,1.1,0,0,0,.43,1.39,1.6,1.6,0,0,1,.47,1.15,17.52,17.52,0,0,1-.11,2.17A1.56,1.56,0,0,1,126.28,61a2.06,2.06,0,0,0-2.13.06c-.67.47-1.46.17-2.18.37a7.06,7.06,0,0,1-1.47.13c-2.91.09-5.83.18-8.75.24-1.16,0-2.32-.07-3.48-.11-.11,0-.27,0-.31-.08-.61-.88-1.47-.41-2.25-.37-.21,0-.43.07-.7.12.09-.83-.6-.78-1.06-.86a7.25,7.25,0,0,0-1.68,0c-.82,0-1-.12-.73-.82a1.91,1.91,0,0,0-.07-.91,13.56,13.56,0,0,0-.36-1.68c-.43-1.36,0-2.69,0-4a7.49,7.49,0,0,0-.42-2,2.74,2.74,0,0,1-.1-.8c.15-1.06.37-2.12.52-3.18a7.69,7.69,0,0,0,0-1.44.54.54,0,0,0-.28-.39c-.56-.21-.65-.58-.61-1.1.19-2.3.27-4.61.56-6.91a3.48,3.48,0,0,0-.16-1.81,6.14,6.14,0,0,1-.08-1.3c-.14-1-.37-2-.48-2.95s-.1-1.86-.15-2.79a22.12,22.12,0,0,1,.39-5.74c.26-1.21.46-2.44.64-3.67a3.25,3.25,0,0,0-.12-1.15c-.16-.69-.08-1.26.87-1.28a2,2,0,0,0,1-.18,4,4,0,0,1,2.61-.35c1.28.07,2.57.25,3.85.36.4,0,.81,0,1.21,0,.91.07,1.81.22,2.72.28,1.27.09,2.55.18,3.82.17a8.49,8.49,0,0,1,2.83.19,8.58,8.58,0,0,0,2.64.1c1.55,0,3.1-.08,4.64-.1A5.93,5.93,0,0,1,128,17ZM108.16,56.2H108v.38c0,.9.53,1.26,1.49,1,.32-.08.65-.12,1-.19.73-.16,1.47-.31,2.19-.5a10.94,10.94,0,0,1,1.06-.35A13.17,13.17,0,0,1,118,56.5a7.92,7.92,0,0,0,1.38,0c.36,0,.71,0,1.07,0,.68,0,1.35.12,2,.12a.75.75,0,0,0,.69-.89,24.24,24.24,0,0,1-.63-3.34c-.1-1.67,0-3.34,0-5,0-1.13.07-2.26,0-3.38-.16-1.69.79-3.24.51-5a12.34,12.34,0,0,1,.18-2.48,4.24,4.24,0,0,0-.16-1,4,4,0,0,1-.23-.8c0-.82.1-1.65.13-2.47a4.05,4.05,0,0,0-.1-.92c-.13-.82-.34-1.62-.42-2.44a23.45,23.45,0,0,1-.13-2.9,5.48,5.48,0,0,1,.71-3,1.42,1.42,0,0,0-.28-1.68c-.42-.43-.89-.26-1.36-.1a9.06,9.06,0,0,1-1.5.49,9.81,9.81,0,0,0-2.54.33c-1,.48-2,.21-2.91.39-1.15.21-2.32.3-3.49.41a4.31,4.31,0,0,1-1.06-.12c-.61-.12-1.19-.47-1.85-.22a.48.48,0,0,1-.31,0c-.5-.36-.71,0-.75.33-.14,1.13-.7,2.21-.45,3.37.09.41.29.79.34,1.2a18.7,18.7,0,0,1,.13,2.12c0,1.48-.14,3-.06,4.42.1,1.69.38,3.36.58,5,.15,1.26.34,2.51.43,3.77a4.3,4.3,0,0,0,.36,1.87,2,2,0,0,1,.12.84c0,.37,0,.74,0,1.12a7,7,0,0,1,0,1.12c-.09.77-.23,1.54-.34,2.31a2.41,2.41,0,0,0,0,.38c0,.66,0,1.32,0,2a11.15,11.15,0,0,0-.22,1.39C107.87,54.6,108,55.4,108.16,56.2Z"/><path class="cls-1" d="M107.48,63.09l2.06.12c.1,0,.19.13.28.21-.08.08-.17.22-.26.22a16.32,16.32,0,0,1-1.85,0c-.13,0-.24-.26-.36-.4Z"/><path class="cls-1" d="M101,62.7c.1-1,.33-.79,1.66-.52C102.21,62.84,101.5,62.34,101,62.7Z"/><path class="cls-1" d="M98.81,20.83c-.24-.84-.06-1.59.38-1.68C99.36,20,99.27,20.45,98.81,20.83Z"/><path class="cls-1" d="M98.87,63.4c.42-1,.66-1.1,1.4-.46Z"/><path class="cls-1" d="M119.18,66.65c-.33-.72.19-.7.51-.76.13,0,.31.18.47.28Z"/><path class="cls-1" d="M338.53,25.31c-.85.18-1.06.41-1.22,1.23a.71.71,0,0,1-.24.34c-.33.32-1.07.42-.68,1.12,0,0,0,.05,0,.05-.81.41-.34,1.27-.75,1.85a5.79,5.79,0,0,0-.69,1.7,17.56,17.56,0,0,0-.42,1.91c-.16,1-.32,1.89-.4,2.85s-.09,1.91-.12,2.87a19.12,19.12,0,0,0,0,2.51,32.1,32.1,0,0,0,.52,3.36,2.71,2.71,0,0,0,.52,1.26,11.46,11.46,0,0,0,1.49,1.25c.39.33.8.65,1.18,1a2,2,0,0,0,1.3.52,5,5,0,0,1,1.6.49,21.64,21.64,0,0,0,10.54,1.54c1-.06,1.84-.36,2.77-.46a5.5,5.5,0,0,0,2.54-.64c.37-.25.73-.12.79.4a16.77,16.77,0,0,1,.33,2.51c0,.47-.38.93,0,1.4-.56.7-.35,1.55-.49,2.33a.49.49,0,0,1-.29.32,20.48,20.48,0,0,1-2,.37c-.62.07-1.24,0-1.86.07l-.74,0-4.24.31a2.91,2.91,0,0,0-.66.08,3.49,3.49,0,0,0-.58.29,10.64,10.64,0,0,0-1.05-.22c-1.87-.25-3.75-.45-5.61-.75a28.31,28.31,0,0,1-4-.92,8.44,8.44,0,0,1-3.4-1.66,1.54,1.54,0,0,0-.69-.29,5,5,0,0,1-2.1-1.55,4.9,4.9,0,0,1-.8-1.39,6.65,6.65,0,0,1-.48-1,9,9,0,0,1-.38-1.51A13.08,13.08,0,0,1,328,46.3a19.24,19.24,0,0,1,.49-2.56.53.53,0,0,0,0-.25,16.32,16.32,0,0,1-.11-5.31c.14-2.76.39-5.53.76-8.27a13.65,13.65,0,0,1,1.15-3.57c.36-.82,1.09-1.51,1.44-2.33a11.43,11.43,0,0,1,3.11-4,13.77,13.77,0,0,1,2.13-1.36c.8-.47,1.65-.89,2.46-1.35a17.3,17.3,0,0,1,4.91-1.68c1.16-.25,2.36-.37,3.55-.51s2.4-.19,3.58-.41a5.62,5.62,0,0,1,2.55.23,1.49,1.49,0,0,0,.61-.09l.91-.19c-.23.88-.09,1.11.72,1.08.21,1.33.43,2.68.65,4.07l.52-.1c0,.1,0,.17,0,.21a2.89,2.89,0,0,1-.39.63,1.71,1.71,0,0,1-.63.44,3.57,3.57,0,0,1-.87.09c-1,.11-2.09.18-3.14.32-.72.09-1.42.29-2.13.45-.32.07-.64.17-1,.23-1.12.19-2.24.37-3.36.58-.13,0-.22.21-.36.36-.71-.39-1.09.09-1.46.83l-.14-.75c-.62.11-1.44.05-1.82.39a3.27,3.27,0,0,1-1.57.61,9.73,9.73,0,0,0-2.06,1.24Z"/><path class="cls-1" d="M338.56,27.29a2.61,2.61,0,0,1,.46-.58,11,11,0,0,1,1.5-.93.82.82,0,0,1,.73.09c.19.28,0,.51-.35.65-.73.27-1.43.62-2.15.93Z"/><path class="cls-1" d="M326.84,35.66c-.59-.37-.52-1.68,0-2.47Z"/><path class="cls-1" d="M327.33,52.2c-.31-.17-.51-.22-.6-.34a4.54,4.54,0,0,1-.55-1c-.06-.14.09-.34.15-.52.13.1.33.18.39.31C326.92,51.1,327.08,51.55,327.33,52.2Z"/><path class="cls-1" d="M327.39,52.55c.43.49.78.87,1.11,1.27.05.06,0,.18.05.27s-.32.07-.4,0A1.6,1.6,0,0,1,327.39,52.55Z"/><path class="cls-1" d="M325.71,45.54l.3-1.23.23,0c0,.44.27.93-.23,1.27Z"/><path class="cls-1" d="M338.52,25.33l1.14.5-.69.42-.44-.94Z"/><path class="cls-1" d="M221.6,33.46c-.07.51-.18,1-.2,1.59,0,1,0,1.91,0,2.87s.18,1.79.15,2.69-.25,1.57-.35,2.36-.14,1.58-.22,2.37-.16,1.36-.23,2c0,.14,0,.29,0,.43,0,.89,0,1.77,0,2.66,0,.12-.09.24-.09.36-.06.88-.1,1.75-.15,2.63a1.1,1.1,0,0,1,0,.31l-.85,2.46a.9.9,0,0,0,.48,1.14,6.45,6.45,0,0,0,1.49.3c.2,0,.4,0,.59.06s.3.14.44.13c1.4,0,2.79-.06,4.18-.09,1.58,0,3.16-.06,4.74-.11,1.35,0,2.71-.09,4.07-.21,1-.08,1.91-.29,2.87-.43.55-.08.72.17.64.66-.16.93-.29,1.86-.44,2.78a.74.74,0,0,1-.73.7c-.62,0-1.24.05-1.86.12-1.28.13-2.57.29-3.86.44-2,.23-4,.43-6,.69-1.83.24-3.65.59-5.48.78a16.3,16.3,0,0,1-3.56,0,17.9,17.9,0,0,1-2.6-.77,6.63,6.63,0,0,0-1.16-.09c.08-.86.17-1.77.26-2.67,0-.23.07-.46.09-.68a10.7,10.7,0,0,1,.34-3.28c.58-1.37.38-2.74.49-4.11a18.71,18.71,0,0,0,.21-3.41,21.81,21.81,0,0,1,0-3.43,21.37,21.37,0,0,0-.19-2.24,10.18,10.18,0,0,1,.09-1.23c.14-1.6.26-3.2.4-4.8.12-1.39.17-2.79.42-4.15a10.25,10.25,0,0,0-.22-4.64,10.2,10.2,0,0,1-.29-3,13.61,13.61,0,0,0-.93-5,.36.36,0,0,1,0-.33.66.66,0,0,0,0-1c-.38-.39-.14-.73.24-.92a2.71,2.71,0,0,1,1-.27c1.2-.1,2.4-.17,3.59-.25h.14c1.33-.1,1.65.11,1.92,1.28a9.49,9.49,0,0,1,.19,3.64,2,2,0,0,0,.12,1c.45,1.29.16,2.59.18,3.89,0,1.72.1,3.43.23,5.14,0,.4.42.78.57,1.19.05.13-.13.37-.27.5S221.87,33.49,221.6,33.46Z"/><path class="cls-1" d="M213.27,42.5c-.16,1,.43,2.08,0,3.14,0,.07-.11.11-.17.17A3.7,3.7,0,0,1,213.27,42.5Z"/><path class="cls-1" d="M211.93,65.43c.08-.77.54-.88,1.85-.38Z"/><path class="cls-1" d="M213.27,22.61c-.55-.84-.23-1.78-.17-2.69.14.89.28,1.78.41,2.66Z"/><path d="M147.13,22.27c1.07.13,1.73-.54,2.45-1a2.44,2.44,0,0,1,2.3-.15.92.92,0,0,0,.49.13,9.85,9.85,0,0,0,4.35-1,2.77,2.77,0,0,1,1.1-.24l-.63.24a4.16,4.16,0,0,1,.61.06c.39.12.92-.3,1.18.38a1.66,1.66,0,0,1,.12,1.17,9.14,9.14,0,0,0,.13,3.72,11.35,11.35,0,0,1,.08,2.47,1.24,1.24,0,0,1-.8.81,1.55,1.55,0,0,1-1.14-.31c-.69-.57-.8-.57-1.66-.19a6,6,0,0,1-1.76.36c-.14,0-.31-.26-.42-.35-1.36.19-2.68.38-4,.55-.58.08-1.17.09-1.74.19a1.84,1.84,0,0,0-.77.4c-.35.29-.55.84-1.18.51-.43-.22-.5-1-.38-1.48a3.13,3.13,0,0,0,.06-1.66,8.91,8.91,0,0,1-.16-3.29c0-.4.07-.8.07-1.21,0-.73.21-1.15.69-1.17S147,21.49,147.13,22.27Zm7.66,4.55a1.9,1.9,0,0,0-1-1.88.49.49,0,0,0-.2,0c-.93.23-1.86.45-2.79.7a5.78,5.78,0,0,1-2.89.15c-.33-.08-.66-.13-.93-.19.09.8.15,1.54.29,2.26,0,.16.35.34.55.36a1,1,0,0,0,.68-.21,4.35,4.35,0,0,1,2.43-.68,2.79,2.79,0,0,0,2.44-1c.21-.32.65-.3,1,.05A4.18,4.18,0,0,0,154.79,26.82Zm-1.48-4.11-.21-.18c-.89.46-2,.22-2.84.84a17.4,17.4,0,0,0,2.71-.26C153.1,23.09,153.2,22.85,153.31,22.71Zm2.26-.3c-.44.06-.78.09-1.12.15a.3.3,0,0,0-.18.2s.06.16.12.19A1.26,1.26,0,0,0,155.57,22.41Z"/><path d="M108.16,56.2c-.12-.8-.29-1.6-.33-2.4a11.15,11.15,0,0,1,.22-1.39c0-.66,0-1.32,0-2a2.41,2.41,0,0,1,0-.38c.11-.77.25-1.54.34-2.31a7,7,0,0,0,0-1.12c0-.38,0-.75,0-1.12a2,2,0,0,0-.12-.84,4.3,4.3,0,0,1-.36-1.87c-.09-1.26-.28-2.51-.43-3.77-.2-1.68-.48-3.35-.58-5-.08-1.46.06-2.94.06-4.42a18.7,18.7,0,0,0-.13-2.12c0-.41-.25-.79-.34-1.2-.25-1.16.31-2.24.45-3.37,0-.3.25-.69.75-.33a.48.48,0,0,0,.31,0c.66-.25,1.24.1,1.85.22a4.31,4.31,0,0,0,1.06.12c1.17-.11,2.34-.2,3.49-.41,1-.18,1.93.09,2.91-.39a9.81,9.81,0,0,1,2.54-.33,9.06,9.06,0,0,0,1.5-.49c.47-.16.94-.33,1.36.1A1.42,1.42,0,0,1,123,23a5.48,5.48,0,0,0-.71,3,23.45,23.45,0,0,0,.13,2.9c.08.82.29,1.62.42,2.44a4.05,4.05,0,0,1,.1.92c0,.82-.12,1.65-.13,2.47a4,4,0,0,0,.23.8,4.24,4.24,0,0,1,.16,1,12.34,12.34,0,0,0-.18,2.48c.28,1.71-.67,3.26-.51,5,.1,1.12,0,2.25,0,3.38,0,1.67-.08,3.34,0,5a24.24,24.24,0,0,0,.63,3.34.75.75,0,0,1-.69.89c-.67,0-1.34-.08-2-.12-.36,0-.71,0-1.07,0a7.92,7.92,0,0,1-1.38,0,13.17,13.17,0,0,0-4.25.07,10.94,10.94,0,0,0-1.06.35c-.72.19-1.46.34-2.19.5-.32.07-.65.11-1,.19-1,.24-1.49-.12-1.49-1v-.38Zm1.57-.26a3.86,3.86,0,0,0,2.75-.58,2.15,2.15,0,0,1,.68-.25c.88-.11,1.77-.17,2.65-.3.22,0,.55-.22.58-.37a6.11,6.11,0,0,0,0-1.42c0-.45-.16-.91-.17-1.36s.16-.68.18-1c.11-1.72.19-3.45.29-5.17,0-.55.27-1.1-.15-1.63-.09-.12,0-.36,0-.55,0-.91.46-1.82,0-2.74a1,1,0,0,1,.09-.67,3,3,0,0,0-.11-3.06.87.87,0,0,1-.06-.58c0-.29.17-.56.23-.84.16-.88.36-1.76.44-2.65a5.63,5.63,0,0,0-.2-1.45c-.14-.69-.66-1.32-.19-2.09a2.65,2.65,0,0,0,.15-1.05c-1.23.1-2.34.24-3.45.26-.55,0-1.09-.25-1.64-.29-.86-.06-1.73,0-2.6,0s-1.26.41-1.08,1.25a3.76,3.76,0,0,1,.15.92c0,.75-.14,1.5-.1,2.24.08,1.37.24,2.73.4,4.09.29,2.47.5,4.94,1,7.39a20.79,20.79,0,0,1,.09,4c0,.44,0,.88,0,1.32,0,.74,0,1.48,0,2.22Zm8.76-13.23a1.41,1.41,0,0,0,.59-1.63,3.93,3.93,0,0,1,.29-2.62c.17-.47.11-.81-.54-1.13-.12.76-.29,1.47-.33,2.17C118.45,40.52,118.49,41.54,118.49,42.71Zm2.39,7,.19-3.07-.2,0c-.08.11-.2.21-.23.33-.21.74-.41,1.48-.57,2.23C120,49.62,120.36,49.84,120.88,49.74Zm.8-12.87-.21,0a2.42,2.42,0,0,0-.29.69,10.16,10.16,0,0,0,0,1.56,1.64,1.64,0,0,0,.25.54c.12-.21.33-.42.35-.64a11,11,0,0,0-.08-1.27C121.67,37.43,121.68,37.15,121.68,36.87Zm-13.9-9.93c.87.12,1-.11.68-1C107.71,26,108.11,26.6,107.78,26.94Z"/><path class="cls-1" d="M153.31,22.71c-.11.14-.21.38-.34.4a17.4,17.4,0,0,1-2.71.26c.83-.62,2-.38,2.84-.84Z"/><path class="cls-1" d="M155.57,22.41a1.26,1.26,0,0,1-1.18.54c-.06,0-.14-.14-.12-.19a.3.3,0,0,1,.18-.2C154.79,22.5,155.13,22.47,155.57,22.41Z"/><path class="cls-1" d="M118.49,42.71c0-1.17,0-2.19,0-3.21,0-.7.21-1.41.33-2.17.65.32.71.66.54,1.13a3.93,3.93,0,0,0-.29,2.62A1.41,1.41,0,0,1,118.49,42.71Z"/><path class="cls-1" d="M120.88,49.74c-.52.1-.9-.12-.81-.54.16-.75.36-1.49.57-2.23,0-.12.15-.22.23-.33l.2,0Z"/><path class="cls-1" d="M121.68,36.87c0,.28,0,.56,0,.84a11,11,0,0,1,.08,1.27c0,.22-.23.43-.35.64a1.64,1.64,0,0,1-.25-.54,10.16,10.16,0,0,1,0-1.56,2.42,2.42,0,0,1,.29-.69Z"/><path class="cls-1" d="M107.78,26.94c.33-.34-.07-1,.68-1C108.78,26.83,108.65,27.06,107.78,26.94Z"/></svg>