<svg id="Layer_1" data-name="Layer 1" xmlns="http://www.w3.org/2000/svg" viewBox="0 0 400 118.67"><defs><style>.cls-1{fill:#ff00d8;}</style></defs><path d="M161.15,13.54l-.22.35L161,14c.17-.09.45-.15.5-.28.17-.42.53-.38.88-.42a7.79,7.79,0,0,1,3.19,0,1.6,1.6,0,0,0,.53,0,1.09,1.09,0,0,1,1.22.9,23.78,23.78,0,0,1,.4,3.12c0,1.64.52,3.23.18,4.9a27.5,27.5,0,0,0-.07,3.75c-.06,1.11-.3,2.22-.38,3.34a13.7,13.7,0,0,0,0,2.48c.1.86,0,1.23-.88,1.52-.15,0-.37-.06-.55-.1a4.83,4.83,0,0,0-1.45-.28c-1.35.16-2.67.44-4,.67a4.73,4.73,0,0,1-.52,0c-.52,0-1.05.09-1.57.13s-.87.05-1.29.11a12,12,0,0,0-1.48.24c-.68.18-1.35.4-2,.62-.11,0-.29.17-.27.21a.94.94,0,0,0,.28.47,20.5,20.5,0,0,1,1.8,1.39,19.9,19.9,0,0,1,2.21,2.48c.41.56.52,1.3.89,1.89a23.08,23.08,0,0,0,1.67,2.29c.73.91,1.49,1.8,2.24,2.7.46.54.92,1.07,1.36,1.62a21.36,21.36,0,0,1,2.62,4.11c.47,1,1.18,1.94,1.75,2.91.22.38.34.81.55,1.19.33.65.68,1.3,1,1.93a.72.72,0,0,0,.49.34c.13,0,.35-.24.38-.4a19.51,19.51,0,0,0,.43-2.52c0-.32-.21-.67-.31-1a2.36,2.36,0,0,1,0-2,5.44,5.44,0,0,0,.43-1.85c.13-1,.22-2.07.28-3.11,0-.45-.16-.91-.13-1.36.15-2.19.4-4.39.49-6.59a9.09,9.09,0,0,0-.06-3,10,10,0,0,1-.07-2.69c0-.56,0-1.12,0-1.68a1.29,1.29,0,0,0,0-.44c-.59-1.57.06-3.11.25-4.62.14-1.11.47-2.22.54-3.35a8.13,8.13,0,0,0-.13-.84,1.53,1.53,0,0,1,.05-.83c.23-.42.28-.7-.2-1a.76.76,0,0,1-.19-.68c.1-.48.36-.93.46-1.41.17-.82,1-1,1.48-1.61a7.66,7.66,0,0,1,.77-.92,1.47,1.47,0,0,1,.84-.4,4.13,4.13,0,0,0,1.47-.45,6.17,6.17,0,0,1,2.28-.28c1.61,0,3.21.16,4.81.21,1.19,0,2.37,0,3.56,0,.2,0,.4.18.62.28a3,3,0,0,1,.76-.07,8.33,8.33,0,0,0,3.3.05,1.79,1.79,0,0,1,.4,0,26.88,26.88,0,0,1,4.21,0,12,12,0,0,0,3.07-.15,1.55,1.55,0,0,0,.59-.26,1.18,1.18,0,0,1,1.84.6c1,.26,1.59-.43,2.33-.77a4.9,4.9,0,0,1,1.59-.62c.28,0,.78.56.84.91a8.19,8.19,0,0,1-.07,2.15c-.07.56-.53,1.11,0,1.66.06.06,0,.21,0,.31-.22,1.29-.39,2.6-.71,3.88A3.77,3.77,0,0,0,207,25.7a.72.72,0,0,1-.25,1c-.68.42-1.41.76-2.09,1.18a1.11,1.11,0,0,0-.47.62,1.6,1.6,0,0,1-1.92,1.42c-.08,0-.22,0-.24,0-.23.59-.77.38-1.21.42-2.11.2-4.22.44-6.33.57a17,17,0,0,1-4.67,0c-1.17-.27-2.33-.15-3.47-.39-.15,0-.5.2-.51.33a18.68,18.68,0,0,0,0,2c0,.56.09,1.12.09,1.68,0,.38.16.55.56.49s1-.23,1.57-.28a10.82,10.82,0,0,1,2-.06c.62,0,1.22.24,1.83.31s1.14,0,1.71,0,.72.23.61.71a5.58,5.58,0,0,0-.12,1c0,.73,0,1.45,0,2.17,0,.54-.12,1.08-.11,1.61a2,2,0,0,0,.26,1.06,1.34,1.34,0,0,1-.16,2c-.53.55-1.14,1-1.64,1.58s-.86,1.2-1.33,1.77-1.23,1.35-1.88,2c-.2.2-.51.32-.73.51a1,1,0,0,1-1.24.11.6.6,0,0,1-.25-.54c.19-.66.08-.9-.61-1.06-.18,0-.38,0-.69-.09.08.6.17,1.15.22,1.7a2.54,2.54,0,0,1,0,1,3.56,3.56,0,0,0,.26,2.71c.17.34,0,.81,0,1.35.89-.15,1.78-.33,2.68-.44a15.11,15.11,0,0,1,2.68-.19c.86.06,1.7,0,2.56,0,1.67.08,3.35.06,5,.06a6.42,6.42,0,0,0,1.06-.14,16.11,16.11,0,0,0,2-.42,1.92,1.92,0,0,1,1.62.32c.37.2.39,1.16,0,1.28-.63.18-.57.64-.62,1-.08.69-.11,1.39-.16,2.09-.09,1.28-.18,2.55-.26,3.83,0,.08,0,.19,0,.25a13.53,13.53,0,0,1-1.75,2.71A15.7,15.7,0,0,1,197.79,67a1.16,1.16,0,0,1-1-.17,2.75,2.75,0,0,0-2.6-.48,23.08,23.08,0,0,0-2.76-.57,20.64,20.64,0,0,0-2.72.07,2.6,2.6,0,0,1-.26,0,10.68,10.68,0,0,1-2.62-.34,16.09,16.09,0,0,0-3.49-.52c-1.55-.22-3.11-.41-4.66-.61-.16,0-.35-.08-.47,0-1,.53-2,0-3-.18a8.34,8.34,0,0,1-1.52-.35l1.2-.54c-1-.52-1-.5-1.69.12a1.07,1.07,0,0,1-.87.25c-.24-.07-.4-.43-.56-.67s0-.29-.05-.37c-.64-.63-.34-1.34-.24-2.05a1.43,1.43,0,0,0,0-.39c-.12,0-.25,0-.27.07-.6,1.23-1.89,1.83-2.8,2.77-.45.45-.93.88-1.38,1.34a.87.87,0,0,1-1.14.11,2,2,0,0,0-.79-.24c-.82,0-1.65.1-2.48.09-1.18,0-2.36-.09-3.55-.13a1,1,0,0,0-.38,0c-.34.13-.7.24-.87-.13s-.4-.88-.25-1.15c.29-.51.1-.79-.26-1.07a3.31,3.31,0,0,1-1-1.28c-.26-.55-.79-1-1.12-1.53-.59-1-1.1-2-1.67-3-.37-.66-.77-1.31-1.19-1.93-.61-.89-1.27-1.73-1.87-2.62a22.87,22.87,0,0,1-1.23-2.88c-.43-.89-1-1.74-1.46-2.59a2.55,2.55,0,0,0-.46-.4,4.23,4.23,0,0,0-.07,2.58,5.37,5.37,0,0,1,.13,1c0,1.67.09,3.34.1,5,0,.81-.13,1.63-.08,2.44a14.12,14.12,0,0,0,.38,2.5c.08.39,0,.59-.37.62-.77.06-1.19.36-1.27,1.1,0,.22-.29.41-.43.61s-.42.64-.68.93a1.67,1.67,0,0,1-.52.31,7.48,7.48,0,0,0-1.28.7,1.07,1.07,0,0,1-1.48.16,1.48,1.48,0,0,0-.88-.16c-1.36.15-2.72.34-4.07.52l-.33.08c-.87.12-1,.06-1.26-.71l-.41.21c-.75.39-1.09.22-1.47-.47-.73-1.32-.56-2.72-.54-4.11,0-1.73.06-3.47.19-5.2.1-1.4.39-2.79.49-4.2.09-1.2.6-2.37.2-3.63a10.25,10.25,0,0,1-.33-2.77,5.37,5.37,0,0,1,.29-1.57,12.25,12.25,0,0,0,.38-3.46c0-1,.15-2,.23-2.93,0-.25,0-.5,0-.75,0-.87,0-1.74,0-2.61a.51.51,0,0,1,0-.25c1-1.36.52-2.82.4-4.28a7.38,7.38,0,0,1,.51-4.06c.17-.34,0-.81.17-1.18a7.64,7.64,0,0,1,.73-1.56,15,15,0,0,1,1.34-1.85,5,5,0,0,1,1-.72l.43.48c.05-.05.1-.07.1-.1,0-.34-.47-.72.11-1a9.83,9.83,0,0,0,1-.73c.11-.09.31-.15.34-.25.27-1,1.12-.84,1.89-.92,1.45-.17,2.89-.35,4.34-.54,1.87-.26,3.73-.57,5.6-.79,1.16-.14,2.33-.16,3.5-.22l6.19-.3A.75.75,0,0,1,161.15,13.54ZM137.84,61.29c.22-.29.51-.5.5-.7A1.42,1.42,0,0,1,140,59.11a4,4,0,0,0,2-.16,4,4,0,0,1,1.82-.56c.69,0,.94-.41.87-1.06a4.71,4.71,0,0,1,.06-.74c0-1,.06-2,.06-3.05,0-.67-.09-1.33-.07-2,0-.41.21-.82.19-1.22,0-.95-.18-1.9-.26-2.86a17.7,17.7,0,0,0-.22-3.15,30.57,30.57,0,0,1-.46-4.3,4.56,4.56,0,0,0-.17-1.54c-.38-.75-.6-1.41,0-2.12,0,0,0-.13,0-.15-.4-.29,0-.35.16-.46,1.46-.93,3.27.67,3.4,1.84,0,.41,0,.89.18,1.2A23,23,0,0,0,149.36,41a2.44,2.44,0,0,0,.65.39c.14.08.36.13.41.25.26.58.46,1.19.73,1.77a7.39,7.39,0,0,0,.61.89,2.73,2.73,0,0,1,.4.64,7.69,7.69,0,0,0,1.06,2.32c1.14,1.5,2.11,3.11,3.16,4.67.19.28.56.5.63.79a8.4,8.4,0,0,0,1.78,2.79c.52.71,1,1.45,1.55,2.14.36.45.54,1.11,1.28,1.2s1.77.22,2.66.28c1.17.06,2.35.06,3.52.11.64,0,.92-.29.65-.85-.56-1.16-1.15-2.32-1.77-3.46-.35-.65-.76-1.28-1.15-1.91-.94-1.53-1.83-3.08-2.83-4.57a29.75,29.75,0,0,0-1.93-2.3c-.6-.72-1.15-1.47-1.76-2.18a13,13,0,0,1-2.26-3.45,5.44,5.44,0,0,0-1-1.72,17.07,17.07,0,0,0-2.39-2c-.78-.55-1.32-1.15-1.24-2a3.44,3.44,0,0,1-.9-.45c-.4-.4-.22-.84.18-1.13a1.36,1.36,0,0,1,1.54-.25,2.17,2.17,0,0,0,2.34-.18,4.41,4.41,0,0,1,1.72-.44c.61-.07,1.24,0,1.85,0a7.34,7.34,0,0,1,2.56-.24,1.73,1.73,0,0,0,.6,0l3.78-.63c.06-.82.08-1.59.18-2.34.07-.53.31-1,.35-1.56.07-.8,0-1.6,0-2.4,0-1.16.21-2.32.22-3.48A26.3,26.3,0,0,0,166,15.8c-.21-.91-.3-1.08-1.29-1-.8,0-1.6.16-2.39.22s-1.6,0-2.39.1c-1,.07-2.08.24-3.12.29-1.64.08-3.28.08-4.92.16-1.29.07-2.59.17-3.87.32-1.7.2-3.4.45-5.09.69-.56.08-1.11.2-1.66.33-.34.07-.67.19-1,.28s-.54.05-.58.16a6.28,6.28,0,0,0-.59,1.89c-.11,2.18-.13,4.37-.16,6.55,0,1.53,0,3.06,0,4.59a3.44,3.44,0,0,1,0,.56c-.11.82-.27,1.63-.35,2.45s-.1,1.76-.16,2.65c0,.6-.15,1.2-.12,1.8a21,21,0,0,0,.11,4.12c.07.29-.12.63-.13.95,0,.69,0,1.37,0,2.05-.06,1.3-.16,2.59-.22,3.89s-.1,2.67-.16,4a1.24,1.24,0,0,1-.11.36l-.72,2.38s0,.12,0,.18c.06.42.14.84.17,1.26.1,1.27.17,2.53.27,3.79C137.53,60.92,137.67,61,137.84,61.29ZM184,47.52c-.56-.07-.84-.45-1-1a.86.86,0,0,1,.46-1.1c.35-.21.38-.41.06-.7a.9.9,0,0,1-.29-.6,2,2,0,0,1,2.7-1.62,7,7,0,0,0,1.51.47,8.19,8.19,0,0,0,1.83.28,9.56,9.56,0,0,0,1.37-.29c.77-.12,1.48-.21,1.54-1.18,0-.5.36-1,.43-1.46a8.71,8.71,0,0,0,0-1.53c0-.46,0-.93-.06-1.4a.57.57,0,0,0-.17-.39,3.91,3.91,0,0,0-1.43-.68c-1.09-.09-2.21.07-3.31,0s-2.5.91-3.31-.63l-.06,0c-.74-.42-.84-.87-.31-1.53a1,1,0,0,0,.18-1.26,2.23,2.23,0,0,1,0-1.09,4,4,0,0,0,.16-1.16,12.63,12.63,0,0,1,.39-4.7.8.8,0,0,1,.87-.71c1,.09,2.05-.6,3.08,0a.23.23,0,0,0,.2,0c.38-.26.63,0,.93.18a1.59,1.59,0,0,0,.6.21c1.55.14,3.1.35,4.66.35,1.86,0,3.74-.14,5.6-.28.72-.06,1.43-.36,2.15-.42a.83.83,0,0,0,.81-.62,9.36,9.36,0,0,0,.45-4.66,8.27,8.27,0,0,1,0-1.22V17.39a4.25,4.25,0,0,1-1.53,0c-1.05-.51-2.05.07-3.07,0-.82-.09-1.68.12-2.51.1-1,0-2.12.28-3.15-.15a.79.79,0,0,0-.4,0,11.81,11.81,0,0,1-4.59-.18,4,4,0,0,0-1.28-.16c-1.69,0-3.39,0-5.09-.07-.81,0-1.63,0-2.45,0s-1.72-.14-2.59-.22c-.14.95-.35,1.89-.41,2.83s.12,1.63.09,2.45c0,1-.18,2-.27,3,0,.34-.06.69-.08,1-.06.9-.15,1.79-.16,2.69a23.62,23.62,0,0,1,.14,3.05c-.19,1.26.09,2.54-.12,3.82a22.23,22.23,0,0,0,.07,2.44c-.13,2.55-.32,5.1-.51,7.65-.09,1.19-.24,2.37-.34,3.55-.12,1.39-.27,2.78-.32,4.17,0,1,.08,2.09.12,3.13a2.57,2.57,0,0,0,0,.84c.49,1.12.17,2.26.2,3.39,0,.49-.31.76-.89.69a4.74,4.74,0,0,0-.66,0c.23.48.59.55,1.62.31.12-.25.3-.63.5-.63,1.74-.05,3.48,0,5.23-.05,1.13,0,2.26-.1,3.39-.17s2.13-.21,3.19-.23c1.38,0,2.76.06,4.13.11.92,0,1.84,0,2.75.14,1.65.17,3.3.44,5,.58,1,.09,1.15-.07,1.27-1,.16-1.24.21-2.49.31-3.74A1.47,1.47,0,0,0,199.76,55a2.33,2.33,0,0,1-.46.08c-1.81,0-3.63,0-5.45-.08-.5,0-1-.14-1.51-.13-2,.07-3.89.17-5.84.24a1.31,1.31,0,0,0-1.07.38,1,1,0,0,1-.91.21c-.39-.16-1.11-.22-.78-1,.06-.13,0-.29,0-.44a3.45,3.45,0,0,1,.2-1.43.88.88,0,0,0,.11-.9,1.19,1.19,0,0,1-.05-.62,10.25,10.25,0,0,0,.39-1.84A10.24,10.24,0,0,0,184,47.52Zm11.15,14.87c-.84-.58-6.93-.82-7.57-.22C190.2,62.38,192.68,62.39,195.16,62.39Zm-20.06-43c-1,.48-1.16.81-1,1.55.08.46.17.93.29,1.39,0,.12.21.21.32.32a1.3,1.3,0,0,0,.28-.36,3,3,0,0,0,0-.6C175,21,175.05,20.21,175.1,19.38ZM136.27,34.89c0,.33-.1.65-.12,1,0,.51,0,1-.09,1.53a9.71,9.71,0,0,1-.25,1.09C136.78,38.21,137.14,35.63,136.27,34.89Zm22.34,24.77a5.63,5.63,0,0,0-1.05,0c-.16,0-.44.29-.42.33a15.22,15.22,0,0,0,.87,1.37l1-1.2Zm34.82-32.17-.09.18c.27.17.53.49.8.49a14.16,14.16,0,0,0,2-.23c.09,0,.2-.14.23-.23s-.12-.2-.18-.2C195.29,27.48,194.36,27.49,193.43,27.49ZM174,29.37a2.2,2.2,0,0,0-.65,2.3C174.3,31.08,174,30.24,174,29.37Zm12-1.1c.23-.24.47-.45.66-.69a.39.39,0,0,0,0-.35.36.36,0,0,0-.28-.1C186.07,27.18,185.81,27.86,186.05,28.27ZM136.28,60.85l-1.14.95C136.08,62.12,136.4,61.87,136.28,60.85Zm66.56-33.33.65-.77-.1-.18-.92.13ZM135.61,58.07l-.22,0c-.1.36-.2.72-.28,1.08l.31.1c.1-.31.2-.62.28-.93C135.71,58.22,135.64,58.14,135.61,58.07Zm31.73,2.87c-.5-.36-.81-.5-1-.12-.07.12.07.36.11.55Z"/><path d="M5.74,62.6a6.68,6.68,0,0,1-1.34.21.91.91,0,0,1-.62-.43c-.06-.11.12-.42.28-.56a11.26,11.26,0,0,0,2.79-2.63c.11-.19.53-.21.7-.4.45-.49.81-1,1.26-1.55a2.12,2.12,0,0,1,.77-.49c.37-.14.72-.19.52-.72s.12-.63.58-.64c1.61,0,3.23,0,4.83-.14s3-.41,4.51-.48,2.82.06,4.23.08c.51,0,1-.08,1.53-.12l4.48-.29,1.18-.12c-.22-.32-.37-.56-.54-.8l-.67-.87c-.08-.09-.13-.25-.24-.29a8.13,8.13,0,0,0-1.7-.58,22.8,22.8,0,0,0-2.34,0c-1.24,0-2.48-.09-3.72-.13l-4-.09c-.77,0-1.53-.06-2.29,0a69.47,69.47,0,0,1-7.07,0,2.67,2.67,0,0,1-1.64-.51.59.59,0,0,1-.2-.56c.1-.15.4-.2.62-.28,0,0,.15,0,.19,0l1.9-1A5,5,0,0,0,9,49.15a3.94,3.94,0,0,1-.92,0c-.75-.28-1.19-.05-1.4.63a.76.76,0,0,1-1.07.53c-.37-.18-.58-.67-.81-1,0-.08.12-.3.24-.42a6.41,6.41,0,0,1,.56-.44c.51-.42.9-.86.13-1.53a5.17,5.17,0,0,0-.58.51,2.45,2.45,0,0,0-.31.55c-.17.33-.45.63-.82.43a1,1,0,0,1-.45-.78c-.09-1.76-.15-3.52-.16-5.28A2.39,2.39,0,0,1,3.79,41a4.54,4.54,0,0,0,.67-3.28,20.7,20.7,0,0,1-.06-2.73c0-1.1.06-2.2.13-3.29a9.3,9.3,0,0,1,.25-1c0-.15,0-.44,0-.46-1.38-.42-1-1.48-.91-2.33.13-1.31.43-2.62.67-3.92a.59.59,0,0,0-.36-.77.63.63,0,0,1-.31-1c.27-.41.49-.84.79-1.23.77-1,1.56-2,2.35-3,.1-.14.26-.29.25-.43,0-1,.8-1.13,1.54-1.35.24-.08.44-.25.68-.31a3.27,3.27,0,0,1,1.14-.18,32.4,32.4,0,0,0,6.3.21c1.36-.08,2.71-.33,4.06-.47s2.94-.3,4.41-.38,3.19-.1,4.78-.15c.48,0,.92,0,.91.64,0,.09.31.27.48.26,1.14,0,2.29-.09,3.43-.14s2.53-.06,3.79-.14,2.25-.24,3.38-.33a3.56,3.56,0,0,1,.91.12c.63.11,1.25.27,1.89.34s1.58.06,2.37.14.09.36.08.55c.58.48.56.56-.32,1,.19.34.39.67.56,1a1.54,1.54,0,0,1,.17.59c.06,1.11.07,2.21.15,3.32.1,1.39.24,2.77.36,4.16.07.77-.14,1-1,.92a1.33,1.33,0,0,0-1.19.46,10.42,10.42,0,0,0-2.32,3,.79.79,0,0,1-.59.31,2.85,2.85,0,0,0-2,.57c-.19.16-.72,0-1.09-.1a3.87,3.87,0,0,0-.8-.15,4.61,4.61,0,0,0-1.16.24c-2.24.68-4.56.46-6.85.58-.88,0-1.78-.28-2.65-.22-2.48.18-4.9-.36-7.35-.4h-.13c-1.63-.08-1.67-.06-1.61,1.43,0,.8.1,1.59.11,2.38a2.58,2.58,0,0,1-.15,1.11,4.06,4.06,0,0,0-.18,3c.6,0,1.26-.08,1.91-.15,1.6-.16,3.2-.32,4.8-.5,1.26-.14,2.51-.36,3.77-.44,1.65-.11,3.3-.08,4.94-.19s3.43-.45,5.14-.43a18.63,18.63,0,0,0,4.3-.44c.56-.12,1.12-.25,1.69-.33s.84,0,1,.44c.09.3.09.59-.34.69s-.4.28-.38.64c0,1-.09,2-.09,3a1.77,1.77,0,0,0,.36.78,7.58,7.58,0,0,1,.89,4c0,2.38,0,4.75,0,7.13a17.13,17.13,0,0,0-.07,3.35,14.82,14.82,0,0,1,0,3.39,12.53,12.53,0,0,1-.62,3.11,5.35,5.35,0,0,1-.81,1.31.55.55,0,0,1-.36.26,2.7,2.7,0,0,0-1.52.79,1.25,1.25,0,0,1-.54.19,4.57,4.57,0,0,0-3,2A1.71,1.71,0,0,1,39.1,69c-2.9,0-5.79-.09-8.69-.1-2.18,0-4.37.07-6.56.13-.5,0-.94,0-1-.61,0-.11-.5-.28-.71-.22a14.72,14.72,0,0,1-4.44.21c-2.4-.06-4.8-.14-7.19-.29a9.22,9.22,0,0,1-2.65-.56,5.71,5.71,0,0,1-1.41-1.17c-.1-.09-.18-.22-.3-.28C5,65.56,4.83,65,5.3,64A12.56,12.56,0,0,0,5.74,62.6ZM22.8,18.05c.14.5.26.92.36,1.33s-.09.47-.45.37-.45-.17-.69-.23c-1.51-.34-3-.75-4.54-1-1.84-.26-3.7-.33-5.55-.5-.82-.08-1.64-.23-2.46-.25a1,1,0,0,0-.7.49c-.18.37.17.42.49.45a.45.45,0,0,1,.31.2,4.85,4.85,0,0,1,.49,1.43c.06,1.27,0,2.55,0,3.83a4.46,4.46,0,0,0,.62,2.65c.34.53.1.9-.14,1.33a2.75,2.75,0,0,0-.45.95,26,26,0,0,0-.19,2.92c0,1.32.08,2.63.13,3.94,0,.68.08,1.36.09,2s-.06,1.62,0,2.43c0,.49.43,1,.45,1.45a18.05,18.05,0,0,1-.15,2.94c-.06.5,0,.66.58.59,2.76-.38,5.52-.74,8.28-1.1a9.68,9.68,0,0,1,1.19-.15.77.77,0,0,1,.57.21c.07.12-.06.36-.11.55s-.19.41-.14.57a8.3,8.3,0,0,0,.52,1,11.15,11.15,0,0,0,1.41,0c1.66-.18,3.31-.4,5-.59.51-.06,1.05-.15,1.41.35a.33.33,0,0,0,.23.07c.95-.09,1.92-.13,2.86-.29s1.05-.2,1.54.67a.68.68,0,0,0,1.09.27c.37-.27.73-.18.71.25a3.11,3.11,0,0,0,.6,2.1.46.46,0,0,1,.11.29c0,1,.12,2.09.07,3.13,0,.83-.36,1.68.59,2.29.07,0,0,.36,0,.42a3.79,3.79,0,0,1-.81.39,13.92,13.92,0,0,0-1.83.72c-.45.26-.67.06-1-.15a2.66,2.66,0,0,0-1-.54,19.67,19.67,0,0,0-5.36.28c-1.35.18-2.68.43-4,.57-.32,0-.68-.28-1-.44s-.47-.38-.71-.39a14.16,14.16,0,0,0-1.95.1,42.48,42.48,0,0,1-7.56.45c-.46,0-.51.22-.36.51a2.82,2.82,0,0,0,.47.51c.14.16.36.34.34.49-.18,1.5.58,3.09-.69,4.52.41,0,.67,0,.93,0,1.08.17,2.16.38,3.24.52.54.07,1.1,0,1.65,0,.85,0,1.69.19,2.54.21s1.56-.09,2.34-.1c1.7,0,3.41,0,5.11,0,.27,0,.72-.13.79-.31.29-.71.81-.68,1.47-.63,1.78.13,3.57.2,5.35.31.5,0,1,.12,1.48.18a5,5,0,0,0,.66.08c2,0,4-.05,6.06-.14a15.89,15.89,0,0,0,2.36-.38.46.46,0,0,0,.32-.27,6.87,6.87,0,0,0,.25-1.54c0-.88-.2-1.76-.21-2.64,0-1.14.07-2.27.12-3.41,0-.33.09-.66.1-1,0-1,0-2,.11-3a7.69,7.69,0,0,0-.19-3.72,4.33,4.33,0,0,1-.43-1.41c-.09-1.29-.09-2.58-.13-3.88,0-.78-.06-1.57-.08-2.36,0-.31-.06-.44-.46-.35-.67.15-1.37.23-2,.32a26.57,26.57,0,0,0-2.7.37c-1.51.36-3,.82-4.48,1.26-.53.15-1,.06-1.15-.43s-.6-.47-1-.44c-.66,0-1.31.1-2,.15-1.12.08-2.24.17-3.36.21-.65,0-1.31-.12-2-.07-1.3.1-2.6.3-3.9.42s-2.58.22-3.87.28c-.6,0-.78-.31-.6-.86a2,2,0,0,0,.13-.72c-.11-1.55.34-3.07.17-4.65s.18-3-.22-4.47a.57.57,0,0,1,.09-.42c.27-.34.14-.56-.19-.78s-.89-.55-.54-1,1-.87,1.32-.76c1,.38,1.68-.13,2.4-.45a3,3,0,0,1,2.26-.29,20.54,20.54,0,0,0,4.53.38c.86,0,1.72-.15,2.58-.18.62,0,1.25.06,1.84.09.49-1.07.6-1.12,1.81-.93a10.93,10.93,0,0,0,1.13.15c.8,0,1.61,0,2.41.05,1,0,2,.11,3,.08,1.59,0,3.17-.24,4.76-.23,1.15,0,2.2-.78,1.47-2.12a7.12,7.12,0,0,1-.74-3.51,7.53,7.53,0,0,0-.13-1.05,4.66,4.66,0,0,1-.13-.82,1.33,1.33,0,0,0-1.31-1.55,11.85,11.85,0,0,0-2.72.07,53,53,0,0,1-5.77.79c-1.8.19-3.61.35-5.43.4C27.89,18.1,25.36,18.05,22.8,18.05ZM34.52,28.13v.17c.09,0,.19.11.28.1,1-.07,1.89.25,2.92-.16A10.66,10.66,0,0,1,43,27.83c.28,0,.64.21.68-.22s-.37-.4-.68-.39c-.55,0-1.11.08-1.66.11a14.16,14.16,0,0,0-2.36.1,13.69,13.69,0,0,1-3.87.58A1.81,1.81,0,0,0,34.52,28.13Zm-25.63,32L8.63,60l.47.32a1.16,1.16,0,0,1,.43,1.11c0,.71-.64,1.36-.26,2.13.06.1-.15.32-.23.46l.29.83a1.06,1.06,0,0,0,.85-1.29c-.12-1.19-.17-2.39-.25-3.58,0-.33,0-.67-.06-1.13Zm2-12.43,5.7.22a1.45,1.45,0,0,0-1.43-.66,1.84,1.84,0,0,1-1.72-.36,1,1,0,0,0-.68-.14c-.46,0-.92.17-1.38.23S10.89,47.27,10.92,47.68Zm.9,17.67,4.8-.21c-.06-.22-.12-.29-.19-.3-1.25-.17-2.5-.39-3.76-.46C12.14,64.34,11.93,64.86,11.82,65.35ZM5.58,37.6h.3a3.44,3.44,0,0,0,.21-.76c0-.67.06-1.34,0-2,0-.11-.19-.21-.29-.32-.12.11-.35.22-.35.33C5.5,35.77,5.55,36.68,5.58,37.6Zm19.31-8.94-.07-.34c-1,.07-1.93.12-2.89.2-.07,0-.14.13-.21.19.11.08.22.22.33.23a11.31,11.31,0,0,0,1.54,0A9.71,9.71,0,0,0,24.89,28.66ZM26,67.2c-.56-.57-1.06-.58-1.75,0ZM8.22,45.56l.31.08L9,44.14l-.38-.09Zm.45-5.35A1.39,1.39,0,0,0,8.81,42a2.23,2.23,0,0,0,.19-.7A8.19,8.19,0,0,0,8.67,40.21ZM19.58,28.53l-.37,0,.06,1,.54,0Zm15,20.28-.28-.05a5.64,5.64,0,0,0-.29.78c0,.08.14.26.23.28s.31-.12.32-.2A5.48,5.48,0,0,0,34.61,48.81Z"/><path d="M70.28,36l1.11.22,1.3.25c-.14-.57-.21-1,.57-1l-.16.27,2.93-.3a14.29,14.29,0,0,0-.43-2.88c-.29-.82.15-1.51.1-2.27a22.51,22.51,0,0,1,.32-6.6c.25-1.05.52-2.1.8-3.2a1.26,1.26,0,0,1-1.31-1.22c-.09-.7.37-1.23,1-1.66.86-.54,1.65-1.2,2.45-1.82.45-.36.88-.75,1.32-1.12.09-.07.26-.13.26-.19,0-.91.85-.64,1.32-.89a.43.43,0,0,1,.39.09c.55.66,1.31.54,2,.52,1.08,0,2.16-.14,3.22-.07a9.53,9.53,0,0,1,2.19.56c.47.15.39.54.29,1A5.51,5.51,0,0,0,90,17.81c.22,1.38.58,2.74.85,4.11A1.25,1.25,0,0,1,90.43,23a2.23,2.23,0,0,0-.29,1.32c0,1.27,0,2.55.12,3.81s.29,2.23.35,3.35c0,.48.18,1-.25,1.49a1.72,1.72,0,0,0-.24.95c-.12,1.12-.23,2.24-.31,3.37,0,.54,0,1.08,0,1.62,0,1.22,0,2.45,0,3.68a3.5,3.5,0,0,1-.31.91,1.18,1.18,0,0,0-.1.4c.2,1.85.42,3.69.61,5.54.06.58.08,1.17.09,1.75a.55.55,0,0,1-.2.43c-.88.4-.64,1.13-.61,1.76.11,1.69.25,3.38.39,5.07.07.81.14,1.62.25,2.43.08.65-.12.9-.64.89-.4.54-.7,1-1.08,1.43a27.21,27.21,0,0,1-2.33,2.47,2.18,2.18,0,0,1-1.37.3c-1.1,0-2.2-.19-3.29-.21a5.26,5.26,0,0,0-1.56.26,1.65,1.65,0,0,1-1.93-1l1.52-.47c-.51-.14-1-.23-1-.85,0,0-.37-.14-.41-.09a8.49,8.49,0,0,0-.88,1.1c-.06.09.09.3.15.5a3.92,3.92,0,0,1-1.1.11,5.67,5.67,0,0,1-1.27-.45c-.58-.24-.42-.75-.48-1.2A12.11,12.11,0,0,0,74,62.19a1.38,1.38,0,0,1,.32-1.46.86.86,0,0,0,.27-.48c.14-1,.3-2.1.37-3.16.1-1.64.13-3.29.18-4.94,0-.29,0-.53-.37-.71-.21-.11-.25-.52-.3-1-.53.14-1,.29-1.58.42s-.93.18-1.37.33a.65.65,0,0,0-.38.46c0,.88.08,1.75,0,2.63S71,56,70.92,56.81a.38.38,0,0,1-.25.27c-.58.12-.55.51-.51.93.1,1,.17,1.94.28,2.91a.8.8,0,0,0,.21.42.72.72,0,0,1,0,1.07c-.43.54-.8,1.12-1.2,1.67a2.26,2.26,0,0,1-.44.53c-.45.36-1,.61-1.18,1.24-.15.42-.76.75-1.24,1-.21.09-.62-.17-.93-.29s-.37-.28-.53-.26c-1.43.16-2.85.37-4.28.56a1.79,1.79,0,0,1-.4,0c-1.14-.11-2.27-.26-3.42-.33a2.33,2.33,0,0,0-.89.34,3.31,3.31,0,0,1-.75.38,1,1,0,0,1-.79-.18.7.7,0,0,1,0-.7A1.76,1.76,0,0,0,55,64.83l-.21-.07a6,6,0,0,0-.35,1,.76.76,0,0,1-.78.71c-.51,0-.51-.35-.69-.67-.47-.84.18-1.53.18-2.29,0-1.08.08-2.15.11-3.22,0-.15-.12-.31-.16-.46a6.43,6.43,0,0,1-.22-1c-.07-1.58-.1-3.16-.17-4.75a.64.64,0,0,0-.26-.47c-.53-.28-.53-.7-.54-1.18a35.26,35.26,0,0,1,.72-6.31,10.38,10.38,0,0,0,.08-1.85c-.07-3.29-.17-6.58-.24-9.87,0-.59.11-1.18.08-1.77A.88.88,0,0,0,52.1,32c-.46-.18-.56-.42-.65-.88-.18-1,.17-2.13-.54-3.1a2.43,2.43,0,0,1-.19-1.28,24.5,24.5,0,0,0,0-3.32c-.1-.68.21-.8.7-1,.13-.05.21-.24.3-.36a1.46,1.46,0,0,0-.43-.22,3.72,3.72,0,0,0-.67,0c-.7,0-.9-.28-.55-.86.53-.9,1.08-1.8,1.63-2.69A.84.84,0,0,1,52,18l1.68-.83c.49-.25.89-.55.83-1.17,0-.12.16-.36.24-.36a1.32,1.32,0,0,1,.76.18c.51.45,1,.47,1.42-.06a1.13,1.13,0,0,1,1.35-.36,18.68,18.68,0,0,0,1.94.43c.79.08,1.59,0,2.39,0,.5,0,1,.05,1.48.1s.91.1,1.29-.36c.21-.25.68-.31,1.11-.48.35.8.7,1.47.93,2.18a2,2,0,0,1,.13,1.4,1.58,1.58,0,0,0,.19,1.65c1,1.91,1.41,4,2.14,6,.13.37-.13.86-.2,1.3a2.49,2.49,0,0,0-.08.89c.18.81.51,1.59.64,2.41a2.94,2.94,0,0,1-.28,1.18,4.38,4.38,0,0,0-.31,1,7.66,7.66,0,0,0,.11,1.43c.08.52.22,1,.33,1.55ZM88.19,16.2c-1,.07-1.78.18-2.6.18-1.15,0-2.3.09-3.22-.86a.82.82,0,0,0-1.42.57,17.78,17.78,0,0,0-.14,1.78c0,.44-.11.89.39,1.23.15.1.12.46.11.71s-.07.71-.1,1.06c-.09,1.05-.16,2.11-.27,3.16s-.25,2.15-.37,3.23a.53.53,0,0,0,.11.34c.64.84.38,1.79.29,2.69-.06.67-.42,1.31-.5,2-.09.84,0,1.69,0,2.54a1,1,0,0,1-.27.64c-.6.64-1.71.14-2.3.86,0,.06-.22,0-.32.06a6,6,0,0,0-1.41.52,5,5,0,0,1-2.52.9c-1.13.08-2.26.14-3.38.26s-1.22.07-1.63-.82a2.86,2.86,0,0,1-.28-1.14c0-1.39.07-2.79,0-4.18a9.16,9.16,0,0,0-1-3.9,2.1,2.1,0,0,1-.09-.94,3.53,3.53,0,0,0,0-1c-.36-1.07-.75-2.12-1.21-3.15-.2-.46-.15-.81.25-1s.44-.65.28-1.06c-.27-.72-.52-1.46-.84-2.16-.21-.49-.39-1-1.13-1.09-.93-.07-1.86-.2-2.79-.26a3.68,3.68,0,0,0-.85.14v.15l.65.3c-.36.18-.6.41-.86.42a7.62,7.62,0,0,1-1.5-.1c-1-.13-2.09-.29-3.2-.45.08.64.13,1.16.22,1.67.24,1.35.56,2.69.72,4,.2,1.74.23,3.5.4,5.25.19,2,.45,4.06.68,6.09.22,1.82.42,3.64.68,5.45.18,1.34.46,2.66.66,4a15.88,15.88,0,0,1,.15,2.07c0,1.48,0,3,0,4.43s0,2.75,0,4.13a9.94,9.94,0,0,1,0,1.09c-.05.51-.18,1-.21,1.53-.08,1.35-.12,2.71-.18,4.06,0,.55.24.68.8.57,1-.18,1.94-.29,2.91-.45,1.82-.3,3.64-.59,5.45-.93.84-.15.83-.23.7-1a16.3,16.3,0,0,1-.4-2.85c0-1.64.15-3.29.26-4.94a3,3,0,0,1,.23-1.28c.52-.91.16-1.86.25-2.78s.35-1.3,1.43-1.22c-.19-.31-.36-.55-.48-.8S69.9,45.21,70,45c.13-.44.61-.47,1.08-.35a1.84,1.84,0,0,0,.66.07c1.81-.23,3.62-.44,5.41-.73,1-.14,1.42.1,1.52,1a.66.66,0,0,0,.08.21c.54.16,1.34-.69,1.57.34-.17.19-.27.42-.45.5-.55.25-.55.58-.47,1.12a21.8,21.8,0,0,1,.3,3.61c0,1.33-.17,2.66-.2,4,0,1,.12,1.91.08,2.86,0,.61-.57,1.23.13,1.8,0,0-.07.16,0,.23.1.4.21.8.34,1.19,0,.06.19.11.29.12a3.06,3.06,0,0,0,.74,0c1.42-.34,2.83-.71,4.25-1a1,1,0,0,1,.67,0,2.65,2.65,0,0,0,2.45.35.8.8,0,0,0,.43-.62c-.13-1.52-.34-3-.48-4.56-.16-1.76-.33-3.53-.39-5.3,0-.65-.47-1.33.12-2a1.3,1.3,0,0,0,.27-.86,57,57,0,0,0-.52-6c0-.28.2-.6.32-.89a3,3,0,0,0,.29-.66c.06-.51,0-1,.1-1.55.16-1.8.39-3.59.47-5.4.07-1.25-.08-2.51-.1-3.77,0-.94,0-1.88,0-2.82,0-.61.08-1.22,0-1.82,0-.94-.14-1.88-.21-2.81A4.55,4.55,0,0,1,88.64,20C88.89,18.67,88.4,17.47,88.19,16.2ZM57.69,54.13h.38c0-.61.15-1.21.15-1.81,0-1.61,0-3.22-.1-4.83,0-1.17.21-2.39-.63-3.44a.34.34,0,0,1,0-.23c0-1,.07-1.95,0-2.92s-.12-1.73-.2-2.6c0-.55-.12-1.1-.18-1.65l-.33,0c0,1.5,0,3,0,4.51,0,1.26.23,2.51.23,3.77a3.63,3.63,0,0,0,.31,2.36,3.81,3.81,0,0,1,.26,1.87c0,1.38,0,2.75,0,4.12C57.66,53.58,57.68,53.85,57.69,54.13ZM79,28.19c0,1.45-1,2.88,0,4.36C79.42,32,79.52,28.73,79,28.19ZM57.84,60.86l-.24-.14c-.18.17-.49.33-.52.52-.1.72-.11,1.46-.16,2.27.65-.17.94-.43.92-.95S57.84,61.43,57.84,60.86Zm21.63,1.67.09.26,3.15-.69,0-.17A8.78,8.78,0,0,0,79.47,62.53ZM72,47.18c-1-.17-1.07,0-.76,1.08C71.91,48.11,72.05,47.91,72,47.18ZM67,62.49l.25,1.2c.67-.17.61-.6.48-1C67.71,62.59,67.36,62.58,67,62.49ZM79.72,18.58l.21-.14.14-.83-.15-.13c-.23.17-.54.31-.65.53S79.56,18.38,79.72,18.58ZM60.34,63.45c-.71-.14-.9.1-.65,1Zm17.78-3.7-.31-.2a7.77,7.77,0,0,0-.48.69,3,3,0,0,0,.37.25ZM54.51,20l.38-.13-.24-.8a3.07,3.07,0,0,0-.43.17A7,7,0,0,0,54.51,20Zm25.06,6c-.67.59-.69.92-.18,1.27Z"/><path d="M361.39,28.09c.2-.11.26-.68,0-1s-.3-.57-.2-.75a2.17,2.17,0,0,0,.16-1.58,11.63,11.63,0,0,1,0-1.67c0-.72-.1-1.43-.2-2.14,0-.15-.23-.27-.42-.45.32-.5.64-1,1-1.52a4.73,4.73,0,0,0,.67-1.52c.1-.43.59-.79.89-1.19s.5-.74.78-1.09.61-.68.9-1a.66.66,0,0,0,.19-.38c-.08-.43.13-.56.54-.48a1.18,1.18,0,0,1,1.21-1.13l0-.53.2-.06,1.78-.31a13.07,13.07,0,0,0,1.63-.33,9.23,9.23,0,0,0,2.12-.86,3.34,3.34,0,0,1,3.52-.41c.07.41.15.82.24,1.33-1.19.28-.17,1.3-.46,2a5.69,5.69,0,0,0-.24.9h-.21l.53.65.3-.23c0,.07,0,.13,0,.17a11,11,0,0,0-.88,4.25,1.27,1.27,0,0,1-.52.78,2,2,0,0,1,.16.56c0,.83,0,1.66-.06,2.5a7.87,7.87,0,0,1-.14,1,18.72,18.72,0,0,1,.32,2c0,.79-.06,1.6,0,2.39a1,1,0,0,0,.62.66,20.64,20.64,0,0,0,2.11.36.63.63,0,0,0,.81-.56c.09-.7.12-1.4.18-2.11.1-1,.2-2,.31-3l1-.1s0-.1,0-.11c-.93-.38-1-.43-.86-1.34a12.55,12.55,0,0,1,.26-1.61,1.6,1.6,0,0,0-.09-1.38c-.15-.26.07-.7.09-1.06s0-.63,0-1l-.17.05c0,.08,0,.16-.06.26s-.07-.07-.07-.1c-.14-.82.47-1.36.87-2a15.66,15.66,0,0,1,1.33-1.71c.4-.46.87-.86,1.29-1.3s.75-.9,1.52-.83c.24,0,.5-.34.79-.45a4.49,4.49,0,0,1,3.36.43,5.32,5.32,0,0,0,3.26-.09,7.66,7.66,0,0,0,1.47-.59.66.66,0,0,0,.24-.2,1.42,1.42,0,0,1,2.13-.26c.39.26.95.33.92.95a9.87,9.87,0,0,0,.08,1c-.52,0-.34.44-.27.81,0,.2.12.49,0,.62a2.54,2.54,0,0,0-.46,1.72,2.25,2.25,0,0,1-.39,1c0,.37.06.73.13,1.1.24,1.36-.28,2.68-.3,4,0,0,0,0,0,.06-.57.86-.14,1.8-.28,2.7s-.17,1.91-.27,2.86a4,4,0,0,0-.17,1.34,1,1,0,0,1-.18,1.05c-.12.11-.24.22-.23.33-.06.44-.12.88-.19,1.32,0,.06,0,.12,0,.19-.09,1.45-.17,2.9-.28,4.35-.07.88-.17,1.75-.3,2.63,0,.15-.23.27-.32.38,0,.49,0,1,0,1.47,0,1.58.08,3.16.07,4.74,0,.51-.22,1-.23,1.54-.07,2-.17,4-.09,6,.05,1.21.47,2.4.59,3.62a1.31,1.31,0,0,1-.59,1.12c-.92.3-1.07,1.11-1.54,1.69a4.41,4.41,0,0,0-.49,1.08,2.83,2.83,0,0,1-2.12,1.22c-1.18,0-2.36-.07-3.53,0a10.85,10.85,0,0,0-1.63.42,1.33,1.33,0,0,1-1.39-.3c-.21-.22-.8-.16-1.21-.16s-.79.16-1.19.15c-.82,0-1.11-.56-.75-1.24a1.68,1.68,0,0,0,0-.81,23.8,23.8,0,0,1,0-3.27c.12-1-.15-2,.38-3,0,0,0-.11-.06-.2l-.54.24a24.39,24.39,0,0,0,.52-2.5,20.21,20.21,0,0,0-.07-2.2,3.75,3.75,0,0,1,.13-.58c0-.13,0-.36,0-.38-.65-.19-.35-.65-.33-1s.07-.61.06-.91a4.14,4.14,0,0,1-.15-2.85h-3.45a2.51,2.51,0,0,0-.27,0c-1.08.12-1.09.12-1.28,1.1-.21,1.13-.48,2.25-.59,3.39a28.81,28.81,0,0,0,0,3.22c0,.92.08,1.83.13,2.75,0,.73.08,1.46.09,2.19a4.48,4.48,0,0,1-.11.72,5.93,5.93,0,0,1-.2.95c-.11.3-.26.8-.46.83-1.33.2-1.57,1.32-2.24,2.11a11.08,11.08,0,0,1-2.06,1.71,1.1,1.1,0,0,1-.89,0,2,2,0,0,0-2,.15,1.62,1.62,0,0,1-1.18.09,3.31,3.31,0,0,0-2.82.09,1.71,1.71,0,0,1-1.88-.38c0-.4.09-.7.12-1,0-.1,0-.26,0-.3.57-.4.32-1.07.64-1.56a1,1,0,0,0,.05-.6c-.05-.56-.23-1.12.22-1.62a.44.44,0,0,0,.05-.42c-.13-.34-.09-.82-.21-1-.56-.92.08-1.77.05-2.64,0-.38.35-.76.4-1.15a15.27,15.27,0,0,0,0-1.79V45.56h.17v1.1h.24c-.1-1.36-.21-2.73-.31-4.08l0-.06.16.11c0-.25,0-.56-.09-.73-.37-.45-.23-.76.19-1.06a1.47,1.47,0,0,1,.2-2.55c-.76-.47-.37-1.1-.35-1.71l-.28.51c0-.75,0-1.3,0-1.85s.17-1,.24-1.46a1.43,1.43,0,0,0,0-.41c-.05-.31-.37-.66.22-.87a.4.4,0,0,0-.19-.72c-.14,0-.26-.41-.24-.62,0-.6.17-1.19.25-1.79C361.29,29,361.33,28.58,361.39,28.09ZM393.55,16c-.6-.88.53-.9.85-1.37-.87-.25-.89-.31-.45-.91-.22-.29-.37-.65-.64-.8a3.25,3.25,0,0,0-2.87.05,2.7,2.7,0,0,1-2.61-.23l-.09.22c-.4-.53-.49.13-.74.18A1.72,1.72,0,0,0,385.63,15c-.18,2-.29,3.95-.45,5.93-.13,1.52-.27,3-.43,4.55s.13,3.26,0,4.89c-.05.7-.31,1-1,1.08-1.21.17-2.19-.47-3.28-.74a3.68,3.68,0,0,0-1.86-.2,4.16,4.16,0,0,1-1.53.12,6.93,6.93,0,0,0-3,.11,1.17,1.17,0,0,1-1.49-1.39,20.26,20.26,0,0,0,.31-2.21c.07-.68.11-1.37.16-2.05,0-.23,0-.46.06-.83l.21-.08c-.13-.42-.26-.8-.39-1.22.47-.34.19-.85.06-1.3s-.18-.84.31-1.19c.16-.11.17-.46.16-.7a7.57,7.57,0,0,0-.18-1.06l.18,0-.32-.23.56-.33-.39-.53h.17c.12-.5.24-1,.34-1.49,0,0-.2-.1-.27-.14l.35-.85c-.51-.08-.26-.47-.29-.7-.11-.84-.15-1.69-.21-2.45-1.15.28-2.24.55-3.32.83a2,2,0,0,0-.41.21c-.94.5-1.88,1-2.79,1.51a1,1,0,0,0-.46.67c0,1.21.15,2.43.22,3.65s.12,2.26.15,3.39c.06,2.81.15,5.63.13,8.45,0,2.13-.14,4.26-.28,6.38s-.39,4.24-.53,6.36a33.14,33.14,0,0,0,0,7.18c.24,1.54.33,3.11.43,4.67,0,.56.3.77.82.74,1.09-.08,2.17-.18,3.26-.32.14,0,.34-.29.36-.46.1-1,.18-2,.22-3,0-.69,0-1.38,0-2.07,0-.26,0-.53-.06-.8a2.27,2.27,0,0,1-.31-1A20.63,20.63,0,0,1,371.2,46c0-.17.23-.3.34-.43.06-.52.14-1,.19-1.57.08-.78.1-1.56.23-2.34.1-.61-.16-1.36.64-1.75l-.2-.33.68-.26a5.1,5.1,0,0,1-.79-.19.59.59,0,0,1-.32-.32,1.17,1.17,0,0,1,1.26-1.4c1,0,2,.07,3,.13a31.4,31.4,0,0,0,6.13-.63c.59-.08,1.18-.22,1.77-.24s1.16.08,1.74.1c.92,0,1.42.68,1.06,1.5-.19.45-.48.88-.64,1.34a25.57,25.57,0,0,0-1.93,6.53,34.55,34.55,0,0,0-.43,5.66c0,.38.26.8.14,1.12a1.35,1.35,0,0,0,.21,1.4,4.06,4.06,0,0,1,.45,1,1.7,1.7,0,0,0,2.14,1.22,29,29,0,0,0,3.33-.86c.25-.08.44-.49.52-.78.17-.63-.48-1.34.16-2,0,0,0-.08,0-.12-.06-.42-.14-.83-.19-1.25a16.57,16.57,0,0,1,.21-5.53,5.68,5.68,0,0,0,0-1.84c0-.22.28-.47.29-.71,0-.59-.45-1.19.07-1.78.05-.06-.08-.27-.14-.4a2.09,2.09,0,0,1,.3-1.91c-.11-.12-.32-.28-.29-.35a3.19,3.19,0,0,0,.13-1.47c0-.73.42-1.45,0-2.19,0,0,0-.12,0-.18a4.42,4.42,0,0,0,.23-2.49.35.35,0,0,1,.12-.33c.69-.32.58-.76.35-1.32-.11-.25.07-.61.12-.93l.35.27.16-.1c-.13-.22-.37-.44-.35-.65.06-.92.18-1.84.3-2.75.07-.56.17-1.12.26-1.68,0,0-.05,0-.05,0a1.13,1.13,0,0,1,0-.55c.21-.39.53-.73.47-1.23a5.14,5.14,0,0,1,.43-3c-.39-.26-.64-.43-.11-1.2-.43-.27-.67-.52-.21-1,.23-.26.14-.77.2-1.2.1-.12.35-.3.36-.48S393.72,16.16,393.55,16Z"/><path d="M252.89,15.65c.6.59,1.59.32,2.5.33s1.92-.09,2.88-.1a6,6,0,0,0,1.45.08c1-.32,1.47.41,2.21.75-.39.42-.37,1.15-1.24,1-.09,0-.35.31-.37.5-.29,2.59-.58,5.18-.82,7.77-.12,1.26-.12,2.53-.24,3.8s-.32,2.61-.49,3.92c-.07.53-.18,1.06-.23,1.6-.19,1.95-.4,3.9-.53,5.85-.08,1.16,0,2.33,0,3.49-.08,1.56-.26,3.1-.36,4.66a16.6,16.6,0,0,0,0,2.23c0,.41.81.83,1.35.86s1.18.15,1.78.17a3.47,3.47,0,0,0,1.62-.1,10.22,10.22,0,0,1,3.2-.75c1-.16,2-.37,3-.43a15.17,15.17,0,0,1,2.6.19c.48.05.67-.06.64-.52a19.14,19.14,0,0,1-.11-2.62c.17-2.24.42-4.48.65-6.73.08-.78.18-1.57.28-2.36l.78-.14v-.16l-.94-.1.26-.47a.92.92,0,0,1-.26-1.23c.17-.38-.08-.91-.1-1.38,0-.64,0-1.28,0-1.92s0-1.18,0-1.77a8.46,8.46,0,0,1,.71-3.8,2.27,2.27,0,0,0,0-1c0-.93-.06-1.85-.08-2.78a5,5,0,0,1,.11-.7l-.47-.29a.73.73,0,0,1-.26-1.2c.64-.73,1.33-1.41,2-2.12.87-.93,1.73-1.87,2.61-2.8a.94.94,0,0,1,.45-.21c1.68-.32,3.37-.63,5-1,.68-.13,1.34-.33,2-.44a1.91,1.91,0,0,1,.76.15c.1,0,.16.15.25.21a2.82,2.82,0,0,1,1.23,1.65c.15.46.3.87-.29,1.19a.82.82,0,0,0-.28.61c-.07.63-.06,1.28-.13,1.92-.11.93-.26,1.86-.38,2.79,0,.27,0,.54-.07.81a20.74,20.74,0,0,1-.85,5.62,5.14,5.14,0,0,0-.2,2,20.74,20.74,0,0,1-.83,5.53c-.22,1.12-.41,2.26-.57,3.39-.2,1.38-.41,2.76-.49,4.15a15.76,15.76,0,0,0,.21,2.55c0,.33.14.66.14,1,0,2.51,0,5,0,7.54a3.16,3.16,0,0,0,0,.69c.18.9-.26,1.33-1,1.21l-1.42,1.43c-.5.5-1,1-1.49,1.49a1.77,1.77,0,0,1-1.48.53c-.13,0-.32,0-.37-.1-.38-.6-1-.43-1.51-.38-1.4.13-2.8.35-4.2.45-.95.07-1.92,0-2.87,0-1.11.08-2.21.3-3.32.39s-2.05.08-3.08.12c-.28,0-.55,0-.61.39s-.67.4-1.06.23a3.29,3.29,0,0,0-1.24-.34c-3.4,0-6.8,0-10.19,0a12.66,12.66,0,0,0-1.85,0,5.66,5.66,0,0,0-1.6.52c-.94.45-1.27.26-1.64-.66-.51-1.29,0-2.45.27-3.66a10.06,10.06,0,0,0,.18-1.57c0-.52.08-1,.1-1.56s0-1.32,0-2,.14-1.36.14-2c0-1.62,0-3.24,0-4.86,0-1.17-.13-2.35-.1-3.52,0-1.92.18-3.84.23-5.77,0-1-.1-2.08-.1-3.12,0-.41.22-.81.24-1.21,0-1.12,0-2.23,0-3.34s.18-2.49.19-3.74a28.45,28.45,0,0,0-.2-2.92c0-.13-.25-.28-.42-.34-.75-.26-1-.76-.54-1.33.66-.78,1.46-1.45,2.18-2.19s1.23-1.38,1.93-2,1-1.15,1.88-1.22c.16,0,.31-.2.44-.33a1.2,1.2,0,0,1,1.62-.25C252.37,15.94,252.6,15.77,252.89,15.65Zm23.95,32.12A8.22,8.22,0,0,1,277,49c0,1-.18,2-.18,3,0,.68-1.13,1.62-1.64,1.2a3,3,0,0,0-2.28-.45c-1.42,0-2.85-.16-4.28-.21-.29,0-.63.23-.88.16-.67-.2-1.18.16-1.75.32a3.25,3.25,0,0,1-1.38.24,3,3,0,0,0-1.52.26,10.39,10.39,0,0,1-2.31.51c-.94,0-1.88-.09-2.82-.11a7.2,7.2,0,0,0-.75.16c-.41,0-.95.18-1.2,0a2.61,2.61,0,0,0-1.25-.3,1.69,1.69,0,0,1-1-.54.81.81,0,0,1,.44-1.07,7.36,7.36,0,0,1,1.14-.34l-.07-.2c.78-.1.58-.68.63-1.12a57.28,57.28,0,0,0,.51-6.41c0-.38-.13-.75-.12-1.13.05-1.25.08-2.52.23-3.77.21-1.67.53-3.33.79-5,.13-.8.25-1.61.36-2.39l.61,0c-1-.61-.58-1.34-.64-2l.72.16c-1.17-1.3-.28-2.55-.3-3.84l.31.21c0-.63-.07-1.27-.06-1.91a11.24,11.24,0,0,1,.15-1.41,3.05,3.05,0,0,1,.17-.66c.06-.14.2-.24.26-.37a.7.7,0,0,0,0-.38A5.22,5.22,0,0,1,260,17.77a5.37,5.37,0,0,0-.64-.11c-.62,0-1.25,0-1.88,0-1.38,0-2.76-.12-4.14-.1-.57,0-1.21.21-1.35.8a15.14,15.14,0,0,0-.29,2.33c-.11,1.4-.17,2.81-.29,4.21-.1,1.13-.25,2.25-.41,3.37,0,.34-.28.66-.3,1-.1,1.41-.15,2.83-.22,4.24,0,.35,0,.7,0,1a18.55,18.55,0,0,0-.21,3.05c.13,1.39.07,2.77.08,4.16,0,.61.09,1.23.06,1.84,0,1-.14,1.94-.19,2.92,0,.81,0,1.62-.05,2.43s-.21,1.49-.21,2.23c0,1,.11,2,.16,3.07.07,1.45.13,2.9.19,4.41a11.45,11.45,0,0,0,1.45,0c1.3-.19,2.59-.42,3.88-.63.7-.12,1.39-.28,2.09-.33s1.33,0,2,0c1.09-.06,2.18-.19,3.27-.29a4.15,4.15,0,0,1,1.26-.06,8.08,8.08,0,0,0,3.46-.11,13.63,13.63,0,0,1,1.77-.3c.67,0,1.35.12,2,.1,1.06,0,2.11-.17,3.17-.23s2-.08,3.07-.12l1.44-.07a4.73,4.73,0,0,1,1.19,0c.66.15,1,0,1.06-.56.15-1.27.15-2.56.36-3.82.1-.59-.49-1.38.48-1.77-.19-.14-.46-.23-.5-.37a5.82,5.82,0,0,1-.3-1.41c0-1.06-.07-2.12,0-3.18a16.7,16.7,0,0,1,.35-3.32c.15-.62-.28-1.54.81-1.81-.51-.49-.51-.49,0-2.6l.22.37c.11-.9.23-1.69.29-2.48a1.78,1.78,0,0,1,.69-1.56.74.74,0,0,1,0-1.16,4.22,4.22,0,0,1-.28-1.34,15.48,15.48,0,0,1,.63-2.12,1.42,1.42,0,0,1,.14-1.66c.06-.08,0-.21.1-.29.45-.68-.37-1.47.21-2.13,0,0,0-.13,0-.18-.34-.56-.09-1.1,0-1.67a4.14,4.14,0,0,1,.36-1.8s0-.16-.05-.24c0-.67-.08-1.35-.05-2s.13-1.35.22-2.18a9.23,9.23,0,0,1-1.28.34c-1.07.11-2.14.2-3.2.25a.89.89,0,0,0-1,.84c-.06.5-.12,1-.13,1.49-.06,1.69-.1,3.37-.14,5.06a8.36,8.36,0,0,1,.09.86c-.09,1-.22,2.05-.32,3.08-.08.78-.1,1.56-.18,2.34-.05.51-.2,1-.26,1.53-.11,1-.14,1.94-.3,2.9-.25,1.55-.59,3.09-.88,4.63a3.5,3.5,0,0,0,0,.56c0,.94,0,1.88,0,2.81s-.09,2.07-.16,3.11A2.53,2.53,0,0,1,276.84,47.77Zm-30.25,2,.3,0a4,4,0,0,0,.16-.66c0-.7,0-1.39,0-2.09q0-1.34,0-2.67c0-.82-.06-1.65,0-2.47.05-1.2.17-2.39.23-3.59a1,1,0,0,0-.15-.52c0-.06-.2-.1-.29-.08a.32.32,0,0,0-.17.22c0,.57.09,1.13.12,1.7,0,.23,0,.46,0,.68-.06,1.7-.14,3.41-.17,5.11,0,.92,0,1.83,0,2.75C246.67,48.68,246.62,49.21,246.59,49.73Zm18.08,9.51c-.72-.57-6.55-.37-8.63.21.25.14.4.31.57.32a11.44,11.44,0,0,0,1.55,0c1.3-.1,2.6-.23,3.9-.34Zm-15,2.06-.22,0a8.76,8.76,0,0,0-.89.37c-.09.05-.12.22-.18.34a4.72,4.72,0,0,0,1.07-.05C249.59,61.87,249.61,61.51,249.68,61.3ZM278,18.14l-.29,0a8.36,8.36,0,0,0-.27.8c0,.1.07.24.11.36.13-.06.36-.1.37-.17A7.77,7.77,0,0,0,278,18.14Zm-2.65,26.31c-.5.15-.75.81-.48,1a.53.53,0,0,0,.42-.12A5,5,0,0,0,275.31,44.45ZM248.23,57.38h-.3v1.09h.23A.8.8,0,0,0,248.23,57.38Z"/><path d="M309.11,38.84l.57-.65c-.19-.68.05-2,.49-2.21-.38-.46-.48-.89.33-1.17-.69-.28-.68-.66-.52-1.2a7.8,7.8,0,0,0,.08-1.68,9.77,9.77,0,0,1,.17-1.89c.08-.3.29-.52.25-.9a21.12,21.12,0,0,1-.11-2.64,9.74,9.74,0,0,1,.13-1.62,1.83,1.83,0,0,1,.33-.59c-.05-.29-.1-.53-.13-.78a11.59,11.59,0,0,0-.23-1.55,1.1,1.1,0,0,1,.29-1.36c1.57-1.28,3.1-2.6,4.71-3.84a4,4,0,0,1,1.5-.39,11,11,0,0,0,1.3-.24,12.14,12.14,0,0,1,2.55-.43,10.3,10.3,0,0,0,2.66-.73,1.68,1.68,0,0,1,2,.21c.22.19.47.41.15.74-.1.11-.06.35-.07.53v1.86l-.22,0L325,18c.19.67-.59,1.3,0,2,.12.14-.1.53-.16.81-.14.68-.27,1.35-.4,2,0,.08-.09.18-.06.24.43,1-.22,2-.12,2.94s-.39,1.85-.29,2.73a14.14,14.14,0,0,1-.36,3.51c-.15,1.1-.49,2.19-.61,3.3s-.06,2.28-.12,3.42a7.18,7.18,0,0,0-.18,1.7c.18.86-.25,1.62-.27,2.44,0,.6-.08,1.2-.11,1.8-.06,1-.09,2-.15,3,0,.69-.11,1.37-.13,2.06-.07,2.61-.15,5.22-.16,7.83a4.39,4.39,0,0,0,.55,1.4l-.28.25c-.47.39-.74.82-.46,1.42a.7.7,0,0,1-.19,1l-2,1.48a.71.71,0,0,0-.25.2.88.88,0,0,1-1.35.27.76.76,0,0,0-.69,0,1.11,1.11,0,0,1-1.62,0,3.12,3.12,0,0,0-2.68-.57,1.2,1.2,0,0,0-.46.21c-.27.16-.5.36-.77.51-.57.32-.81.15-1.14-.36-.73-1.1-1-2.42-2-3.42a9,9,0,0,1-.94-1.45c-.18-.28-.38-.55-.57-.81l.28,0,.08-.15-1.2-.76.06-.12.59,0c-.06-.09-.08-.17-.13-.21a3.08,3.08,0,0,1-1.64-1.82,6,6,0,0,0-1.23-2c-.62-.91-1.54-1.62-1.86-2.73a7.8,7.8,0,0,0-1.12-1.86,3.08,3.08,0,0,0-.55-.47c-.07,1-.14,1.75-.16,2.53,0,.55.26,1.15.08,1.62-.37,1,0,1.88-.08,2.81s.1,1.66.09,2.49a4.49,4.49,0,0,1-.31.94.75.75,0,0,0,0,.42,1.88,1.88,0,0,1-.63,2.54A4.83,4.83,0,0,0,298,62.49c-.35.74-1.09.85-1.69,1.06-.87.29-1.83.31-2.74.52a5.52,5.52,0,0,0-1.87.64,1.52,1.52,0,0,1-1.37.08l-1-.22c-.46.56-.8,1-1.18,1.41a.62.62,0,0,1-.47.1c-.09,0-.16-.2-.21-.32a6.46,6.46,0,0,1-.26-.69,1.48,1.48,0,0,1-.08-.46c0-.68,0-1.35,0-2s0-1.25-.1-1.88c0-.44-.13-.88-.19-1.32a1.08,1.08,0,0,1,0-.44c.21-.7.47-1.39.62-2.1a5.36,5.36,0,0,0-.07-1.19c0-.63,0-1.25,0-1.88a4.9,4.9,0,0,1,.57-2.36c.08-.16-.08-.43-.1-.65s-.08-.73-.1-1.09c0-.17.05-.33.05-.5,0-1.1-.05-2.21,0-3.31.09-1.77.24-3.53.39-5.29,0-.35.23-.67.27-1,.14-1.1.24-2.21.34-3.31.13-1.45.24-2.9.36-4.35a11.73,11.73,0,0,0,.15-1.95,34.07,34.07,0,0,1,.26-4.29,9.9,9.9,0,0,1,.4-1.32,1,1,0,0,0-.17-.76,1.64,1.64,0,0,1-.34-2.31c.45-.69,1-1.33,1.48-2,0,0,.07-.07.08-.1.19-.75.66-1.11,1.62-.84-.45-.89.13-1.14.67-1.54a3.16,3.16,0,0,1,2.81-.48c.41.09.93-.24,1.4-.38.64-.19,1.26-.4,1.91-.56s1.21-.23,1.8-.37.79-.06.89.39a9.47,9.47,0,0,1,.33,2c0,1.48-.05,3-.08,4.44,0,.74,0,1.49,0,2.23,0,1.22.1,2.44,0,3.65a5.59,5.59,0,0,1-.44,2,2.07,2.07,0,0,0,.5,2.2c.72.94,1.65,1.74,2.47,2.63.39.43.69,1,1.08,1.38s1,.93,1.48,1.4c.31.29.63.56.93.87A8.74,8.74,0,0,1,309.11,38.84Zm14.43-17.25a3.87,3.87,0,0,1-.36-.88c-.08-.89-.1-1.79-.15-2.68a.94.94,0,0,0-1.07-.86c-.84.09-1.66.24-2.49.35-2,.25-2.53.78-2.75,2.53a33.56,33.56,0,0,1-.53,4.22,32.84,32.84,0,0,0-.54,4.33c-.06.53,0,1.07-.07,1.59-.12.8-.39,1.57-.49,2.36-.16,1.24-.27,2.49-.35,3.73-.09,1.5-.15,3-.16,4.49,0,.72.21,1.43.21,2.15a22.65,22.65,0,0,1-.25,2.6,2,2,0,0,1-1.19,1.63c-.15.06-.44.09-.49,0a6.84,6.84,0,0,1-.78-1.15c-.11-.18-.05-.45-.14-.65-.4-.93-1.53-1.48-1.64-2.59,0,0-.09-.07-.15-.11A11.92,11.92,0,0,1,308,40.26a16.59,16.59,0,0,0-1.4-1.62c-.29-.29-.75-.43-1.07-.69a5.52,5.52,0,0,1-.52-.72c-.72-.87-1.45-1.73-2.19-2.59-.87-1-1.7-2.07-2.64-3a.92.92,0,0,1-.3-1.12c.32-.73.73-1.42,1.12-2.16l.31.62c0-.56.31-1.19-.37-1.6.06-.28.23-.72.14-.78-.64-.37-.1-.79-.1-1.18s.19-.93,0-1.28c-.45-1,.09-1.91-.13-2.86a6.33,6.33,0,0,1-.07-1.38c0-.82,0-1.64,0-2.46,0-.38-.24-.52-.62-.44-1.51.3-3,.61-4.54.94-.43.09-1,1.06-1.05,1.47-.14,1,.54,2.15-.39,3.08,0,0,0,.08,0,.12a15.07,15.07,0,0,0-.49,4.27,12.18,12.18,0,0,1,0,1.48c-.11,1.24-.26,2.48-.39,3.73S293,34.68,292.8,36c-.12.91-.4,1.8-.46,2.71-.09,1.39,0,2.79-.08,4.18a25.42,25.42,0,0,0,.14,5.3,25.56,25.56,0,0,1,.16,4.72c0,1.29-.1,2.58-.14,3.87a1.33,1.33,0,0,0,.12.72,1.05,1.05,0,0,1-.08,1.55,2.67,2.67,0,0,0-.29.67c.9-.06,1.7-.09,2.49-.18s1.72-.24,2.58-.35c.71-.08.94-.59,1.13-1.11a2.9,2.9,0,0,0,0-.66,12.12,12.12,0,0,0,.18-2.23,37.74,37.74,0,0,1,.15-6.89,12.87,12.87,0,0,0,0-3.22,13.47,13.47,0,0,1,.25-3.65,1.33,1.33,0,0,1,.85-.92,1,1,0,0,1,1.15.74,4.56,4.56,0,0,0,.82,1.18c.22.29.5.54.71.83s.35.7.6,1c1.2,1.45,2.45,2.86,3.65,4.32s2.48,3.1,3.72,4.66c.47.6.93,1.21,1.38,1.82.64.86,1,1.93,2.15,2.39.12,0,.15.25.27.32A5.84,5.84,0,0,0,316.21,59a9.78,9.78,0,0,0,2.85-.08c1-.09,1.06-.18,1-1.11a1.25,1.25,0,0,1,0-.19c.09-.87.17-1.74.25-2.52l.47.41-.37-2.72.76-.14c-.73-1.45-1-2.88.18-4.26l-.18,0-.46.39-.2-.07.64-3.19s-.22-.15-.22-.26c0-.9,0-1.8.08-2.7.14-1.45.36-2.9.54-4.35a9,9,0,0,0,.14-1.15c0-.62-.11-1.25,0-1.86a12.45,12.45,0,0,1,.45-1.85l.12,0c0,.13-.05.26-.07.39.69-.24.7-.58,0-1.07.58.17,1,.38,1.19-.15l-.76-.27c-.51-.19-.56-.45-.23-.86a.84.84,0,0,0,.15-.52c0-.49-.08-1-.07-1.48a6.67,6.67,0,0,1,.14-1.18c.09-.47,0-1.06.84-1.14-.21-.77-.42-1.48-.58-2.2,0-.19.13-.4.24-.73-.25-.46-.23-.72.22-1.37a.65.65,0,0,0,.06-.24C323.48,22.14,323.52,21.8,323.54,21.59Zm-32,30.52c-.87-.38-.82-1-.72-1.64a2.77,2.77,0,0,0,0-.81,1.86,1.86,0,0,0-.28-.54c-.12.18-.33.34-.34.52,0,.75,0,1.51,0,2.26,0,.31.12.64.59.54A5.42,5.42,0,0,0,291.59,52.11Zm16.38.81c-.05,1,.73,1.52,1.26,2.1.14.16.44.18.68.26l.06-.16ZM290.66,42.08c.13-.82.27-1.53.31-2.25,0-.21-.22-.43-.35-.65a1.87,1.87,0,0,0-.26.63,17.3,17.3,0,0,0,.1,1.76A2.92,2.92,0,0,0,290.66,42.08ZM312.37,22.9l.21.06a3.87,3.87,0,0,0,.53-.44c.31-.36.14-.64-.3-.48C312.58,22.13,312.51,22.6,312.37,22.9Zm-9.43,23.84c.11-.68-.09-.85-.76-.76Z"/><path d="M94.77,22.17c-.91-.64-.87-.87-.12-1.68,1.14-1.25,2.21-2.56,3.31-3.84.1-.11.14-.28.26-.35.75-.49,1.5-1,2.29-1.46.65.86,1.47.24,2-.07a4.31,4.31,0,0,1,3.15-.36,19,19,0,0,0,5.74.14,18.65,18.65,0,0,1,3,.22,8.61,8.61,0,0,0,3.57-.15,3.12,3.12,0,0,1,1.26,0,3.55,3.55,0,0,0,2-.3,1.94,1.94,0,0,1,1.21,0c1.31.31,2.62.68,3.93,1a.62.62,0,0,0,.33,0c1.67-.33,2.72,1.18,2.86,2.56.22,2.07-.25,4.11-.21,6.17a12.67,12.67,0,0,0,.27,3.46,5.64,5.64,0,0,1-.13,2.26c-.23,1.57-.62,3.12-.11,4.7a7.18,7.18,0,0,1,0,3.26c-.09.72-.17,1.44-.22,2.17-.16,2.21-.34,4.41-.41,6.62a28.73,28.73,0,0,0,.27,3.06c.1,1.2.21,2.41.24,3.62a8.16,8.16,0,0,0,.35,2.58,14,14,0,0,1,.47,2.82,6.17,6.17,0,0,0,.13,1.81.88.88,0,0,1-.48,1.13c-.44.23-.26.39,0,.51-.79,1-1.55,2-2.38,3a13,13,0,0,1-1.23,1,1.42,1.42,0,0,0-.47.74,1.94,1.94,0,0,1-2.5,1.4,4.62,4.62,0,0,0-2.75-.46,7.29,7.29,0,0,1-2.11-.22c-.9-.12-1.8-.33-2.7-.41-1.55-.13-3.1-.47-4.64,0a1,1,0,0,1-.71,0,7.66,7.66,0,0,0-2.58-.61c-1.55-.27-2.94.32-4.41.36a6.65,6.65,0,0,1-3.2-.28,3.33,3.33,0,0,0-2.6-.42c-.66.23-1.18-.52-1-1.28a2,2,0,0,0-.13-.89c-.11-.49-.32-1-.38-1.45-.09-.85-.07-1.71-.16-2.56a3.86,3.86,0,0,0-.42-1c0-.07-.18-.12-.17-.17.09-1.16-1.15-2.1-.63-3.35a2.93,2.93,0,0,0,0-.94c0-1.47.07-2.94.09-4.41a.88.88,0,0,0-.09-.42,6.19,6.19,0,0,1-.16-3.25c.07-.81,0-1.63,0-2.45,0-1.55.1-3.11.13-4.66s0-3,0-4.49V30.58c0-1.8,0-3.59,0-5.39,0-.78-.1-1.56-.1-2.34C94.44,22.64,94.64,22.43,94.77,22.17ZM128,16.65a7.35,7.35,0,0,0-1-.11c-1.54,0-3.09.08-4.64.1a8.58,8.58,0,0,1-2.64-.09,8.5,8.5,0,0,0-2.83-.2c-1.27,0-2.55-.08-3.82-.17-.91-.06-1.81-.2-2.72-.28-.4,0-.81,0-1.21,0-1.28-.11-2.57-.29-3.85-.36a4,4,0,0,0-2.61.35,2,2,0,0,1-1,.18c-1,0-1,.6-.87,1.28a3.28,3.28,0,0,1,.12,1.16c-.18,1.22-.38,2.45-.64,3.66a22.15,22.15,0,0,0-.39,5.74c0,.93,0,1.87.15,2.8s.34,2,.48,2.94a6.14,6.14,0,0,0,.08,1.3,3.51,3.51,0,0,1,.16,1.82c-.29,2.29-.37,4.6-.56,6.9,0,.52,0,.9.61,1.1a.54.54,0,0,1,.28.39,7.69,7.69,0,0,1,0,1.44c-.15,1.06-.37,2.12-.52,3.18a2.74,2.74,0,0,0,.1.8,7.57,7.57,0,0,1,.42,2c-.08,1.35-.48,2.68,0,4a14,14,0,0,1,.36,1.68,1.91,1.91,0,0,1,.07.91c-.23.7-.09.87.73.82a6.74,6.74,0,0,1,1.68,0c.46.08,1.15,0,1.06.85a5.52,5.52,0,0,1,.7-.11c.78,0,1.64-.52,2.25.36,0,.06.2.07.31.08,1.16,0,2.32.13,3.48.11,2.92,0,5.84-.15,8.75-.24A6.44,6.44,0,0,0,122,61c.72-.2,1.51.11,2.18-.37a2,2,0,0,1,2.13-.05,1.57,1.57,0,0,0,2.14-1.32,17.78,17.78,0,0,0,.11-2.18,1.6,1.6,0,0,0-.47-1.15,1.1,1.1,0,0,1-.43-1.39,5.92,5.92,0,0,0,.27-2.51c-.16-1.06-.11-2.16-.34-3.21a8.46,8.46,0,0,1-.1-3.09,22,22,0,0,0,.15-2.29,32.94,32.94,0,0,1,0-3.3c.28-2.08.91-4.14.24-6.26a3.72,3.72,0,0,1,0-1.11c0-1.66.59-3.27.32-5a22.86,22.86,0,0,1,0-4c0-1.11.1-2.22.13-3.33,0-.79,0-1.59,0-2.39A10.7,10.7,0,0,0,128,16.65Zm-20.5,46.1-.13.15c.12.14.23.4.36.41.61,0,1.23,0,1.85,0,.09,0,.18-.14.26-.22-.09-.07-.18-.2-.28-.21C108.85,62.81,108.17,62.78,107.48,62.75Zm-6.53-.4c.55-.36,1.26.14,1.66-.52C101.28,61.56,101.05,61.33,101,62.35ZM98.81,20.48c.46-.38.55-.79.38-1.68C98.75,18.89,98.57,19.64,98.81,20.48Zm.06,42.57,1.4-.46C99.53,62,99.29,62,98.87,63.05Zm20.31,3.25,1-.48c-.16-.1-.34-.3-.47-.27C119.37,65.6,118.85,65.58,119.18,66.3Z"/><path d="M326.76,27.18c-.32-.27-.1-.52.19-.86a10,10,0,0,0,.87-1.44,6.65,6.65,0,0,0,.69-.43s-.12-.28-.22-.49c.51-.68,1.07-1.44,1.62-2.2a1.9,1.9,0,0,0,.37-.58c.37-1.2,1.63-1.65,2.4-2.51a5.86,5.86,0,0,1,1.07-.73c-.18-.62.42-1,.87-1.26.84-.58,1.77-1,2.66-1.56a.89.89,0,0,1,.28-.07c0,.08.08.12.07.15-.05.23-.12.45-.18.67a4.83,4.83,0,0,0,1,.05c.78-.13,1.24-.75,1.87-1.09a9.23,9.23,0,0,1,1.93-.6l.06.15-.4.53.7.21c.13-1.64,1.56-1.29,2.59-1.54a4,4,0,0,1,1.2,0,1.1,1.1,0,0,0,1.06-.33,2,2,0,0,1,1.18-.37c1.39-.1,2.79-.14,4.18-.19s2.49-.08,3.73-.07a1,1,0,0,1,.73.37c.48.87.89,1.78,1.28,2.69.06.14-.09.37-.17.54s-.36.4-.35.58c.06.91.18,1.81.3,2.71a.68.68,0,0,0,.22.37c.83.85.41,1.84-.6,2.3a5.76,5.76,0,0,0-2.69,2.35c-.39.71-1.1,1.14-1.42,1.9s-1.52.9-2.31.7a3.31,3.31,0,0,0-1.33,0,13.37,13.37,0,0,1-3.79.05,5,5,0,0,0-1.7.22c-1.07.27-2.12.59-3.17.9a7.87,7.87,0,0,0-1.13.37,8.56,8.56,0,0,0-1.06.61,4.58,4.58,0,0,0-.9.67c-.34.37-.58.81-.9,1.2a4.88,4.88,0,0,1-.67.56,16.27,16.27,0,0,0-.79,2.76c-.17,1.3-.71,2.57-.28,3.94a7.81,7.81,0,0,1-.06,2,14.11,14.11,0,0,0,.43,4c.18.56.32,1.26,1.21,1.42a2.18,2.18,0,0,1,1,.7,6.37,6.37,0,0,0,2.68,1.32c.39.13.74.19.46.85.83-.58,1.43-.17,2.07,0a21.47,21.47,0,0,0,3.6.66c1.3.05,2.62.46,3.92,0,.21-.08.51.07.77.08s.51,0,.52-.06c.1-.52.5-.32.83-.36a5.68,5.68,0,0,0,1.92-.4,23.74,23.74,0,0,1,3.08-1c.44-.14.71,0,.73.46,0,.7,0,1.4,0,2.09s-.05,1.31,0,2c.09,1.61.22,3.22.32,4.82,0,.67-.53.89-1.05,1.16a5.94,5.94,0,0,0-1,.67c-.26.2-.5.42-.8.69,0,.09,0,.39-.11.46-.73.4-.89,1.17-1.38,1.71a5.35,5.35,0,0,1-.72.49c-.25.2-.74,0-.84.54a1.52,1.52,0,0,1-1.19.21,5.2,5.2,0,0,0-2.92-.14,3,3,0,0,1-.73,0,22.28,22.28,0,0,0-3.72-.24,7.18,7.18,0,0,1-4.07-.88,4,4,0,0,0-1.15-.32c-1.29-.22-2.58-.43-3.88-.6a20.51,20.51,0,0,1-2.74-.33,35.11,35.11,0,0,1-3.47-1.36,4.81,4.81,0,0,1-1.27-.54c-.87-.7-2.14-.89-2.78-1.88a8.69,8.69,0,0,1-1.33-2.54c-.17-.64-.63-1.21-.84-1.85-.1-.3.11-.69.15-1s.1-.88.12-1.32c0-.84.07-1.68.07-2.52,0-.16-.2-.33-.32-.48s-.52-.42-.49-.58a1.55,1.55,0,0,1,.53-.83c.26-.22.47-.34.4-.73a4.05,4.05,0,0,1,.12-1.24c.2-1.17.47-2.33.63-3.5.05-.33-.23-.69-.27-1.05a4.77,4.77,0,0,1,.08-.92,9.52,9.52,0,0,0,.15-1.18c0-.57-.09-1.14-.12-1.71A.82.82,0,0,1,325,34a.37.37,0,0,0,.19-.34c0-.1-.25-.26-.33-.24-.46.14-.38-.16-.35-.37a7.55,7.55,0,0,1,1-2.72,15.39,15.39,0,0,0,.65-1.8C326.26,28.13,326.5,27.71,326.76,27.18ZM338.53,25l.44.93.69-.42-1.14-.5a9.28,9.28,0,0,1,2.06-1.23,3.37,3.37,0,0,0,1.57-.61c.38-.35,1.2-.28,1.82-.4l.14.76c.37-.75.75-1.23,1.46-.84.14-.15.23-.34.36-.36,1.12-.21,2.24-.38,3.36-.58.32-.06.64-.16,1-.23.71-.16,1.41-.35,2.13-.45,1.05-.14,2.1-.21,3.14-.31a4.14,4.14,0,0,0,.87-.1,1.71,1.71,0,0,0,.63-.44,2.89,2.89,0,0,0,.39-.63s0-.11,0-.21l-.52.1c-.22-1.39-.44-2.74-.65-4.07-.81,0-1-.19-.72-1.08l-.91.19a1.49,1.49,0,0,1-.61.09,5.62,5.62,0,0,0-2.55-.22c-1.18.21-2.39.25-3.58.4s-2.39.26-3.55.52A17,17,0,0,0,339.4,17c-.81.46-1.66.88-2.46,1.35a14.61,14.61,0,0,0-2.13,1.37,11.31,11.31,0,0,0-3.11,4c-.35.82-1.08,1.51-1.44,2.33a13.65,13.65,0,0,0-1.15,3.57c-.37,2.74-.62,5.51-.76,8.27a16.38,16.38,0,0,0,.11,5.32.55.55,0,0,1,0,.25A18.79,18.79,0,0,0,328,46a13.08,13.08,0,0,0,.18,2.57,8.79,8.79,0,0,0,.38,1.51,6.65,6.65,0,0,0,.48,1,4.76,4.76,0,0,0,.8,1.39,5,5,0,0,0,2.1,1.55,1.54,1.54,0,0,1,.69.29,8.59,8.59,0,0,0,3.4,1.67,28.28,28.28,0,0,0,4,.91c1.86.3,3.74.5,5.61.75.38,0,.75.16,1.05.22a3.49,3.49,0,0,1,.58-.29,3.61,3.61,0,0,1,.66-.08l4.24-.3.74,0c.62,0,1.24,0,1.86-.08a20.48,20.48,0,0,0,2-.37.49.49,0,0,0,.29-.32c.14-.78-.07-1.62.49-2.33-.39-.47,0-.93,0-1.39a16.73,16.73,0,0,0-.33-2.52c-.06-.51-.42-.65-.79-.4a5.38,5.38,0,0,1-2.54.64c-.93.11-1.81.4-2.77.46a21.52,21.52,0,0,1-10.54-1.54,5,5,0,0,0-1.6-.49,2,2,0,0,1-1.3-.51c-.38-.35-.79-.67-1.18-1A10.72,10.72,0,0,1,335,46a2.71,2.71,0,0,1-.52-1.26,31.7,31.7,0,0,1-.52-3.36,19.12,19.12,0,0,1,0-2.51c0-1,0-1.92.12-2.87s.24-1.9.4-2.85a18.09,18.09,0,0,1,.42-1.91,5.9,5.9,0,0,1,.69-1.7c.41-.58-.06-1.44.75-1.85,0,0,0,0,0-.05-.39-.7.35-.8.68-1.12a.69.69,0,0,0,.24-.33C337.47,25.37,337.68,25.14,338.53,25Zm0,2,.19.15c.72-.31,1.42-.65,2.15-.93.38-.14.54-.37.35-.65a.82.82,0,0,0-.73-.09,11,11,0,0,0-1.5.93A2.46,2.46,0,0,0,338.56,27Zm-11.72,8.36V32.84C326.32,33.63,326.25,35,326.84,35.31Zm.49,16.54c-.25-.65-.41-1.1-.61-1.53-.06-.13-.26-.2-.39-.31-.06.18-.21.38-.15.52a4.54,4.54,0,0,0,.55,1C326.82,51.63,327,51.68,327.33,51.85Zm.06.35a1.6,1.6,0,0,0,.76,1.55c.08.06.27,0,.4,0a.59.59,0,0,0-.05-.27C328.17,53.08,327.82,52.69,327.39,52.2Zm-1.68-7,.3.08c.5-.34.25-.82.23-1.26L326,44Z"/><path d="M239.14,54.69a4.12,4.12,0,0,1,.33-1.16,1.32,1.32,0,0,1,.78-.5c.1,0,.44.37.46.6.12.92.11.94,1.07.86a.9.9,0,0,1,1,1.13c-.32.91-.46,1-1.49.93-.55,0-.66.09-.63.63a6.26,6.26,0,0,1-.34,1.61,1,1,0,0,0,.64,1.22,1.17,1.17,0,0,1,.56,1.78,1.53,1.53,0,0,1-.91.35,2.34,2.34,0,0,1-.72-.08L238.6,64.2l-.92-.29c.2.79-.11,1.11-.79,1.21a.63.63,0,0,0-.45.31c-.26.64-.87.85-1.43,1.12a1.57,1.57,0,0,1-1.34,0,4.53,4.53,0,0,0-1.64-.18c-3,.21-5.91.51-8.88.7-1.49.1-3,0-4.5.06-.94,0-1.87.18-2.8.27a22,22,0,0,1-3.12.24,5.28,5.28,0,0,1-2.06-.65c-.43-.22-.54,0-.74.19a.7.7,0,0,0-.09.17c-.74.89-.53,1-1.36.27.19-.81.35-1.55.51-2.28a.41.41,0,0,0,0-.31c-.71-.75-.47-1.65-.44-2.5,0-.57.16-1.14.2-1.71.07-1.1,0-2.21.16-3.3.19-1.46.56-2.89.76-4.35.16-1.25.19-2.52.27-3.78.15-2.25.3-4.5.42-6.76,0-.23-.23-.46-.36-.7s-.28-.37-.29-.57c-.09-1.92-.19-3.84-.21-5.77,0-1.42.15-2.84.18-4.26s0-3.08,0-4.62c0-1.14-.08-2.28-.12-3.41,0-.42,0-.83,0-1.29,0,0,0,0,0,0-1.31,0-1.52-.32-1.11-1.43a3.13,3.13,0,0,1,1.29-1.72c.51-.32.78-.95,1.2-1.4.71-.77.83-.78,1.86-.32.77-1.21,2.16-1.21,3.42-1.35a14.32,14.32,0,0,0,3.38-.51,4.26,4.26,0,0,1,1.33,0,3.12,3.12,0,0,0,.52,0,1,1,0,0,1,1.2,1.05,6.79,6.79,0,0,0,.44,3.05c.12.37-.09.83-.1,1.25a3.38,3.38,0,0,0,.05,1.56c.41.81.05,1.57.11,2.34.12,1.6.11,3.21.15,4.81,0,.29,0,.58,0,.86,0,.43-.2.86.27,1.22.12.09.1.46,0,.65a6.08,6.08,0,0,0-.6,2.87c0,.45-.08.89-.11,1.34a1.55,1.55,0,0,0,0,.68,5,5,0,0,1,.12,2.88,6.35,6.35,0,0,0,0,.75c0,.7-.08,1.39-.12,2.09s-.08,1.5-.11,2.25c0,.12,0,.24,0,.37,0,1.12-.07,2.25-.11,3.38,0,.55-.08,1.11-.1,1.67a1.93,1.93,0,0,0,0,.86c.48,1-.28,1.79-.58,2.65a13,13,0,0,0-.5,1.61c-.07.32.06.6.52.64a13.93,13.93,0,0,0,5.58-.32,22.66,22.66,0,0,1,4.6-.65,15.68,15.68,0,0,0,2-.4,1.45,1.45,0,0,1,1.27.09.76.76,0,0,0,.44.11ZM221.6,33.11c.27,0,.49.11.54.06s.32-.38.27-.51c-.15-.41-.54-.78-.57-1.19-.13-1.71-.2-3.42-.23-5.14,0-1.3.27-2.6-.18-3.89a2,2,0,0,1-.12-1,9.49,9.49,0,0,0-.19-3.64c-.27-1.17-.59-1.38-1.92-1.27h-.14c-1.19.08-2.39.14-3.59.25a2.52,2.52,0,0,0-1,.26c-.38.2-.62.53-.24.92a.66.66,0,0,1,0,1,.37.37,0,0,0,0,.34,13.55,13.55,0,0,1,.93,5,10.2,10.2,0,0,0,.29,3,10.25,10.25,0,0,1,.22,4.64c-.25,1.37-.3,2.77-.42,4.15-.14,1.6-.26,3.2-.4,4.8a10.18,10.18,0,0,0-.09,1.23,21.37,21.37,0,0,1,.19,2.24,21.82,21.82,0,0,0,0,3.43,18.66,18.66,0,0,1-.21,3.41c-.11,1.37.09,2.74-.49,4.12a10.64,10.64,0,0,0-.34,3.27c0,.23-.07.45-.09.68-.09.9-.18,1.81-.26,2.68a5.91,5.91,0,0,1,1.16.08,17.9,17.9,0,0,0,2.6.77,17,17,0,0,0,3.56,0c1.83-.19,3.65-.55,5.48-.79,2-.25,4-.46,6-.69,1.29-.15,2.58-.31,3.86-.44.62-.07,1.24-.09,1.86-.12a.73.73,0,0,0,.73-.69c.15-.93.28-1.86.44-2.79.08-.48-.09-.74-.64-.66-1,.14-1.91.35-2.87.43-1.36.12-2.72.17-4.07.21-1.58.06-3.16.07-4.74.11l-4.18.1c-.14,0-.29-.11-.44-.14s-.39,0-.59-.06a6,6,0,0,1-1.49-.3.89.89,0,0,1-.48-1.13c.28-.83.57-1.65.85-2.47a1.1,1.1,0,0,0,0-.31c.05-.88.09-1.75.15-2.63,0-.12.09-.24.09-.36,0-.88,0-1.77,0-2.66,0-.14,0-.29,0-.43.07-.68.17-1.36.23-2s.12-1.58.22-2.37.32-1.57.35-2.36-.12-1.79-.15-2.69,0-1.91,0-2.87C221.42,34.16,221.53,33.62,221.6,33.11Zm-8.33,9a3.72,3.72,0,0,0-.14,3.32c.06-.06.14-.11.17-.18C213.7,44.24,213.11,43.2,213.27,42.15Zm-1.34,22.93,1.85-.38C212.47,64.21,212,64.31,211.93,65.08Zm1.34-42.81.24,0c-.13-.89-.27-1.78-.41-2.66C213,20.49,212.72,21.42,213.27,22.27Z"/><path d="M339.67,14.29l-1.42,1.23c-.78-.73,0-1,.28-1.4S339.24,13.91,339.67,14.29Z"/><path class="cls-1" d="M137.84,61.29c-.17-.26-.31-.37-.32-.5-.1-1.26-.17-2.52-.27-3.79,0-.42-.11-.84-.17-1.26,0-.06-.05-.13,0-.18l.72-2.38a1.24,1.24,0,0,0,.11-.36c.06-1.34.09-2.67.16-4s.16-2.59.22-3.89c0-.68,0-1.36,0-2.05,0-.32.2-.66.13-.95a21,21,0,0,1-.11-4.12c0-.6.09-1.2.12-1.8.06-.89.08-1.77.16-2.65s.24-1.63.35-2.45a3.44,3.44,0,0,0,0-.56c0-1.53,0-3.06,0-4.59,0-2.18.05-4.37.16-6.55a6.28,6.28,0,0,1,.59-1.89c0-.11.38-.1.58-.16s.66-.21,1-.28c.55-.13,1.1-.25,1.66-.33,1.69-.24,3.39-.49,5.09-.69,1.28-.15,2.58-.25,3.87-.32,1.64-.08,3.28-.08,4.92-.16,1,0,2.08-.22,3.12-.29.79-.06,1.59-.05,2.39-.1s1.59-.19,2.39-.22c1,0,1.08.13,1.29,1a26.3,26.3,0,0,1,.52,5.86c0,1.16-.17,2.32-.22,3.48,0,.8,0,1.6,0,2.4,0,.52-.28,1-.35,1.56-.1.75-.12,1.52-.18,2.34l-3.78.63a1.73,1.73,0,0,1-.6,0,7.34,7.34,0,0,0-2.56.24c-.61.08-1.24,0-1.85,0a4.41,4.41,0,0,0-1.72.44,2.17,2.17,0,0,1-2.34.18,1.36,1.36,0,0,0-1.54.25c-.4.29-.58.73-.18,1.13a3.44,3.44,0,0,0,.9.45c-.08.85.46,1.45,1.24,2a17.07,17.07,0,0,1,2.39,2,5.44,5.44,0,0,1,1,1.72A13,13,0,0,0,159,44c.61.71,1.16,1.46,1.76,2.18a29.75,29.75,0,0,1,1.93,2.3c1,1.49,1.89,3,2.83,4.57.39.63.8,1.26,1.15,1.91.62,1.14,1.21,2.3,1.77,3.46.27.56,0,.87-.65.85-1.17-.05-2.35-.05-3.52-.11-.89-.06-1.78-.17-2.66-.28s-.92-.75-1.28-1.2c-.55-.69-1-1.43-1.55-2.14A8.4,8.4,0,0,1,157,52.75c-.07-.29-.44-.51-.63-.79-1-1.56-2-3.17-3.16-4.67A7.69,7.69,0,0,1,152.16,45a2.73,2.73,0,0,0-.4-.64,7.39,7.39,0,0,1-.61-.89c-.27-.58-.47-1.19-.73-1.77,0-.12-.27-.17-.41-.25a2.44,2.44,0,0,1-.65-.39,23,23,0,0,1-1.84-2.24c-.21-.31-.13-.79-.18-1.2-.13-1.17-1.94-2.77-3.4-1.84-.16.11-.56.17-.16.46,0,0,0,.12,0,.15-.61.71-.39,1.37,0,2.12a4.56,4.56,0,0,1,.17,1.54,30.57,30.57,0,0,0,.46,4.3,17.7,17.7,0,0,1,.22,3.15c.08,1,.22,1.91.26,2.86,0,.4-.18.81-.19,1.22,0,.66.07,1.32.07,2,0,1,0,2-.06,3.05a4.71,4.71,0,0,0-.06.74c.07.65-.18,1-.87,1.06A4,4,0,0,0,142,59a4,4,0,0,1-2,.16,1.42,1.42,0,0,0-1.62,1.48C138.35,60.79,138.06,61,137.84,61.29Zm9.29-39.37c-.15-.78-.44-1.08-1-1s-.71.44-.69,1.18c0,.4-.06.8-.07,1.2a8.91,8.91,0,0,0,.16,3.29,3.13,3.13,0,0,1-.06,1.66c-.12.5-.05,1.26.38,1.48.63.33.83-.22,1.18-.5a1.86,1.86,0,0,1,.77-.41c.57-.1,1.16-.11,1.74-.19,1.32-.17,2.64-.36,4-.55.11.09.28.36.42.35a6.32,6.32,0,0,0,1.76-.35c.86-.39,1-.39,1.66.18a1.5,1.5,0,0,0,1.14.31,1.24,1.24,0,0,0,.8-.81,11.35,11.35,0,0,0-.08-2.47,9.1,9.1,0,0,1-.13-3.71,1.68,1.68,0,0,0-.12-1.18c-.26-.68-.79-.26-1.18-.37a3.77,3.77,0,0,0-.61-.07l.63-.23a2.61,2.61,0,0,0-1.1.23,9.71,9.71,0,0,1-4.35,1,.84.84,0,0,1-.49-.13,2.44,2.44,0,0,0-2.3.15C148.86,21.38,148.2,22.05,147.13,21.92Z"/><path class="cls-1" d="M184,47.52a10.24,10.24,0,0,1,.38,2,10.25,10.25,0,0,1-.39,1.84,1.19,1.19,0,0,0,.05.62.88.88,0,0,1-.11.9,3.45,3.45,0,0,0-.2,1.43c0,.15.06.31,0,.44-.33.74.39.8.78,1a1,1,0,0,0,.91-.21,1.31,1.31,0,0,1,1.07-.38c1.95-.07,3.89-.17,5.84-.24.5,0,1,.11,1.51.13,1.82,0,3.64.06,5.45.08a2.33,2.33,0,0,0,.46-.08,1.47,1.47,0,0,1,1.84,1.65c-.1,1.25-.15,2.5-.31,3.74-.12.91-.31,1.07-1.27,1-1.66-.14-3.31-.41-5-.58-.91-.1-1.83-.11-2.75-.14-1.37,0-2.75-.13-4.13-.11-1.06,0-2.13.16-3.19.23s-2.26.15-3.39.17c-1.75,0-3.49,0-5.23.05-.2,0-.38.38-.5.63-1,.24-1.39.17-1.62-.31a4.74,4.74,0,0,1,.66,0c.58.07.91-.2.89-.69,0-1.13.29-2.27-.2-3.39a2.57,2.57,0,0,1,0-.84c0-1-.15-2.09-.12-3.13,0-1.39.2-2.78.32-4.17.1-1.18.25-2.36.34-3.55.19-2.55.38-5.1.51-7.65a22.23,22.23,0,0,1-.07-2.44c.21-1.28-.07-2.56.12-3.82a23.62,23.62,0,0,0-.14-3.05c0-.9.1-1.79.16-2.69,0-.35,0-.7.08-1,.09-1,.23-2,.27-3,0-.82-.14-1.64-.09-2.45s.27-1.88.41-2.83c.87.08,1.73.18,2.59.22s1.64,0,2.45,0c1.7,0,3.4.11,5.09.07a4,4,0,0,1,1.28.16,11.81,11.81,0,0,0,4.59.18.79.79,0,0,1,.4,0c1,.43,2.1.12,3.15.15.83,0,1.69-.19,2.51-.1,1,.1,2-.48,3.07,0a4.25,4.25,0,0,0,1.53,0V18.7a8.27,8.27,0,0,0,0,1.22,9.36,9.36,0,0,1-.45,4.66.83.83,0,0,1-.81.62c-.72.06-1.43.36-2.15.42-1.86.14-3.74.29-5.6.28-1.56,0-3.11-.21-4.66-.35a1.59,1.59,0,0,1-.6-.21c-.3-.16-.55-.44-.93-.18a.23.23,0,0,1-.2,0c-1-.57-2.05.12-3.08,0a.8.8,0,0,0-.87.71,12.63,12.63,0,0,0-.39,4.7,4,4,0,0,1-.16,1.16,2.23,2.23,0,0,0,0,1.09,1,1,0,0,1-.18,1.26c-.53.66-.43,1.11.31,1.53l.06,0c.81,1.54,2.19.56,3.31.63s2.22-.09,3.31,0a3.91,3.91,0,0,1,1.43.68.57.57,0,0,1,.17.39c0,.47,0,.94.06,1.4a8.71,8.71,0,0,1,0,1.53c-.07.49-.4,1-.43,1.46-.06,1-.77,1.06-1.54,1.18a9.56,9.56,0,0,1-1.37.29,8.19,8.19,0,0,1-1.83-.28,7,7,0,0,1-1.51-.47,2,2,0,0,0-2.7,1.62.9.9,0,0,0,.29.6c.32.29.29.49-.06.7a.86.86,0,0,0-.46,1.1C183.17,47.07,183.45,47.45,184,47.52Z"/><path class="cls-1" d="M195.16,62.39c-2.48,0-5,0-7.57-.22C188.23,61.57,194.32,61.81,195.16,62.39Z"/><path class="cls-1" d="M175.1,19.38c0,.83-.09,1.57-.12,2.3a3,3,0,0,1,0,.6,1.3,1.3,0,0,1-.28.36c-.11-.11-.28-.2-.32-.32-.12-.46-.21-.93-.29-1.39C173.94,20.19,174.14,19.86,175.1,19.38Z"/><path class="cls-1" d="M136.27,34.89c.87.74.51,3.32-.46,3.61a9.71,9.71,0,0,0,.25-1.09c.05-.51.05-1,.09-1.53C136.17,35.54,136.23,35.22,136.27,34.89Z"/><path class="cls-1" d="M158.61,59.66l.44.45-1,1.2a15.22,15.22,0,0,1-.87-1.37s.26-.31.42-.33A5.63,5.63,0,0,1,158.61,59.66Z"/><path class="cls-1" d="M193.43,27.49c.93,0,1.86,0,2.8,0,.06,0,.19.15.18.2s-.14.22-.23.23a14.16,14.16,0,0,1-2,.23c-.27,0-.53-.32-.8-.49Z"/><path class="cls-1" d="M174,29.37c0,.87.27,1.71-.65,2.3A2.2,2.2,0,0,1,174,29.37Z"/><path class="cls-1" d="M186.05,28.27c-.24-.41,0-1.09.38-1.14a.36.36,0,0,1,.28.1.39.39,0,0,1,0,.35C186.52,27.82,186.28,28,186.05,28.27Z"/><path class="cls-1" d="M136.28,60.85c.12,1-.2,1.27-1.14.95Z"/><path class="cls-1" d="M202.84,27.52l-.37-.82.92-.13.1.18Z"/><path class="cls-1" d="M135.61,58.07c0,.07.1.15.09.21-.08.31-.18.62-.28.93l-.31-.1c.08-.36.18-.72.28-1.08Z"/><path class="cls-1" d="M167.34,60.94l-.92.43c0-.19-.18-.43-.11-.55C166.53,60.44,166.84,60.58,167.34,60.94Z"/><path class="cls-1" d="M22.8,18.05c2.56,0,5.09.05,7.62,0,1.82-.05,3.63-.21,5.43-.4a53,53,0,0,0,5.77-.79,11.85,11.85,0,0,1,2.72-.07,1.33,1.33,0,0,1,1.31,1.55,4.66,4.66,0,0,0,.13.82,7.53,7.53,0,0,1,.13,1.05,7.12,7.12,0,0,0,.74,3.51c.73,1.34-.32,2.12-1.47,2.12-1.59,0-3.17.18-4.76.23-1,0-2-.06-3-.08-.8,0-1.61,0-2.41-.05a10.93,10.93,0,0,1-1.13-.15c-1.21-.19-1.32-.14-1.81.93-.59,0-1.22-.11-1.84-.09-.86,0-1.72.2-2.58.18a20.54,20.54,0,0,1-4.53-.38,3,3,0,0,0-2.26.29c-.72.32-1.42.83-2.4.45-.28-.11-1,.38-1.32.76s.17.75.54,1,.46.44.19.78a.57.57,0,0,0-.09.42c.4,1.48.06,3,.22,4.47s-.28,3.1-.17,4.65a2,2,0,0,1-.13.72c-.18.55,0,.88.6.86,1.29-.06,2.58-.16,3.87-.28s2.6-.32,3.9-.42c.65-.05,1.31.09,2,.07,1.12,0,2.24-.13,3.36-.21.66-.05,1.31-.11,2-.15.42,0,.83-.08,1,.44s.62.58,1.15.43c1.49-.44,3-.9,4.48-1.26a26.57,26.57,0,0,1,2.7-.37c.68-.09,1.38-.17,2-.32.4-.09.46,0,.46.35,0,.79.06,1.58.08,2.36,0,1.3,0,2.59.13,3.88a4.33,4.33,0,0,0,.43,1.41A7.69,7.69,0,0,1,46,50.45c-.07,1-.07,2-.11,3,0,.33-.09.66-.1,1,0,1.14-.14,2.27-.12,3.41,0,.88.19,1.76.21,2.64A6.87,6.87,0,0,1,45.67,62a.46.46,0,0,1-.32.27,15.89,15.89,0,0,1-2.36.38c-2,.09-4,.1-6.06.14a5,5,0,0,1-.66-.08c-.49-.06-1-.15-1.48-.18-1.78-.11-3.57-.18-5.35-.31-.66-.05-1.18-.08-1.47.63-.07.18-.52.3-.79.31-1.7,0-3.41,0-5.11,0-.78,0-1.56.12-2.34.1s-1.69-.16-2.54-.21c-.55,0-1.11,0-1.65,0-1.08-.14-2.16-.35-3.24-.52-.26,0-.52,0-.93,0,1.27-1.43.51-3,.69-4.52,0-.15-.2-.33-.34-.49a2.82,2.82,0,0,1-.47-.51c-.15-.29-.1-.54.36-.51a42.48,42.48,0,0,0,7.56-.45,14.16,14.16,0,0,1,1.95-.1c.24,0,.46.26.71.39s.69.47,1,.44c1.35-.14,2.68-.39,4-.57a19.67,19.67,0,0,1,5.36-.28,2.66,2.66,0,0,1,1,.54c.32.21.54.41,1,.15a13.92,13.92,0,0,1,1.83-.72,3.79,3.79,0,0,0,.81-.39c.08-.06.1-.38,0-.42-1-.61-.63-1.46-.59-2.29,0-1,0-2.09-.07-3.13a.46.46,0,0,0-.11-.29,3.11,3.11,0,0,1-.6-2.1c0-.43-.34-.52-.71-.25a.68.68,0,0,1-1.09-.27c-.49-.87-.54-.84-1.54-.67s-1.91.2-2.86.29a.33.33,0,0,1-.23-.07c-.36-.5-.9-.41-1.41-.35-1.66.19-3.31.41-5,.59a11.15,11.15,0,0,1-1.41,0,8.3,8.3,0,0,1-.52-1c-.05-.16.09-.38.14-.57s.18-.43.11-.55a.77.77,0,0,0-.57-.21,9.68,9.68,0,0,0-1.19.15c-2.76.36-5.52.72-8.28,1.1-.54.07-.64-.09-.58-.59a18.05,18.05,0,0,0,.15-2.94c0-.49-.41-1-.45-1.45-.08-.81,0-1.62,0-2.43s-.06-1.37-.09-2c0-1.31-.13-2.62-.13-3.94a26,26,0,0,1,.19-2.92,2.75,2.75,0,0,1,.45-.95c.24-.43.48-.8.14-1.33a4.46,4.46,0,0,1-.62-2.65c0-1.28,0-2.56,0-3.83a4.85,4.85,0,0,0-.49-1.43.45.45,0,0,0-.31-.2c-.32,0-.67-.08-.49-.45a1,1,0,0,1,.7-.49c.82,0,1.64.17,2.46.25,1.85.17,3.71.24,5.55.5,1.53.22,3,.63,4.54,1,.24.06.46.17.69.23s.54,0,.45-.37S22.94,18.55,22.8,18.05Z"/><path class="cls-1" d="M34.52,28.13a1.81,1.81,0,0,1,.55-.12,13.69,13.69,0,0,0,3.87-.58,14.16,14.16,0,0,1,2.36-.1c.55,0,1.11-.09,1.66-.11.31,0,.71,0,.68.39s-.4.26-.68.22a10.66,10.66,0,0,0-5.24.41c-1,.41-2,.09-2.92.16-.09,0-.19-.07-.28-.1Z"/><path class="cls-1" d="M8.89,60.11l1-1.26c0,.46,0,.8.06,1.13.08,1.19.13,2.39.25,3.58a1.06,1.06,0,0,1-.85,1.29L9,64c.08-.14.29-.36.23-.46-.38-.77.23-1.42.26-2.13a1.16,1.16,0,0,0-.43-1.11L8.63,60Z"/><path class="cls-1" d="M10.92,47.68c0-.41,0-.66.49-.71s.92-.19,1.38-.23a1,1,0,0,1,.68.14,1.84,1.84,0,0,0,1.72.36,1.45,1.45,0,0,1,1.43.66Z"/><path class="cls-1" d="M11.82,65.35c.11-.49.32-1,.85-1,1.26.07,2.51.29,3.76.46.07,0,.13.08.19.3Z"/><path class="cls-1" d="M5.58,37.6c0-.92-.08-1.83-.09-2.75,0-.11.23-.22.35-.33.1.11.29.21.29.32,0,.67,0,1.34,0,2a3.44,3.44,0,0,1-.21.76Z"/><path class="cls-1" d="M24.89,28.66a9.71,9.71,0,0,1-1.3.28,11.31,11.31,0,0,1-1.54,0c-.11,0-.22-.15-.33-.23.07-.06.14-.19.21-.19,1-.08,1.93-.13,2.89-.2Z"/><path class="cls-1" d="M26,67.2H24.29C25,66.62,25.48,66.63,26,67.2Z"/><path class="cls-1" d="M8.22,45.56l.37-1.51.38.09-.44,1.5Z"/><path class="cls-1" d="M8.67,40.21A8.19,8.19,0,0,1,9,41.32a2.23,2.23,0,0,1-.19.7A1.39,1.39,0,0,1,8.67,40.21Z"/><path class="cls-1" d="M19.58,28.53l.23,1-.54,0-.06-1Z"/><path class="cls-1" d="M34.61,48.81a5.48,5.48,0,0,1,0,.81c0,.08-.22.21-.32.2s-.25-.2-.23-.28a5.64,5.64,0,0,1,.29-.78Z"/><path class="cls-1" d="M88.19,16.2c.21,1.27.7,2.47.45,3.77a4.55,4.55,0,0,0,.11,1.26c.07.93.17,1.87.21,2.81,0,.6,0,1.21,0,1.82,0,.94,0,1.88,0,2.82,0,1.26.17,2.52.1,3.77-.08,1.81-.31,3.6-.47,5.4,0,.51,0,1-.1,1.55a3,3,0,0,1-.29.66c-.12.29-.36.61-.32.89a57,57,0,0,1,.52,6,1.3,1.3,0,0,1-.27.86c-.59.65-.14,1.33-.12,2,.06,1.77.23,3.54.39,5.3.14,1.52.35,3,.48,4.56a.8.8,0,0,1-.43.62,2.65,2.65,0,0,1-2.45-.35,1,1,0,0,0-.67,0c-1.42.34-2.83.71-4.25,1a3.06,3.06,0,0,1-.74,0c-.1,0-.27-.06-.29-.12-.13-.39-.24-.79-.34-1.19,0-.07.08-.21,0-.23-.7-.57-.15-1.19-.13-1.8,0-.95-.1-1.91-.08-2.86,0-1.34.21-2.67.2-4a21.8,21.8,0,0,0-.3-3.61c-.08-.54-.08-.87.47-1.12.18-.08.28-.31.45-.5-.23-1-1-.18-1.57-.34a.66.66,0,0,1-.08-.21c-.1-.89-.57-1.13-1.52-1-1.79.29-3.6.5-5.41.73a1.84,1.84,0,0,1-.66-.07c-.47-.12-1-.09-1.08.35-.08.25.21.61.37.91s.29.49.48.8c-1.08-.08-1.33.31-1.43,1.22s.27,1.87-.25,2.78A3,3,0,0,0,68.92,52c-.11,1.65-.26,3.3-.26,4.94a16.3,16.3,0,0,0,.4,2.85c.13.78.14.86-.7,1-1.81.34-3.63.63-5.45.93-1,.16-1.95.27-2.91.45-.56.11-.82,0-.8-.57.06-1.35.1-2.71.18-4.06,0-.51.16-1,.21-1.53a9.94,9.94,0,0,0,0-1.09c0-1.38,0-2.75,0-4.13s0-3,0-4.43a15.88,15.88,0,0,0-.15-2.07c-.2-1.33-.48-2.65-.66-4-.26-1.81-.46-3.63-.68-5.45-.23-2-.49-4.06-.68-6.09-.17-1.75-.2-3.51-.4-5.25-.16-1.36-.48-2.7-.72-4-.09-.51-.14-1-.22-1.67,1.11.16,2.15.32,3.2.45a7.62,7.62,0,0,0,1.5.1c.26,0,.5-.24.86-.42l-.65-.3v-.15a3.68,3.68,0,0,1,.85-.14c.93.06,1.86.19,2.79.26.74.06.92.6,1.13,1.09.32.7.57,1.44.84,2.16.16.41.23.76-.28,1.06s-.45.58-.25,1c.46,1,.85,2.08,1.21,3.15a3.53,3.53,0,0,1,0,1,2.1,2.1,0,0,0,.09.94,9.16,9.16,0,0,1,1,3.9c.06,1.39,0,2.79,0,4.18a2.86,2.86,0,0,0,.28,1.14c.41.89.56.93,1.63.82s2.25-.18,3.38-.26a5,5,0,0,0,2.52-.9,6,6,0,0,1,1.41-.52c.1,0,.27,0,.32-.06.59-.72,1.7-.22,2.3-.86a1,1,0,0,0,.27-.64c0-.85-.05-1.7,0-2.54.08-.67.44-1.31.5-2,.09-.9.35-1.85-.29-2.69a.53.53,0,0,1-.11-.34c.12-1.08.26-2.15.37-3.23s.18-2.11.27-3.16c0-.35.1-.71.1-1.06s0-.61-.11-.71c-.5-.34-.41-.79-.39-1.23A17.78,17.78,0,0,1,81,16.09a.82.82,0,0,1,1.42-.57c.92.95,2.07.86,3.22.86C86.41,16.38,87.24,16.27,88.19,16.2Z"/><path class="cls-1" d="M57.69,54.13c0-.28,0-.55,0-.82,0-1.37,0-2.74,0-4.12a3.81,3.81,0,0,0-.26-1.87A3.63,3.63,0,0,1,57,45c0-1.26-.19-2.51-.23-3.77,0-1.5,0-3,0-4.51l.33,0c.06.55.13,1.1.18,1.65.08.87.18,1.73.2,2.6s0,1.94,0,2.92a.34.34,0,0,0,0,.23c.84,1,.6,2.27.63,3.44.05,1.61.09,3.22.1,4.83,0,.6-.1,1.2-.15,1.81Z"/><path class="cls-1" d="M79,28.19c.48.54.38,3.8,0,4.36C78.07,31.07,79,29.64,79,28.19Z"/><path class="cls-1" d="M57.84,60.86c0,.57,0,1.13,0,1.7s-.27.78-.92.95c0-.81.06-1.55.16-2.27,0-.19.34-.35.52-.52Z"/><path class="cls-1" d="M79.47,62.53a8.78,8.78,0,0,1,3.19-.6l0,.17-3.15.69Z"/><path class="cls-1" d="M72,47.18c.1.73,0,.93-.76,1.08C70.88,47.17,71,47,72,47.18Z"/><path class="cls-1" d="M67,62.49c.35.09.7.1.73.2.13.4.19.83-.48,1Z"/><path class="cls-1" d="M79.72,18.58c-.16-.2-.5-.47-.45-.57s.42-.36.65-.53l.15.13-.14.83Z"/><path class="cls-1" d="M60.34,63.45l-.65,1C59.44,63.55,59.63,63.31,60.34,63.45Z"/><path class="cls-1" d="M78.12,59.75l-.42.74a3,3,0,0,1-.37-.25,7.77,7.77,0,0,1,.48-.69Z"/><path class="cls-1" d="M54.51,20a7,7,0,0,1-.29-.76,3.07,3.07,0,0,1,.43-.17l.24.8Z"/><path class="cls-1" d="M79.57,26l-.18,1.27C78.88,26.93,78.9,26.6,79.57,26Z"/><path class="cls-1" d="M393.55,16c.17.15.47.3.47.45s-.26.36-.36.48c-.06.43,0,.94-.2,1.2-.46.52-.22.77.21,1-.53.77-.28.94.11,1.2a5.14,5.14,0,0,0-.43,3c.06.5-.26.84-.47,1.23a1.13,1.13,0,0,0,0,.55s.05,0,.05,0c-.09.56-.19,1.12-.26,1.68-.12.91-.24,1.83-.3,2.75,0,.21.22.43.35.65l-.16.1-.35-.27c-.05.32-.23.68-.12.93.23.56.34,1-.35,1.32a.35.35,0,0,0-.12.33,4.42,4.42,0,0,1-.23,2.49c0,.06-.05.14,0,.18.38.74,0,1.46,0,2.19a3.19,3.19,0,0,1-.13,1.47c0,.07.18.23.29.35a2.09,2.09,0,0,0-.3,1.91c.06.13.19.34.14.4-.52.59,0,1.19-.07,1.78,0,.24-.31.49-.29.71a5.68,5.68,0,0,1,0,1.84,16.57,16.57,0,0,0-.21,5.53c0,.42.13.83.19,1.25,0,0,0,.1,0,.12-.64.62,0,1.33-.16,2-.08.29-.27.7-.52.78a29,29,0,0,1-3.33.86,1.7,1.7,0,0,1-2.14-1.22,4.06,4.06,0,0,0-.45-1,1.35,1.35,0,0,1-.21-1.4c.12-.32-.1-.74-.14-1.12a34.55,34.55,0,0,1,.43-5.66,25.57,25.57,0,0,1,1.93-6.53c.16-.46.45-.89.64-1.34.36-.82-.14-1.48-1.06-1.5-.58,0-1.16-.13-1.74-.1s-1.18.16-1.77.24a31.4,31.4,0,0,1-6.13.63c-1-.06-2-.11-3-.13a1.17,1.17,0,0,0-1.26,1.4.59.59,0,0,0,.32.32,5.1,5.1,0,0,0,.79.19l-.68.26.2.33c-.8.39-.54,1.14-.64,1.75-.13.78-.15,1.56-.23,2.34-.05.52-.13,1.05-.19,1.57-.11.13-.31.26-.34.43a20.63,20.63,0,0,0-.39,2.31,2.27,2.27,0,0,0,.31,1c0,.27.05.54.06.8,0,.69,0,1.38,0,2.07,0,1-.12,2-.22,3,0,.17-.22.44-.36.46-1.09.14-2.17.24-3.26.32-.52,0-.79-.18-.82-.74-.1-1.56-.19-3.13-.43-4.67a33.14,33.14,0,0,1,0-7.18c.14-2.12.39-4.24.53-6.36s.27-4.25.28-6.38c0-2.82-.07-5.64-.13-8.45,0-1.13-.09-2.26-.15-3.39s-.18-2.44-.22-3.65a1,1,0,0,1,.46-.67c.91-.54,1.85-1,2.79-1.51a2,2,0,0,1,.41-.21c1.08-.28,2.17-.55,3.32-.83.06.76.1,1.61.21,2.45,0,.23-.22.62.29.7l-.35.85c.07,0,.28.1.27.14-.1.5-.22,1-.34,1.49h-.17l.39.53-.56.33.32.23-.18,0a7.57,7.57,0,0,1,.18,1.06c0,.24,0,.59-.16.7-.49.35-.44.72-.31,1.19s.41,1-.06,1.3c.13.42.26.8.39,1.22l-.21.08c0,.37,0,.6-.06.83,0,.68-.09,1.37-.16,2.05a20.26,20.26,0,0,1-.31,2.21,1.17,1.17,0,0,0,1.49,1.39,6.93,6.93,0,0,1,3-.11,4.16,4.16,0,0,0,1.53-.12,3.68,3.68,0,0,1,1.86.2c1.09.27,2.07.91,3.28.74.73-.11,1-.38,1-1.08.09-1.63-.21-3.26,0-4.89s.3-3,.43-4.55c.16-2,.27-3.95.45-5.93A1.72,1.72,0,0,1,387,13.15c.25-.05.34-.71.74-.18l.09-.22a2.7,2.7,0,0,0,2.61.23,3.25,3.25,0,0,1,2.87-.05c.27.15.42.51.64.8-.44.6-.42.66.45.91C394.08,15.11,393,15.13,393.55,16Z"/><path class="cls-1" d="M276.84,47.77a2.53,2.53,0,0,0,.31-.67c.07-1,.13-2.07.16-3.11s0-1.87,0-2.81a3.5,3.5,0,0,1,0-.56c.29-1.54.63-3.08.88-4.63.16-1,.19-1.94.3-2.9.06-.51.21-1,.26-1.53.08-.78.1-1.56.18-2.34.1-1,.23-2,.32-3.08a8.36,8.36,0,0,0-.09-.86c0-1.69.08-3.37.14-5.06,0-.49.07-1,.13-1.49a.89.89,0,0,1,1-.84c1.06-.05,2.13-.14,3.2-.25a9.23,9.23,0,0,0,1.28-.34c-.09.83-.2,1.5-.22,2.18s0,1.35.05,2c0,.08.08.19.05.24a4.14,4.14,0,0,0-.36,1.8c-.06.57-.31,1.11,0,1.67,0,.05.07.15,0,.18-.58.66.24,1.45-.21,2.13-.06.08,0,.21-.1.29a1.42,1.42,0,0,0-.14,1.66,15.48,15.48,0,0,0-.63,2.12,4.22,4.22,0,0,0,.28,1.34.74.74,0,0,0,0,1.16,1.78,1.78,0,0,0-.69,1.56c-.06.79-.18,1.58-.29,2.48l-.22-.37c-.47,2.11-.47,2.11,0,2.6-1.09.27-.66,1.19-.81,1.81a16.7,16.7,0,0,0-.35,3.32c-.05,1.06,0,2.12,0,3.18a5.82,5.82,0,0,0,.3,1.41c0,.14.31.23.5.37-1,.39-.38,1.18-.48,1.77-.21,1.26-.21,2.55-.36,3.82-.07.61-.4.71-1.06.56a4.73,4.73,0,0,0-1.19,0l-1.44.07c-1,0-2.05.06-3.07.12s-2.11.19-3.17.23c-.68,0-1.36-.13-2-.1a13.63,13.63,0,0,0-1.77.3,8.08,8.08,0,0,1-3.46.11,4.15,4.15,0,0,0-1.26.06c-1.09.1-2.18.23-3.27.29-.66,0-1.33-.05-2,0s-1.39.21-2.09.33c-1.29.21-2.58.44-3.88.63a11.45,11.45,0,0,1-1.45,0c-.06-1.51-.12-3-.19-4.41-.05-1-.16-2-.16-3.07,0-.74.17-1.48.21-2.23s0-1.62.05-2.43c.05-1,.16-1.95.19-2.92,0-.61-.06-1.23-.06-1.84,0-1.39.05-2.77-.08-4.16a18.55,18.55,0,0,1,.21-3.05c0-.35,0-.7,0-1,.07-1.41.12-2.83.22-4.24,0-.34.25-.66.3-1,.16-1.12.31-2.24.41-3.37.12-1.4.18-2.81.29-4.21a15.14,15.14,0,0,1,.29-2.33c.14-.59.78-.79,1.35-.8,1.38,0,2.76.06,4.14.1.63,0,1.26,0,1.88,0a5.37,5.37,0,0,1,.64.11,5.22,5.22,0,0,0-1.12,3.81.7.7,0,0,1,0,.38c-.06.13-.2.23-.26.37a3.05,3.05,0,0,0-.17.66,11.24,11.24,0,0,0-.15,1.41c0,.64,0,1.28.06,1.91L258,26.1c0,1.29-.87,2.54.3,3.84l-.72-.16c.06.71-.32,1.44.64,2l-.61,0c-.11.78-.23,1.59-.36,2.39-.26,1.67-.58,3.33-.79,5-.15,1.25-.18,2.52-.23,3.77,0,.38.12.75.12,1.13a57.28,57.28,0,0,1-.51,6.41c0,.44.15,1-.63,1.12l.07.2a7.36,7.36,0,0,0-1.14.34.81.81,0,0,0-.44,1.07,1.69,1.69,0,0,0,1,.54,2.61,2.61,0,0,1,1.25.3c.25.19.79,0,1.2,0a7.2,7.2,0,0,1,.75-.16c.94,0,1.88.16,2.82.11a10.39,10.39,0,0,0,2.31-.51,3,3,0,0,1,1.52-.26A3.25,3.25,0,0,0,266,53c.57-.16,1.08-.52,1.75-.32.25.07.59-.17.88-.16,1.43,0,2.86.2,4.28.21a3,3,0,0,1,2.28.45c.51.42,1.63-.52,1.64-1.2,0-1,.16-2,.18-3A8.22,8.22,0,0,0,276.84,47.77Z"/><path class="cls-1" d="M246.59,49.73c0-.52.08-1,.08-1.58,0-.92-.07-1.83,0-2.75,0-1.7.11-3.41.17-5.11,0-.22,0-.45,0-.68,0-.57-.09-1.13-.12-1.7a.32.32,0,0,1,.17-.22c.09,0,.26,0,.29.08a1,1,0,0,1,.15.52c-.06,1.2-.18,2.39-.23,3.59,0,.82,0,1.65,0,2.47s0,1.78,0,2.67c0,.7,0,1.39,0,2.09a4,4,0,0,1-.16.66Z"/><path class="cls-1" d="M264.67,59.24l-2.61.18c-1.3.11-2.6.24-3.9.34a11.44,11.44,0,0,1-1.55,0c-.17,0-.32-.18-.57-.32C258.12,58.87,264,58.67,264.67,59.24Z"/><path class="cls-1" d="M249.68,61.3c-.07.21-.09.57-.22.61a4.72,4.72,0,0,1-1.07.05c.06-.12.09-.29.18-.34a8.76,8.76,0,0,1,.89-.37Z"/><path class="cls-1" d="M278,18.14a7.77,7.77,0,0,1-.08,1c0,.07-.24.11-.37.17,0-.12-.14-.26-.11-.36a8.36,8.36,0,0,1,.27-.8Z"/><path class="cls-1" d="M275.31,44.45a5,5,0,0,1-.06.91.53.53,0,0,1-.42.12C274.56,45.26,274.81,44.6,275.31,44.45Z"/><path class="cls-1" d="M248.23,57.38a.8.8,0,0,1-.07,1.1h-.23V57.39Z"/><path class="cls-1" d="M323.54,21.59c0,.21-.06.55-.11.9a.65.65,0,0,1-.06.24c-.45.65-.47.91-.22,1.37-.11.33-.27.54-.24.73.16.72.37,1.43.58,2.2-.87.08-.75.67-.84,1.14a6.67,6.67,0,0,0-.14,1.18c0,.49.06,1,.07,1.48a.84.84,0,0,1-.15.52c-.33.41-.28.67.23.86l.76.27c-.21.53-.61.32-1.19.15.69.49.68.83,0,1.08,0-.14,0-.27.07-.4l-.12,0a12.45,12.45,0,0,0-.45,1.85c-.07.61,0,1.24,0,1.86a9,9,0,0,1-.14,1.15c-.18,1.45-.4,2.9-.54,4.35-.09.9-.08,1.8-.08,2.7,0,.11.18.22.22.26l-.64,3.19.2.07.46-.39.18,0c-1.15,1.38-.91,2.81-.18,4.26l-.76.14.37,2.72-.47-.41c-.08.78-.16,1.65-.25,2.52a1.25,1.25,0,0,0,0,.19c0,.93,0,1-1,1.11a9.78,9.78,0,0,1-2.85.08,5.84,5.84,0,0,1-1.91-1.22c-.12-.07-.15-.28-.27-.32-1.15-.46-1.51-1.53-2.15-2.39-.45-.61-.91-1.22-1.38-1.82-1.24-1.56-2.46-3.13-3.72-4.66s-2.45-2.87-3.65-4.32c-.25-.3-.37-.68-.6-1s-.49-.54-.71-.83a4.56,4.56,0,0,1-.82-1.18,1,1,0,0,0-1.15-.74,1.33,1.33,0,0,0-.85.92,13.47,13.47,0,0,0-.25,3.65,12.87,12.87,0,0,1,0,3.22,37.74,37.74,0,0,0-.15,6.89,12.12,12.12,0,0,1-.18,2.23,2.9,2.9,0,0,1,0,.66c-.19.52-.42,1-1.13,1.11-.86.11-1.71.26-2.58.35s-1.59.12-2.49.18a2.67,2.67,0,0,1,.29-.67,1.05,1.05,0,0,0,.08-1.55,1.33,1.33,0,0,1-.12-.72c0-1.29.13-2.58.14-3.87a25.56,25.56,0,0,0-.16-4.72,25.42,25.42,0,0,1-.14-5.3c0-1.39,0-2.79.08-4.18.06-.91.34-1.8.46-2.71.17-1.3.29-2.61.43-3.92s.28-2.49.39-3.73a12.18,12.18,0,0,0,0-1.48,15.07,15.07,0,0,1,.49-4.27s0-.09,0-.12c.93-.93.25-2.06.39-3.08.06-.41.62-1.38,1.05-1.47,1.51-.33,3-.64,4.54-.94.38-.08.62.06.62.44,0,.82,0,1.64,0,2.46a6.33,6.33,0,0,0,.07,1.38c.22.95-.32,1.9.13,2.86.17.35,0,.85,0,1.28s-.54.81.1,1.18c.09.06-.08.5-.14.78.68.41.36,1,.37,1.6l-.31-.62c-.39.74-.8,1.43-1.12,2.16a.92.92,0,0,0,.3,1.12c.94,1,1.77,2,2.64,3,.74.86,1.47,1.72,2.19,2.59a5.52,5.52,0,0,0,.52.72c.32.26.78.4,1.07.69a16.59,16.59,0,0,1,1.4,1.62,11.92,11.92,0,0,0,2.19,2.41c.06,0,.15.07.15.11.11,1.11,1.24,1.66,1.64,2.59.09.2,0,.47.14.65a6.84,6.84,0,0,0,.78,1.15c.05.07.34,0,.49,0a2,2,0,0,0,1.19-1.63,22.65,22.65,0,0,0,.25-2.6c0-.72-.22-1.43-.21-2.15,0-1.49.07-3,.16-4.49.08-1.24.19-2.49.35-3.73.1-.79.37-1.56.49-2.36.09-.52,0-1.06.07-1.59a32.84,32.84,0,0,1,.54-4.33,33.56,33.56,0,0,0,.53-4.22c.22-1.75.78-2.28,2.75-2.53.83-.11,1.65-.26,2.49-.35A.94.94,0,0,1,323,18c.05.89.07,1.79.15,2.68A3.87,3.87,0,0,0,323.54,21.59Z"/><path class="cls-1" d="M291.59,52.11a5.42,5.42,0,0,1-.72.33c-.47.1-.58-.23-.59-.54,0-.75,0-1.51,0-2.26,0-.18.22-.34.34-.52a1.86,1.86,0,0,1,.28.54,2.77,2.77,0,0,1,0,.81C290.77,51.11,290.72,51.73,291.59,52.11Z"/><path class="cls-1" d="M308,52.92l2,2.2-.06.16c-.24-.08-.54-.1-.68-.26C308.7,54.44,307.92,54,308,52.92Z"/><path class="cls-1" d="M290.66,42.08a2.92,2.92,0,0,1-.2-.51,17.3,17.3,0,0,1-.1-1.76,1.87,1.87,0,0,1,.26-.63c.13.22.37.44.35.65C290.93,40.55,290.79,41.26,290.66,42.08Z"/><path class="cls-1" d="M312.37,22.9c.14-.3.21-.77.44-.86.44-.16.61.12.3.48a3.87,3.87,0,0,1-.53.44Z"/><path class="cls-1" d="M302.94,46.74l-.76-.76C302.85,45.89,303.05,46.06,302.94,46.74Z"/><path class="cls-1" d="M128,16.65a10.7,10.7,0,0,1,.29,1.49c0,.8,0,1.6,0,2.39,0,1.11-.1,2.22-.13,3.33a22.86,22.86,0,0,0,0,4c.27,1.71-.3,3.32-.32,5a3.72,3.72,0,0,0,0,1.11c.67,2.12,0,4.18-.24,6.26a32.94,32.94,0,0,0,0,3.3,22,22,0,0,1-.15,2.29,8.46,8.46,0,0,0,.1,3.09c.23,1,.18,2.15.34,3.21a5.92,5.92,0,0,1-.27,2.51,1.1,1.1,0,0,0,.43,1.39,1.6,1.6,0,0,1,.47,1.15,17.78,17.78,0,0,1-.11,2.18,1.57,1.57,0,0,1-2.14,1.32,2,2,0,0,0-2.13.05c-.67.48-1.46.17-2.18.37a6.44,6.44,0,0,1-1.47.13c-2.91.09-5.83.19-8.75.24-1.16,0-2.32-.07-3.48-.11-.11,0-.27,0-.31-.08-.61-.88-1.47-.41-2.25-.36a5.52,5.52,0,0,0-.7.11c.09-.83-.6-.77-1.06-.85a6.74,6.74,0,0,0-1.68,0c-.82,0-1-.12-.73-.82a1.91,1.91,0,0,0-.07-.91,14,14,0,0,0-.36-1.68c-.43-1.36,0-2.69,0-4a7.57,7.57,0,0,0-.42-2,2.74,2.74,0,0,1-.1-.8c.15-1.06.37-2.12.52-3.18a7.69,7.69,0,0,0,0-1.44.54.54,0,0,0-.28-.39c-.56-.2-.65-.58-.61-1.1.19-2.3.27-4.61.56-6.9a3.51,3.51,0,0,0-.16-1.82,6.14,6.14,0,0,1-.08-1.3c-.14-1-.37-2-.48-2.94s-.1-1.87-.15-2.8a22.15,22.15,0,0,1,.39-5.74c.26-1.21.46-2.44.64-3.66a3.28,3.28,0,0,0-.12-1.16c-.16-.68-.08-1.25.87-1.28a2,2,0,0,0,1-.18,4,4,0,0,1,2.61-.35c1.28.07,2.57.25,3.85.36.4,0,.81,0,1.21,0,.91.08,1.81.22,2.72.28,1.27.09,2.55.18,3.82.17a8.5,8.5,0,0,1,2.83.2,8.58,8.58,0,0,0,2.64.09c1.55,0,3.1-.08,4.64-.1A7.35,7.35,0,0,1,128,16.65Zm-19.82,39.2H108v.38c0,.9.53,1.26,1.49,1,.32-.08.65-.12,1-.19.73-.16,1.47-.31,2.19-.5a10.94,10.94,0,0,1,1.06-.35,12.89,12.89,0,0,1,4.25-.06,9.06,9.06,0,0,0,1.38,0l1.07,0c.68,0,1.35.12,2,.12a.74.74,0,0,0,.69-.89,24.24,24.24,0,0,1-.63-3.34c-.1-1.67,0-3.34,0-5,0-1.13.07-2.26,0-3.38-.16-1.69.79-3.24.51-5a12.34,12.34,0,0,1,.18-2.48,4.09,4.09,0,0,0-.16-1,4.31,4.31,0,0,1-.23-.81c0-.82.1-1.65.13-2.47a4.05,4.05,0,0,0-.1-.92c-.13-.81-.34-1.62-.42-2.44a23.37,23.37,0,0,1-.13-2.9,5.48,5.48,0,0,1,.71-3,1.43,1.43,0,0,0-.28-1.68c-.42-.43-.89-.26-1.36-.1a8.22,8.22,0,0,1-1.5.49,10.76,10.76,0,0,0-2.54.33c-1,.48-2,.21-2.91.39-1.15.21-2.32.3-3.49.41a4.31,4.31,0,0,1-1.06-.12c-.61-.12-1.19-.47-1.85-.22a.48.48,0,0,1-.31,0c-.5-.36-.71,0-.75.33-.14,1.13-.7,2.21-.45,3.38.09.4.29.79.34,1.19a18.7,18.7,0,0,1,.13,2.12c0,1.48-.14,3-.06,4.43.1,1.68.38,3.36.58,5,.15,1.26.34,2.52.43,3.78a4.29,4.29,0,0,0,.36,1.86,2,2,0,0,1,.12.85c0,.37,0,.74,0,1.11a7,7,0,0,1,0,1.12c-.09.77-.23,1.54-.34,2.31a2.41,2.41,0,0,0,0,.38c0,.66,0,1.32,0,2a11.45,11.45,0,0,0-.22,1.39C107.87,54.26,108,55.05,108.16,55.85Z"/><path class="cls-1" d="M107.48,62.75c.69,0,1.37.06,2.06.11.1,0,.19.14.28.21-.08.08-.17.22-.26.22-.62,0-1.24.05-1.85,0-.13,0-.24-.27-.36-.41Z"/><path class="cls-1" d="M101,62.35c.1-1,.33-.79,1.66-.52C102.21,62.49,101.5,62,101,62.35Z"/><path class="cls-1" d="M98.81,20.48c-.24-.84-.06-1.59.38-1.68C99.36,19.69,99.27,20.1,98.81,20.48Z"/><path class="cls-1" d="M98.87,63.05c.42-1,.66-1.09,1.4-.46Z"/><path class="cls-1" d="M119.18,66.3c-.33-.72.19-.7.51-.75.13,0,.31.17.47.27Z"/><path class="cls-1" d="M338.53,25c-.85.18-1.06.41-1.22,1.24a.69.69,0,0,1-.24.33c-.33.32-1.07.42-.68,1.12,0,0,0,.05,0,.05-.81.41-.34,1.27-.75,1.85a5.9,5.9,0,0,0-.69,1.7,18.09,18.09,0,0,0-.42,1.91c-.16,1-.32,1.9-.4,2.85s-.09,1.91-.12,2.87a19.12,19.12,0,0,0,0,2.51,31.7,31.7,0,0,0,.52,3.36A2.71,2.71,0,0,0,335,46a10.72,10.72,0,0,0,1.49,1.25c.39.33.8.65,1.18,1a2,2,0,0,0,1.3.51,5,5,0,0,1,1.6.49,21.52,21.52,0,0,0,10.54,1.54c1-.06,1.84-.35,2.77-.46a5.38,5.38,0,0,0,2.54-.64c.37-.25.73-.11.79.4a16.73,16.73,0,0,1,.33,2.52c0,.46-.38.92,0,1.39-.56.71-.35,1.55-.49,2.33a.49.49,0,0,1-.29.32,20.48,20.48,0,0,1-2,.37c-.62.07-1.24,0-1.86.08l-.74,0-4.24.3a3.61,3.61,0,0,0-.66.08,3.49,3.49,0,0,0-.58.29c-.3-.06-.67-.17-1.05-.22-1.87-.25-3.75-.45-5.61-.75a28.28,28.28,0,0,1-4-.91,8.59,8.59,0,0,1-3.4-1.67,1.54,1.54,0,0,0-.69-.29,5,5,0,0,1-2.1-1.55A4.76,4.76,0,0,1,329,51a6.65,6.65,0,0,1-.48-1,8.79,8.79,0,0,1-.38-1.51A13.08,13.08,0,0,1,328,46a18.79,18.79,0,0,1,.49-2.55.55.55,0,0,0,0-.25,16.38,16.38,0,0,1-.11-5.32c.14-2.76.39-5.53.76-8.27A13.65,13.65,0,0,1,330.26,26c.36-.82,1.09-1.51,1.44-2.33a11.31,11.31,0,0,1,3.11-4,14.61,14.61,0,0,1,2.13-1.37c.8-.47,1.65-.89,2.46-1.35a17,17,0,0,1,4.91-1.67c1.16-.26,2.36-.37,3.55-.52s2.4-.19,3.58-.4a5.62,5.62,0,0,1,2.55.22,1.49,1.49,0,0,0,.61-.09l.91-.19c-.23.89-.09,1.11.72,1.08.21,1.33.43,2.68.65,4.07l.52-.1c0,.1,0,.17,0,.21a2.89,2.89,0,0,1-.39.63,1.71,1.71,0,0,1-.63.44,4.14,4.14,0,0,1-.87.1c-1,.1-2.09.17-3.14.31-.72.1-1.42.29-2.13.45-.32.07-.64.17-1,.23-1.12.2-2.24.37-3.36.58-.13,0-.22.21-.36.36-.71-.39-1.09.09-1.46.84l-.14-.76c-.62.12-1.44.05-1.82.4a3.37,3.37,0,0,1-1.57.61A9.28,9.28,0,0,0,338.52,25Z"/><path class="cls-1" d="M338.56,27a2.46,2.46,0,0,1,.46-.59,11,11,0,0,1,1.5-.93.82.82,0,0,1,.73.09c.19.28,0,.51-.35.65-.73.28-1.43.62-2.15.93Z"/><path class="cls-1" d="M326.84,35.31c-.59-.36-.52-1.68,0-2.47Z"/><path class="cls-1" d="M327.33,51.85c-.31-.17-.51-.22-.6-.34a4.54,4.54,0,0,1-.55-1c-.06-.14.09-.34.15-.52.13.11.33.18.39.31C326.92,50.75,327.08,51.2,327.33,51.85Z"/><path class="cls-1" d="M327.39,52.2c.43.49.78.88,1.11,1.27a.59.59,0,0,1,.05.27c-.13,0-.32.07-.4,0A1.6,1.6,0,0,1,327.39,52.2Z"/><path class="cls-1" d="M325.71,45.2,326,44l.23.05c0,.44.27.92-.23,1.26Z"/><path class="cls-1" d="M338.52,25l1.14.5-.69.42-.44-.93Z"/><path class="cls-1" d="M221.6,33.11c-.07.51-.18,1-.2,1.59,0,1,0,1.92,0,2.87s.18,1.8.15,2.69-.25,1.57-.35,2.36S221.08,44.2,221,45s-.16,1.36-.23,2c0,.14,0,.29,0,.43,0,.89,0,1.78,0,2.66,0,.12-.09.24-.09.36-.06.88-.1,1.75-.15,2.63a1.1,1.1,0,0,1,0,.31c-.28.82-.57,1.64-.85,2.47a.89.89,0,0,0,.48,1.13,6,6,0,0,0,1.49.3c.2,0,.4,0,.59.06s.3.14.44.14l4.18-.1c1.58,0,3.16-.05,4.74-.11,1.35,0,2.71-.09,4.07-.21,1-.08,1.91-.29,2.87-.43.55-.08.72.18.64.66-.16.93-.29,1.86-.44,2.79a.73.73,0,0,1-.73.69c-.62,0-1.24,0-1.86.12-1.28.13-2.57.29-3.86.44-2,.23-4,.44-6,.69-1.83.24-3.65.6-5.48.79a17,17,0,0,1-3.56,0,17.9,17.9,0,0,1-2.6-.77,5.91,5.91,0,0,0-1.16-.08c.08-.87.17-1.78.26-2.68,0-.23.07-.45.09-.68a10.64,10.64,0,0,1,.34-3.27c.58-1.38.38-2.75.49-4.12a18.66,18.66,0,0,0,.21-3.41,21.82,21.82,0,0,1,0-3.43,21.37,21.37,0,0,0-.19-2.24,10.18,10.18,0,0,1,.09-1.23c.14-1.6.26-3.2.4-4.8.12-1.38.17-2.78.42-4.15a10.25,10.25,0,0,0-.22-4.64,10.2,10.2,0,0,1-.29-3,13.55,13.55,0,0,0-.93-5,.37.37,0,0,1,0-.34.66.66,0,0,0,0-1c-.38-.39-.14-.72.24-.92a2.52,2.52,0,0,1,1-.26c1.2-.11,2.4-.17,3.59-.25h.14c1.33-.11,1.65.1,1.92,1.27a9.49,9.49,0,0,1,.19,3.64,2,2,0,0,0,.12,1c.45,1.29.16,2.59.18,3.89,0,1.72.1,3.43.23,5.14,0,.41.42.78.57,1.19.05.13-.13.37-.27.51S221.87,33.15,221.6,33.11Z"/><path class="cls-1" d="M213.27,42.15c-.16,1.05.43,2.09,0,3.14,0,.07-.11.12-.17.18A3.72,3.72,0,0,1,213.27,42.15Z"/><path class="cls-1" d="M211.93,65.08c.08-.77.54-.87,1.85-.38Z"/><path class="cls-1" d="M213.27,22.27c-.55-.85-.23-1.78-.17-2.69.14.88.28,1.77.41,2.66Z"/><path d="M147.13,21.92c1.07.13,1.73-.54,2.45-1a2.44,2.44,0,0,1,2.3-.15.84.84,0,0,0,.49.13,9.71,9.71,0,0,0,4.35-1,2.61,2.61,0,0,1,1.1-.23l-.63.23a3.77,3.77,0,0,1,.61.07c.39.11.92-.31,1.18.37a1.68,1.68,0,0,1,.12,1.18,9.1,9.1,0,0,0,.13,3.71,11.35,11.35,0,0,1,.08,2.47,1.24,1.24,0,0,1-.8.81,1.5,1.5,0,0,1-1.14-.31c-.69-.57-.8-.57-1.66-.18a6.32,6.32,0,0,1-1.76.35c-.14,0-.31-.26-.42-.35-1.36.19-2.68.38-4,.55-.58.08-1.17.09-1.74.19a1.86,1.86,0,0,0-.77.41c-.35.28-.55.83-1.18.5-.43-.22-.5-1-.38-1.48a3.13,3.13,0,0,0,.06-1.66,8.91,8.91,0,0,1-.16-3.29c0-.4.07-.8.07-1.2,0-.74.21-1.15.69-1.18S147,21.14,147.13,21.92Zm7.66,4.55a1.9,1.9,0,0,0-1-1.88l-.2,0-2.79.7a5.78,5.78,0,0,1-2.89.16l-.93-.2c.09.8.15,1.54.29,2.27,0,.15.35.33.55.36a1.16,1.16,0,0,0,.68-.21,4.36,4.36,0,0,1,2.43-.69,2.79,2.79,0,0,0,2.44-1c.21-.32.65-.29,1,.05A4.18,4.18,0,0,0,154.79,26.47Zm-1.48-4.11-.21-.17c-.89.45-2,.21-2.84.84a20.22,20.22,0,0,0,2.71-.26C153.1,22.74,153.2,22.5,153.31,22.36Zm2.26-.3c-.44.06-.78.09-1.12.15-.07,0-.16.13-.18.21s.06.15.12.18A1.26,1.26,0,0,0,155.57,22.06Z"/><path d="M108.16,55.85c-.12-.8-.29-1.59-.33-2.4a11.45,11.45,0,0,1,.22-1.39c0-.66,0-1.32,0-2a2.41,2.41,0,0,1,0-.38c.11-.77.25-1.54.34-2.31a7,7,0,0,0,0-1.12c0-.37,0-.74,0-1.11a2,2,0,0,0-.12-.85,4.29,4.29,0,0,1-.36-1.86c-.09-1.26-.28-2.52-.43-3.78-.2-1.67-.48-3.35-.58-5-.08-1.47.06-2.95.06-4.43a18.7,18.7,0,0,0-.13-2.12c0-.4-.25-.79-.34-1.19-.25-1.17.31-2.25.45-3.38,0-.3.25-.69.75-.33a.48.48,0,0,0,.31,0c.66-.25,1.24.1,1.85.22a4.31,4.31,0,0,0,1.06.12c1.17-.11,2.34-.2,3.49-.41,1-.18,1.93.09,2.91-.39a10.76,10.76,0,0,1,2.54-.33,8.22,8.22,0,0,0,1.5-.49c.47-.16.94-.33,1.36.1a1.43,1.43,0,0,1,.28,1.68,5.48,5.48,0,0,0-.71,3,23.37,23.37,0,0,0,.13,2.9c.08.82.29,1.63.42,2.44a4.05,4.05,0,0,1,.1.92c0,.82-.12,1.65-.13,2.47a4.31,4.31,0,0,0,.23.81,4.09,4.09,0,0,1,.16,1,12.34,12.34,0,0,0-.18,2.48c.28,1.71-.67,3.26-.51,5,.1,1.12,0,2.25,0,3.38,0,1.67-.08,3.34,0,5a24.24,24.24,0,0,0,.63,3.34.74.74,0,0,1-.69.89c-.67,0-1.34-.08-2-.12l-1.07,0a9.06,9.06,0,0,1-1.38,0,12.89,12.89,0,0,0-4.25.06,10.94,10.94,0,0,0-1.06.35c-.72.19-1.46.34-2.19.5-.32.07-.65.11-1,.19-1,.24-1.49-.12-1.49-1v-.38Zm1.57-.26a3.81,3.81,0,0,0,2.75-.58,2.13,2.13,0,0,1,.68-.24c.88-.12,1.77-.18,2.65-.31.22,0,.55-.22.58-.37a6,6,0,0,0,0-1.41c0-.46-.16-.91-.17-1.37s.16-.68.18-1c.11-1.72.19-3.45.29-5.17,0-.55.27-1.1-.15-1.63-.09-.12,0-.36,0-.55,0-.91.46-1.82,0-2.74a.92.92,0,0,1,.09-.66,3,3,0,0,0-.11-3.06.9.9,0,0,1-.06-.59c0-.29.17-.56.23-.84.16-.88.36-1.76.44-2.65A5.63,5.63,0,0,0,117,31c-.14-.69-.66-1.32-.19-2.09a2.63,2.63,0,0,0,.15-1.05c-1.23.1-2.34.24-3.45.26-.55,0-1.09-.25-1.64-.29-.86-.05-1.73,0-2.6,0s-1.26.42-1.08,1.25a3.76,3.76,0,0,1,.15.92c0,.75-.14,1.5-.1,2.24.08,1.37.24,2.73.4,4.1.29,2.46.5,4.94,1,7.39a20.69,20.69,0,0,1,.09,3.94c0,.44,0,.88,0,1.32,0,.74,0,1.48,0,2.23Zm8.76-13.23a1.41,1.41,0,0,0,.59-1.63,3.93,3.93,0,0,1,.29-2.62c.17-.47.11-.81-.54-1.13-.12.77-.29,1.47-.33,2.18C118.45,40.17,118.49,41.2,118.49,42.36Zm2.39,7,.19-3.07-.2,0c-.08.11-.2.21-.23.33-.21.74-.41,1.48-.57,2.23C120,49.28,120.36,49.49,120.88,49.39Zm.8-12.87-.21,0a2.54,2.54,0,0,0-.29.69,10.16,10.16,0,0,0,0,1.56,1.64,1.64,0,0,0,.25.54c.12-.21.33-.42.35-.64a11,11,0,0,0-.08-1.27C121.67,37.08,121.68,36.8,121.68,36.52Zm-13.9-9.93c.87.12,1-.11.68-1C107.71,25.62,108.11,26.26,107.78,26.59Z"/><path class="cls-1" d="M153.31,22.36c-.11.14-.21.38-.34.41a20.22,20.22,0,0,1-2.71.26c.83-.63,2-.39,2.84-.84Z"/><path class="cls-1" d="M155.57,22.06a1.26,1.26,0,0,1-1.18.54c-.06,0-.14-.13-.12-.18s.11-.2.18-.21C154.79,22.15,155.13,22.12,155.57,22.06Z"/><path class="cls-1" d="M118.49,42.36c0-1.16,0-2.19,0-3.2,0-.71.21-1.41.33-2.18.65.32.71.66.54,1.13a3.93,3.93,0,0,0-.29,2.62A1.41,1.41,0,0,1,118.49,42.36Z"/><path class="cls-1" d="M120.88,49.39c-.52.1-.9-.11-.81-.54.16-.75.36-1.49.57-2.23,0-.12.15-.22.23-.33l.2,0Z"/><path class="cls-1" d="M121.68,36.52c0,.28,0,.56,0,.84a11,11,0,0,1,.08,1.27c0,.22-.23.43-.35.64a1.64,1.64,0,0,1-.25-.54,10.16,10.16,0,0,1,0-1.56,2.54,2.54,0,0,1,.29-.69Z"/><path class="cls-1" d="M107.78,26.59c.33-.33-.07-1,.68-1C108.78,26.48,108.65,26.71,107.78,26.59Z"/><path d="M131.33,104.8c.18.2.72-.14.78.41a1.47,1.47,0,0,0-.28.14c-.41.29-.92.46-.72,1.16.09.28-.24.79-.53,1s-.73.06-1.1-.21-.52-.53-.36-1a.36.36,0,0,0-.21-.48c-.19-.1-.18-.54-.26-.83-.14-.48-.27-1-.43-1.44s-.29-.86-.45-1.29-.41-1-.59-1.49-.26-.92-.44-1.37-.44-1-.71-1.67c-.46.49-.84.86-1.17,1.26s-.79,1.06-1.17,1.6c-.25.37-.44.76-.69,1.12s-.73.92-1,1.42a14.52,14.52,0,0,0-1,1.89.55.55,0,0,0,.12.54c.35.24.25.5.18.78-.18.62-.5.9-1,.83-.17,0-.32-.19-.5-.27a2.55,2.55,0,0,0-.39-.13c.12-.58.12-.58,0-.66-.07-.43-.11-.78-.18-1.11s-.15-.71-.24-1-.26-.64-.75-.53c-.11,0-.23,0-.34,0-.86,0-1.27-.54-.94-1.22l-3.26-7.8-.12,0,.18-.25c-.37-.9-.72-1.72-1.06-2.54s-.62-1.59-1-2.37-.73-1.35-1-2.06a19.13,19.13,0,0,1-.66-2.47.65.65,0,0,1,.47-.77c.39-.13,1.08,0,1.2.33s-.14.4-.21.61h-.21c.24.74.46,1.48.72,2.21,0,.1.22.16.34.24.27.15.67.24.78.46.57,1.1,1,2.24,1.57,3.36a6.05,6.05,0,0,0,.4.63,2.73,2.73,0,0,1,.26.43A11.86,11.86,0,0,0,116.1,94a12.26,12.26,0,0,1,.88,2.13c.23.57.54,1.11.82,1.66a4.46,4.46,0,0,1,.41.89c.19.83,1,1.43,1,2.36a3.47,3.47,0,0,0,.59,1.29c.15.27,0,.72.59.76.17-.27.37-.56.54-.87.5-.89,1-1.79,1.48-2.68.26-.47.56-.92.85-1.38.05-.08.13-.15.14-.23.1-1.06.91-1.51,1.8-1.92a1.65,1.65,0,0,0,1-1,.87.87,0,0,1,1.27-.38,1.43,1.43,0,0,0,.62.24c.56,0,.82.27.71.81a3.39,3.39,0,0,0,.35,1.9c.15.42.25.85.39,1.28s.37,1,.53,1.49c.07.21.08.45.15.66a.38.38,0,0,0,.23.26c.08,0,.24-.09.29-.18.45-.8.86-1.61,1.33-2.4s1.13-1.84,1.69-2.76c.21-.34.39-.69.58-1,.41-.72.83-1.44,1.23-2.17.27-.49.51-1,.78-1.49.14-.24.32-.46.48-.69,0-.06.12-.11.15-.18a27.35,27.35,0,0,1,1.89-3.15c.29-.43.45-.93.7-1.39s.52-.86.76-1.3c.05-.1,0-.25,0-.38l-.17-.06.45-.22c0-.55.39-1,1.11-1.11a1,1,0,0,0,.79-.66,1.54,1.54,0,0,1,.53-.75,1,1,0,0,1,.83.09.88.88,0,0,1,.33.72c-.06.63-.65,1-1.1,1.34a2,2,0,0,0-.75,1.22.67.67,0,0,1-.38.5c-.63.09-.64.61-.88,1-.09.15-.24.27-.33.42-.5.75-1,1.51-1.48,2.27s-1.1,1.75-1.63,2.64c-.24.41-.44.85-.66,1.27s-.39.71-.57,1.08-.37.85-.6,1.26c-.54.95-1.15,1.86-1.65,2.82a16.54,16.54,0,0,0-.74,1.92.35.35,0,0,1-.07.12,15.4,15.4,0,0,0-1.56,3A8.68,8.68,0,0,0,131.33,104.8Zm-3.72-7.1.2,0c.22-.58-.46-1-.31-1.65-.19.12-.39.3-.35.42A11.91,11.91,0,0,0,127.61,97.7Z"/><path d="M198,91.59c0,.41,0,.81,0,1.21-.07,1.52-.13,3-.21,4.55,0,.8-.07,1.59-.16,2.38s-.32,1.79-.43,2.69a8,8,0,0,0-.06,1.55c0,.56-.73,1.65-1.21,1.6-.27,0-.68-.13-.75-.3s.08-.55.15-.82c.11-.51.24-1,.36-1.53,0-.19.08-.39.13-.58a3.63,3.63,0,0,0,.23-.68c0-.13-.16-.29-.28-.39-.28-.23-.59-.42-.87-.65a.26.26,0,0,1,0-.27A4.92,4.92,0,0,0,195,97.8a11.52,11.52,0,0,1,0-1.18c.07-.9.16-1.79.23-2.69a27.49,27.49,0,0,0,.21-3,17.6,17.6,0,0,1,.33-2.31c.09-1,.06-2,.1-3,0-.73.12-1.45.14-2.17s0-1.36,0-2c0-.51.55-1,1-.73a6.22,6.22,0,0,0,2,.52,4.68,4.68,0,0,1,.67.12c.68.3,1.35,0,2,0,1.53.06,3.06.06,4.59.07,1.06,0,2.13,0,3.19,0a2.12,2.12,0,0,1,.43.06.68.68,0,0,0,.71-.29.82.82,0,0,1,.56-.31c.12,0,.29.29.34.46a4.62,4.62,0,0,1,.11,1,.55.55,0,0,1-.23.4,1.15,1.15,0,0,0-.62,1c-.11.94-.27,1.87-.36,2.81-.06.71,0,1.42,0,2.13,0,.12.15.23.18.36s.05.48.07.73,0,.38,0,.57.12.6,0,.68c-.55.4-.52,1-.58,1.49a12.13,12.13,0,0,0-.06,1.81c0,.9,0,1.8.11,2.7,0,.49.16,1,.22,1.45,0,.16,0,.34,0,.5a2.5,2.5,0,0,0,.16.51c.06.14.18.28.17.4a1.37,1.37,0,0,1-1,.75c-.33,0-1-.41-.89-.7.16-.54-.3-.73-.47-1.09a2.41,2.41,0,0,1-.07-1.41.06.06,0,0,1,0,0c.81-.37.45-1.09.52-1.65.11-1,.09-2,.13-3,0-.34,0-.68,0-1s-.41-.65-.95-.6c-1.24.12-2.48.25-3.72.33s-2.74.18-4.11.2a12.75,12.75,0,0,1-1.85-.19C198.24,91.58,198.16,91.59,198,91.59Zm1.08-9.21c-.52-.09-.77.06-.8.44s-.05,1-.09,1.46-.11.81-.18,1.22c0,.1-.08.21-.08.31,0,.73.12,1.47.13,2.2a14.27,14.27,0,0,1-.16,1.59c0,.37.15.49.51.49,1.07,0,2.15,0,3.23,0A16,16,0,0,0,204,90c1.38-.21,2.75-.51,4.12-.78.63-.13.88-.41.91-1,0-.77,0-1.53,0-2.3s0-1.85-.07-2.77c0-.21.07-.62-.38-.64L206,82.43l-3.55-.05c-.15,0-.3,0-.45,0-.33,0-.66.06-1,.06C200.3,82.45,199.62,82.41,199.07,82.38Zm-2.33,10.5c-.47.43-.65,5-.2,5.45Z"/><path d="M173.32,103.84l.25-1.12a4.11,4.11,0,0,1-.62.28,1,1,0,0,1-1.15-1.08c0-.32,0-.65,0-1a.28.28,0,0,1,.11-.22c.25-.15.28-.32.13-.54,0-.05-.06-.14,0-.17.59-.69.28-1.51.37-2.26.21-1.73.36-3.47.49-5.21.12-1.52.18-3,.27-4.56.06-1,.15-2,.2-3,0-.74,0-1.47,0-2.21a3.43,3.43,0,0,0-.09-.44c0-.28,0-.57.31-.65a1.32,1.32,0,0,1,.86,0,8.1,8.1,0,0,1,2.68,2.78,8.31,8.31,0,0,0,.85,1l0,0c.08.63.75.9,1,1.44A15,15,0,0,0,180,88.5c.22.37.41.75.64,1.12.45.74.89,1.48,1.36,2.21a18,18,0,0,0,1.72,2.72c.43.46.64,1.1,1.05,1.58a1.93,1.93,0,0,1,.62,1.25c0,.09.24.17.32.29.23.33.41.69.64,1,.06.09.19.12.3.18l.08-.11-.29-.33a.92.92,0,0,0,.17-.29c.13-.82.25-1.65.36-2.48s.19-1.45.26-2.18c.1-1.06.15-2.13.26-3.19.06-.62.22-1.24.28-1.86.07-.84.06-1.67.11-2.51.06-1.11.14-2.22.19-3.33,0-.23-.12-.46-.11-.69,0-.52.06-1,.11-1.54a.88.88,0,0,1,1-.82.65.65,0,0,1,.63.76,11.33,11.33,0,0,0-.15,1.17c-.11,1.41-.22,2.81-.31,4.21,0,.76,0,1.52-.07,2.28,0,1-.13,1.94-.17,2.91,0,.67,0,1.35-.06,2-.07.82-.25,1.63-.31,2.45-.08,1.06-.12,2.13-.13,3.2,0,.59.07,1.18.07,1.77,0,.18-.19.35-.23.53-.12.68.48,1,.88,1.38s.46.65,0,1.15a.76.76,0,0,1-1.12,0c-.13-.12-.21-.3-.33-.43a2,2,0,0,0-.36-.23,2.08,2.08,0,0,0-.78-1.21c-.46-.26-.95-.48-1.48-.74l.38-.4-.44-.21c.29-.47.21-.91-.29-1.42a2,2,0,0,1-.5-.77,4,4,0,0,0-.64-1,25.48,25.48,0,0,1-2.56-4,13.74,13.74,0,0,0-.8-1.24c-.35-.59-.65-1.21-1-1.8A12.43,12.43,0,0,0,177.06,87c-.37-.34-.64-.79-1-1.17a10.72,10.72,0,0,0-.83-.82.46.46,0,0,0-.29-.11.31.31,0,0,0-.16.25c0,1.75-.44,3.48-.3,5.24.07.84-.13,1.69-.13,2.54,0,1.69,0,3.38.08,5.07a23.75,23.75,0,0,1,.19,2.51,9.4,9.4,0,0,0,.47,3,.87.87,0,0,1-.33.7.91.91,0,0,1-.71.06A3.45,3.45,0,0,1,173.32,103.84Z"/><path d="M244.34,83.89a7.19,7.19,0,0,0,.1,3,11.37,11.37,0,0,1,.15,1.65c0,.54.17.7.75.66,1.28-.07,2.56-.19,3.84-.23a2.7,2.7,0,0,1,1.19.24c.33.13.27.48,0,.66a1.86,1.86,0,0,1-.86.38,4.67,4.67,0,0,0-1.78.26c-.06,0-.19,0-.28,0a1.38,1.38,0,0,0-.36-.12c-.6,0-1.2,0-1.8,0-.35,0-.42.14-.4.42.1,1.1.2,2.19.28,3.28,0,.38,0,.77,0,1.15a9,9,0,0,0,.15,1.36c0,.11.25.26.4.27a14.86,14.86,0,0,0,3.71,0c.59-.09,1.2-.1,1.79-.15l2.5-.21h.05a4.7,4.7,0,0,0,1.94,0c.19-.07.49.13.6.16a9.33,9.33,0,0,0-.26,1.22.8.8,0,0,1-.83.77c-.78,0-1.57,0-2.35,0-1,0-2,.1-3.05.13-1.64,0-3.29,0-4.93.09-.54,0-1.08.06-1.62.12-.74.07-1-.55-1-1.07s.08-1,.08-1.42-.09-.91-.12-1.36c-.06-.84-.13-1.67-.14-2.5,0-1.22,0-2.44,0-3.66,0-.36.06-.72,0-1.08,0-.76-.14-1.51-.17-2.27,0-1.18,0-2.35-.08-3.52a1.12,1.12,0,0,0,0-.37c-.1-.32-.13-.6.27-.77a.83.83,0,0,1,1,.23c.23.31.49.29.8.3.93,0,1.86.06,2.78,0s1.77-.14,2.65-.22,1.82-.15,2.73-.24c1.19-.1,2.37-.27,3.56-.3.67,0,1.31-.17,2-.23.45,0,1.5.6,1.57,1a.61.61,0,0,1-.53.78A38.47,38.47,0,0,1,253,83.55c-1.19.13-2.4.21-3.6.25C247.71,83.86,246,83.86,244.34,83.89Zm2.18-1.26c1.58.45,8.06-.13,8.77-.79Zm-2.76,12.9.14-.08a2,2,0,0,1-.08-.4c0-1.23-.06-2.46-.09-3.69a3,3,0,0,0-.15-.57l-.17,0c0,.66-.13,1.31-.11,2,0,.82.15,1.63.24,2.45C243.56,95.34,243.69,95.43,243.76,95.53Z"/><path d="M281.37,90.11c0,.78,0,1.5-.07,2.22-.07,1.07-.18,2.13-.25,3.2s-.13,2-.15,3,0,1.84.06,2.76a.61.61,0,0,0,.08.3c.17.25.09.4-.07.65a2.61,2.61,0,0,0-.29,1.1c0,.34-.05.61-.47.68s-1-.23-1-.58a10.18,10.18,0,0,1,.09-1.23c0-.23,0-.38-.28-.49-.52-.2-.63-.52-.56-1.06,0-.28,0-.56.33-.73.09,0,.08-.32.08-.48-.05-1.13-.13-2.26-.15-3.38,0-1.28,0-2.56,0-3.85,0-.78-.08-1.57-.12-2.36a.89.89,0,0,1,0-.23A10.67,10.67,0,0,0,279,86c0-.7.16-1.4.13-2.1,0-.88-.18-1.75-.25-2.62a2.42,2.42,0,0,1,.08-1,.47.47,0,0,1,.83-.13c.41.63,1.05.45,1.61.48,1.24,0,2.49.08,3.74.07.68,0,1.37-.13,2.05-.19s1.63-.16,2.45-.22a6.63,6.63,0,0,0,.89,0c.37-.06.86,0,.88-.6,0-.11.49-.34.71-.3a1.47,1.47,0,0,1,.66.52.94.94,0,0,1,.23.52,1.75,1.75,0,0,1-.09.68c-.1.26-.34.49-.37.75-.23,1.69-.43,3.38-.6,5.08a1.15,1.15,0,0,0,.32,1.15c.21.16,0,.9-.3.94s-.79,0-1.19.08l-2.67.32c-.71.1-1.41.22-2.11.3-1.33.15-2.67.27-4,.4A4.64,4.64,0,0,1,281.37,90.11Zm.1-3.09h0a3.94,3.94,0,0,0,0,.69.51.51,0,0,0,.24.38,6,6,0,0,0,2.9.55c1-.15,1.92-.28,2.87-.45a22.71,22.71,0,0,1,2.27-.44.71.71,0,0,0,.79-.72c.12-.92.18-1.85.26-2.78,0-.49,0-1,.08-1.49,0-.32.12-.64.17-1s-.18-.47-.55-.43-.81.08-1.22.11l-2.26.14c-1.6.08-3.2.19-4.8.23-.44,0-.59.15-.6.47C281.57,83.88,281.53,85.45,281.47,87Zm-1.58,3.36,0,1.49A1.09,1.09,0,0,0,279.89,90.38Z"/><path d="M225,100.12l-.7.75a1.21,1.21,0,0,1-.67-1.29c0-1,.09-2,.1-2.94a13.72,13.72,0,0,0-.17-1.53c.28-.2.11-.59.06-1a18.18,18.18,0,0,1,0-2.09c0-1.34.07-2.69.07-4,0-.95-.06-1.89-.14-2.84,0-.12-.27-.32-.42-.33-.95,0-1.91,0-2.86-.07a15,15,0,0,1-4.41-.71c-.32-.13-.66-.22-1-.36-.1-.05-.23-.22-.21-.29a3.76,3.76,0,0,1,.58-1.34c.34-.39.92-.08,1.39-.06,1.22.05,2.44.18,3.67.25s2.4.08,3.6.13a1.06,1.06,0,0,0,1-.4.39.39,0,0,1,.63-.06,1.61,1.61,0,0,0,1.64.38,36.06,36.06,0,0,1,4.28-.13c1,0,1.94,0,2.9-.06a.54.54,0,0,0,.29,0c.5-.39,1.08-.18,1.61-.14a.7.7,0,0,1,.55,1.08.42.42,0,0,0-.05.25c0,.71-.56,1.08-1.34,1a6.41,6.41,0,0,0-1.62.13,55.73,55.73,0,0,1-7,.39c-.82,0-.78,0-.81.78,0,1-.16,2-.21,2.92s0,2-.08,2.93a10.13,10.13,0,0,1-.23,1.32.29.29,0,0,0,0,.09c0,.4.09.8.12,1.2.05.71.09,1.42.13,2.13,0,.35,0,.69,0,1a.6.6,0,0,0,.26.41c.46.24.34.6.3,1a6.09,6.09,0,0,0-.07.85,1,1,0,0,1-1.05.8ZM216.28,83v.24c.82.14,1.63.31,2.46.41s1.89.15,2.84.2a13.53,13.53,0,0,0,1.56,0c.1,0,.2-.17.31-.26-.1-.09-.2-.24-.3-.24-1,0-2,0-3.06-.06-.36,0-.73,0-1.09-.08Zm15.64.5,0-.15s-.05,0-.08,0c-1.82,0-3.65,0-5.48.08-.09,0-.18.13-.27.2.1.08.2.21.31.21.32,0,.65-.07,1-.08.82,0,1.65,0,2.47-.06.35,0,.7,0,1.06,0S231.57,83.54,231.92,83.5Z"/><path d="M159,76.73c.42.51.37.76-.15,1.17a1.9,1.9,0,0,0-.5.52c-.32.55-.6,1.13-.91,1.68-.13.22-.33.41-.45.63a23.19,23.19,0,0,1-1.22,2.38,14,14,0,0,0-1,1.74c-.21.42-.39.85-.58,1.28-.41.91-.8,1.83-1.23,2.74-.63,1.34-1.29,2.66-1.92,4-.46,1-.86,2-1.36,2.92a7,7,0,0,1-.75,1.47,6,6,0,0,0-.6,1.31c-.31.63-.64,1.24-1,1.84-.15.27-.45.47-.57.74a2.27,2.27,0,0,1-.89,1c-.24.15-.36.47-.54.71a9.7,9.7,0,0,0-1.2,1.72c-.25.62-.82.92-1.17,1.41a2.31,2.31,0,0,0-.47,1c-.05.67-.59,1.07-.86,1.61a1.64,1.64,0,0,1-.27.32.94.94,0,0,1-1.47.06.45.45,0,0,1-.13-.23c0-.61.07-1.22,0-1.82,0-.32.12-.32.35-.32a1.24,1.24,0,0,0,1-.77,8,8,0,0,1,.58-.85c.39-.64.76-1.28,1.14-1.93l1.34-2.31a1.37,1.37,0,0,1,.13-.2c.44-.55.91-1.08,1.3-1.66a24.47,24.47,0,0,0,1.29-2.12c.45-.82.82-1.68,1.27-2.5s1-1.77,1.53-2.67c.35-.65.63-1.32,1-2,.24-.48.52-.94.75-1.42s.36-.9.57-1.33.42-.71.61-1.07c.49-.91,1-1.84,1.46-2.75.77-1.41,1.55-2.81,2.31-4.22.26-.48.46-1,.73-1.46A15.85,15.85,0,0,1,158,76a1,1,0,0,1,1.13-.15.56.56,0,0,1,.12.46C159.22,76.46,159.08,76.58,159,76.73Z"/><path d="M294.88,100.71c-.06.21-.09.32-.12.44-.21.75-.43,1.5-.61,2.25a.78.78,0,0,1-.78.63c-.58.07-1.17.13-1.74.23-1,.18-1.37,0-1.81-.8a2.35,2.35,0,0,1-.36-1.7c.16-.56.45-.69,1.05-.61a.51.51,0,0,0,.41-.13c.48-.76,1.32-.79,2.1-1a1.6,1.6,0,0,1,1.41.15A4,4,0,0,1,294.88,100.71Z"/></svg>